<?xml version="1.0" encoding="UTF-8"?>
<svg width="30px" height="30px" viewBox="0 0 30 30" version="1.1" xmlns="http://www.w3.org/2000/svg" xmlns:xlink="http://www.w3.org/1999/xlink">
    <g stroke="none" stroke-width="1" fill="none" fill-rule="evenodd">
        <g transform="translate(-40.000000, -1545.000000)">
            <g transform="translate(40.000000, 1545.000000)">
                <g fill="currentColor">
                    <circle cx="15" cy="15" r="15"></circle>
                </g>
                <g transform="translate(7.500000, 7.500000)" fill="#FFFFFF">
                    <path d="M0,0 L15,0 L15,15 L0,15 L0,0 Z M9.17910448,5.14925373 C8.68452112,5.14925373 8.28358209,5.55019276 8.28358209,6.04477612 C8.28358209,6.53935948 8.68452112,6.94029851 9.17910448,6.94029851 C9.67368784,6.94029851 10.0746269,6.53935948 10.0746269,6.04477612 C10.0746269,5.55019276 9.67368784,5.14925373 9.17910448,5.14925373 Z M9.17910448,8.28358209 C8.68452112,8.28358209 8.28358209,8.68452112 8.28358209,9.17910448 C8.28358209,9.67368784 8.68452112,10.0746269 9.17910448,10.0746269 C9.67368784,10.0746269 10.0746269,9.67368784 10.0746269,9.17910448 C10.0746269,8.68452112 9.67368784,8.28358209 9.17910448,8.28358209 Z M6.04477612,8.28358209 C5.55019276,8.28358209 5.14925373,8.68452112 5.14925373,9.17910448 C5.14925373,9.67368784 5.55019276,10.0746269 6.04477612,10.0746269 C6.53935948,10.0746269 6.94029851,9.67368784 6.94029851,9.17910448 C6.94029851,8.68452112 6.53935948,8.28358209 6.04477612,8.28358209 Z M2.91044776,8.28358209 C2.4158644,8.28358209 2.01492537,8.68452112 2.01492537,9.17910448 C2.01492537,9.67368784 2.4158644,10.0746269 2.91044776,10.0746269 C3.40503112,10.0746269 3.80597015,9.67368784 3.80597015,9.17910448 C3.80597015,8.68452112 3.40503112,8.28358209 2.91044776,8.28358209 Z M2.91044776,11.4179104 C2.4158644,11.4179104 2.01492537,11.8188495 2.01492537,12.3134328 C2.01492537,12.8080162 2.4158644,13.2089552 2.91044776,13.2089552 C3.40503112,13.2089552 3.80597015,12.8080162 3.80597015,12.3134328 C3.80597015,11.8188495 3.40503112,11.4179104 2.91044776,11.4179104 Z M9.17910448,11.4179104 C8.68452112,11.4179104 8.28358209,11.8188495 8.28358209,12.3134328 C8.28358209,12.8080162 8.68452112,13.2089552 9.17910448,13.2089552 C9.67368784,13.2089552 10.0746269,12.8080162 10.0746269,12.3134328 C10.0746269,11.8188495 9.67368784,11.4179104 9.17910448,11.4179104 Z M6.04477612,11.4179104 C5.55019276,11.4179104 5.14925373,11.8188495 5.14925373,12.3134328 C5.14925373,12.8080162 5.55019276,13.2089552 6.04477612,13.2089552 C6.53935948,13.2089552 6.94029851,12.8080162 6.94029851,12.3134328 C6.94029851,11.8188495 6.53935948,11.4179104 6.04477612,11.4179104 Z M12.0895522,5.14925373 C11.5949689,5.14925373 11.1940299,5.55019276 11.1940299,6.04477612 C11.1940299,6.53935948 11.5949689,6.94029851 12.0895522,6.94029851 C12.5841356,6.94029851 12.9850746,6.53935948 12.9850746,6.04477612 C12.9850746,5.55019276 12.5841356,5.14925373 12.0895522,5.14925373 Z M12.0895522,8.28358209 C11.5949689,8.28358209 11.1940299,8.68452112 11.1940299,9.17910448 L11.1940299,12.3134328 C11.1940299,12.8080162 11.5949689,13.2089552 12.0895522,13.2089552 C12.5841356,13.2089552 12.9850746,12.8080162 12.9850746,12.3134328 L12.9850746,9.17910448 C12.9850746,8.68452112 12.5841356,8.28358209 12.0895522,8.28358209 Z M2.91044776,1.56716418 C2.4158644,1.56716418 2.01492537,1.96810321 2.01492537,2.46268657 C2.01492537,2.95726993 2.4158644,3.35820896 2.91044776,3.35820896 L12.0895522,3.35820896 C12.5841356,3.35820896 12.9850746,2.95726993 12.9850746,2.46268657 C12.9850746,1.96810321 12.5841356,1.56716418 12.0895522,1.56716418 L2.91044776,1.56716418 Z" ></path>
                </g>
            </g>
        </g>
    </g>
</svg>