<?xml version="1.0" encoding="UTF-8"?>
<svg width="30px" height="30px" viewBox="0 0 30 30" version="1.1" xmlns="http://www.w3.org/2000/svg" xmlns:xlink="http://www.w3.org/1999/xlink">
    <g id="Page-1" stroke="none" stroke-width="1" fill="none" fill-rule="evenodd">
        <g id="Icons-Layout" transform="translate(-40.000000, -1815.000000)">
            <g id="Group-Copy-5" transform="translate(40.000000, 1815.000000)">
                <g id="noun_Alert_369649">
                    <circle id="Oval-Copy-5" fill="currentColor" cx="15" cy="15" r="15"></circle>
                    <g id="iconfinder__business" transform="translate(7.000000, 5.000000)" fill="#FFFFFF" fill-rule="nonzero">
                        <path d="M10.2239419,7.30351438 C9.69557565,6.9201278 8.92334801,6.69648562 8.19176392,6.50479233 C6.93181355,6.15335463 6.15958591,5.89776358 6.03765523,5.19488818 C5.95636811,4.68370607 6.44409083,4.14057508 7.13503136,3.98083067 C7.86661544,3.82108626 8.84206089,3.88498403 9.73621921,4.17252396 C9.98008058,4.26837061 10.3052291,4.14057508 10.3865162,3.94888179 C10.5084469,3.7571885 10.3458726,3.50159744 10.1020113,3.43769968 C9.57364497,3.27795527 9.04527869,3.18210863 8.51691241,3.11821086 L8.51691241,2.41533546 C8.51691241,2.19169329 8.27305104,2 7.98854612,2 C7.7040412,2 7.46017984,2.19169329 7.46017984,2.41533546 L7.46017984,3.11821086 C7.21631848,3.15015974 7.01310067,3.18210863 6.80988287,3.21405751 C5.63121962,3.46964856 4.85899198,4.39616613 5.02156622,5.29073482 C5.22478402,6.53674121 6.68795219,6.9201278 7.82597188,7.23961661 C8.47626885,7.4313099 9.12656581,7.59105431 9.49235785,7.87859425 C9.81750634,8.1341853 10.0207241,8.42172524 9.98008058,8.77316294 C9.98008058,9.09265176 9.77686278,9.41214058 9.45171429,9.63578275 C9.08592225,9.8913738 8.55755597,10.0511182 7.907259,10.0830671 C7.41953628,10.115016 6.85052643,10.0511182 6.15958591,9.95527157 C5.99701167,9.92332268 5.79379387,9.8913738 5.67186318,9.85942492 C5.38735826,9.79552716 5.10285334,9.92332268 5.02156622,10.115016 C4.9402791,10.3386581 5.10285334,10.5623003 5.3467147,10.6261981 C5.5499325,10.6900958 5.7531503,10.6900958 5.95636811,10.7220447 C6.48473439,10.7859425 6.97245711,10.8498403 7.41953628,10.8498403 L7.41953628,11.5846645 C7.41953628,11.8083067 7.66339764,12 7.94790256,12 C8.23240748,12 8.47626885,11.8083067 8.47626885,11.5846645 L8.47626885,10.8498403 C9.16720937,10.7539936 9.69557565,10.5623003 10.1426548,10.2428115 C10.6710211,9.85942492 10.9961696,9.34824281 10.9961696,8.80511182 C11.0368131,8.23003195 10.7523082,7.71884984 10.2239419,7.30351438 Z" id="Path"></path>
                        <path d="M15.2600282,4.032 L15.2253095,4 C13.1074735,0.288 9.32314341,0 8.21214743,0 C8.10799156,0 8.07327294,0 8.00383569,0 C7.96911706,0 7.89967981,0 7.79552394,0 C6.68452796,0 2.90019791,0.288 0.747643199,4 L0.747643199,4.032 C0.67820595,4.192 -1.19659976,7.872 1.26842256,11.584 C1.33785981,11.68 2.62244891,13.536 2.79604203,13.76 C2.86547928,13.856 2.96963516,14.304 3.00435378,14.784 L3.00435378,16.576 C3.00435378,16.8 3.00435378,17.056 3.00435378,17.312 C3.03907241,18.016 3.55985177,18.528 4.28894288,18.624 C4.6014105,18.656 4.94859674,18.688 5.39993886,18.72 C5.43465748,18.72 5.43465748,18.72 5.43465748,18.72 C5.8859996,19.488 6.85812108,20 7.96911706,20 C8.48989643,20 9.01067579,19.872 9.42729928,19.648 C9.8786414,19.424 10.191109,19.104 10.4341394,18.72 C10.468858,18.72 10.468858,18.72 10.5382953,18.72 C10.8854815,18.72 11.1632305,18.688 11.4062609,18.688 C12.3783824,18.592 12.968599,17.952 12.9338803,17.024 C12.9338803,16.864 12.8991617,16.736 12.8991617,16.608 C12.8644431,16.48 12.8644431,16.352 12.8644431,16.256 C12.8644431,16.16 12.8644431,15.936 12.8991617,15.68 C12.8991617,15.328 12.9338803,14.784 12.9338803,14.688 C12.968599,14.368 13.0380362,13.984 13.1769107,13.792 C13.3505038,13.568 14.6350929,11.712 14.7045302,11.616 C17.2042711,7.872 15.3294654,4.192 15.2600282,4.032 Z M14.0101577,11.168 C13.9407204,11.264 12.6561313,13.12 12.4825382,13.312 C12.2395079,13.664 12.1700706,14.144 12.1006334,14.56 C12.1006334,14.688 12.0659147,15.072 12.0659147,15.648 C12.0659147,15.904 12.0659147,16.096 12.0659147,16.192 C12.0659147,16.352 12.0659147,16.512 12.1006334,16.704 C12.1006334,16.8 12.135352,16.928 12.135352,17.056 C12.1700706,17.536 11.9270402,17.824 11.3715422,17.888 C11.1285119,17.92 10.8854815,17.92 10.5730139,17.92 C9.94807865,17.92 9.77448553,18.24 9.7397669,18.368 C9.60089241,18.624 9.39258066,18.816 9.08011304,18.976 C8.76764542,19.136 8.42045918,19.2 8.03855431,19.2 C7.24002595,19.2 6.54565346,18.848 6.26790447,18.304 C6.12902997,18.048 5.8859996,17.92 5.50409473,17.92 C5.08747124,17.888 4.77500362,17.888 4.462536,17.824 C4.15006838,17.792 3.94175664,17.568 3.90703801,17.248 C3.90703801,17.024 3.90703801,16.8 3.90703801,16.576 L3.90703801,16.288 L3.90703801,14.784 C3.87231939,14.4 3.80288214,13.696 3.55985177,13.344 C3.42097727,13.152 2.10166955,11.264 2.0322323,11.2 C-0.189759659,7.872 1.47673431,4.576 1.54617156,4.416 C3.4556959,1.056 6.82340246,0.8 7.79552394,0.8 C7.86496119,0.8 7.93439844,0.8 7.96911706,0.8 L8.00383569,0.8 L8.03855431,0.8 C8.07327294,0.8 8.14271018,0.8 8.21214743,0.8 C9.18426891,0.8 12.5519755,1.056 14.4614998,4.384 L14.4614998,4.416 C14.5656557,4.576 16.197431,7.84 14.0101577,11.168 Z" id="Shape"></path>
                        <path d="M9.81481481,12.84375 L9.18518519,12.84375 C9.07407407,12.84375 9,12.90625 9,13 C9,13.09375 9.07407407,13.15625 9.18518519,13.15625 L9.81481481,13.15625 C9.92592593,13.15625 10,13.09375 10,13 C10,12.90625 9.92592593,12.84375 9.81481481,12.84375 Z" id="Path"></path>
                        <path d="M8.78991597,12.84375 L4.21008403,12.84375 C4.08403361,12.84375 4,12.90625 4,13 C4,13.09375 4.08403361,13.15625 4.21008403,13.15625 L8.78991597,13.15625 C8.91596639,13.15625 9,13.09375 9,13 C9,12.90625 8.91596639,12.84375 8.78991597,12.84375 Z" id="Path"></path>
                    </g>
                </g>
            </g>
        </g>
    </g>
</svg>