<?xml version="1.0" encoding="UTF-8"?>
<svg width="30px" height="30px" viewBox="0 0 30 30" version="1.1" xmlns="http://www.w3.org/2000/svg" xmlns:xlink="http://www.w3.org/1999/xlink">
    <g id="Page-1" stroke="none" stroke-width="1" fill="none" fill-rule="evenodd">
        <g id="Icons-Layout" transform="translate(-235.000000, -1815.000000)">
            <g id="Group-Copy-4" transform="translate(235.000000, 1815.000000)">
                <g id="noun_Alert_369649">
                    <circle id="Oval-Copy-5" fill="currentColor" cx="15" cy="15" r="15"></circle>
                    <g id="Add_Person" transform="translate(10.000000, 10.000000)" fill="#FFFFFF">
                        <path d="M0.164138372,9.92677849 L9.89754771,9.92677849 L9.89754771,7.48365023 C9.89754771,6.82962881 9.29675369,6.2994397 8.55563671,6.2994397 L1.50604937,6.2994397 C0.76493239,6.2994397 0.164138372,6.82962881 0.164138372,7.48365023 L0.164138372,9.92677849 Z" id="Rectangle"></path>
                        <circle id="Oval-Copy" cx="4.90962981" cy="2.22978947" r="2"></circle>
                    </g>
                    <g id="iconfinder_part-of-lifecycle" transform="translate(5.000000, 5.000000)" fill="#FFFFFF" fill-rule="nonzero">
                        <path d="M17.185625,5 L13.75,5 C13.404375,5 13.125,4.72 13.125,4.375 C13.125,4.03 13.404375,3.75 13.75,3.75 L16.875,3.75 L16.875,0.625 C16.875,0.28 17.154375,0 17.5,0 C17.845625,0 18.125,0.28 18.125,0.625 L18.125,4.060625 C18.125,4.57875 17.70375,5 17.185625,5 Z M10,20 C4.48625,20 0,15.51375 0,10 C0,4.48625 4.48625,0 10,0 C12.67125,0 15.183125,1.040625 17.070625,2.929375 C17.315,3.17375 17.315,3.569375 17.070625,3.813125 C16.82625,4.0575 16.43125,4.0575 16.186875,3.813125 C14.535,2.16 12.3375,1.25 10,1.25 C5.175,1.25 1.25,5.175 1.25,10 C1.25,14.825 5.175,18.75 10,18.75 C14.825,18.75 18.75,14.825 18.75,10 C18.75,9.655 19.029375,9.375 19.375,9.375 C19.720625,9.375 20,9.655 20,10 C20,15.51375 15.51375,20 10,20 Z" id="Shape"></path>
                    </g>
                </g>
            </g>
        </g>
    </g>
</svg>