<?xml version="1.0" encoding="UTF-8"?>
<svg width="30px" height="30px" viewBox="0 0 30 30" version="1.1" xmlns="http://www.w3.org/2000/svg" xmlns:xlink="http://www.w3.org/1999/xlink">
    <g id="Page-1" stroke="none" stroke-width="1" fill="none" fill-rule="evenodd">
        <g id="Icons-Layout" transform="translate(-300.000000, -1695.000000)">
            <g id="Group-Copy-8" transform="translate(300.000000, 1695.000000)">
                <g id="noun_Alert_369649">
                    <circle id="Oval-Copy-5" fill="currentColor" cx="15" cy="15" r="15"></circle>
                    <g id="Group-34" transform="translate(3.000000, 2.000000)">
                        <rect id="Rectangle" stroke="#979797" fill="#D8D8D8" opacity="0" x="0.5" y="1.5" width="23" height="23"></rect>
                        <g id="Group-2" transform="translate(4.000000, 0.000000)">
                            <rect id="Rectangle" stroke="#979797" fill="#D8D8D8" opacity="0" x="0.5" y="0.5" width="15" height="15"></rect>
                            <g id="Group" transform="translate(0.000000, 3.000000)" fill="#FFFFFF" stroke="#FFFFFF" stroke-width="0.8">
                                <g id="Add_Person" transform="translate(2.332331, 0.000000)">
                                    <path d="M1.39867729,10.1914926 L10.156572,10.1914926 L10.156572,7.68321423 C10.156572,7.01175224 9.61599159,6.46742476 8.9491518,6.46742476 L2.60609752,6.46742476 C1.93925774,6.46742476 1.39867729,7.01175224 1.39867729,7.68321423 L1.39867729,10.1914926 Z" id="Rectangle"></path>
                                    <ellipse id="Oval-Copy" cx="5.64492807" cy="2.28925053" rx="2.18947368" ry="2.05333333"></ellipse>
                                    <ellipse id="Oval-Copy" cx="10.0280702" cy="3.76444444" rx="1.45964912" ry="1.36888889"></ellipse>
                                    <ellipse id="Oval-Copy" transform="translate(1.459649, 3.764444) scale(-1, 1) translate(-1.459649, -3.764444) " cx="1.45964912" cy="3.76444444" rx="1.45964912" ry="1.36888889"></ellipse>
                                </g>
                                <g id="Add_Person-Copy" transform="translate(13.090226, 6.502222)">
                                    <path d="M0.529714573,2.36581478 L3.02692662,2.35999404 L3.02692662,0.746511036 C3.02692662,0.314584287 2.80168477,-0.0355615168 2.52383486,-0.0355615168 C0.935987653,-0.0551514978 0.142064048,-0.0649464884 0.142064048,-0.0649464884 C0.142064048,-0.0649464884 0.529714573,0.320405026 0.529714573,0.752331774 L0.529714573,2.36581478 Z" id="Rectangle"></path>
                                </g>
                                <g id="Add_Person-Copy-2" transform="translate(2.427068, 8.002222) scale(-1, 1) translate(-2.427068, -8.002222) translate(0.427068, 6.502222)">
                                    <path d="M1.66281722,2.3284104 L4.2509682,2.3284104 L4.2509682,0.714927393 C4.2509682,0.283000645 4.02572635,-0.0671451591 3.74787644,-0.0671451591 C2.09940328,-0.0906156328 1.27516669,-0.10235087 1.27516669,-0.10235087 C1.27516669,-0.10235087 1.66281722,0.283000645 1.66281722,0.714927393 L1.66281722,2.3284104 Z" id="Rectangle"></path>
                                </g>
                            </g>
                        </g>
                        <g id="Group-33" transform="translate(1.920000, 13.960000)" fill="#FFFFFF" fill-rule="nonzero">
                            <g id="iconfinder__hr1" transform="translate(0.000000, 0.872727)">
                                <g id="Group">
                                    <path d="M3.276,7.91738182 L0.84,7.91738182 C0.588,7.91738182 0.42,7.75243636 0.42,7.50501818 L0.42,0.989672727 C0.42,0.742254545 0.588,0.577309091 0.84,0.577309091 L3.276,0.577309091 C3.696,0.577309091 3.948,0.9072 3.948,1.23709091 L3.948,7.17512727 C4.032,7.58749091 3.696,7.91738182 3.276,7.91738182 Z M1.26,7.09265455 L3.192,7.09265455 L3.192,1.40203636 L1.26,1.40203636 L1.26,7.09265455 Z" id="Shape"></path>
                                    <path d="M11.592,7.99985455 L11.592,7.99985455 C10.416,7.99985455 7.98,7.75243636 6.048,7.50501818 C4.956,7.42254545 4.032,7.2576 3.528,7.2576 C3.276,7.2576 3.108,7.09265455 3.108,6.84523636 L3.108,1.8144 C3.108,1.64945455 3.192,1.48450909 3.36,1.40203636 C3.948,1.23709091 5.04,0.9072 6.216,0.9072 C6.804,0.9072 7.308,0.989672727 7.812,1.07214545 C9.408,1.48450909 11.004,1.56698182 11.844,1.56698182 C12.348,1.56698182 12.852,1.56698182 13.188,1.48450909 C13.86,1.40203636 14.448,1.64945455 14.7,2.14429091 C14.868,2.39170909 14.868,2.63912727 14.868,2.96901818 C15.624,2.63912727 16.716,2.22676364 17.304,1.89687273 C17.64,1.73192727 17.976,1.56698182 18.312,1.56698182 C19.068,1.56698182 19.572,2.06181818 19.656,2.55665455 C19.824,3.29890909 19.488,3.87621818 18.564,4.37105455 C18.396,4.45352727 18.06,4.70094545 17.556,4.94836364 C15.372,6.3504 13.104,7.75243636 12.012,7.91738182 C12.012,7.99985455 11.844,7.99985455 11.592,7.99985455 Z M4.032,6.43287273 C4.536,6.51534545 5.292,6.59781818 6.216,6.68029091 C8.148,6.92770909 10.5,7.17512727 11.676,7.17512727 C11.676,7.17512727 11.676,7.17512727 11.676,7.17512727 C11.844,7.17512727 12.012,7.17512727 12.096,7.17512727 C13.104,7.01018182 15.876,5.19578182 17.22,4.37105455 C17.64,4.04116364 18.06,3.87621818 18.228,3.71127273 C18.984,3.29890909 18.9,2.96901818 18.9,2.80407273 C18.9,2.7216 18.732,2.47418182 18.396,2.47418182 C18.228,2.47418182 18.06,2.55665455 17.808,2.63912727 C16.8,3.21643636 14.532,4.04116364 14.448,4.12363636 C14.28,4.20610909 14.112,4.12363636 13.944,3.95869091 C13.86,3.79374545 13.776,3.6288 13.944,3.46385455 C14.112,3.13396364 14.196,2.80407273 14.028,2.63912727 C13.944,2.47418182 13.692,2.39170909 13.356,2.39170909 C12.936,2.47418182 12.432,2.47418182 11.928,2.47418182 C10.92,2.47418182 9.324,2.39170909 7.644,1.97934545 C7.224,1.89687273 6.804,1.8144 6.3,1.8144 C5.376,1.8144 4.536,1.97934545 3.948,2.14429091 L3.948,6.43287273 L4.032,6.43287273 Z" id="Shape"></path>
                                    <path d="M9.744,5.11330909 C9.744,5.11330909 9.66,5.11330909 9.66,5.11330909 C9.408,5.03083636 9.324,4.86589091 9.408,4.61847273 C9.576,4.12363636 9.912,4.04116364 12.18,3.87621818 C13.86,3.71127273 14.112,3.38138182 14.112,3.38138182 C14.112,3.13396364 14.28,3.05149091 14.532,3.05149091 C14.784,3.05149091 14.952,3.29890909 14.952,3.54632727 C14.952,3.87621818 14.616,4.61847273 12.264,4.78341818 C11.088,4.86589091 10.416,4.94836364 10.248,5.03083636 C9.996,5.03083636 9.912,5.11330909 9.744,5.11330909 Z" id="Path"></path>
                                </g>
                            </g>
                        </g>
                    </g>
                </g>
            </g>
        </g>
    </g>
</svg>