<?xml version="1.0" encoding="UTF-8"?>
<svg width="30px" height="30px" viewBox="0 0 30 30" version="1.1" xmlns="http://www.w3.org/2000/svg" xmlns:xlink="http://www.w3.org/1999/xlink">
    <g id="Page-1" stroke="none" stroke-width="1" fill="none" fill-rule="evenodd">
        <g id="Icons-Layout" transform="translate(-430.000000, -1734.000000)">
            <g id="Group-Copy-3" transform="translate(430.000000, 1734.000000)">
                <g id="noun_Alert_369649">
                    <circle id="Oval-Copy-5" fill="currentColor" cx="15" cy="15" r="15"></circle>
                    <g id="Group-34" transform="translate(3.000000, 3.000000)">
                        <rect id="Rectangle" stroke="#979797" fill="#D8D8D8" opacity="0" x="0.5" y="0.5" width="23" height="23"></rect>
                        <g id="Group-33" transform="translate(1.920000, 1.960000)">
                            <g id="iconfinder__hr1" transform="translate(0.000000, 11.872727)" fill="#FFFFFF" fill-rule="nonzero">
                                <g id="Group">
                                    <path d="M3.276,7.91738182 L0.84,7.91738182 C0.588,7.91738182 0.42,7.75243636 0.42,7.50501818 L0.42,0.989672727 C0.42,0.742254545 0.588,0.577309091 0.84,0.577309091 L3.276,0.577309091 C3.696,0.577309091 3.948,0.9072 3.948,1.23709091 L3.948,7.17512727 C4.032,7.58749091 3.696,7.91738182 3.276,7.91738182 Z M1.26,7.09265455 L3.192,7.09265455 L3.192,1.40203636 L1.26,1.40203636 L1.26,7.09265455 Z" id="Shape"></path>
                                    <path d="M11.592,7.99985455 L11.592,7.99985455 C10.416,7.99985455 7.98,7.75243636 6.048,7.50501818 C4.956,7.42254545 4.032,7.2576 3.528,7.2576 C3.276,7.2576 3.108,7.09265455 3.108,6.84523636 L3.108,1.8144 C3.108,1.64945455 3.192,1.48450909 3.36,1.40203636 C3.948,1.23709091 5.04,0.9072 6.216,0.9072 C6.804,0.9072 7.308,0.989672727 7.812,1.07214545 C9.408,1.48450909 11.004,1.56698182 11.844,1.56698182 C12.348,1.56698182 12.852,1.56698182 13.188,1.48450909 C13.86,1.40203636 14.448,1.64945455 14.7,2.14429091 C14.868,2.39170909 14.868,2.63912727 14.868,2.96901818 C15.624,2.63912727 16.716,2.22676364 17.304,1.89687273 C17.64,1.73192727 17.976,1.56698182 18.312,1.56698182 C19.068,1.56698182 19.572,2.06181818 19.656,2.55665455 C19.824,3.29890909 19.488,3.87621818 18.564,4.37105455 C18.396,4.45352727 18.06,4.70094545 17.556,4.94836364 C15.372,6.3504 13.104,7.75243636 12.012,7.91738182 C12.012,7.99985455 11.844,7.99985455 11.592,7.99985455 Z M4.032,6.43287273 C4.536,6.51534545 5.292,6.59781818 6.216,6.68029091 C8.148,6.92770909 10.5,7.17512727 11.676,7.17512727 C11.676,7.17512727 11.676,7.17512727 11.676,7.17512727 C11.844,7.17512727 12.012,7.17512727 12.096,7.17512727 C13.104,7.01018182 15.876,5.19578182 17.22,4.37105455 C17.64,4.04116364 18.06,3.87621818 18.228,3.71127273 C18.984,3.29890909 18.9,2.96901818 18.9,2.80407273 C18.9,2.7216 18.732,2.47418182 18.396,2.47418182 C18.228,2.47418182 18.06,2.55665455 17.808,2.63912727 C16.8,3.21643636 14.532,4.04116364 14.448,4.12363636 C14.28,4.20610909 14.112,4.12363636 13.944,3.95869091 C13.86,3.79374545 13.776,3.6288 13.944,3.46385455 C14.112,3.13396364 14.196,2.80407273 14.028,2.63912727 C13.944,2.47418182 13.692,2.39170909 13.356,2.39170909 C12.936,2.47418182 12.432,2.47418182 11.928,2.47418182 C10.92,2.47418182 9.324,2.39170909 7.644,1.97934545 C7.224,1.89687273 6.804,1.8144 6.3,1.8144 C5.376,1.8144 4.536,1.97934545 3.948,2.14429091 L3.948,6.43287273 L4.032,6.43287273 Z" id="Shape"></path>
                                    <path d="M9.744,5.11330909 C9.744,5.11330909 9.66,5.11330909 9.66,5.11330909 C9.408,5.03083636 9.324,4.86589091 9.408,4.61847273 C9.576,4.12363636 9.912,4.04116364 12.18,3.87621818 C13.86,3.71127273 14.112,3.38138182 14.112,3.38138182 C14.112,3.13396364 14.28,3.05149091 14.532,3.05149091 C14.784,3.05149091 14.952,3.29890909 14.952,3.54632727 C14.952,3.87621818 14.616,4.61847273 12.264,4.78341818 C11.088,4.86589091 10.416,4.94836364 10.248,5.03083636 C9.996,5.03083636 9.912,5.11330909 9.744,5.11330909 Z" id="Path"></path>
                                </g>
                            </g>
                            <g id="iconfinder__hr1-copy" transform="translate(10.160000, 7.360000) scale(-1, -1) translate(-10.160000, -7.360000) translate(0.160000, 0.360000)">
                                <g id="Group" transform="translate(0.000000, 5.760000)" fill="#FFFFFF" fill-rule="nonzero">
                                    <path d="M3.276,7.91738182 L0.84,7.91738182 C0.588,7.91738182 0.42,7.75243636 0.42,7.50501818 L0.42,0.989672727 C0.42,0.742254545 0.588,0.577309091 0.84,0.577309091 L3.276,0.577309091 C3.696,0.577309091 3.948,0.9072 3.948,1.23709091 L3.948,7.17512727 C4.032,7.58749091 3.696,7.91738182 3.276,7.91738182 Z M1.26,7.09265455 L3.192,7.09265455 L3.192,1.40203636 L1.26,1.40203636 L1.26,7.09265455 Z" id="Shape"></path>
                                    <path d="M11.592,7.99985455 C10.416,7.99985455 7.98,7.75243636 6.048,7.50501818 C4.956,7.42254545 4.032,7.2576 3.528,7.2576 C3.276,7.2576 3.108,7.09265455 3.108,6.84523636 L3.108,1.8144 C3.108,1.64945455 3.192,1.48450909 3.36,1.40203636 C3.948,1.23709091 5.04,0.9072 6.216,0.9072 C6.804,0.9072 7.308,0.989672727 7.812,1.07214545 C9.408,1.48450909 11.004,1.56698182 11.844,1.56698182 C12.348,1.56698182 12.852,1.56698182 13.188,1.48450909 C13.86,1.40203636 14.448,1.64945455 14.7,2.14429091 C14.868,2.39170909 14.868,2.63912727 14.868,2.96901818 C15.624,2.63912727 16.716,2.22676364 17.304,1.89687273 C17.64,1.73192727 17.976,1.56698182 18.312,1.56698182 C19.068,1.56698182 19.572,2.06181818 19.656,2.55665455 C19.824,3.29890909 19.488,3.87621818 18.564,4.37105455 C18.396,4.45352727 18.06,4.70094545 17.556,4.94836364 C15.372,6.3504 13.104,7.75243636 12.012,7.91738182 C12.012,7.99985455 11.844,7.99985455 11.592,7.99985455 Z M4.032,6.43287273 C4.536,6.51534545 5.292,6.59781818 6.216,6.68029091 C8.148,6.92770909 10.5,7.17512727 11.676,7.17512727 C11.676,7.17512727 11.676,7.17512727 11.676,7.17512727 C11.844,7.17512727 12.012,7.17512727 12.096,7.17512727 C13.104,7.01018182 15.876,5.19578182 17.22,4.37105455 C17.64,4.04116364 18.06,3.87621818 18.228,3.71127273 C18.984,3.29890909 18.9,2.96901818 18.9,2.80407273 C18.9,2.7216 18.732,2.47418182 18.396,2.47418182 C18.228,2.47418182 18.06,2.55665455 17.808,2.63912727 C16.8,3.21643636 14.532,4.04116364 14.448,4.12363636 C14.28,4.20610909 14.112,4.12363636 13.944,3.95869091 C13.86,3.79374545 13.776,3.6288 13.944,3.46385455 C14.112,3.13396364 14.196,2.80407273 14.028,2.63912727 C13.944,2.47418182 13.692,2.39170909 13.356,2.39170909 C12.936,2.47418182 12.432,2.47418182 11.928,2.47418182 C10.92,2.47418182 9.324,2.39170909 7.644,1.97934545 C7.224,1.89687273 6.804,1.8144 6.3,1.8144 C5.376,1.8144 4.536,1.97934545 3.948,2.14429091 L3.948,6.43287273 L4.032,6.43287273 Z" id="Shape"></path>
                                    <path d="M9.744,5.11330909 C9.744,5.11330909 9.66,5.11330909 9.66,5.11330909 C9.408,5.03083636 9.324,4.86589091 9.408,4.61847273 C9.576,4.12363636 9.912,4.04116364 12.18,3.87621818 C13.86,3.71127273 14.112,3.38138182 14.112,3.38138182 C14.112,3.13396364 14.28,3.05149091 14.532,3.05149091 C14.784,3.05149091 14.952,3.29890909 14.952,3.54632727 C14.952,3.87621818 14.616,4.61847273 12.264,4.78341818 C11.088,4.86589091 10.416,4.94836364 10.248,5.03083636 C9.996,5.03083636 9.912,5.11330909 9.744,5.11330909 Z" id="Path"></path>
                                </g>
                                <g id="Group-32" transform="translate(12.498926, 5.945252) rotate(35.000000) translate(-12.498926, -5.945252) translate(6.498926, 2.945252)" stroke="#FFFFFF">
                                    <path d="M5.55331765,4.23529412 L5.55331765,3.95407059 C5.41101176,3.93712941 5.29581176,3.90324706 5.20771765,3.8592 C5.11962353,3.81515294 5.04169412,3.74061176 4.97731765,3.63896471 C4.91294118,3.53731765 4.87567059,3.41534118 4.86550588,3.26625882 L5.15011765,3.21204706 C5.17044706,3.36451765 5.21110588,3.47632941 5.26531765,3.54748235 C5.34324706,3.64912941 5.44150588,3.70334118 5.54992941,3.71689412 L5.54992941,2.81562353 C5.43472941,2.79529412 5.31614118,2.74785882 5.19416471,2.68009412 C5.10268235,2.62927059 5.03491765,2.56150588 4.98748235,2.47002353 C4.94004706,2.38192941 4.91294118,2.28028235 4.91294118,2.16847059 C4.91294118,1.96856471 4.98409412,1.80592941 5.1264,1.68056471 C5.22127059,1.59585882 5.36357647,1.54503529 5.54992941,1.52809412 L5.54992941,1.39256471 L5.71595294,1.39256471 L5.71595294,1.52809412 C5.87858824,1.54503529 6.01072941,1.59247059 6.1056,1.67378824 C6.22757647,1.77543529 6.30211765,1.91774118 6.32922353,2.09392941 L6.03783529,2.13797647 C6.02089412,2.02616471 5.98701176,1.94145882 5.9328,1.88385882 C5.87858824,1.82625882 5.80743529,1.7856 5.71595294,1.76865882 L5.71595294,2.58183529 C5.85825882,2.61571765 5.95312941,2.64621176 5.99717647,2.66654118 C6.08527059,2.70381176 6.15642353,2.75124706 6.21063529,2.80884706 C6.26484706,2.86305882 6.30889412,2.93082353 6.33938824,3.00536471 C6.36988235,3.08329412 6.38343529,3.16461176 6.38343529,3.25270588 C6.38343529,3.44922353 6.32244706,3.61185882 6.19708235,3.74061176 C6.07171765,3.87275294 5.91247059,3.94051765 5.71256471,3.95068235 L5.71256471,4.23529412 L5.55331765,4.23529412 L5.55331765,4.23529412 Z M5.55331765,1.76527059 C5.44489412,1.78221176 5.3568,1.82625882 5.29242353,1.89741176 C5.22804706,1.96856471 5.19755294,2.05327059 5.19755294,2.14814118 C5.19755294,2.24301176 5.22465882,2.32432941 5.27887059,2.38870588 C5.33308235,2.45308235 5.42456471,2.50390588 5.55331765,2.54456471 L5.55331765,1.76527059 L5.55331765,1.76527059 Z M5.71934118,3.71689412 C5.82776471,3.70334118 5.91924706,3.65590588 5.9904,3.57458824 C6.06155294,3.49327059 6.09882353,3.39162353 6.09882353,3.27303529 C6.09882353,3.17138824 6.07510588,3.08668235 6.02428235,3.02569412 C5.97345882,2.96470588 5.87181176,2.90710588 5.71934118,2.85967059 L5.71934118,3.71689412 L5.71934118,3.71689412 Z" id="Shape" stroke-width="0.2" fill="#FFFFFF" fill-rule="nonzero"></path>
                                    <path d="M9.44869766,4.90009066 C9.3779393,4.08355911 9.09206852,3.67529333 8.59108534,3.67529333 C7.54846978,3.67529333 6.20598405,5.52076863 5.54657608,5.52076863 C4.41189373,5.52076863 2.73696444,5.55759477 0.521788235,5.63124706 C0.233788235,5.63124706 -6.65068001e-13,5.39745882 -6.65068001e-13,5.10945882 L-6.65068001e-13,0.521788235 C0.181210822,0.238474872 0.271019376,0.175590246 0.521788235,-2.00025839e-08 L10.7339294,-2.00025839e-08 C11.0219294,-2.00025839e-08 11.2557775,0.233788235 11.2557775,0.521788235 L10.8152612,2.53050422 C10.8152612,2.81850422 9.73669766,4.90009066 9.44869766,4.90009066 Z" id="Path" stroke-width="0.7" stroke-linecap="round" stroke-linejoin="round"></path>
                                    <circle id="Oval" stroke-width="0.7" stroke-linecap="round" stroke-linejoin="round" cx="5.62785882" cy="2.81562353" r="2.06343529"></circle>
                                </g>
                            </g>
                        </g>
                    </g>
                </g>
            </g>
        </g>
    </g>
</svg>