<?xml version="1.0" encoding="UTF-8"?>
<svg width="30px" height="30px" viewBox="0 0 30 30" version="1.1" xmlns="http://www.w3.org/2000/svg" xmlns:xlink="http://www.w3.org/1999/xlink">
    <g id="Page-1" stroke="none" stroke-width="1" fill="none" fill-rule="evenodd">
        <g id="Mobile" transform="translate(-105.000000, -1545.000000)">
            <g id="Group-2" transform="translate(105.000000, 1545.000000)">
                <circle id="Oval-Copy-2" fill="currentColor" cx="15" cy="15" r="15"></circle>
                <g id="noun_Headphone_2088207" transform="translate(5.000000, 5.000000)" fill="#FFFFFF" fill-rule="nonzero">
                    <g id="Group">
                        <path d="M3.19148,11.06382 L2.5532,11.06382 L2.5532,16.595728 L3.19148,16.595728 C3.54383993,16.595351 3.82939379,16.3098079 3.829784,15.957448 L3.829784,11.702124 C3.82939601,11.3497593 3.54384473,11.064208 3.19148,11.06382 L3.19148,11.06382 Z" id="Path"></path>
                        <path d="M18.510644,11.06382 L18.297876,11.06382 L18.297876,7.87234 C18.2930307,3.52657526 14.7713007,0.00484533176 10.425536,1.77635684e-15 L9.574464,1.77635684e-15 C5.22869926,0.00484533176 1.70696933,3.52657526 1.702124,7.87234 L1.702124,11.06382 L1.489356,11.06382 C0.667220129,11.0648118 0.000994022154,11.7310361 0,12.553172 L0,15.106372 C0.000994017611,15.9285085 0.667219482,16.594734 1.489356,16.595728 L2.12766,16.595728 L2.12766,7.87234 C2.13234859,3.76152957 5.46364957,0.430228588 9.57446,0.42554 L10.425532,0.42554 C14.5363424,0.430228588 17.8676434,3.76152957 17.872332,7.87234 L17.872332,16.595728 L18.510636,16.595728 C19.3327756,16.5947384 19.999006,15.9285116 20,15.106372 L20,12.553172 C19.999006,11.7310361 19.3327799,11.0648118 18.510644,11.06382 Z" id="Path" stroke="#FFFFFF"></path>
                        <path d="M17.4468,16.595728 L17.4468,11.06382 L16.80852,11.06382 C16.4561553,11.064208 16.170604,11.3497593 16.170216,11.702124 L16.170216,15.957448 C16.1706062,16.3098079 16.4561601,16.595351 16.80852,16.595728 L17.4468,16.595728 Z" id="Path"></path>
                        <path d="M11.702124,17.87234 C11.1153923,17.8734777 10.6403548,18.3494372 10.6403548,18.93617 C10.6403548,19.5229028 11.1153923,19.9988623 11.702124,20 C12.371584,20 13.617016,19.453124 13.617016,18.936156 C13.617016,18.419188 12.3716,17.87234 11.702124,17.87234 Z" id="Path"></path>
                        <path d="M17.039136,17.787132 C16.8145308,18.3539054 16.2658281,18.725374 15.656176,18.723388 L14.008472,18.723388 C14.0539131,18.861594 14.0539131,19.010718 14.008472,19.1489338 L15.656176,19.1489338 C16.4399504,19.1514313 17.1453202,18.673772 17.433936,17.945068 L17.803444,17.021264 L17.345484,17.021264 L17.039136,17.787132 Z" id="Path" stroke="#FFFFFF"></path>
                    </g>
                </g>
            </g>
        </g>
    </g>
</svg>