<?xml version="1.0" encoding="UTF-8"?>
<svg width="30px" height="30px" viewBox="0 0 30 30" version="1.1" xmlns="http://www.w3.org/2000/svg" xmlns:xlink="http://www.w3.org/1999/xlink">
    <g id="Page-1" stroke="none" stroke-width="1" fill="none" fill-rule="evenodd">
        <g id="Mobile" transform="translate(-235.000000, -1545.000000)">
            <g id="Group-6" transform="translate(235.000000, 1545.000000)">
                <circle id="Oval-Copy-4" fill="currentColor" cx="15" cy="15" r="15"></circle>
                <g id="Group-2" transform="translate(3.500000, 7.500000)" fill="#FFFFFF">
                    <path d="M0.00957891105,13.7223651 L5.03785272,11.2413318 L5.03785272,7.8392126 C5.03785214,6.45602341 5.75245706,5.17099365 6.92747035,4.44122924 C11.9576177,1.31716026 15.4651256,1.19152138 17.4499939,4.0643126 C17.5166687,9.04387064 17.5166687,12.7584854 17.4499939,15.2081568 C16.6077711,15.5972811 15.9671299,15.5972811 15.5280702,15.2081568 L15.4231292,7.15357605 L10.240437,7.15357605 L10.5363114,7.41548345 C11.8105996,8.54348054 12.2316468,10.3542574 11.5857477,11.9287421 L10.240437,15.2081568 C8.66475807,15.6069252 7.8769186,15.3026475 7.8769186,14.2953238 L10.0989509,10.2482034 L7.35625611,8.17059812 L7.35625611,9.87422496 C7.35625611,11.3983292 6.4901362,12.7899906 5.12269973,13.4630516 L1.57722578,15.2081568 C0.689075151,15.1207489 -0.0961337066,14.9185017 0.00957891105,13.7223651 Z" id="Path-2"></path>
                    <circle id="Oval" cx="20.25" cy="2.25" r="2.25"></circle>
                </g>
            </g>
        </g>
    </g>
</svg>