<?xml version="1.0" encoding="UTF-8"?>
<svg width="30px" height="30px" viewBox="0 0 30 30" version="1.1" xmlns="http://www.w3.org/2000/svg" xmlns:xlink="http://www.w3.org/1999/xlink">
    <g id="Page-1" stroke="none" stroke-width="1" fill="none" fill-rule="evenodd">
        <g id="Icons-Layout" transform="translate(-368.000000, -1734.000000)" fill="currentColor">
            <g id="Group-Copy" transform="translate(368.000000, 1734.000000)">
                <g id="noun_Alert_369649">
                    <g id="iconfinder_Start-Module">
                        <path d="M15,0 C23.2840237,0 30,6.71597633 30,15 C30,23.2840237 23.2840237,30 15,30 C6.71597633,30 0,23.2840237 0,15 C0,6.71597633 6.71597633,0 15,0 Z M16.1686391,7.74408284 L16.1686391,14.4674556 L16.1686391,16.1316568 C16.1686391,16.8195266 15.5991124,17.3816568 14.9112426,17.3816568 L14.9112426,17.3816568 C14.2233728,17.3816568 13.6538462,16.8195266 13.6538462,16.1316568 L13.6538462,14.4674556 L13.6538462,7.74408284 L13.6538462,6.07988166 C13.6538462,5.39201183 14.2233728,4.82988166 14.9112426,4.82988166 L14.9112426,4.82988166 C15.5991124,4.82988166 16.1686391,5.39201183 16.1686391,6.07988166 L16.1686391,7.74408284 Z M14.341716,25.1553254 L14.341716,25.147929 C14.4600592,25.1553254 14.5857988,25.1553254 14.7115385,25.1627219 C14.8076923,25.1627219 14.9038462,25.1627219 15,25.1627219 C15.0961538,25.1627219 15.1923077,25.1627219 15.2884615,25.1627219 C15.4142012,25.1627219 15.5325444,25.1553254 15.658284,25.147929 L15.658284,25.1553254 C21.035503,24.8002959 25.3772189,20.3032544 25.4955621,14.8224852 C25.5843195,10.739645 23.3357988,7.14497041 19.9778107,5.31804734 C19.8890533,5.26627219 20.0073964,5.33284024 19.6819527,5.22189349 C19.5784024,5.19230769 19.4748521,5.17011834 19.3639053,5.16263077 C18.7943787,5.15532544 18.3284024,5.59911243 18.3136095,6.16863905 C18.306213,6.56804734 18.5281065,6.92307692 18.8609467,7.09319527 C19.0310651,7.18195266 19.1050296,7.24112426 19.2529586,7.32988166 C21.7825444,8.8387574 23.454142,11.6198225 23.387574,14.7781065 C23.2914201,19.3639053 19.5636095,23.0251479 15,23.0547337 C10.443787,23.0251479 6.71597633,19.3639053 6.61242604,14.7781065 C6.54585799,11.6272189 8.21745562,8.8387574 10.7470414,7.32988166 C10.8949704,7.24112426 10.9763314,7.18195266 11.1390533,7.09319527 C11.4718935,6.91568047 11.693787,6.56804734 11.6863905,6.16863905 C11.6789941,5.59911243 11.2056213,5.15532544 10.6360947,5.16263077 C10.5251479,5.16263077 10.4215976,5.18491124 10.3180473,5.22189349 C9.99260355,5.33284024 10.1109467,5.27366864 10.0221893,5.31804734 C6.66420118,7.14497041 4.41568047,10.7322485 4.50443787,14.8224852 C4.61538462,20.3032544 8.96449704,24.8002959 14.341716,25.1553254 L14.341716,25.1553254 Z" id="Shape"></path>
                    </g>
                </g>
            </g>
        </g>
    </g>
</svg>