<?xml version="1.0" encoding="UTF-8"?>
<svg width="30px" height="30px" viewBox="0 0 30 30" version="1.1" xmlns="http://www.w3.org/2000/svg" xmlns:xlink="http://www.w3.org/1999/xlink">
    <g id="Page-1" stroke="none" stroke-width="1" fill="none" fill-rule="evenodd">
        <g id="Icons-Layout" transform="translate(-105.000000, -1815.000000)">
            <g id="Group-Copy-6" transform="translate(105.000000, 1815.000000)">
                <g id="noun_Alert_369649">
                    <circle id="Oval-Copy-5" fill="currentColor" cx="15" cy="15" r="15"></circle>
                    <g id="Timer-New-Icon-1.5px-Copy" transform="translate(5.000000, 3.000000)">
                        <circle id="Oval" stroke="#FFFFFF" stroke-width="1.5" cx="9.48275865" cy="12.5172413" r="9.48275865"></circle>
                        <path d="M8.57768841,6.14008595 C8.92573681,6.14215097 9.21185195,6.40248404 9.25539588,6.73831597 L9.26112162,6.83164104 L9.22533333,12.7774167 L13.275862,12.7780172 C13.6239165,12.7780172 13.9115621,13.0366583 13.957086,13.3722276 L13.963362,13.4655172 C13.963362,13.8135717 13.704721,14.1012173 13.3691517,14.1467412 L13.275862,14.1530172 L7.84291589,14.1530172 L7.88614553,6.82353137 C7.88838496,6.44384221 8.19799925,6.13785874 8.57768841,6.14008595 Z" id="Path-2" fill="#FFFFFF" fill-rule="nonzero"></path>
                        <line x1="9.95689655" y1="3.20747622" x2="9.95689655" y2="1.31092449" id="Path-3" stroke="#FFFFFF" stroke-width="1.5"></line>
                        <line x1="18.204399" y1="9.0978727" x2="20.6811088" y2="7.62294789" id="Path-3-Copy" stroke="#FFFFFF" stroke-width="1.5"></line>
                        <line x1="7.11206897" y1="1.09856861" x2="12.8017241" y2="1.09856861" id="Line" stroke="#FFFFFF" stroke-width="1.5" stroke-linecap="round"></line>
                        <line x1="19.8262694" y1="5.91670847" x2="21.8921416" y2="9.0978727" id="Line-Copy" stroke="#FFFFFF" stroke-width="1.5" stroke-linecap="round"></line>
                    </g>
                </g>
            </g>
        </g>
    </g>
</svg>