<?xml version="1.0" encoding="UTF-8"?>
<svg width="30px" height="30px" viewBox="0 0 30 30" version="1.1" xmlns="http://www.w3.org/2000/svg" xmlns:xlink="http://www.w3.org/1999/xlink">
    <!-- Generator: Sketch 55.2 (78181) - https://sketchapp.com -->
    <title>Icon_Performance 3rd</title>
    <desc>Created with Sketch.</desc>
    <g id="Page-1" stroke="none" stroke-width="1" fill="none" fill-rule="evenodd">
        <g id="Mobile" transform="translate(-40.000000, -1371.000000)" fill-rule="nonzero">
            <g id="Icon_Performance-3rd" transform="translate(40.000000, 1371.000000)">
                <circle id="Oval" fill="#D9E3E6" cx="15" cy="15" r="15"></circle>
                <path d="M21.0047651,3.47645789 C22.9574099,4.63040594 24.584483,6.29223635 25.7142857,8.28651646 L23.7775542,9.42857143 L23.7652266,9.42400251 C22.8315385,7.77964565 21.4904249,6.41120258 19.8790601,5.45968195 L19.8865728,5.45455497 L19.8762599,5.45793806 C18.3137958,4.5359584 16.5056332,4 14.5714286,4 L14.5714286,1.71428571 C16.9157906,1.71428571 19.1117435,2.35777064 21.0047651,3.47645789 Z" id="Combined-Shape" fill="#F5C34F"></path>
                <path d="M10.1134273,5.45208772 L10.1206668,5.45738554 C8.50622861,6.41016063 7.16289536,7.78104704 6.22900244,9.42857143 L6.22244589,9.42348273 L4.28571429,8.28218111 C5.41551704,6.28921652 7.04259015,4.62848234 8.99523497,3.47529548 C10.8882565,2.35734616 13.0842094,1.71428571 15.4285714,1.71428571 L15.4285714,3.99849224 C13.4956645,3.99849224 11.6886629,4.53329545 10.1269159,5.45351672 L10.1134273,5.45208772 Z" id="Combined-Shape" fill="#BE0000"></path>
                <path d="M27.4285714,15 C27.4285714,17.3426257 26.8395191,19.536952 25.8154303,21.4285714 L24.0046614,20.3112074 L24,20.3036661 C24.8449468,18.7417109 25.3362068,16.9339663 25.3362068,15 C25.3362068,13.0685588 24.8463197,11.2628958 24.0034163,9.70233959 L24.0046933,9.68879265 L25.8154303,8.57142857 C26.8395191,10.463048 27.4285714,12.6573401 27.4285714,15 Z" id="Combined-Shape" fill="#83CF9A"></path>
                <path d="M4.6629168,15 C4.6629168,16.9350241 5.15454548,18.7436901 6,20.3062254 C5.9991702,20.3069078 5.99387256,20.3112074 5.99387256,20.3112074 L4.183894,21.4285714 C3.16023407,19.536952 2.57142857,17.3426257 2.57142857,15 C2.57142857,12.6573401 3.16023407,10.463048 4.183894,8.57142857 L5.99387256,9.68879265 L5.99776602,9.69773293 C5.15365188,11.2593811 4.6629168,13.0666479 4.6629168,15 Z" id="Combined-Shape" fill="#BE0000"></path>
                <g id="Group" transform="translate(2.571429, 0.857143)" fill="#D9E3E6">
                    <path d="M12.1523809,4.22077922 C11.6949405,4.22077922 11.3238095,3.84294255 11.3238095,3.37662337 L11.3238095,1.12554112 C11.3238095,0.659221952 11.6949405,0.281385282 12.1523809,0.281385282 C12.6098215,0.281385282 12.9809524,0.659221952 12.9809524,1.12554112 L12.9809524,3.37662337 C12.9809524,3.84294255 12.6098215,4.22077922 12.1523809,4.22077922 Z" id="Path"></path>
                    <path d="M21.2418527,9.56737437 C20.9559439,9.56737437 20.6770647,9.41569009 20.5238654,9.14502165 C20.295145,8.74107991 20.4305432,8.22502369 20.8270275,7.9917267 L22.7409412,6.86618558 C23.1363467,6.63371299 23.6439546,6.77110814 23.8726748,7.17532467 C24.101395,7.57926641 23.965997,8.09532263 23.5695126,8.32861961 L21.6555989,9.45416075 C21.5250558,9.53082726 21.382645,9.56737437 21.2418527,9.56737437 Z" id="Path"></path>
                    <path d="M1.15007444,21.3855562 C0.864174149,21.3855562 0.585286506,21.2338719 0.432087074,20.9632034 C0.203366836,20.5592617 0.338764908,20.0432055 0.735249263,19.8099085 L2.64916299,18.6843674 C3.04456848,18.4518949 3.55217636,18.5898395 3.7808966,18.9935065 C4.00961684,19.3974482 3.87421876,19.9135044 3.47773441,20.1468014 L1.56382069,21.2723425 C1.43327755,21.349009 1.29086684,21.3855562 1.15007444,21.3855562 Z" id="Path"></path>
                    <path d="M3.06290924,9.56737437 C2.92211684,9.56737437 2.77970612,9.53082726 2.64916299,9.45416075 L0.735249263,8.32861961 C0.338764908,8.09532263 0.203366836,7.57926641 0.432087074,7.17532467 C0.660807313,6.77110814 1.16841519,6.63371299 1.56382069,6.86618558 L3.47773441,7.9917267 C3.87421876,8.22502369 4.00961684,8.74107991 3.7808966,9.14502165 C3.62769717,9.41569009 3.34880162,9.56737437 3.06290924,9.56737437 Z" id="Path"></path>
                    <path d="M23.1546875,21.3855562 C23.0138951,21.3855562 22.8714844,21.349009 22.7409412,21.2723425 L20.8270275,20.1468014 C20.4305432,19.9135044 20.2951451,19.3974482 20.5238654,18.9935065 C20.7525856,18.5898395 21.2596541,18.4518949 21.6555989,18.6843674 L23.5695127,19.8099085 C23.9659971,20.0432055 24.1013951,20.5592617 23.8726749,20.9632034 C23.7194755,21.2338719 23.4405878,21.3855562 23.1546875,21.3855562 Z" id="Path"></path>
                </g>
                <path d="M20.5714286,20.3571429 L20.5714286,24.2142857 C20.5714286,24.5693255 20.2942712,24.8571429 19.952381,24.8571429 L10.047619,24.8571429 C9.70572883,24.8571429 9.42857143,24.5693255 9.42857143,24.2142857 L9.42857143,20.3571429 C9.42857143,20.002103 9.70572883,19.7142857 10.047619,19.7142857 L19.952381,19.7142857 C20.2942712,19.7142857 20.5714286,20.002103 20.5714286,20.3571429 Z" id="Path" fill="#A3B1B5"></path>
            </g>
        </g>
    </g>
</svg>