<?xml version="1.0" encoding="UTF-8" standalone="no"?>
<!-- Created with Inkscape (http://www.inkscape.org/) -->

<svg
   xmlns:dc="http://purl.org/dc/elements/1.1/"
   xmlns:cc="http://creativecommons.org/ns#"
   xmlns:rdf="http://www.w3.org/1999/02/22-rdf-syntax-ns#"
   xmlns:svg="http://www.w3.org/2000/svg"
   xmlns="http://www.w3.org/2000/svg"
   xmlns:sodipodi="http://sodipodi.sourceforge.net/DTD/sodipodi-0.dtd"
   xmlns:inkscape="http://www.inkscape.org/namespaces/inkscape"
   width="100"
   height="100"
   viewBox="0 0 26.458333 26.458334"
   version="1.1"
   id="svg1088"
   inkscape:version="0.92.4 (5da689c313, 2019-01-14)">
  <defs
     id="defs1082">
    <linearGradient
       id="id1"
       gradientUnits="userSpaceOnUse"
       x1="20138.9"
       y1="3465.52"
       x2="20138.9"
       y2="783.28601"
       gradientTransform="translate(-1701.3762,115.34754)">
      <stop
         offset="0"
         style="stop-opacity:1; stop-color:#FCDC6B"
         id="stop7" />
      <stop
         offset="1"
         style="stop-opacity:1; stop-color:#DF4158"
         id="stop9" />
    </linearGradient>
  </defs>
  <sodipodi:namedview
     id="base"
     pagecolor="#ffffff"
     bordercolor="#666666"
     borderopacity="1.0"
     inkscape:pageopacity="0.0"
     inkscape:pageshadow="2"
     inkscape:zoom="0.35"
     inkscape:cx="-152.85714"
     inkscape:cy="-11.428571"
     inkscape:document-units="mm"
     inkscape:current-layer="layer1"
     showgrid="false"
     units="px"
     inkscape:window-width="1920"
     inkscape:window-height="1023"
     inkscape:window-x="0"
     inkscape:window-y="0"
     inkscape:window-maximized="1" />
  <metadata
     id="metadata1085">
    <rdf:RDF>
      <cc:Work
         rdf:about="">
        <dc:format>image/svg+xml</dc:format>
        <dc:type
           rdf:resource="http://purl.org/dc/dcmitype/StillImage" />
        <dc:title></dc:title>
      </cc:Work>
    </rdf:RDF>
  </metadata>
  <g
     inkscape:label="Livello 1"
     inkscape:groupmode="layer"
     id="layer1"
     transform="translate(0,-270.54165)">
    <g
       transform="matrix(0.00986515,0,0,0.00986515,-168.66075,261.67932)"
       style="clip-rule:evenodd;fill-rule:evenodd;image-rendering:optimizeQuality;shape-rendering:geometricPrecision;text-rendering:geometricPrecision"
       id="g1074">
      <circle
         class="fil7"
         cx="18437.623"
         cy="2239.3477"
         r="1341"
         id="circle65"
         style="fill:url(#id1)" />
      <path
         class="fil5"
         d="m 18603.624,3108.3475 c 269,0 296,59 296,106 0,48 -133,67 -296,67 -164,0 -297,-19 -297,-67 0,-47 27,-106 297,-106 z"
         id="path67"
         inkscape:connector-curvature="0"
         style="fill:#201e1e" />
      <path
         class="fil5"
         d="m 17624.624,2798.3475 c 0,73 59,85 131,106 8,2 16,4 24,7 35,78 118,134 214,134 62,0 118,-23 160,-60 28,4 56,6 85,9 42,3 65,6 91,-17 37,-35 39,-116 -48,-131 l -206,-24 c -85,-12 -242,-47 -327,-78 -15,-6 -30,-11 -45,-13 h -16 c -13,1 -26,7 -40,20 -9,8 -23,31 -23,47 z m 242,135 c 7,2 15,4 22,5 -7,-1 -15,-3 -22,-5 z"
         id="path69"
         inkscape:connector-curvature="0"
         style="fill:#201e1e" />
      <path
         class="fil5"
         d="m 19556.624,2812.3475 c 0,69 -56,80 -125,100 -7,2 -14,4 -22,6 -33,74 -111,127 -202,127 -58,0 -111,-22 -150,-56 -27,3 -54,5 -81,8 -39,3 -61,6 -85,-17 -35,-33 -38,-109 44,-123 l 195,-22 c 81,-12 228,-45 308,-74 14,-5 28,-11 43,-12 h 15 c 12,1 24,7 37,18 9,9 23,30 23,45 z m -229,127 c -7,2 -14,4 -21,5 7,-1 14,-3 21,-5 z"
         id="path71"
         inkscape:connector-curvature="0"
         style="fill:#201e1e" />
    </g>
  </g>
</svg>
