<?xml version="1.0" encoding="UTF-8" standalone="no"?>
<!-- Created with Inkscape (http://www.inkscape.org/) -->

<svg
   xmlns:dc="http://purl.org/dc/elements/1.1/"
   xmlns:cc="http://creativecommons.org/ns#"
   xmlns:rdf="http://www.w3.org/1999/02/22-rdf-syntax-ns#"
   xmlns:svg="http://www.w3.org/2000/svg"
   xmlns="http://www.w3.org/2000/svg"
   xmlns:sodipodi="http://sodipodi.sourceforge.net/DTD/sodipodi-0.dtd"
   xmlns:inkscape="http://www.inkscape.org/namespaces/inkscape"
   width="100"
   height="100"
   viewBox="0 0 26.458333 26.458334"
   version="1.1"
   id="svg1088"
   inkscape:version="0.92.4 (5da689c313, 2019-01-14)">
  <defs
     id="defs1082" />
  <sodipodi:namedview
     id="base"
     pagecolor="#ffffff"
     bordercolor="#666666"
     borderopacity="1.0"
     inkscape:pageopacity="0.0"
     inkscape:pageshadow="2"
     inkscape:zoom="0.35"
     inkscape:cx="-152.85714"
     inkscape:cy="-11.428571"
     inkscape:document-units="mm"
     inkscape:current-layer="layer1"
     showgrid="false"
     units="px"
     inkscape:window-width="1920"
     inkscape:window-height="1023"
     inkscape:window-x="0"
     inkscape:window-y="0"
     inkscape:window-maximized="1" />
  <metadata
     id="metadata1085">
    <rdf:RDF>
      <cc:Work
         rdf:about="">
        <dc:format>image/svg+xml</dc:format>
        <dc:type
           rdf:resource="http://purl.org/dc/dcmitype/StillImage" />
        <dc:title></dc:title>
      </cc:Work>
    </rdf:RDF>
  </metadata>
  <g
     inkscape:label="Livello 1"
     inkscape:groupmode="layer"
     id="layer1"
     transform="translate(0,-270.54165)">
    <g
       style="clip-rule:evenodd;fill-rule:evenodd;image-rendering:optimizeQuality;shape-rendering:geometricPrecision;text-rendering:geometricPrecision"
       id="g1080"
       transform="matrix(0.00986515,0,0,-0.00986515,2.8152797,305.86232)">
      <circle
         class="fil1"
         cx="1055.6238"
         cy="2239.3477"
         r="1341"
         id="circle1076"
         style="fill:#ff0000" />
      <path
         class="fil0"
         d="m 412.6238,2136.3475 h 238 c 19,0 34,15 34,34 v 685 c 0,19 -15,34 -34,34 h -238 c -19,0 -35,-15 -35,-34 v -685 c 0,-19 16,-34 35,-34 z m 412,657 h 727 c 53,0 97,-43 97,-97 v 0 c 0,-40 -26,-75 -62,-90 v 0 h 18 c 51,0 93,-56 93,-107 v 0 c 0,-52 -42,-94 -93,-94 h -18 v -8 h 52 c 51,0 94,-42 94,-93 v 0 c 0,-52 -43,-94 -94,-94 h -52 v -8 h 52 c 51,0 94,-42 94,-93 v 0 c 0,-52 -43,-94 -94,-94 h -93 c -4,0 -7,0 -11,0 -2,0 -5,0 -8,0 h -295 c -3,-1 -3,-4 0,-10 5,-10 16,-30 33,-60 17,-30 38,-69 49,-119 11,-50 10,-111 1,-159 -8,-47 -25,-82 -46,-104 -22,-22 -47,-32 -73,-33 -26,-1 -53,6 -72,23 -19,18 -29,45 -34,80 -4,36 -1,80 -2,107 -2,27 -7,38 -24,51 -18,13 -47,30 -74,53 -27,24 -52,54 -78,89 -42,54 -147,190 -147,248 v 552 c 0,33 27,60 60,60 z"
         id="path1078"
         inkscape:connector-curvature="0"
         style="fill:#fefefe" />
    </g>
  </g>
</svg>
