<?xml version="1.0" encoding="UTF-8" standalone="no"?>
<!-- Created with Inkscape (http://www.inkscape.org/) -->

<svg
   xmlns:dc="http://purl.org/dc/elements/1.1/"
   xmlns:cc="http://creativecommons.org/ns#"
   xmlns:rdf="http://www.w3.org/1999/02/22-rdf-syntax-ns#"
   xmlns:svg="http://www.w3.org/2000/svg"
   xmlns="http://www.w3.org/2000/svg"
   xmlns:sodipodi="http://sodipodi.sourceforge.net/DTD/sodipodi-0.dtd"
   xmlns:inkscape="http://www.inkscape.org/namespaces/inkscape"
   width="100"
   height="100"
   viewBox="0 0 26.458333 26.458334"
   version="1.1"
   id="svg1088"
   inkscape:version="0.92.4 (5da689c313, 2019-01-14)">
  <defs
     id="defs1082" />
  <sodipodi:namedview
     id="base"
     pagecolor="#ffffff"
     bordercolor="#666666"
     borderopacity="1.0"
     inkscape:pageopacity="0.0"
     inkscape:pageshadow="2"
     inkscape:zoom="0.35"
     inkscape:cx="-152.85714"
     inkscape:cy="-11.428571"
     inkscape:document-units="mm"
     inkscape:current-layer="layer1"
     showgrid="false"
     units="px"
     inkscape:window-width="1920"
     inkscape:window-height="1023"
     inkscape:window-x="0"
     inkscape:window-y="0"
     inkscape:window-maximized="1" />
  <metadata
     id="metadata1085">
    <rdf:RDF>
      <cc:Work
         rdf:about="">
        <dc:format>image/svg+xml</dc:format>
        <dc:type
           rdf:resource="http://purl.org/dc/dcmitype/StillImage" />
        <dc:title></dc:title>
      </cc:Work>
    </rdf:RDF>
  </metadata>
  <g
     inkscape:label="Livello 1"
     inkscape:groupmode="layer"
     id="layer1"
     transform="translate(0,-270.54165)">
    <g
       transform="matrix(0.00986515,0,0,0.00986515,-66.250638,261.12194)"
       style="clip-rule:evenodd;fill-rule:evenodd;image-rendering:optimizeQuality;shape-rendering:geometricPrecision;text-rendering:geometricPrecision"
       id="g1051">
      <circle
         class="fil4"
         cx="8056.624"
         cy="2239.3477"
         r="1341"
         id="circle25"
         style="fill:#fcdc6b" />
      <path
         class="fil5"
         d="m 7190.6238,1449.3475 c 0,74 85,83 145,106 l 14,6 c -31,8 -198,42 -218,54 -22,12 -34,34 -37,57 v 19 c 4,33 30,63 79,63 23,0 50,-10 74,-15 l 214,-49 c 34,-8 185,-35 208,-54 41,-34 38,-85 9,-115 -13,-12 -37,-20 -54,-26 -66,-22 -316,-117 -363,-117 -37,0 -71,35 -71,71 z"
         id="path27"
         inkscape:connector-curvature="0"
         style="fill:#201e1e" />
      <path
         class="fil5"
         d="m 8381.6238,1603.3475 c 0,63 50,75 95,84 48,10 96,23 143,33 l 214,49 c 41,10 50,14 91,14 28,0 62,-35 62,-63 0,-79 -41,-79 -105,-95 -50,-13 -100,-23 -150,-34 l 122,-46 c 2,-1 7,-5 10,-7 53,-47 25,-131 -52,-131 -18,0 -99,29 -118,36 -66,26 -173,57 -233,81 -39,15 -79,26 -79,79 z"
         id="path29"
         inkscape:connector-curvature="0"
         style="fill:#201e1e" />
      <path
         class="fil5"
         d="m 7015.6238,1983.3475 c 104,-21 209,-43 343,-60 135,-16 301,-27 449,-32 148,-6 278,-6 409,2 130,8 261,23 390,42 129,20 258,44 386,68 0,96 0,191 -26,304 -26,114 -78,244 -159,358 -80,114 -189,212 -279,277 -91,64 -162,94 -245,118 -83,24 -176,41 -269,43 -92,1 -183,-15 -273,-40 -89,-25 -176,-59 -270,-123 -95,-63 -197,-154 -276,-262 -78,-107 -132,-231 -158,-350 -27,-118 -24,-232 -22,-345 z"
         id="path35"
         inkscape:connector-curvature="0"
         style="fill:#201e1e" />
      <ellipse
         class="fil2"
         cx="8008.624"
         cy="3098.3477"
         rx="828"
         ry="595"
         id="ellipse37"
         style="fill:#f50953" />
      <path
         class="fil6"
         d="m 7015.6238,1983.3475 c 104,-21 209,-43 343,-60 135,-16 301,-27 449,-32 148,-6 278,-6 409,2 130,8 261,23 390,42 129,20 258,44 386,68 0,96 0,191 -26,304 -26,114 -78,244 -159,358 -80,114 -189,212 -279,277 -91,64 -162,94 -245,118 -83,24 -176,41 -269,43 -92,1 -183,-15 -273,-40 -89,-25 -176,-59 -270,-123 -95,-63 -197,-154 -276,-262 -78,-107 -132,-231 -158,-350 -27,-118 -24,-232 -22,-345 z"
         id="path43"
         inkscape:connector-curvature="0"
         style="fill:none" />
    </g>
  </g>
</svg>
