<?xml version="1.0" encoding="UTF-8" standalone="no"?>
<!-- Created with Inkscape (http://www.inkscape.org/) -->

<svg
   xmlns:dc="http://purl.org/dc/elements/1.1/"
   xmlns:cc="http://creativecommons.org/ns#"
   xmlns:rdf="http://www.w3.org/1999/02/22-rdf-syntax-ns#"
   xmlns:svg="http://www.w3.org/2000/svg"
   xmlns="http://www.w3.org/2000/svg"
   xmlns:sodipodi="http://sodipodi.sourceforge.net/DTD/sodipodi-0.dtd"
   xmlns:inkscape="http://www.inkscape.org/namespaces/inkscape"
   width="100"
   height="100"
   viewBox="0 0 26.458333 26.458334"
   version="1.1"
   id="svg1088"
   inkscape:version="0.92.4 (5da689c313, 2019-01-14)">
  <defs
     id="defs1082" />
  <sodipodi:namedview
     id="base"
     pagecolor="#ffffff"
     bordercolor="#666666"
     borderopacity="1.0"
     inkscape:pageopacity="0.0"
     inkscape:pageshadow="2"
     inkscape:zoom="0.35"
     inkscape:cx="-152.85714"
     inkscape:cy="-11.428571"
     inkscape:document-units="mm"
     inkscape:current-layer="layer1"
     showgrid="false"
     units="px"
     inkscape:window-width="1920"
     inkscape:window-height="1023"
     inkscape:window-x="0"
     inkscape:window-y="0"
     inkscape:window-maximized="1" />
  <metadata
     id="metadata1085">
    <rdf:RDF>
      <cc:Work
         rdf:about="">
        <dc:format>image/svg+xml</dc:format>
        <dc:type
           rdf:resource="http://purl.org/dc/dcmitype/StillImage" />
        <dc:title></dc:title>
      </cc:Work>
    </rdf:RDF>
  </metadata>
  <g
     inkscape:label="Livello 1"
     inkscape:groupmode="layer"
     id="layer1"
     transform="translate(0,-270.54165)">
    <g
       transform="matrix(0.00986515,0,0,0.00986515,-100.36433,261.67932)"
       style="clip-rule:evenodd;fill-rule:evenodd;image-rendering:optimizeQuality;shape-rendering:geometricPrecision;text-rendering:geometricPrecision"
       id="g1059">
      <circle
         class="fil4"
         cx="11514.624"
         cy="2239.3477"
         r="1341"
         id="circle47"
         style="fill:#fcdc6b" />
      <path
         class="fil5"
         d="m 10690.624,1319.3475 c 0,62 77,97 126,55 14,-13 27,-35 56,-57 12,-8 20,-15 33,-22 56,-28 100,-3 138,39 50,57 136,25 136,-48 0,-61 -222,-286.99996 -450,-41 -7,7 -6,7 -11,14 -13,16 -28,30 -28,60 z"
         id="path49"
         inkscape:connector-curvature="0"
         style="fill:#201e1e" />
      <path
         class="fil5"
         d="m 11868.624,1286.3475 c 0,63 61,93 108,70 19,-10 49,-49 79,-63 44,-21 80,-8 115,21 11,9 19,15 29,25 16,16 47,73 109,48 14,-5 22,-12 31,-23 11,-14 16,-26 18,-38 v -14 c -4,-29 -28,-51 -38,-64 -42,-55 -144,-117 -221,-117 -54,0 -112,24 -145,48 l -53,43 c -5,6 -4,6 -9,12 -12,15 -23,23 -23,52 z"
         id="path51"
         inkscape:connector-curvature="0"
         style="fill:#201e1e" />
      <ellipse
         class="fil5"
         transform="matrix(1,0,-0.0826939,0.99657499,0,0)"
         rx="196.46759"
         ry="277.77933"
         id="ellipse57"
         cx="11069.838"
         cy="1937.4332"
         style="fill:#201e1e;stroke-width:1.21917975" />
      <ellipse
         class="fil5"
         transform="matrix(-1,0,0.0826939,0.99657499,0,0)"
         rx="196.46759"
         ry="277.77933"
         id="ellipse59"
         cx="-11970.811"
         cy="1937.4332"
         style="fill:#201e1e;stroke-width:1.21917975" />
      <ellipse
         class="fil5"
         cx="11516.624"
         cy="2835.3477"
         rx="331"
         ry="544"
         id="ellipse61"
         style="fill:#201e1e" />
    </g>
  </g>
</svg>
