<?xml version="1.0" encoding="UTF-8" standalone="no"?>
<svg
   xmlns:dc="http://purl.org/dc/elements/1.1/"
   xmlns:cc="http://creativecommons.org/ns#"
   xmlns:rdf="http://www.w3.org/1999/02/22-rdf-syntax-ns#"
   xmlns:svg="http://www.w3.org/2000/svg"
   xmlns="http://www.w3.org/2000/svg"
   xmlns:sodipodi="http://sodipodi.sourceforge.net/DTD/sodipodi-0.dtd"
   xmlns:inkscape="http://www.inkscape.org/namespaces/inkscape"
   width="60px"
   height="60px"
   viewBox="0 0 60 60"
   version="1.1"
   id="svg12"
   sodipodi:docname="robot.svg"
   inkscape:version="0.92.4 (5da689c313, 2019-01-14)">
  <metadata
     id="metadata18">
    <rdf:RDF>
      <cc:Work
         rdf:about="">
        <dc:format>image/svg+xml</dc:format>
        <dc:type
           rdf:resource="http://purl.org/dc/dcmitype/StillImage" />
        <dc:title>Add_Person 2 Copy 2</dc:title>
      </cc:Work>
    </rdf:RDF>
  </metadata>
  <defs
     id="defs16" />
  <sodipodi:namedview
     pagecolor="#ffffff"
     bordercolor="#666666"
     borderopacity="1"
     objecttolerance="10"
     gridtolerance="10"
     guidetolerance="10"
     inkscape:pageopacity="0"
     inkscape:pageshadow="2"
     inkscape:window-width="1920"
     inkscape:window-height="1023"
     id="namedview14"
     showgrid="false"
     inkscape:zoom="3.9333333"
     inkscape:cx="-24.006558"
     inkscape:cy="51.78277"
     inkscape:window-x="0"
     inkscape:window-y="0"
     inkscape:window-maximized="1"
     inkscape:current-layer="svg12"
     showguides="true"
     inkscape:guide-bbox="true" />
  <!-- Generator: Sketch 55.2 (78181) - https://sketchapp.com -->
  <title
     id="title2">Add_Person 2 Copy 2</title>
  <desc
     id="desc4">Created with Sketch.</desc>
  <circle
     style="fill:#e0e5e7;fill-rule:evenodd;stroke:none;stroke-width:1"
     r="30"
     cy="30"
     cx="30"
     id="Oval" />
  <path
     id="path895"
     d="M 8.1101454,23.566693 H 10.542351 V 38.159928 H 8.1101454 A 2.4292919,2.4292919 0 0 1 5.677938,35.727722 V 25.998898 A 2.4292919,2.4292919 0 0 1 8.1101454,23.566693 Z M 47.025441,19.918381 v 20.673754 a 4.8692216,4.8692216 0 0 1 -4.86441,4.864409 H 17.838971 A 4.8692216,4.8692216 0 0 1 12.974559,40.592135 V 19.918381 a 6.078539,6.078539 0 0 1 6.080514,-6.080515 h 8.512723 v -4.86441 a 2.432206,2.432206 0 0 1 4.86441,0 v 4.86441 h 8.512721 a 6.078539,6.078539 0 0 1 6.080514,6.080515 z M 25.74364,25.998898 a 3.0402574,3.0402574 0 1 0 -3.040259,3.040257 3.0400295,3.0400295 0 0 0 3.040259,-3.040257 z m -0.608052,9.728824 h -4.86441 v 2.432206 h 4.86441 z m 7.296618,0 h -4.86441 v 2.432206 h 4.86441 z m 7.904671,-9.728824 a 3.0402574,3.0402574 0 1 0 -3.040258,3.040257 3.0400295,3.0400295 0 0 0 3.040258,-3.040257 z m -0.608052,9.728824 h -4.864413 v 2.432206 h 4.864413 z m 14.593237,-9.728824 v 9.728824 a 2.4292919,2.4292919 0 0 1 -2.432208,2.432206 H 49.457649 V 23.566693 h 2.432205 a 2.4292919,2.4292919 0 0 1 2.432208,2.432205 z"
     inkscape:connector-curvature="0"
     style="fill:#ffffff;stroke-width:0.07600643" />
</svg>
