<?xml version="1.0" encoding="UTF-8"?>
<svg width="21px" height="26px" viewBox="0 0 21 26" version="1.1" xmlns="http://www.w3.org/2000/svg" xmlns:xlink="http://www.w3.org/1999/xlink">
    <!-- Generator: Sketch 64 (93537) - https://sketch.com -->
    <title>doc_black_csv</title>
    <desc>Created with Sketch.</desc>
    <g id="Page-1" stroke="none" stroke-width="1" fill="none" fill-rule="evenodd">
        <g id="doc_black_csv" transform="translate(-4.000000, -2.000000)" fill-rule="nonzero">
            <rect id="Rectangle" stroke="#979797" fill="#D8D8D8" opacity="0" x="0.5" y="0.5" width="29" height="29"></rect>
            <g id="File-icon-with-extension_iconfinder_5_483560" transform="translate(4.000000, 2.000000)" fill="#000000">
                <path d="M17.6,23.6785714 C17.6,23.9352054 17.40321,24.1428571 17.16,24.1428571 L2.2,24.1428571 C1.95679,24.1428571 1.76,23.9352054 1.76,23.6785714 L1.76,6.5 L4.4,6.5 C5.37196,6.5 6.16,5.66846429 6.16,4.64285714 L6.16,1.85714286 L17.16,1.85714286 C17.40321,1.85714286 17.6,2.06479464 17.6,2.32142857 L17.6,9.66105205 L19.36,9.66105205 L19.36,1.85714286 C19.36,0.831535714 18.57196,0 17.6,0 L6.00919,0 C5.54213,0 5.094375,0.195870536 4.764375,0.544084821 L0.515625,5.02734375 C0.185625,5.37555804 0,5.84802679 0,6.34040179 L0,24.1428571 C0,25.1684643 0.78804,26 1.76,26 L17.6,26 C18.57196,26 19.36,25.1684643 19.36,24.1428571 L19.36,20.4285714 L17.6,20.4285714 L17.6,23.6785714 Z" id="Shape-path"></path>
                <path d="M19.5,11 C20.328375,11 21,11.7960001 21,12.7777778 L21,12.7777778 L21,17.2222222 C21,18.204 20.328375,19 19.5,19 L19.5,19 L7.5,19 C6.671625,19 6,18.204 6,17.2222222 L6,17.2222222 L6,12.7777778 C6,11.7960001 6.671625,11 7.5,11 L7.5,11 Z M13.5803527,13.2534383 C12.8453527,13.2534383 12.3003527,13.6234383 12.3003527,14.2884383 C12.2903527,15.5334383 14.0453527,15.1834383 14.0453527,15.8334383 C14.0453527,16.0384383 13.8853527,16.1634383 13.6353527,16.1634383 C13.3953527,16.1634383 13.2253527,16.0334383 13.2003527,15.7634383 L12.2903527,15.7634383 C12.3153527,16.4734383 12.9053527,16.8484383 13.6603527,16.8484383 C14.4803527,16.8484383 14.9403527,16.3584383 14.9403527,15.7684383 C14.9403527,14.5934383 13.2053527,14.8684383 13.2053527,14.2584383 C13.2053527,14.0384383 13.3603527,13.9334383 13.5653527,13.9384383 C13.7953527,13.9434383 13.9553527,14.0784383 13.9703527,14.3034383 L14.8953527,14.3034383 C14.8603527,13.6334383 14.3453527,13.2534383 13.5803527,13.2534383 Z M9.97535274,13.2634383 C8.94035274,13.2634383 8.21035274,14.0034383 8.21035274,15.0534383 C8.21035274,16.1034383 8.94035274,16.8384383 9.97535274,16.8384383 C10.8103527,16.8384383 11.4403527,16.3734383 11.6403527,15.6134383 L10.7003527,15.6134383 C10.5553527,15.9134383 10.2903527,16.0634383 9.96535274,16.0634383 C9.44035274,16.0634383 9.08035274,15.6734383 9.08035274,15.0534383 C9.08035274,14.4334383 9.44035274,14.0434383 9.96535274,14.0434383 C10.2903527,14.0434383 10.5553527,14.1934383 10.7003527,14.4934383 L11.6403527,14.4934383 C11.4403527,13.7334383 10.8103527,13.2634383 9.97535274,13.2634383 Z M16.3353527,13.3034383 L15.4253527,13.3034383 L16.6703527,16.8134383 L17.7403527,16.8134383 L18.9853527,13.3034383 L18.0803527,13.3034383 L17.2053527,15.9534383 L16.3353527,13.3034383 Z" id="Combined-Shape"></path>
            </g>
        </g>
    </g>
</svg>