<?xml version="1.0" encoding="UTF-8"?>
<svg width="21px" height="26px" viewBox="0 0 21 26" version="1.1" xmlns="http://www.w3.org/2000/svg" xmlns:xlink="http://www.w3.org/1999/xlink">
    <!-- Generator: Sketch 64 (93537) - https://sketch.com -->
    <title>doc_black_doc</title>
    <desc>Created with Sketch.</desc>
    <g id="Page-1" stroke="none" stroke-width="1" fill="none" fill-rule="evenodd">
        <g id="doc_black_doc" transform="translate(-4.000000, -2.000000)" fill-rule="nonzero">
            <rect id="Rectangle" stroke="#979797" fill="#D8D8D8" opacity="0" x="0.5" y="0.5" width="29" height="29"></rect>
            <g id="File-icon-with-extension_iconfinder_5_483560" transform="translate(4.000000, 2.000000)" fill="#000000">
                <path d="M17.6,23.6785714 C17.6,23.9352054 17.40321,24.1428571 17.16,24.1428571 L2.2,24.1428571 C1.95679,24.1428571 1.76,23.9352054 1.76,23.6785714 L1.76,6.5 L4.4,6.5 C5.37196,6.5 6.16,5.66846429 6.16,4.64285714 L6.16,1.85714286 L17.16,1.85714286 C17.40321,1.85714286 17.6,2.06479464 17.6,2.32142857 L17.6,9.66105205 L19.36,9.66105205 L19.36,1.85714286 C19.36,0.831535714 18.57196,0 17.6,0 L6.00919,0 C5.54213,0 5.094375,0.195870536 4.764375,0.544084821 L0.515625,5.02734375 C0.185625,5.37555804 0,5.84802679 0,6.34040179 L0,24.1428571 C0,25.1684643 0.78804,26 1.76,26 L17.6,26 C18.57196,26 19.36,25.1684643 19.36,24.1428571 L19.36,20.4285714 L17.6,20.4285714 L17.6,23.6785714 Z" id="Shape-path"></path>
                <path d="M19.5,11 C20.328375,11 21,11.7960001 21,12.7777778 L21,12.7777778 L21,17.2222222 C21,18.204 20.328375,19 19.5,19 L19.5,19 L7.5,19 C6.671625,19 6,18.204 6,17.2222222 L6,17.2222222 L6,12.7777778 C6,11.7960001 6.671625,11 7.5,11 L7.5,11 Z M13.512371,13.3008754 C12.517371,13.3008754 11.707371,14.0408754 11.707371,15.0958754 C11.707371,16.1508754 12.517371,16.8958754 13.512371,16.8958754 C14.507371,16.8958754 15.307371,16.1508754 15.307371,15.0958754 C15.307371,14.0408754 14.512371,13.3008754 13.512371,13.3008754 Z M17.627371,13.3108754 C16.592371,13.3108754 15.862371,14.0508754 15.862371,15.1008754 C15.862371,16.1508754 16.592371,16.8858754 17.627371,16.8858754 C18.462371,16.8858754 19.092371,16.4208754 19.292371,15.6608754 L18.352371,15.6608754 C18.207371,15.9608754 17.942371,16.1108754 17.617371,16.1108754 C17.092371,16.1108754 16.732371,15.7208754 16.732371,15.1008754 C16.732371,14.4808754 17.092371,14.0908754 17.617371,14.0908754 C17.942371,14.0908754 18.207371,14.2408754 18.352371,14.5408754 L19.292371,14.5408754 C19.092371,13.7808754 18.462371,13.3108754 17.627371,13.3108754 Z M9.30737099,13.3508754 L7.99237099,13.3508754 L7.99237099,16.8608754 L9.30737099,16.8608754 C10.427371,16.8608754 11.147371,16.1458754 11.147371,15.1058754 C11.147371,14.0608754 10.427371,13.3508754 9.30737099,13.3508754 Z M9.25237099,14.0808754 C9.89737099,14.0808754 10.277371,14.4608754 10.277371,15.1058754 C10.277371,15.7508754 9.89737099,16.1208754 9.25237099,16.1208754 L8.84737099,16.1208754 L8.84737099,14.0808754 L9.25237099,14.0808754 Z M13.512371,14.0758754 C14.072371,14.0758754 14.437371,14.4708754 14.437371,15.0958754 C14.437371,15.7108754 14.072371,16.1158754 13.512371,16.1158754 C12.942371,16.1158754 12.582371,15.7108754 12.582371,15.0958754 C12.582371,14.4708754 12.942371,14.0758754 13.512371,14.0758754 Z" id="Combined-Shape"></path>
            </g>
        </g>
    </g>
</svg>