<?xml version="1.0" encoding="UTF-8"?>
<svg width="21px" height="26px" viewBox="0 0 21 26" version="1.1" xmlns="http://www.w3.org/2000/svg" xmlns:xlink="http://www.w3.org/1999/xlink">
    <!-- Generator: Sketch 64 (93537) - https://sketch.com -->
    <title>doc_black_odp</title>
    <desc>Created with Sketch.</desc>
    <g id="Page-1" stroke="none" stroke-width="1" fill="none" fill-rule="evenodd">
        <g id="doc_black_odp" transform="translate(-4.000000, -2.000000)" fill-rule="nonzero">
            <rect id="Rectangle" stroke="#979797" fill="#D8D8D8" opacity="0" x="0.5" y="0.5" width="29" height="29"></rect>
            <g id="File-icon-with-extension_iconfinder_5_483560" transform="translate(4.000000, 2.000000)" fill="#000000">
                <path d="M17.6,23.6785714 C17.6,23.9352054 17.40321,24.1428571 17.16,24.1428571 L2.2,24.1428571 C1.95679,24.1428571 1.76,23.9352054 1.76,23.6785714 L1.76,6.5 L4.4,6.5 C5.37196,6.5 6.16,5.66846429 6.16,4.64285714 L6.16,1.85714286 L17.16,1.85714286 C17.40321,1.85714286 17.6,2.06479464 17.6,2.32142857 L17.6,9.66105205 L19.36,9.66105205 L19.36,1.85714286 C19.36,0.831535714 18.57196,0 17.6,0 L6.00919,0 C5.54213,0 5.094375,0.195870536 4.764375,0.544084821 L0.515625,5.02734375 C0.185625,5.37555804 0,5.84802679 0,6.34040179 L0,24.1428571 C0,25.1684643 0.78804,26 1.76,26 L17.6,26 C18.57196,26 19.36,25.1684643 19.36,24.1428571 L19.36,20.4285714 L17.6,20.4285714 L17.6,23.6785714 Z" id="Shape-path"></path>
                <path d="M19.5,11 C20.328375,11 21,11.7960001 21,12.7777778 L21,12.7777778 L21,17.2222222 C21,18.204 20.328375,19 19.5,19 L19.5,19 L7.5,19 C6.671625,19 6,18.204 6,17.2222222 L6,17.2222222 L6,12.7777778 C6,11.7960001 6.671625,11 7.5,11 L7.5,11 Z M9.90807097,13.2464483 C8.91307097,13.2464483 8.10307097,13.9864483 8.10307097,15.0414483 C8.10307097,16.0964483 8.91307097,16.8414483 9.90807097,16.8414483 C10.903071,16.8414483 11.703071,16.0964483 11.703071,15.0414483 C11.703071,13.9864483 10.908071,13.2464483 9.90807097,13.2464483 Z M13.718071,13.2964483 L12.403071,13.2964483 L12.403071,16.8064483 L13.718071,16.8064483 C14.838071,16.8064483 15.558071,16.0914483 15.558071,15.0514483 C15.558071,14.0064483 14.838071,13.2964483 13.718071,13.2964483 Z M17.648071,13.2964483 L16.263071,13.2964483 L16.263071,16.8064483 L17.118071,16.8064483 L17.118071,15.5464483 L17.648071,15.5464483 C18.543071,15.5464483 18.938071,15.0064483 18.938071,14.4264483 C18.938071,13.7814483 18.508071,13.2964483 17.648071,13.2964483 Z M13.663071,14.0264483 C14.308071,14.0264483 14.688071,14.4064483 14.688071,15.0514483 C14.688071,15.6964483 14.308071,16.0664483 13.663071,16.0664483 L13.258071,16.0664483 L13.258071,14.0264483 L13.663071,14.0264483 Z M9.90807097,14.0214483 C10.468071,14.0214483 10.833071,14.4164483 10.833071,15.0414483 C10.833071,15.6564483 10.468071,16.0614483 9.90807097,16.0614483 C9.33807097,16.0614483 8.97807097,15.6564483 8.97807097,15.0414483 C8.97807097,14.4164483 9.33807097,14.0214483 9.90807097,14.0214483 Z M17.583071,13.9864483 C17.923071,13.9864483 18.068071,14.1564483 18.068071,14.4264483 C18.068071,14.6964483 17.923071,14.8664483 17.583071,14.8664483 L17.118071,14.8664483 L17.118071,13.9864483 L17.583071,13.9864483 Z" id="Combined-Shape"></path>
            </g>
        </g>
    </g>
</svg>