<?xml version="1.0" encoding="UTF-8"?>
<svg width="21px" height="26px" viewBox="0 0 21 26" version="1.1" xmlns="http://www.w3.org/2000/svg" xmlns:xlink="http://www.w3.org/1999/xlink">
    <!-- Generator: Sketch 64 (93537) - https://sketch.com -->
    <title>doc_black_ods</title>
    <desc>Created with Sketch.</desc>
    <g id="Page-1" stroke="none" stroke-width="1" fill="none" fill-rule="evenodd">
        <g id="doc_black_ods" transform="translate(-4.000000, -2.000000)" fill-rule="nonzero">
            <rect id="Rectangle" stroke="#979797" fill="#D8D8D8" opacity="0" x="0.5" y="0.5" width="29" height="29"></rect>
            <g id="File-icon-with-extension_iconfinder_5_483560" transform="translate(4.000000, 2.000000)" fill="#000000">
                <path d="M17.6,23.6785714 C17.6,23.9352054 17.40321,24.1428571 17.16,24.1428571 L2.2,24.1428571 C1.95679,24.1428571 1.76,23.9352054 1.76,23.6785714 L1.76,6.5 L4.4,6.5 C5.37196,6.5 6.16,5.66846429 6.16,4.64285714 L6.16,1.85714286 L17.16,1.85714286 C17.40321,1.85714286 17.6,2.06479464 17.6,2.32142857 L17.6,9.66105205 L19.36,9.66105205 L19.36,1.85714286 C19.36,0.831535714 18.57196,0 17.6,0 L6.00919,0 C5.54213,0 5.094375,0.195870536 4.764375,0.544084821 L0.515625,5.02734375 C0.185625,5.37555804 0,5.84802679 0,6.34040179 L0,24.1428571 C0,25.1684643 0.78804,26 1.76,26 L17.6,26 C18.57196,26 19.36,25.1684643 19.36,24.1428571 L19.36,20.4285714 L17.6,20.4285714 L17.6,23.6785714 Z" id="Shape-path"></path>
                <path d="M19.5,11 C20.328375,11 21,11.7960001 21,12.7777778 L21,12.7777778 L21,17.2222222 C21,18.204 20.328375,19 19.5,19 L19.5,19 L7.5,19 C6.671625,19 6,18.204 6,17.2222222 L6,17.2222222 L6,12.7777778 C6,11.7960001 6.671625,11 7.5,11 L7.5,11 Z M9.84941753,13.2609689 C8.85441753,13.2609689 8.04441753,14.0009689 8.04441753,15.0559689 C8.04441753,16.1109689 8.85441753,16.8559689 9.84941753,16.8559689 C10.8444175,16.8559689 11.6444175,16.1109689 11.6444175,15.0559689 C11.6444175,14.0009689 10.8494175,13.2609689 9.84941753,13.2609689 Z M17.3944175,13.2609689 C16.6594175,13.2609689 16.1144175,13.6309689 16.1144175,14.2959689 C16.1044175,15.5409689 17.8594175,15.1909689 17.8594175,15.8409689 C17.8594175,16.0459689 17.6994175,16.1709689 17.4494175,16.1709689 C17.2094175,16.1709689 17.0394175,16.0409689 17.0144175,15.7709689 L16.1044175,15.7709689 C16.1294175,16.4809689 16.7194175,16.8559689 17.4744175,16.8559689 C18.2944175,16.8559689 18.7544175,16.3659689 18.7544175,15.7759689 C18.7544175,14.6009689 17.0194175,14.8759689 17.0194175,14.2659689 C17.0194175,14.0459689 17.1744175,13.9409689 17.3794175,13.9459689 C17.6094175,13.9509689 17.7694175,14.0859689 17.7844175,14.3109689 L18.7094175,14.3109689 C18.6744175,13.6409689 18.1594175,13.2609689 17.3944175,13.2609689 Z M13.6594175,13.3109689 L12.3444175,13.3109689 L12.3444175,16.8209689 L13.6594175,16.8209689 C14.7794175,16.8209689 15.4994175,16.1059689 15.4994175,15.0659689 C15.4994175,14.0209689 14.7794175,13.3109689 13.6594175,13.3109689 Z M13.6044175,14.0409689 C14.2494175,14.0409689 14.6294175,14.4209689 14.6294175,15.0659689 C14.6294175,15.7109689 14.2494175,16.0809689 13.6044175,16.0809689 L13.1994175,16.0809689 L13.1994175,14.0409689 L13.6044175,14.0409689 Z M9.84941753,14.0359689 C10.4094175,14.0359689 10.7744175,14.4309689 10.7744175,15.0559689 C10.7744175,15.6709689 10.4094175,16.0759689 9.84941753,16.0759689 C9.27941753,16.0759689 8.91941753,15.6709689 8.91941753,15.0559689 C8.91941753,14.4309689 9.27941753,14.0359689 9.84941753,14.0359689 Z" id="Combined-Shape"></path>
            </g>
        </g>
    </g>
</svg>