<?xml version="1.0" encoding="UTF-8"?>
<svg width="21px" height="26px" viewBox="0 0 21 26" version="1.1" xmlns="http://www.w3.org/2000/svg" xmlns:xlink="http://www.w3.org/1999/xlink">
    <!-- Generator: Sketch 64 (93537) - https://sketch.com -->
    <title>doc_black_pdf</title>
    <desc>Created with Sketch.</desc>
    <g id="Page-1" stroke="none" stroke-width="1" fill="none" fill-rule="evenodd">
        <g id="doc_black_pdf" transform="translate(-4.000000, -2.000000)" fill-rule="nonzero">
            <rect id="Rectangle" stroke="#979797" fill="#D8D8D8" opacity="0" x="0.5" y="0.5" width="29" height="29"></rect>
            <g id="File-icon-with-extension_iconfinder_5_483560" transform="translate(4.000000, 2.000000)" fill="#000000">
                <path d="M17.6,23.6785714 C17.6,23.9352054 17.40321,24.1428571 17.16,24.1428571 L2.2,24.1428571 C1.95679,24.1428571 1.76,23.9352054 1.76,23.6785714 L1.76,6.5 L4.4,6.5 C5.37196,6.5 6.16,5.66846429 6.16,4.64285714 L6.16,1.85714286 L17.16,1.85714286 C17.40321,1.85714286 17.6,2.06479464 17.6,2.32142857 L17.6,9.66105205 L19.36,9.66105205 L19.36,1.85714286 C19.36,0.831535714 18.57196,0 17.6,0 L6.00919,0 C5.54213,0 5.094375,0.195870536 4.764375,0.544084821 L0.515625,5.02734375 C0.185625,5.37555804 0,5.84802679 0,6.34040179 L0,24.1428571 C0,25.1684643 0.78804,26 1.76,26 L17.6,26 C18.57196,26 19.36,25.1684643 19.36,24.1428571 L19.36,20.4285714 L17.6,20.4285714 L17.6,23.6785714 Z" id="Shape-path"></path>
                <path d="M19.5,11 C20.328375,11 21,11.7960001 21,12.7777778 L21,12.7777778 L21,17.2222222 C21,18.204 20.328375,19 19.5,19 L19.5,19 L7.5,19 C6.671625,19 6,18.204 6,17.2222222 L6,17.2222222 L6,12.7777778 C6,11.7960001 6.671625,11 7.5,11 L7.5,11 Z M10.0982454,13.1759839 L8.71324541,13.1759839 L8.71324541,16.6859839 L9.56824541,16.6859839 L9.56824541,15.4259839 L10.0982454,15.4259839 C10.9932454,15.4259839 11.3882454,14.8859839 11.3882454,14.3059839 C11.3882454,13.6609839 10.9582454,13.1759839 10.0982454,13.1759839 Z M13.3732454,13.1759839 L12.0582454,13.1759839 L12.0582454,16.6859839 L13.3732454,16.6859839 C14.4932454,16.6859839 15.2132454,15.9709839 15.2132454,14.9309839 C15.2132454,13.8859839 14.4932454,13.1759839 13.3732454,13.1759839 Z M18.2032454,13.1759839 L15.9182454,13.1759839 L15.9182454,16.6859839 L16.7732454,16.6859839 L16.7732454,15.2659839 L17.8432454,15.2659839 L17.8432454,14.6009839 L16.7732454,14.6009839 L16.7732454,13.8609839 L18.2032454,13.8609839 L18.2032454,13.1759839 Z M13.3182454,13.9059839 C13.9632454,13.9059839 14.3432454,14.2859839 14.3432454,14.9309839 C14.3432454,15.5759839 13.9632454,15.9459839 13.3182454,15.9459839 L12.9132454,15.9459839 L12.9132454,13.9059839 L13.3182454,13.9059839 Z M10.0332454,13.8659839 C10.3732454,13.8659839 10.5182454,14.0359839 10.5182454,14.3059839 C10.5182454,14.5759839 10.3732454,14.7459839 10.0332454,14.7459839 L9.56824541,14.7459839 L9.56824541,13.8659839 L10.0332454,13.8659839 Z" id="Combined-Shape"></path>
            </g>
        </g>
    </g>
</svg>