<?xml version="1.0" encoding="UTF-8"?>
<svg width="21px" height="26px" viewBox="0 0 21 26" version="1.1" xmlns="http://www.w3.org/2000/svg" xmlns:xlink="http://www.w3.org/1999/xlink">
    <!-- Generator: Sketch 64 (93537) - https://sketch.com -->
    <title>doc_black_ppt</title>
    <desc>Created with Sketch.</desc>
    <g id="Page-1" stroke="none" stroke-width="1" fill="none" fill-rule="evenodd">
        <g id="doc_black_ppt" transform="translate(-4.000000, -2.000000)" fill-rule="nonzero">
            <rect id="Rectangle" stroke="#979797" fill="#D8D8D8" opacity="0" x="0.5" y="0.5" width="29" height="29"></rect>
            <g id="File-icon-with-extension_iconfinder_5_483560" transform="translate(4.000000, 2.000000)" fill="#000000">
                <path d="M17.6,23.6785714 C17.6,23.9352054 17.40321,24.1428571 17.16,24.1428571 L2.2,24.1428571 C1.95679,24.1428571 1.76,23.9352054 1.76,23.6785714 L1.76,6.5 L4.4,6.5 C5.37196,6.5 6.16,5.66846429 6.16,4.64285714 L6.16,1.85714286 L17.16,1.85714286 C17.40321,1.85714286 17.6,2.06479464 17.6,2.32142857 L17.6,9.66105205 L19.36,9.66105205 L19.36,1.85714286 C19.36,0.831535714 18.57196,0 17.6,0 L6.00919,0 C5.54213,0 5.094375,0.195870536 4.764375,0.544084821 L0.515625,5.02734375 C0.185625,5.37555804 0,5.84802679 0,6.34040179 L0,24.1428571 C0,25.1684643 0.78804,26 1.76,26 L17.6,26 C18.57196,26 19.36,25.1684643 19.36,24.1428571 L19.36,20.4285714 L17.6,20.4285714 L17.6,23.6785714 Z" id="Shape-path"></path>
                <path d="M19.5,11 C20.328375,11 21,11.7960001 21,12.7777778 L21,12.7777778 L21,17.2222222 C21,18.204 20.328375,19 19.5,19 L19.5,19 L7.5,19 C6.671625,19 6,18.204 6,17.2222222 L6,17.2222222 L6,12.7777778 C6,11.7960001 6.671625,11 7.5,11 L7.5,11 Z M10.3354273,13.2432968 L8.95042726,13.2432968 L8.95042726,16.7532968 L9.80542726,16.7532968 L9.80542726,15.4932968 L10.3354273,15.4932968 C11.2304273,15.4932968 11.6254273,14.9532968 11.6254273,14.3732968 C11.6254273,13.7282968 11.1954273,13.2432968 10.3354273,13.2432968 Z M13.6804273,13.2432968 L12.2954273,13.2432968 L12.2954273,16.7532968 L13.1504273,16.7532968 L13.1504273,15.4932968 L13.6804273,15.4932968 C14.5754273,15.4932968 14.9704273,14.9532968 14.9704273,14.3732968 C14.9704273,13.7282968 14.5404273,13.2432968 13.6804273,13.2432968 Z M18.1654273,13.2432968 L15.4504273,13.2432968 L15.4504273,13.9282968 L16.3804273,13.9282968 L16.3804273,16.7532968 L17.2354273,16.7532968 L17.2354273,13.9282968 L18.1654273,13.9282968 L18.1654273,13.2432968 Z M10.2704273,13.9332968 C10.6104273,13.9332968 10.7554273,14.1032968 10.7554273,14.3732968 C10.7554273,14.6432968 10.6104273,14.8132968 10.2704273,14.8132968 L9.80542726,14.8132968 L9.80542726,13.9332968 L10.2704273,13.9332968 Z M13.6154273,13.9332968 C13.9554273,13.9332968 14.1004273,14.1032968 14.1004273,14.3732968 C14.1004273,14.6432968 13.9554273,14.8132968 13.6154273,14.8132968 L13.1504273,14.8132968 L13.1504273,13.9332968 L13.6154273,13.9332968 Z" id="Combined-Shape"></path>
            </g>
        </g>
    </g>
</svg>