<?xml version="1.0" encoding="UTF-8"?>
<svg width="21px" height="26px" viewBox="0 0 21 26" version="1.1" xmlns="http://www.w3.org/2000/svg" xmlns:xlink="http://www.w3.org/1999/xlink">
    <!-- Generator: Sketch 64 (93537) - https://sketch.com -->
    <title>doc_black_rar</title>
    <desc>Created with Sketch.</desc>
    <g id="Page-1" stroke="none" stroke-width="1" fill="none" fill-rule="evenodd">
        <g id="doc_black_rar" transform="translate(-4.000000, -2.000000)" fill-rule="nonzero">
            <rect id="Rectangle" stroke="#979797" fill="#D8D8D8" opacity="0" x="0.5" y="0.5" width="29" height="29"></rect>
            <g id="File-icon-with-extension_iconfinder_5_483560" transform="translate(4.000000, 2.000000)" fill="#000000">
                <path d="M17.6,23.6785714 C17.6,23.9352054 17.40321,24.1428571 17.16,24.1428571 L2.2,24.1428571 C1.95679,24.1428571 1.76,23.9352054 1.76,23.6785714 L1.76,6.5 L4.4,6.5 C5.37196,6.5 6.16,5.66846429 6.16,4.64285714 L6.16,1.85714286 L17.16,1.85714286 C17.40321,1.85714286 17.6,2.06479464 17.6,2.32142857 L17.6,9.66105205 L19.36,9.66105205 L19.36,1.85714286 C19.36,0.831535714 18.57196,0 17.6,0 L6.00919,0 C5.54213,0 5.094375,0.195870536 4.764375,0.544084821 L0.515625,5.02734375 C0.185625,5.37555804 0,5.84802679 0,6.34040179 L0,24.1428571 C0,25.1684643 0.78804,26 1.76,26 L17.6,26 C18.57196,26 19.36,25.1684643 19.36,24.1428571 L19.36,20.4285714 L17.6,20.4285714 L17.6,23.6785714 Z" id="Shape-path"></path>
                <path d="M19.5,11 C20.328375,11 21,11.7960001 21,12.7777778 L21,12.7777778 L21,17.2222222 C21,18.204 20.328375,19 19.5,19 L19.5,19 L7.5,19 C6.671625,19 6,18.204 6,17.2222222 L6,17.2222222 L6,12.7777778 C6,11.7960001 6.671625,11 7.5,11 L7.5,11 Z M9.90362049,13.2862552 L8.46862049,13.2862552 L8.46862049,16.7962552 L9.32362049,16.7962552 L9.32362049,15.4712552 L9.52862049,15.4712552 L10.2586205,16.7962552 L11.2236205,16.7962552 L10.4136205,15.4062552 C10.9536205,15.2462552 11.1936205,14.8312552 11.1936205,14.3912552 C11.1936205,13.7812552 10.7636205,13.2862552 9.90362049,13.2862552 Z M13.9836205,13.2862552 L12.9936205,13.2862552 L11.7236205,16.7962552 L12.6186205,16.7962552 L12.8286205,16.1762552 L14.1386205,16.1762552 L14.3486205,16.7962552 L15.2536205,16.7962552 L13.9836205,13.2862552 Z M17.2986205,13.2862552 L15.8636205,13.2862552 L15.8636205,16.7962552 L16.7186205,16.7962552 L16.7186205,15.4712552 L16.9236205,15.4712552 L17.6536205,16.7962552 L18.6186205,16.7962552 L17.8086205,15.4062552 C18.3486205,15.2462552 18.5886205,14.8312552 18.5886205,14.3912552 C18.5886205,13.7812552 18.1586205,13.2862552 17.2986205,13.2862552 Z M13.4836205,14.2312552 L13.9186205,15.5162552 L13.0536205,15.5162552 L13.4836205,14.2312552 Z M9.85362049,13.9962552 C10.1736205,13.9962552 10.3236205,14.1662552 10.3236205,14.4262552 C10.3236205,14.7012552 10.1736205,14.8662552 9.85362049,14.8662552 L9.32362049,14.8662552 L9.32362049,13.9962552 L9.85362049,13.9962552 Z M17.2486205,13.9962552 C17.5686205,13.9962552 17.7186205,14.1662552 17.7186205,14.4262552 C17.7186205,14.7012552 17.5686205,14.8662552 17.2486205,14.8662552 L16.7186205,14.8662552 L16.7186205,13.9962552 L17.2486205,13.9962552 Z" id="Combined-Shape"></path>
            </g>
        </g>
    </g>
</svg>