<?xml version="1.0" encoding="UTF-8"?>
<svg width="21px" height="26px" viewBox="0 0 21 26" version="1.1" xmlns="http://www.w3.org/2000/svg" xmlns:xlink="http://www.w3.org/1999/xlink">
    <!-- Generator: Sketch 64 (93537) - https://sketch.com -->
    <title>doc_black_xls</title>
    <desc>Created with Sketch.</desc>
    <g id="Page-1" stroke="none" stroke-width="1" fill="none" fill-rule="evenodd">
        <g id="doc_black_xls" transform="translate(-4.000000, -2.000000)" fill-rule="nonzero">
            <rect id="Rectangle" stroke="#979797" fill="#D8D8D8" opacity="0" x="0.5" y="0.5" width="29" height="29"></rect>
            <g id="File-icon-with-extension_iconfinder_5_483560" transform="translate(4.000000, 2.000000)" fill="#000000">
                <path d="M17.6,23.6785714 C17.6,23.9352054 17.40321,24.1428571 17.16,24.1428571 L2.2,24.1428571 C1.95679,24.1428571 1.76,23.9352054 1.76,23.6785714 L1.76,6.5 L4.4,6.5 C5.37196,6.5 6.16,5.66846429 6.16,4.64285714 L6.16,1.85714286 L17.16,1.85714286 C17.40321,1.85714286 17.6,2.06479464 17.6,2.32142857 L17.6,9.66105205 L19.36,9.66105205 L19.36,1.85714286 C19.36,0.831535714 18.57196,0 17.6,0 L6.00919,0 C5.54213,0 5.094375,0.195870536 4.764375,0.544084821 L0.515625,5.02734375 C0.185625,5.37555804 0,5.84802679 0,6.34040179 L0,24.1428571 C0,25.1684643 0.78804,26 1.76,26 L17.6,26 C18.57196,26 19.36,25.1684643 19.36,24.1428571 L19.36,20.4285714 L17.6,20.4285714 L17.6,23.6785714 Z" id="Shape-path"></path>
                <path d="M19.5,11 C20.328375,11 21,11.7960001 21,12.7777778 L21,12.7777778 L21,17.2222222 C21,18.204 20.328375,19 19.5,19 L19.5,19 L7.5,19 C6.671625,19 6,18.204 6,17.2222222 L6,17.2222222 L6,12.7777778 C6,11.7960001 6.671625,11 7.5,11 L7.5,11 Z M16.7425398,13.1921956 C16.0075398,13.1921956 15.4625398,13.5621956 15.4625398,14.2271956 C15.4525398,15.4721956 17.2075398,15.1221956 17.2075398,15.7721956 C17.2075398,15.9771956 17.0475398,16.1021956 16.7975398,16.1021956 C16.5575398,16.1021956 16.3875398,15.9721956 16.3625398,15.7021956 L15.4525398,15.7021956 C15.4775398,16.4121956 16.0675398,16.7871956 16.8225398,16.7871956 C17.6425398,16.7871956 18.1025398,16.2971956 18.1025398,15.7071956 C18.1025398,14.5321956 16.3675398,14.8071956 16.3675398,14.1971956 C16.3675398,13.9771956 16.5225398,13.8721956 16.7275398,13.8771956 C16.9575398,13.8821956 17.1175398,14.0171956 17.1325398,14.2421956 L18.0575398,14.2421956 C18.0225398,13.5721956 17.5075398,13.1921956 16.7425398,13.1921956 Z M9.94753981,13.2421956 L8.95253981,13.2421956 L10.1025398,14.9671956 L8.97753981,16.7521956 L9.94753981,16.7521956 L10.5775398,15.6771956 L11.2925398,16.7521956 L12.2875398,16.7521956 L11.1275398,15.0121956 L12.2425398,13.2421956 L11.2725398,13.2421956 L10.6525398,14.3021956 L9.94753981,13.2421956 Z M13.7975398,13.2421956 L12.9425398,13.2421956 L12.9425398,16.7521956 L14.9175398,16.7521956 L14.9175398,16.0921956 L13.7975398,16.0921956 L13.7975398,13.2421956 Z" id="Combined-Shape"></path>
            </g>
        </g>
    </g>
</svg>