<?xml version="1.0" encoding="UTF-8"?>
<svg width="21px" height="26px" viewBox="0 0 21 26" version="1.1" xmlns="http://www.w3.org/2000/svg" xmlns:xlink="http://www.w3.org/1999/xlink">
    <!-- Generator: Sketch 64 (93537) - https://sketch.com -->
    <title>doc_black_zip</title>
    <desc>Created with Sketch.</desc>
    <g id="Page-1" stroke="none" stroke-width="1" fill="none" fill-rule="evenodd">
        <g id="doc_black_zip" transform="translate(-4.000000, -2.000000)" fill-rule="nonzero">
            <rect id="Rectangle" stroke="#979797" fill="#D8D8D8" opacity="0" x="0.5" y="0.5" width="29" height="29"></rect>
            <g id="File-icon-with-extension_iconfinder_5_483560" transform="translate(4.000000, 2.000000)" fill="#000000">
                <path d="M17.6,23.6785714 C17.6,23.9352054 17.40321,24.1428571 17.16,24.1428571 L2.2,24.1428571 C1.95679,24.1428571 1.76,23.9352054 1.76,23.6785714 L1.76,6.5 L4.4,6.5 C5.37196,6.5 6.16,5.66846429 6.16,4.64285714 L6.16,1.85714286 L17.16,1.85714286 C17.40321,1.85714286 17.6,2.06479464 17.6,2.32142857 L17.6,9.66105205 L19.36,9.66105205 L19.36,1.85714286 C19.36,0.831535714 18.57196,0 17.6,0 L6.00919,0 C5.54213,0 5.094375,0.195870536 4.764375,0.544084821 L0.515625,5.02734375 C0.185625,5.37555804 0,5.84802679 0,6.34040179 L0,24.1428571 C0,25.1684643 0.78804,26 1.76,26 L17.6,26 C18.57196,26 19.36,25.1684643 19.36,24.1428571 L19.36,20.4285714 L17.6,20.4285714 L17.6,23.6785714 Z" id="Shape-path"></path>
                <path d="M19.5,11 C20.328375,11 21,11.7960001 21,12.7777778 L21,12.7777778 L21,17.2222222 C21,18.204 20.328375,19 19.5,19 L19.5,19 L7.5,19 C6.671625,19 6,18.204 6,17.2222222 L6,17.2222222 L6,12.7777778 C6,11.7960001 6.671625,11 7.5,11 L7.5,11 Z M12.1397285,13.3530244 L9.65972854,13.3530244 L9.65972854,14.0530244 L11.1597285,14.0530244 L9.65972854,16.2130244 L9.65972854,16.8630244 L12.1397285,16.8630244 L12.1397285,16.1630244 L10.6297285,16.1630244 L12.1397285,14.0030244 L12.1397285,13.3530244 Z M13.7797285,13.3530244 L12.9247285,13.3530244 L12.9247285,16.8630244 L13.7797285,16.8630244 L13.7797285,13.3530244 Z M16.0097285,13.3530244 L14.6247285,13.3530244 L14.6247285,16.8630244 L15.4797285,16.8630244 L15.4797285,15.6030244 L16.0097285,15.6030244 C16.9047285,15.6030244 17.2997285,15.0630244 17.2997285,14.4830244 C17.2997285,13.8380244 16.8697285,13.3530244 16.0097285,13.3530244 Z M15.9447285,14.0430244 C16.2847285,14.0430244 16.4297285,14.2130244 16.4297285,14.4830244 C16.4297285,14.7530244 16.2847285,14.9230244 15.9447285,14.9230244 L15.4797285,14.9230244 L15.4797285,14.0430244 L15.9447285,14.0430244 Z" id="Combined-Shape"></path>
            </g>
        </g>
    </g>
</svg>