<svg xmlns="http://www.w3.org/2000/svg" xmlns:xlink="http://www.w3.org/1999/xlink" width="512" height="512" xmlns:v="https://vecta.io/nano"><style><![CDATA[.B{fill:#696969}.C{fill:#898989}.D{fill:#a0a0a0}.E{fill:#80caa1}.F{fill:#978f33}.G{fill:#8b8433}.H{fill:#b0a633}.I{fill:#7e7833}.J{fill:#809ad6}.K{fill:#a49b33}.L{fill:#f6a09a}.M{fill:#c9bd33}.N{fill:#656133}.O{fill:#f48881}.P{fill:#6d6500}.Q{fill:#8d8100}.R{fill:#6081cc}.S{fill:#f8b8b3}.T{fill:#7d7300}.U{fill:#f5948d}.V{fill:#f27168}.W{fill:#9fd7b9}.X{fill:#9fb3e0}.Y{fill:#fbd0cd}.Z{fill:#924d48}.a{fill:#bfbfbf}.b{fill:#cacaca}.c{fill:#50b67e}.d{fill:#afdec4}.e{fill:#8fd1ad}]]></style><path d="M0 0v512h512V0H0z"/><path d="M250 8.424c-22.134 2.906-43.322 3.767-65 10.296C117.646 39.006 61.644 88.102 32.31 152-32.566 293.306 56.577 470.146 212 496.08c21.747 3.63 46.035 5.26 68 2.635C395.308 484.924 489.646 395.446 500.83 278 511.826 162.535 438.53 50.598 326 18.29c-23.258-6.677-51.733-13.053-76-9.867z" fill="#fff"/><path d="M242 21v1h4l-4-1z" fill="#bfcdeb"/><path d="M246 21v1h20l-20-1z" class="J"/><path d="M266 21v1h5l-5-1z" fill="#bfcdeb"/><path d="M232 22v1h6l-6-1z" fill="#4068c2"/><path d="M37 176c4.54 0 12.665 1.562 16.582-1.028 5.954-3.937 9.3-18.683 12.843-24.972 9.806-17.358 21.74-33.658 35.615-47.996C140.66 62.096 197.34 37.09 253 37c57.517-.092 114.2 22.206 155 63 14.414 14.408 26.746 30.29 36.85 48 3.848 6.745 7.647 22.578 13.8 26.972C462.333 177.603 470.64 176 475 176c-1.126-11.24-8.216-23.32-13.72-33-13.927-24.5-30.87-46.556-52.28-65C316.626-1.574 175.586 5.414 90 91c-21.42 21.42-47.68 54.095-53 85z" fill="#0035ad"/><path d="M275 22v1h5l-5-1z" class="J"/><path d="M224 23v1h4l-4-1z" fill="#305bbc"/><use xlink:href="#B" fill="#5074c7"/><path d="M287 23v1h3l-3-1m-71 1v1h3l-3-1z" class="X"/><path d="M292 24v1h3l-3-1z" class="R"/><path d="M211 25v1h3l-3-1z" class="J"/><path d="M298 25v1h3l-3-1z" fill="#708dd1"/><use xlink:href="#B" x="19" y="3" class="X"/><use xlink:href="#B" x="-83" y="4" class="R"/><use xlink:href="#B" x="23" y="4" class="J"/><use xlink:href="#B" x="-87" y="5" class="R"/><use xlink:href="#B" x="27" y="5" class="J"/><use xlink:href="#B" x="-91" y="6" class="R"/><use xlink:href="#B" x="31" y="6" class="J"/><use xlink:href="#B" x="35" y="7" class="X"/><use xlink:href="#B" x="-98" y="8" class="R"/><path d="M184.667 32.333l.666.333-.666-.333m-3 1l.666.333-.666-.333m-3 1l.666.333-.666-.333z" fill="#5074c7"/><path d="M54 176h46c5.684 0 14.51 1.662 19.79-.603 4.65-1.995 7.8-9.452 10.637-13.397 6.198-8.615 13.513-16.666 21.572-23.572 32.32-27.693 68.907-39.63 111-39.427 34.264.165 71.23 17.024 96 40.09 7.572 7.05 14.72 14.56 20.845 22.9 2.87 3.915 5.868 11.356 10.48 13.397 5.413 2.395 14.814.603 20.674.603h47c-7.5-27.384-27.243-54.21-47-74-83.742-83.877-224.923-86.718-308.96-.985C81.098 122.378 64.8 148.163 54 176z" fill="#335dbd"/><path d="M374 53l1 1-1-1m-243 4l1 1-1-1m251 1l1 1-1-1m6 4l1 1-1-1m-266 1l1 1-1-1m273 4l1 1-1-1m-285 5l1 1-1-1m-6 5l1 1-1-1z" class="J"/><path d="M120 332l7 1c-11.767-25.204-23.342-50.372-22.98-79C105.013 175.1 172 104 252 104l-.603 30.895-14.963 12.145L233 168l19-8v17c-22.45 2.312-23.073 38.8 0 40v5c-16.122-1.418-22.655-19.382-31-31h-1c2.046 9.92 1.698 28.31 9.33 35.47 6.11 5.73 14.868 5.53 22.67 5.53v4h-23v5h23v4c-21.488.984-20.97 24.17 0 26v3h-23v6h23v4c-8.108.022-16.912.816-22.786 7.105-8.063 8.632-9.118 35.318-9.214 46.895h1c8.924-14.58 12.643-34.702 31-40-11.12 12.18-19.615 25.004-10.598 41.996 3.712 6.995 10.496 8.408 10.598 17.004l-17 1v1h36v-1c-3.585-.283-11.978-.215-12.534-5.066-.51-4.447 8.39-8.764 10.346-12.935 8.366-17.83.102-29.128-10.812-42 19.154 5.518 22.222 26.173 32 41h1c-1.55-12-1.277-37.792-9.228-46.957-6.235-7.186-19.43-4.945-23.772-12.043h23v-6h-23c3.15-5.155 10.556-4.552 14.697-9.188 9.962-11.155-5.39-18.61-14.697-19.812v-4h23v-5h-23v-4c7.48-.001 16.897.015 22.786-5.394 7.245-6.654 7.832-25.213 9.214-34.606-12.334 9.46-13.832 28.404-32 30v-4c22.546-4.022 24.1-38.53 0-41 0-6.102-1.75-15.444 1.028-21 6.347-12.694 20.245-19.12 20.972-35l-22 13v-30c78.183 0 144.582 67.854 147.96 145 1.323 30.216-9.78 56.198-21.96 83l7-1c11.696-28.093 19-52.28 19-83 0-19.5-4.47-38.118-12.15-56C355.676 93.8 228.137 70.745 150 139.286c-13.67 11.992-25.113 27.487-33.247 43.714-7.74 15.442-13.53 31.786-15.598 49-4.392 36.59 4.565 66.853 18.845 100z" fill="#333"/><path d="M240 104v1h6l-6-1z" class="M"/><path d="M252 356c-.1-8.29-6.98-10.13-10.598-17-7.296-13.853-3.003-31.132 10.598-39v-1c-16.962.882-26.92 27.128-32 41h-1c3.036-23.51 2.087-56.36 33-57v-3h-23v-6h23v-3c-20.476-3.026-21.487-24.112 0-26v-3h-23v-7h23v-2c-26.598-2.1-28.9-18.922-32-42h1c6.35 12.753 15.296 29.955 31 30-1.506-5.17-10.05-7.38-13.51-12-9.146-12.22-1.404-29.703 13.51-32v-17l-19 9c0-7.59-1.145-15.805 4.225-21.96 3.618-4.148 12.027-6.322 14.172-11.253 3.51-8.072.603-22.996.603-31.787-88.75 1.832-159.623 83.55-145.4 172 2.826 17.6 7.508 43.092 20.314 56.5 6.708 7.023 22.957 10.312 32.096 12.92 21.54 6.148 44.53 11.556 67 12.54 8.835.387 17.235-1.888 26-1.96m6-252v30l23-14c-1.386 15.384-15.735 22.525-21.972 35-2.888 5.776-1.028 15.65-1.028 22 24.305 4.335 21.592 34.765 0 41v4c16.036-2.073 25.25-18.446 32-32h1c-5.227 16.453-1.41 36.182-22 41.71-3.638.976-7.253 1.258-11 1.29v2c7.822 0 23.194-3.564 24 7h-24v3c8.92.31 23.728 9.117 14.843 18.94-3.886 4.295-13.32 4.85-14.843 10.06h24v6h-24v3c34.298 1.476 25.984 33.327 34 57-12.6-12.227-12.434-39.88-34-41 8.145 8.504 17.29 16.69 14.253 30-2.32 10.17-7.94 12.865-13.224 20.633-1.222 1.796-1.227 4.757.574 6.188 6.363 5.055 22.972 2.14 30.397 1.345 24.398-2.612 48.856-7.638 72-15.95 7.902-2.838 19.157-4.674 23.854-12.236 8.213-13.22 13.262-28.8 16.345-43.98C420.74 193.745 351.58 105.932 258 104z" fill="#fbeb33"/><path d="M264 104v1h6l-6-1z" class="M"/><path d="M231 105v1h3l-3-1z" class="G"/><path d="M275 105v1h3l-3-1z" class="H"/><use xlink:href="#C" class="I"/><path d="M282 106v1h3l-3-1z" class="G"/><path d="M221 107v1h3l-3-1z" class="K"/><path d="M287 107v1h3l-3-1z" class="I"/><use xlink:href="#C" x="-8" y="2" class="H"/><use xlink:href="#C" x="66" y="2" class="G"/><use xlink:href="#C" x="-12" y="3" class="K"/><use xlink:href="#C" x="70" y="3" class="I"/><path d="M279 120l1 5h1l-2-5z" class="F"/><path d="M450 125l1 1-1-1z" class="J"/><use xlink:href="#D" class="H"/><path d="M458 138l1 1-1-1z" class="J"/><path d="M233 153v4h1l-1-4z" class="F"/><path d="M233 157v7h1l-1-7z" class="N"/><use xlink:href="#C" x="8" y="62" class="F"/><use xlink:href="#D" x="196" y="48" class="R"/><path d="M36 176c-3.542 15.31-8.933 30.32-10.816 46-4.62 38.472 2.227 72.874 10.816 110h84c-4.22-7.438-18.718-11.865-26-16.424C76.2 304.425 51.16 288.23 41.318 269 38.27 263.044 40 253.532 40 247c0-24.66 9.484-46.2 13-70l-17-1z" fill="#ed4135"/><path d="M37 176v1h17l-17-1z" fill="#773b71"/><path d="M54 176v1h66l-21-1H54m336 0v1h68l-21-1h-47z" fill="#92628d"/><path d="M458 176v1h18l-18-1z" fill="#773b71"/><path d="M53 177c-5.538 23.94-13 46.07-13 71 0 6.188-1.276 14.037.514 20 2.232 7.436 11.038 14.75 16.486 19.96 16.59 15.868 39.552 34.572 62 41.04-17.48-37.62-24.717-75.237-13.845-116 3.394-12.723 9.83-23.956 14.845-36H53m337 0c15.06 32.256 25.42 64.946 18.7 101-3.38 18.1-11.697 33.668-16.7 51 23.347-10.06 45.12-26.115 63-44 5.723-5.725 14.706-13.14 17.41-21 4.677-13.586-.718-34.346-3.1-48-1.575-9.063-2.917-32.2-10.97-37.972C454.356 175.17 444.733 177 440 177h-50z" fill="#f1675d"/><path d="M459 177c5.604 20.532 11.135 39.704 13.17 61 .713 7.462 3.06 18.944-.158 26-9.56 20.958-37.206 39.33-56.012 51.305-7.838 4.99-20.96 8.708-26 16.695h62c5.823 0 18.608 2.402 23.5-1.028 2.8-1.974 3.34-6.912 4.22-9.972 2.558-8.908 4.522-17.862 6.044-27 6.77-40.628.3-77.47-8.753-117h-18z" fill="#ed4135"/><path d="M290 190l-1 2h2l-1-2z" class="G"/><use xlink:href="#E" class="U"/><path d="M234 192v8h1l-1-8z" class="N"/><use xlink:href="#D" x="-59" y="67" class="K"/><use xlink:href="#D" x="202" y="67" class="U"/><use xlink:href="#E" x="-1" y="4" class="O"/><use xlink:href="#D" x="-58" y="71" class="H"/><use xlink:href="#D" x="203" y="71" class="O"/><use xlink:href="#D" x="9" y="72" class="H"/><path d="M29 199v3h1l-1-3z" class="O"/><path d="M275 200v3h1l-1-3z" class="G"/><path d="M483 201v3h1l-1-3z" class="U"/><path d="M287 202v4h1l-1-4z" class="M"/><use xlink:href="#E" x="-3" y="12" class="L"/><use xlink:href="#D" x="205" y="79" fill="#f7aca7"/><use xlink:href="#E" x="-4" y="16" class="S"/><path d="M223 208v5h1l-1-5m63 2v6h1l-1-6z" class="M"/><path d="M485 210v4h1l-1-4z" class="V"/><path d="M399.333 211.667l.334.666-.334-.666m-289 1l.334.666-.334-.666z" class="H"/><path d="M26 214v3h1l-1-3z" class="O"/><path d="M224 216v3h1l-1-3z" class="G"/><path d="M249 217v1h3l-3-1z" class="I"/><path d="M486 217v3h1l-1-3z" class="O"/><path d="M247 221v1h5l-5-1z" class="M"/><use xlink:href="#C" x="36" y="115" class="G"/><path d="M487 222v6h1l-1-6z" class="U"/><path d="M402.333 223.667l.334.666-.334-.666m-295 1l.334.666-.334-.666z" class="F"/><path d="M24 226v6h1l-1-6z" class="L"/><path d="M106 229v3h1l-1-3z" class="I"/><path d="M403 229v3h1l-1-3z" class="H"/><use xlink:href="#C" x="14" y="125" class="G"/><path d="M268 231v1h3l-3-1z" class="I"/><path d="M247 232v1h5l-5-1m11 0v1h8l-8-1z" class="F"/><path d="M488 233v6h1l-1-6z" class="V"/><path d="M404 234v4h1l-1-4z" class="F"/><path d="M23 235v4h1l-1-4z" class="Y"/><path d="M229 235v1h23l-23-1m29 0v1h23l-23-1m23 1v6h1l-1-6m-176 2v5h1l-1-5z" class="M"/><path d="M23 239v4h1l-1-4z" class="L"/><path d="M229 241v1h23l-23-1m29 0v1h23l-23-1z" class="N"/><path d="M23 243v10h1l-1-10z" class="V"/><path d="M405 244v4h1l-1-4z" class="N"/><path d="M489 244v22h1l-1-22z" class="Y"/><path d="M261 245v1h3l-3-1z" class="G"/><path d="M99 247v14h1l-1-14z" fill="#c25a53"/><path d="M104 248v13h1l-1-13z" class="N"/><path d="M405 248v13h1l-1-13z" class="F"/><path d="M410 248v13h1l-1-13z" class="Z"/><path d="M234 255v5h1l-1-5z" class="N"/><path d="M23 256v10h1l-1-10z" class="V"/><use xlink:href="#D" x="-4" y="133" class="I"/><path d="M501 259v12h1l-1-12z" fill="#d3d3d3"/><path d="M405 261v4h1l-1-4z" class="N"/><path d="M23 266v4h1l-1-4z" class="L"/><path d="M409 268v5h1l-1-5z" class="Z"/><path d="M23 270v4h1l-1-4z" class="Y"/><path d="M488 270v6h1l-1-6z" class="V"/><path d="M11 274v3h1l-1-3z" fill="#b7b7b7"/><path d="M281 274v6h1l-1-6z" class="M"/><path d="M106 275v3h1l-1-3z" class="H"/><path d="M24 277v4h1l-1-4z" class="L"/><path d="M403 278v3h1l-1-3z" class="I"/><use xlink:href="#D" x="221" y="154" class="C"/><path d="M107 281v3h1l-1-3z" class="K"/><path d="M487 281v4h1l-1-4z" class="L"/><path d="M245 283v1h7l-7-1m16 0v1h3l-3-1z" class="F"/><path d="M402 283v3h1l-1-3z" class="G"/><use xlink:href="#E" x="-19" y="93" class="D"/><path d="M241 284v1h3l-3-1z" class="I"/><use xlink:href="#C" x="42" y="178" class="K"/><path d="M25 285v4h1l-1-4z" class="L"/><path d="M108 286v3h1l-1-3z" class="K"/><use xlink:href="#D" x="220" y="162" class="C"/><path d="M486 289v3h1l-1-3z" class="O"/><use xlink:href="#E" x="-18" y="100" class="D"/><path d="M498 293v3h1l-1-3z" class="a"/><use xlink:href="#D" x="-174" y="169" class="Z"/><path d="M485 295v3h1l-1-3z" class="O"/><path d="M14 296v3h1l-1-3z" class="a"/><use xlink:href="#E" x="-4" y="107" class="U"/><path d="M249 298v1h3l-3-1z" class="F"/><path d="M258 298v1h3l-3-1z" class="K"/><path d="M285 299v4h1l-1-4z" class="F"/><path d="M15 301v3h1l-1-3z" class="b"/><use xlink:href="#D" x="205" y="175" class="L"/><path d="M497 301l1 1-1-1z" class="B"/><path d="M28 303v3h1l-1-3z" class="L"/><path d="M496 305l1 1-1-1z" class="D"/><use xlink:href="#E" x="-15" y="115" class="a"/><use xlink:href="#D" x="204" y="180" class="S"/><path d="M16 308l1 1-1-1z" class="B"/><use xlink:href="#E" x="-2" y="117" class="S"/><path d="M495 308v3h1l-1-3z" class="b"/><use xlink:href="#D" x="203" y="184" class="S"/><path d="M17 312l1 1-1-1z" class="C"/><path d="M30.333 312.667l.333.666-.333-.666m451 2l.334.666-.334-.666z" class="S"/><path d="M494 314l1 1-1-1m-476 2l1 1-1-1z" class="C"/><path d="M271 316v3h1l-1-3z" class="I"/><path d="M287 316v3h1l-1-3z" class="H"/><path d="M493 318l1 1-1-1z" class="B"/><use xlink:href="#D" x="-57" y="193" class="G"/><path d="M19 320l1 1-1-1z" class="B"/><path d="M272 321v8h1l-1-8z" class="M"/><use xlink:href="#D" x="200" y="195" class="S"/><path d="M20 323l1 1-1-1z" class="D"/><path d="M221 324v3h1l-1-3z" class="K"/><path d="M491 325l1 1-1-1z" class="B"/><path d="M490 328l1 1-1-1z" class="C"/><use xlink:href="#D" x="10" y="203" class="F"/><path d="M121 331c4.813 20.483 30.426 41.21 47 52.33 55.11 36.97 129.164 34 182-5.704 14.28-10.732 35.72-29.4 40-47.625-9.72 2.895-13.786 13.846-20.174 21-13.16 14.738-34.322 36.67-54.826 40.608-5.79 1.112-9.614-6.026-13.04-9.608-7.338-7.674-17.85-21.088-28.96-22.787-12.184-1.863-36.748-3.57-47 3.726-7.945 5.654-15.116 13.183-22 20.06-2.85 2.847-6.47 7.955-11 7.577-5.05-.422-10.745-4.936-15-7.438-14.1-8.29-27.026-19.654-37.56-32.14-5.8-6.875-10.4-17.3-19.44-20z"/><path d="M489 331l1 1-1-1z" class="C"/><path d="M37 332c5.84 34.35 35.387 70.27 60 93.09C197.062 517.85 361.544 504.017 443.37 394c13.724-18.452 26.19-39.793 32.63-62h-61c-6.69 0-18.897-2.34-24.816 1.028-4.112 2.34-6.63 8.246-9.336 11.972-5.582 7.686-11.806 15.43-18.85 21.83-31.2 28.357-70.897 43.463-113 43.165-33.99-.24-71.258-16.077-96-39.085-8.25-7.67-16.176-15.816-22.845-24.9-2.87-3.915-5.868-11.356-10.48-13.397C113.33 329.797 101.89 332 95 332H37z" fill="#009543"/><path d="M383 332l1 1-1-1z" fill="#8a8226"/><use xlink:href="#D" x="196" y="207" class="W"/><path d="M128 334c9.453 19.893 28.92 35.917 47 47.655 4.573 2.97 15.28 11.098 21 9.104 15.285-5.33 22.36-26.863 39-31.76v-1c-38.208 0-71.058-14.17-107-24z" fill="#fae600"/><use xlink:href="#D" x="11" y="208" class="F"/><path d="M273 358v1c11.125 4.136 19.837 14.742 27.996 23 3.01 3.047 6.63 9.176 11.02 10.187 6.303 1.45 15.932-6.147 20.985-9.187 18.007-10.832 41.206-28.74 49-49-12.383 2.2-24.842 8.67-37 12.28-23.075 6.848-47.887 11.72-72 11.72z" fill="#fae600"/><path d="M488 334l1 1-1-1z" class="C"/><path d="M128 335l1 1-1-1z" class="P"/><use xlink:href="#D" x="-9" y="209" class="H"/><path d="M219 336v4h1l-1-4z" fill="#726d33"/><use xlink:href="#E" x="7" y="146" class="W"/><path d="M487 337l1 1-1-1z" class="B"/><path d="M130 338l1 1-1-1z" class="P"/><use xlink:href="#C" x="65" y="233" class="H"/><path d="M26 341l1 1-1-1z" class="B"/><path d="M377 341l1 1-1-1m-244 1l1 1-1-1z" class="Q"/><path d="M484 345l1 1-1-1z" class="B"/><path d="M28 346l1 1-1-1z" class="C"/><path d="M371 349l1 1-1-1z" class="P"/><path d="M30 351l1 1-1-1z" class="B"/><path d="M140 351l1 1-1-1z" class="Q"/><path d="M481 352l1 1-1-1z" class="B"/><path d="M31 353l1 1-1-1m449 1l1 1-1-1z" class="D"/><path d="M244 356v1h4l-4-1z" class="F"/><path d="M248 356v1h4l-4-1z" class="N"/><use xlink:href="#C" x="13" y="251" class="K"/><use xlink:href="#C" x="41" y="251" class="I"/><use xlink:href="#C" x="46" y="252" fill="#8d841a"/><path d="M232 359l1 1-1-1z" class="Q"/><path d="M277 360l1 1-1-1m-52 3l1 1-1-1z" class="T"/><path d="M462 363l1 1-1-1z" class="E"/><path d="M287 368l1 1-1-1m63 2l1 1-1-1z" class="P"/><path d="M215 372l1 1-1-1z" class="Q"/><path d="M471 372l1 1-1-1m-430 1l1 1-1-1z" class="D"/><path d="M163 373l1 1-1-1z" class="P"/><path d="M470 374l1 1-1-1m-428 1l1 1-1-1z" class="B"/><path d="M167 376l1 1-1-1z" class="P"/><path d="M342 376l1 1-1-1z" class="Q"/><path d="M170 378l1 1-1-1z" class="T"/><path d="M467 379l1 1-1-1z" class="D"/><path d="M45 380l1 1-1-1z" class="C"/><path d="M173 380l1 1-1-1z" class="T"/><path d="M452 380l1 1-1-1z" class="E"/><path d="M466 381l1 1-1-1z" class="B"/><path d="M176 382l1 1-1-1z" class="P"/><path d="M333 382l1 1-1-1z" class="Q"/><path d="M450 383l1 1-1-1z" class="E"/><path d="M464 384l1 1-1-1z" class="C"/><path d="M48 385l1 1-1-1z" class="B"/><path d="M328 385l1 1-1-1m-145 1l1 1-1-1z" class="T"/><path d="M448 386l1 1-1-1z" class="E"/><path d="M185 387l1 1-1-1z" class="T"/><path d="M306 387l1 1-1-1z" class="Q"/><path d="M462 387l1 1-1-1z" class="D"/><path d="M50 388l1 1-1-1z" class="C"/><path d="M189 389l1 1-1-1m2 1l1 1-1-1z" class="T"/><path d="M52 391l1 1-1-1z" class="C"/><path d="M67 391l1 1-1-1m376 2l1 1-1-1z" class="E"/><path d="M458 393l1 1-1-1z" class="D"/><path d="M54 394l1 1-1-1z" class="B"/><path d="M70 395l1 1-1-1z" class="E"/><path d="M456 396l1 1-1-1z" class="C"/><path d="M57 398l1 1-1-1m396 2l1 1-1-1m-393 2l1 1-1-1z" class="D"/><path d="M450 404l1 1-1-1m-387 2l1 1-1-1z" class="C"/><path d="M233 408v1h4l-4-1z" fill="#004b22"/><path d="M447 408l1 1-1-1z" class="B"/><path d="M242 409v1h11l-11-1z" fill="#004b22"/><path d="M430 409l1 1-1-1z" class="E"/><path d="M446 409l1 1-1-1m-379 2l1 1-1-1m1 1l1 1-1-1m373 3l1 1-1-1z" class="C"/><path d="M440 416l1 1-1-1z" class="D"/><path d="M74 419l1 1-1-1m1 1l1 1-1-1m1 1l1 1-1-1z" class="C"/><path d="M94 422l1 1-1-1z" class="E"/><path d="M89 434l1 1-1-1m1 1l1 1-1-1z" class="C"/><path d="M91 436l1 1-1-1z" class="B"/><path d="M418 438l1 1-1-1z" class="D"/><path d="M417 439l1 1-1-1m-319 3l1 1-1-1z" class="C"/><path d="M391 444l1 1-1-1z" class="E"/><path d="M411 444l1 1-1-1z" class="C"/><path d="M103 446l1 1-1-1z" class="D"/><path d="M104 447l1 1-1-1z" class="B"/><path d="M406 448l1 1-1-1m-298 2l1 1-1-1z" class="C"/><path d="M402 451l1 1-1-1z" class="D"/><path d="M379 452l1 1-1-1z" class="E"/><path d="M112 453l1 1-1-1z" class="B"/><path d="M398 454l1 1-1-1z" class="C"/><path d="M115 455l1 1-1-1m280 1l1 1-1-1m-277 1l1 1-1-1m271 3l1 1-1-1m-265 1l1 1-1-1z" class="D"/><path d="M386 462l1 1-1-1z" class="C"/><path d="M127 463l1 1-1-1z" class="B"/><path d="M381 465l1 1-1-1z" class="D"/><path d="M132 466l1 1-1-1z" class="B"/><path d="M134 467l1 1-1-1z" class="D"/><path d="M376 468l1 1-1-1z" class="B"/><path d="M374 469l1 1-1-1z" class="D"/><path d="M139 470l1 1-1-1m2 1l1 1-1-1z" class="B"/><use xlink:href="#C" x="-50" y="367" class="c"/><use xlink:href="#C" x="105" y="369" class="d"/><path d="M151 476l1 1-1-1z" class="B"/><use xlink:href="#C" x="102" y="370" class="d"/><path d="M153 477l1 1-1-1z" class="B"/><use xlink:href="#C" x="-38" y="371" class="c"/><use xlink:href="#C" x="-35" y="372" fill="#60bd8a"/><use xlink:href="#C" x="95" y="372" class="e"/><path d="M356 478l1 1-1-1z" class="D"/><use xlink:href="#C" x="-31" y="373" class="c"/><use xlink:href="#C" x="92" y="373" class="d"/><path d="M354 479l1 1-1-1z" class="B"/><path d="M197 480v1h3l-3-1z" class="E"/><use xlink:href="#C" x="88" y="374" class="W"/><path d="M201 481v1h3l-3-1z" class="E"/><use xlink:href="#C" x="84" y="375" class="W"/><path d="M349 481l1 1-1-1z" class="D"/><use xlink:href="#C" x="-19" y="376" fill="#70c395"/><use xlink:href="#C" x="79" y="376" class="E"/><path d="M210 483v1h3l-3-1z" class="e"/><path d="M299 483v1h3l-3-1z" class="E"/><path d="M344 483l1 1-1-1z" class="D"/><path d="M170 484l1 1-1-1z" class="C"/><path d="M216 484v1h4l-4-1z" fill="#40b072"/><path d="M294 484v1h3l-3-1m-72 1v1h3l-3-1z" class="e"/><path d="M285 485v1h6l-6-1z" class="E"/><path d="M339 485l1 1-1-1z" class="B"/><path d="M229 486v1h8l-8-1m47 0v1h7l-7-1z" class="E"/><path d="M336 486l1 1-1-1z" class="C"/><path d="M240 487v1h4l-4-1z" fill="#bfe5d0"/><path d="M244 487v1h24l-24-1z" class="E"/><path d="M268 487v1h4l-4-1z" fill="#bfe5d0"/><path d="M333 487l1 1-1-1m-3 1l1 1-1-1z" class="C"/><path d="M327 489l1 1-1-1m-139 1l1 1-1-1m132 1l1 1-1-1z" class="B"/><path d="M316 492l1 1-1-1z" class="C"/><path d="M312 493l1 1-1-1z" class="B"/><path d="M294 496v1h4l-4-1z" fill="#d5d5d5"/><path d="M288 497v1h3l-3-1z" class="b"/><path d="M291 497l1 1-1-1z" class="B"/><path d="M229.667 498.333l.666.334-.666-.334M281 498v1h3l-3-1m-41 1v1h5l-5-1z" class="D"/><path d="M245 499v1h10l-10-1m13 0v1h10l-10-1z" fill="#d5d5d5"/><path d="M268 499v1h4l-4-1z" class="D"/><defs ><path id="B" d="M285.667 23.333l.666.333-.666-.333z"/><path id="C" d="M225.667 106.333l.666.334-.666-.334z"/><path id="D" d="M279.333 126.667l.334.666-.334-.666z"/><path id="E" d="M31.333 191.667l.333.666-.333-.666z"/></defs></svg>