<svg xmlns="http://www.w3.org/2000/svg" xmlns:xlink="http://www.w3.org/1999/xlink" width="512" height="512" xmlns:v="https://vecta.io/nano"><style><![CDATA[.B{fill:#807133}.C{fill:#998633}.D{fill:#665d33}.E{fill:#333}.F{fill:#a69033}.G{fill:#8c7c33}.H{fill:#ccb033}.I{fill:#ffd933}.J{fill:#999}.K{fill:#b39b33}.L{fill:#898989}.M{fill:#696969}.N{fill:#a0a0a0}.O{fill:#33a8d3}.P{fill:#336e83}.Q{fill:#bfe4f1}.R{fill:#9fd6ea}.S{fill:gray}.T{fill:#ffcd00}.U{fill:#80c8e4}.V{fill:#a6a6a6}.W{fill:#fff}.X{fill:#40add6}.Y{fill:#8c8c8c}.Z{fill:#bfbfbf}.a{fill:#80c9e4}.b{fill:#b26700}.c{fill:#650000}.d{fill:#50b3d9}.e{fill:#9f9f9f}.f{fill:#8c3300}.g{fill:#60badd}.h{fill:#8f8f8f}.i{fill:#60bbdd}.j{fill:#595233}.k{fill:#737373}.l{fill:#606060}.m{fill:#afddee}.n{fill:#666}.o{fill:#b3b3b3}.p{fill:#d99a00}.q{fill:#a85a00}.r{fill:#50b4d9}.s{fill:#736733}.t{fill:#8fcfe7}.u{fill:#707070}.v{fill:#ca0000}.w{fill:#ccc}.x{fill:#e58080}.y{fill:#954000}.z{fill:#6f0d00}.AA{fill:#e17070}.AB{fill:#e88f8f}.AC{fill:#70c2e0}.AD{fill:#e3504c}.AE{fill:#338bab}.AF{fill:#505050}.AG{fill:#404040}.AH{fill:#dc241f}.AI{fill:#ee928f}.AJ{fill:#f1a8a6}.AK{fill:#337c97}.AL{fill:#33505b}.AM{fill:#bfa533}.AN{fill:#980000}.AO{fill:#781a00}.AP{fill:#8ccee6}.AQ{fill:#c58000}.AR{fill:#f5c000}.AS{fill:#70c1e0}.AT{fill:#5f92b1}.AU{fill:#33aa69}.AV{fill:#d9ba33}.AW{fill:#403d33}.AX{fill:#cacaca}.AY{fill:#eb9f9f}.AZ{fill:#843333}.Aa{fill:#eeafaf}.Ab{fill:#9f4d00}.Ac{fill:#954500}.Ad{fill:#8b0000}.Ae{fill:#e2a700}.Af{fill:#99d3e9}.Ag{fill:#850000}.Ah{fill:#cf8d00}]]></style><path d="M0 0v512h512V0H0z"/><path d="M250 8.424c-22.134 2.906-43.322 3.767-65 10.296C117.646 39.006 61.644 88.102 32.31 152-32.566 293.306 56.577 470.146 212 496.08c21.747 3.63 46.035 5.26 68 2.635C395.308 484.924 489.646 395.446 500.83 278 511.826 162.535 438.53 50.598 326 18.29c-23.258-6.677-51.733-13.053-76-9.867z" class="W"/><path d="M241 21v1h5l-5-1z" class="Q"/><path d="M246 21v1h20l-20-1z" class="a"/><path d="M266 21v1h5l-5-1z" class="Q"/><path d="M230 22v1h5l-5-1z" class="a"/><path d="M151 64c10.56-3.342 20.532-9.627 31-13.575 19.855-7.488 40.838-11.886 62-13.336C338.178 30.64 431.846 94.552 461 184c2.695-.227 5.656-.082 6.694 3.062 1.074 3.25-2.255 6.547-2.097 9.938.378 8.124 3.304 16.922 4.65 25 1.937 11.627 6.11 29.534 2.164 41-2.016 5.86-8.244 11.6-12.45 16-10.41 10.886-21.777 22.488-34.96 30 3.767 8.068 6.42 16.29 16 18 2.542-23.4 26.5-4.05 38-2 4.295-29.188 11.97-55.933 9.9-86-5.574-81.406-54.647-158.082-128.9-193.514-48.953-23.356-106.165-30.548-159-17.36-12.162 3.036-24.457 6.515-36 11.452-3.862 1.652-10.467 3.47-12.972 7.06C149.294 50.553 151 59.384 151 64z" fill="#0092c8"/><path d="M274 22v1h4l-4-1z" class="X"/><path d="M278 22v1h5l-5-1z" class="Q"/><path d="M285 23v1h5l-5-1m-69 1v1h3l-3-1z" class="R"/><path d="M292 24v1h3l-3-1z" class="i"/><path d="M211.667 25.333l.666.333-.666-.333z" class="a"/><path d="M298 25v1h3l-3-1z" class="AC"/><path d="M206.667 26.333l.666.333-.666-.333z" class="a"/><path d="M304.667 26.333l.666.333-.666-.333z" class="R"/><path d="M202.667 27.333l.666.333-.666-.333m-4 1l.666.333-.666-.333m-4 1l.666.333-.666-.333z" class="i"/><path d="M320.667 30.333l.666.333-.666-.333z" class="R"/><path d="M187.667 31.333l.666.333-.666-.333z" class="i"/><path d="M184.667 32.333l.666.333-.666-.333m-3 1l.666.333-.666-.333m-3 1l.666.333-.666-.333z" class="r"/><path d="M150 320c5.02 1.29 9.587 5.917 15 5.54 7.642-.533 12.628-8.303 21-7.315 9.38 1.106 16.803 11.44 25.985 11.414 5.228-.015 8.217-7.294 13.016-9.257 5.935-2.428 12.286 1.06 18 2.618v-1c-12.6-9.565-21.646-22.948-34-32.47-5.92-4.562-15.922-3.903-20.663-8.132-3.366-3.004.183-7.348 1.663-10.397-5.8-2.748-16.208-5.078-20.663-9.513-5.688-5.663 3.77-7.09 7.663-5.487 8.545-15.333 23.193-26.296 32.258-41 6.582-10.678 5.646-27.76 12.43-38.96 5.74-9.476 22.324-17.584 31.31-24.04v-1c-14.468.3-31.073 13.423-41-3h11v-1l-5-9c11.398 2.116 24.94.623 35.856-3.394 3.47-1.277 7.192-10.425 11.522-5.27 3.164 3.768-3.27 14.617-3.378 19.663 8.34 1.617 16.587 3.26 25 4.424 2.328.32 7.705.088 8.654 2.9.833 2.458-1.97 4.545-3.674 5.72-6.244 4.3-12.496 7.512-17.965 12.98-14.377 14.37-12.533 23.4-11.015 41.985h1l12.223-23 2.944-9.83 28.685-26.34 4.75-10.227L325 140c-10.482-2.494-32.664 8.958-39-2l8-1-7-11c12.137 2.253 26.786.86 38.896-1.147 3.823-.634 8.57-7.536 12.254-2.415 4.1 5.703-7.487 12.712-1.817 18.893 3.984 4.343 22.58 11.83 22.612 17.773.018 3.425-4.958 7.378-6.93 9.896-7.317 9.34-14.25 19.488-7.015 31l5.887-12-.087-8.9 14.2-11.464L396 144v-1c-11.28 0-31.193 7.5-40-1l11-2v-1l-9-10h42c.916-4.485 7.267-10.283 9.583-2.94 1.564 4.957-6.232 11.43-1.965 15.972 4.32 4.598 14.548 6.75 20.38 8.806 2.314.815 6.53 1.918 6.08 5.177-.51 3.704-5.417 4.764-8.075 6.376-4.61 2.793-8.207 7.416-11.493 11.6-16.26 20.754-17.978 36.066-11.51 61l30.4-2.028L442 218l-32-2 14-28c6.225 1.892 28.336 8.187 33.415 3.397 7.72-7.282-1.27-21.06-4.416-28.397-11.304-26.36-29.802-50.658-51-69.83-51.422-46.508-123.357-65.18-191-51.57-15.535 3.126-30.578 8.593-45 15.094-4.327 1.95-12.236 3.997-14.397 8.685-2.622 5.69-.37 15.425-.642 21.62-.775 17.68.04 35.233.04 53l-1 180z" class="O"/><path d="M149 47c-20.57 12.018-44.962 25.07-59 45h8v13l33-27.573 17.972-12.756L149 47z" class="AH"/><path d="M150 47v18h1l-1-18z" fill="#37779e"/><path d="M131 57l1 1-1-1m-9 6l1 1-1-1z" class="AI"/><path d="M149 65l-38 27.925L99.028 105 98 124c19.25-8.58 29.427-32 52-32l-1-27z" class="AD"/><path d="M150 65v27h1l-1-27z" class="AT"/><path d="M110 72l1 1-1-1m-6 5l1 1-1-1z" class="AI"/><path d="M97 92v33h1l-1-33z" class="AJ"/><path d="M98 151l36-28 14.972-13.17L150 92c-16.714 0-25.474 10.898-38 21-4.073 3.285-11.297 7.334-13.397 12.29C95.748 132.028 98 143.713 98 151z" class="AU"/><path d="M75 107c-6.1 8.478-9.19 12.62 1 19l-1-19z" class="AH"/><path d="M76 107v20h1l-1-20z" fill="#f6c8c7"/><path d="M150 109v28h1l-1-28z" class="AT"/><path d="M149 110l-32 27h33l-1-27z" class="AD"/><path d="M66 119l-10 17 20 1c0-8.853-1.253-14.1-10-18z" fill="#009543"/><path d="M330 126h-43l7 11-8 1c3.63 10.426 31.327 1 40 1l-13.973 8.603-4.175 9.307-30.23 28.18-1.53 8.196L264 217h-1l-2.592-22 12.63-18 18.942-14.35 4.267-6.337-8.248-2.9L262 149c.248-5.424 6.98-15.05 3.968-19.68-1.534-2.36-4.6-2.28-6.67-.715-11.943 9.043-25.942 11.996-41.3 9.396.24 4.355 1.17 6.763 5 9v1h-11c6.66 16.44 28.843 3.53 41 3v1c-8.62 4.293-27.523 15.376-31.948 24.04-5.677 11.113-5.494 27.74-11.794 37.96-9.096 14.754-25.956 25.378-32.258 42-4.023-2.133-13.762-.676-8.392 5.487 3.82 4.385 15.83 7.62 21.392 9.513-1.663 2.737-4.43 7.252-1.97 10.397 2.678 3.426 14.505 4.193 18.97 7.392 13.25 9.488 21.184 25.535 36 33.21v1c-6.318-2.433-14.446-4.99-20.957-1.543-3.636 1.925-5.647 7.883-10.058 7.974-4.683.095-10.075-4.825-13.985-6.992-5.92-3.28-13.297-4.55-20-3.045-4.857 1.1-8.908 5.988-14 5.802-4.5-.164-9.268-6.23-13.682-4.535-2.51.963-2.328 4.274-1.286 6.246 9.067 17.16 26.032-1.218 36.968.666 10.648 1.833 20.24 15.385 31.96 10.418 4.793-2.032 6.617-8.806 12.044-9.372 9.89-1.03 17.7 10.313 27.996 9.233 7.013-.736 11.07-10.803 18-9.658 10.437 1.725 18.075 12.337 29 12.758 11.037.426 7.98-13.19 17.005-13.63 10.924-.535 20.21 9.45 30.994 10.334 9.054.742 7.207-9.878 14.045-12.303 5.256-1.863 12.07 3.852 16.956 5.166 3.82 1.026 7.47-1.3 11-2.52v-2l-8-3 23-20v2l15 5c-3.444-5.392-7.813-9.167-14-11 7.693-9.98 18.744-23.35 21-36 9.187-.223 7.948-5.5 7-13h4c0-21.315 15.48-33.523 20.836-53 1.018-3.703-.965-7.288-.836-11l-3-1c-4.8 12.89-25.04 5.64-36 3l-14 28 32 2c-6.58 14.094-10.835 17-26 17-3.34 0-8.656.962-11.567-1.028-5.672-3.878-7.354-24.762-6.042-30.972 2.703-12.79 14.132-26.706 22.894-35.9 3.092-3.247 13.84-6.832 13.25-11.96-.747-6.486-21.5-8.798-26.176-13.098-5.16-4.743 4.046-11.557 1.51-16.883-3.315-6.96-8.71-.968-8.867 3.852h-43c1.062 5.258 3.95 8.278 9 10v1l-11 2c7.3 10.657 29.402-1.305 40 1v1l-32 23.626-12.97 10.548-.697 9.826L345 200c-5.236-11.83-1.236-19.23 6.236-29 2.296-3.002 8.564-7.91 8.557-11.896-.01-6.424-19.355-13.62-23.382-18.57-4.664-5.73 4.725-11.44 2.74-17.307-2.14-6.32-8.776-1.922-9.15 2.772z" class="E"/><use xlink:href="#B" class="G"/><path d="M329 123l-2 2v1c2.25-.473 3.118-.86 2-3z" class="AK"/><path d="M332 124v1l5 1v-3l-5 1m72.603 1.157c-1.733 1.158.06 3.844 1.794 2.686s-.06-3.844-1.794-2.686z" class="I"/><path d="M97 125c0 6.32-2.874 22.74 2 27l-2-27z" fill="#99d5b4"/><path d="M313 125v1h8l-8-1z" class="AL"/><path d="M400 125v4h1l-1-4z" class="P"/><use xlink:href="#B" y="4" class="B"/><path d="M76 127v11h1l-1-11z" fill="#cceada"/><path d="M294 127v1h9l-9-1z" class="AE"/><path d="M311 128v1h5l-5-1z" class="H"/><path d="M292 130v1l12 3v2l-9 3v1c12.915-1.028 22.982-4.976 36-2l2-8h-41z" class="I"/><path d="M326 128v1h3l-3-1z" class="G"/><path d="M387 128v1h12l-12-1z" class="P"/><use xlink:href="#B" x="-27" y="7" class="C"/><use xlink:href="#B" x="-3" y="7" class="B"/><path d="M260 131v2l4 1v-4l-4 1z" class="I"/><path d="M295 130v1h8l-8-1z" class="C"/><use xlink:href="#C" class="F"/><path d="M385 131v1h14l-14-1z" class="C"/><path d="M380 132v1h3l-3-1z" class="F"/><path d="M364 134v1l10 2-6 5v1l35-2 1-8-40 1z" class="I"/><use xlink:href="#B" x="67" y="10" class="B"/><path d="M297 133v1h6l-6-1z" class="H"/><use xlink:href="#C" x="68" y="2" class="B"/><use xlink:href="#B" x="42" y="11" class="K"/><use xlink:href="#C" x="39" y="3" class="B"/><use xlink:href="#D" fill="#6e5d31"/><path d="M368 136v1h3l-3-1z" class="K"/><use xlink:href="#D" y="1" class="AI"/><path d="M57 137v1h19l-19-1z" fill="#80caa1"/><path d="M116 137v1h34l-34-1z" class="AJ"/><path d="M150 137v22h1l-1-22z" fill="#66bede"/><path d="M255 137v1h6l-6-1z" class="D"/><path d="M248 138v1h3l-3-1z" class="G"/><path d="M223 143v1l10 3v1l-15 3v1l40-3 3-11-38 5z" class="I"/><use xlink:href="#B" x="-30" y="16" class="B"/><path d="M223 139v1h9l-9-1z" class="P"/><use xlink:href="#B" x="-90" y="17" class="F"/><path d="M299 139v1h3l-3-1z" class="G"/><path d="M323 139v1l3 1-3-2z" class="AK"/><path d="M389 139v1h6l-6-1m-148.333 1.333l.666.334-.666-.334z" class="C"/><path d="M381 140v1h4l-4-1z" class="D"/><use xlink:href="#B" x="64" y="18" class="F"/><use xlink:href="#B" x="-98" y="19" class="C"/><path d="M329 141l-2 6 2-6z" class="F"/><use xlink:href="#B" x="43" y="19" class="B"/><path d="M221 142v1h4l-4-1z" class="H"/><path d="M225 142v1h10l-10-1m141 0l3 2-3-2z" class="D"/><path d="M371 142v1h3l-3-1z" class="F"/><path d="M389 142v1h6l-6-1z" class="P"/><path d="M75 143l1 27h1c0-6.32 2.874-22.74-2-27z" fill="#cceada"/><path d="M63 153l-14 38c7.32-3.737 23.372-14.198 26.397-22.04C78.032 162.13 76 151.286 76 144l-13 9z" class="AU"/><path d="M332 144v4c8.673 2.578 8.022 6.715 5 14l15-5-20-13z" class="O"/><path d="M400 144l-6 19c4.404-3.017 7.805-13.955 6-19z" class="I"/><path d="M404 146l-4 14 22-6c-3.49-5.322-11.988-7.187-18-8z" class="O"/><path d="M246 148v1h7l-7-1z" class="C"/><path d="M253 148v1h4l-4-1z" class="H"/><path d="M316 148v1l1 5h1l1-5h1v4h1v-5h-5z" class="D"/><path d="M227 149v1h3l-3-1z" class="G"/><path d="M316 149v6h1l1-6h-2m3 0v6h1l-1-6z" class="H"/><path d="M322 149v7h1l1-7h-2z" class="AM"/><path d="M326 149l2 2v-2h-2z" class="B"/><path d="M394 149l-26 21c10.406-1.537 30.315-6.416 26-21z" class="O"/><path d="M218 150v1h6l-6-1z" class="C"/><use xlink:href="#B" x="-95" y="28" class="G"/><path d="M313 150v6h1l1-6h-2m12 0v6h1l-1-6z" class="C"/><path d="M326 150v3h1l-1-3z" class="I"/><path d="M329 150l2 3v-3h-2z" class="K"/><path d="M331 150l1 4h1l-2-4z" class="D"/><path d="M333 151l-1 5h1v-5z" class="I"/><path d="M231 152v1h3l-3-1z" class="F"/><path d="M256 152l-3 12h1l2-12z" class="AV"/><path d="M260 152l-2 11 24-6-22-5z" class="O"/><use xlink:href="#C" x="65" y="21" class="I"/><path d="M221 153v1h7l-7-1z" class="C"/><path d="M336 153l-2 7h1l1-7z" fill="#f2cf33"/><use xlink:href="#C" x="73" y="22" class="G"/><path d="M30 200c21.677-.014 26.998-29.18 34-46-19.58 8.288-31.25 25.59-34 46z" fill="#009543"/><path d="M328 154v3l2-3h-2z" class="C"/><use xlink:href="#C" x="134" y="23" class="G"/><use xlink:href="#B" x="96" y="32" class="B"/><path d="M352 183c19.455-.404 41.867-12.45 60-19.19 5.99-2.226 16.264-3.353 20-8.81-19.693.86-42.327 11.132-61 17.333-6.348 2.11-16.77 3.538-19 10.667z" class="I"/><path d="M221 156v1h8l-8-1z" class="AE"/><path d="M331 156v3h1l1-3h-2z" class="C"/><path d="M223 179l71-20v-2c-17.402 1.423-34.99 9.67-52 13.65-6.25 1.463-15.604 2.386-19 8.35z" class="I"/><path d="M44 158v1h13l-13-1z" class="AI"/><path d="M97 170h1v-11h18c-11.605-4.87-19-.66-19 11z" fill="#99d5b4"/><path d="M116 158v1h34l-34-1z" class="AJ"/><path d="M250 158l-16 11v1c6.492-1.117 17.834-3.268 16-12z" class="O"/><path d="M38 174l18-14c-11.34-4.758-16.492 3.93-18 14z" class="AH"/><path d="M98 159l.603 10.714L108 178.8l26 20.262L147 202c8.296-7.892.575-18.033-6-23.424-7.2-5.904-16.045-16.106-25-19.012-5.337-1.732-12.43-.564-18-.564z" class="AU"/><path d="M117 159c8.142 10.065 22.02 20.14 33 27v-27h-33z" class="AD"/><path d="M150 159v27h1l-1-27z" class="AT"/><use xlink:href="#B" x="-52" y="37" class="F"/><use xlink:href="#B" x="-44" y="37" class="B"/><path d="M319 159l-10 13 8-2 2-11z" class="O"/><use xlink:href="#B" x="-11" y="37" class="B"/><path d="M279 187v1l32-10.14L357 160c-6.507-1.924-16.862 4.032-23 6.388-18.057 6.93-37.895 11.502-55 20.612z" class="I"/><use xlink:href="#B" x="-47" y="38" class="B"/><path d="M290 179c10.883-1.933 18.173-9.31 23-19-8.545 2.032-17.777 12.17-23 19z" class="O"/><path d="M323 160l-3 9h1l2-9z" fill="#e6c433"/><use xlink:href="#B" x="-59" y="39" class="K"/><path d="M326 166l7-2c-3.386-3.132-6.204-2.754-7 2z" class="O"/><path d="M252 163v3l2-1v-1l-2-1z" class="F"/><use xlink:href="#B" x="78" y="41" class="B"/><path d="M393 191l16-24c-7.622 3.584-13.475 13.55-17 21h-1l10-18-14 17 8-15-13 16 6-12-8 11h-1l5-11-8 11h-1l2-7-7 8 3-8-4 5-2-3-2 4-2-2h-1c-29.208 16.9-25.033 68.465-14 95h1l1-10 2 1v-7h1l2 3v-10h1l3 6-1-14h1l3 11h1l-1-18h1c.707 4.785 1.733 11.313 6 14l-3-20h1l5 19h3l-3-19h1c1.225 5.917 2.063 16.8 9 18l-4-18h1c2.316 7.243 3.002 18.192 11 21-1.456-8.59-3.534-16.105-2.9-25 1.904-27.173 19.298-46.234 32.9-68-13.445 3.24-17.122 19.842-27 28z" class="I"/><use xlink:href="#B" x="-60" y="42" class="B"/><path d="M333 187h-1l11-19c-8.486 4.044-12.2 14.993-18 22l10-19h-1l-11 17h-1l8-16-10 14h-1l2-7h-1l-5 9h-1l5-11-8 11h-1l2-7-6 9h-1l3-9-5 7-2-3-1 3h-1v-3l-3 4h-1v-3c-31.615 13.68-39 56.066-25 86l13-11 5 1-1-4h1l6 5-1-6h1c.967 4.008 1.903 6.7 6 8l-2-12 9 14-3-18h1c1.365 5.956 2.695 18.806 9 21l-5-24h1c2.443 7.64 3.793 23.804 11 28l-6-28h1c1.2 8.134 4.647 27.75 12 32l-8-34h1c1.688 11.426 6.067 34.432 16 41-1.917-12.982-8.558-24.684-9.83-38-2.014-21.073 1.63-42.06 11.1-61 3.896-7.79 9.883-14.275 13.73-22-8.463 2.938-15.307 15.194-19 23z" class="I"/><path d="M268 177l13-11c-5.614-.748-10.865 6.422-13 11z" class="AV"/><use xlink:href="#B" x="-77" y="44" class="K"/><use xlink:href="#B" x="-81" y="45" class="F"/><use xlink:href="#B" x="-70" y="45" class="B"/><path d="M259 179l7-10-9 7 3-5-11 9 3-6-8 7 4-6-8 6 2-5-7 5 2-3c-24.395 5.914-25.343 32.946-21 54h1l3-9h1v3h1v-8h2v6h1l1-9h1v7h2v-9h1l1 9h2v-9h1l1 11h2v-12h1l1 13h1l1-9h1l1 12h1v-9h1l1 12h1c0-21.573 10.112-32.247 18-51l-3 2 11-15-14 12z" class="I"/><use xlink:href="#B" x="8" y="45" class="G"/><use xlink:href="#B" x="64" y="46" class="B"/><use xlink:href="#B" x="-88" y="47" class="K"/><path d="M75 170c-9.463 8.24-26.882 16.44-28 30h29l-1-30z" class="AD"/><path d="M76 170v30h1l-1-30z" fill="#f8d3d2"/><path d="M97 170v30h1l-1-30z" class="AJ"/><use xlink:href="#C" x="71" y="39" class="B"/><use xlink:href="#B" x="32" y="48" class="AE"/><path d="M98 171v29h36c-8.13-10.05-24.248-23.617-36-29z" class="AD"/><use xlink:href="#C" x="131" y="40" class="C"/><use xlink:href="#B" x="-87" y="50" class="B"/><use xlink:href="#E" fill="#907757"/><path d="M252 173l-3 7c2.685-2.088 4.55-3.683 3-7z" class="j"/><use xlink:href="#B" x="50" y="51" class="B"/><path d="M247 174l-3 7 6-6-3-1m12 5l5-5-5 5z" class="j"/><path d="M388 174v3h1l1-3h-2z" class="B"/><use xlink:href="#C" x="211" y="43" class="i"/><path d="M237.667 175.333l.666.334-.666-.334M267 175l-5 7c3.398-1.47 6.3-2.943 5-7z" class="B"/><path d="M256 176l1 1-1-1z" class="E"/><path d="M322 176l-1 4h1v-4z" class="H"/><use xlink:href="#B" x="-104" y="55" class="B"/><path d="M236 177l-1 4 4-3-3-1z" class="j"/><path d="M250 184l7-7-7 7z" class="B"/><use xlink:href="#C" x="212" y="46" class="r"/><use xlink:href="#B" x="-108" y="56" class="G"/><path d="M240 181l3-3-3 3z" class="B"/><path d="M266 178l1 1-1-1z" class="I"/><use xlink:href="#B" x="36" y="56" class="B"/><path d="M377 178v3h1l1-3h-2z" class="H"/><path d="M258 179l1 1-1-1z" class="AW"/><path d="M312 179v3h1l1-3h-2m61.333.667l.334.666-.334-.666z" class="F"/><path d="M248 180l1 1-1-1z" class="D"/><path d="M255 183l4-3-4 3z" class="AM"/><path d="M349 180v4h1l-1-4z" class="P"/><use xlink:href="#C" x="213" y="49" class="r"/><path d="M247 181l1 1-1-1z" class="B"/><path d="M325 181l-3 7h1l4-7h-2z" class="j"/><path d="M390 181l-3 6 5-6h-2z" class="s"/><path d="M261 182l1 1-1-1z" class="AW"/><use xlink:href="#B" x="24" y="60" class="B"/><path d="M395 189l6-7-6 7z" class="s"/><path d="M260 183l1 1-1-1z" fill="#4d4833"/><path d="M302 183v3h1l1-3h-2m61.667.333l.666.334-.666-.334z" class="K"/><path d="M376 183l-1 4h1l2-4h-2z" class="s"/><path d="M384 183l-2 5 4-5h-2z" class="B"/><path d="M393 183l-2 5h1l3-5h-2z" class="j"/><path d="M461 184v1l5 2-2 8c4.748-4.2 5.286-12.846-3-11z"/><use xlink:href="#C" x="214" y="52" class="r"/><path d="M259 184l1 1-1-1m52 0l-1 4h1l2-4h-2z" class="D"/><path d="M359 184l3 2-3-2z" class="C"/><path d="M256 188l4-3-4 3z" class="K"/><path d="M327 185l-2 5 4-5h-2z" class="B"/><path d="M370 188l3-3-3 3z" class="G"/><path d="M306 186l-1 4h1l2-4h-2z" class="B"/><path d="M318 186l-1 3 1-3z" class="s"/><use xlink:href="#B" x="129" y="64" fill="#af8e00"/><path d="M468 186v4h1l-1-4z" fill="#00374b"/><use xlink:href="#C" x="215" y="55" class="i"/><path d="M331 187l-1 3 1-3z" class="C"/><use xlink:href="#C" x="114" y="56" class="K"/><path d="M386 187l-1 3 1-3z" class="F"/><path d="M462 190l4-3-4 3z" fill="#ffcf00"/><use xlink:href="#E" x="-5" y="15" fill="#50b67e"/><path d="M279 188v1h4l-4-1z" class="H"/><use xlink:href="#C" x="45" y="57" class="C"/><use xlink:href="#C" x="49" y="57" class="F"/><path d="M321 188l-1 3 1-3m72 3l3-2-3 2m-64-1l-1 3 1-3z" class="K"/><use xlink:href="#E" x="-6" y="18" fill="#70c395"/><path d="M425 191v1h3l-3-1z" class="C"/><path d="M415 213c8.675 0 17.333.66 26 1.04 2.963.13 6.887 1.564 9.6-.08 4.614-2.788 7.504-11.97 8.4-16.958-8.21-.716-26.238-8.608-33.6-3.97-3.357 2.11-5.368 7.618-7.236 10.97-1.68 3.018-2.782 5.57-3.154 9z" class="I"/><path d="M432 192v1h3l-3-1z" class="B"/><path d="M461 192l-1 3 1-3z" fill="#e6c433"/><path d="M47 193l-8 6v1h8v-7z" class="AH"/><path d="M260 193v8h1l-1-8z" class="P"/><path d="M338 193c-8.254 17.648-8 35.955-8 55h1c6.24-14.99 16.233-39.906 7-55z" class="O"/><path d="M438 193v1h3l-3-1z" class="B"/><use xlink:href="#C" x="217" y="62" class="AC"/><use xlink:href="#E" x="-7" y="22" fill="#60bd8a"/><use xlink:href="#B" x="120" y="74" class="K"/><path d="M464 196c-8.975 19.223-20 33.212-20 55h-5c.878 6.952 1.3 11.544-7 12l-21 36c4.34 1.898 10.573 9.4 15.04 9.17 7.553-.39 18.83-13.18 23.96-18.185 7.315-7.135 17.69-15.512 22.012-24.985 6.122-13.423-.9-37.068-2.882-51-.82-5.762-1.383-13.423-5.13-18z" class="O"/><use xlink:href="#C" x="195" y="66" class="C"/><use xlink:href="#C" x="218" y="66" class="i"/><path d="M256 199c-3.254 9.62-5.004 16.77-5 27 .002 4.92-.8 9.993 5 11 0 16.377-2.35 29.157 13 40-3.133-10.88-8.112-20.396-8.9-32-1.096-15.927 2.865-30.507-4.1-46z" class="O"/><path d="M63 200l-5 11 6 4h1l6-4-5-11h-3m41 0l-6 11h5v3h4v-3h5l-6-11h-2m41 0l-6 11 9 3c1.998-5.606 1.226-8.536-1-14h-2z" class="E"/><path d="M148 200l1 5h1v-5h-2z" class="W"/><path d="M483 201v3h1l-1-3z" class="AC"/><use xlink:href="#E" x="29" y="29" class="k"/><path d="M148 203l1 1-1-1z" class="V"/><path d="M28 205l1 1-1-1z" class="e"/><path d="M61 205l1 1-1-1z" class="J"/><path d="M330.333 205.667l.334.666-.334-.666m63 0l.334.666-.334-.666z" class="B"/><path d="M484 205v3h1l-1-3z" class="t"/><path d="M28 206l-1 5h5l-4-5z"/><path d="M142 206l1 1-1-1z" class="Y"/><path d="M100 207l1 1-1-1m9 0l1 1-1-1z" class="V"/><path d="M213 207v9h1l-1-9z" class="C"/><use xlink:href="#E" x="-10" y="35" class="u"/><path d="M31 209l1 1-1-1z" class="l"/><path d="M58 209l1 1-1-1z" class="V"/><path d="M32 210l1 1-1-1z" class="e"/><path d="M71 210l-2 1v1l2-2z" class="w"/><path d="M485 210v4h1l-1-4z" class="X"/><use xlink:href="#E" x="-10" y="38" class="l"/><use xlink:href="#C" x="-116" y="80" class="V"/><use xlink:href="#C" x="150" y="80" class="C"/><path d="M237 212v8h1l-1-8z" class="D"/><path d="M394 212c-3.917 13.906-5.717 29.093-1 43 12.77-6.3 5.538-32.9 1-43z" class="O"/><path d="M229 213v5h1l-1-5z" class="C"/><path d="M233 213l1 9h1l-2-9z" class="D"/><path d="M328 213v3h1l-1-3z" class="G"/><path d="M395 213v5h1l-1-5z" class="AK"/><path d="M418 213v1h6l-6-1z" class="C"/><path d="M424 213v1h4l-4-1z" class="H"/><path d="M104.667 214.333l.666.334-.666-.334m41 0l.666.334-.666-.334z" class="V"/><path d="M234 214v4h1l-1-4z" class="C"/><use xlink:href="#C" x="126" y="83" class="B"/><path d="M432 214v1h4l-4-1z" class="D"/><path d="M436 214v1h5l-5-1z" class="C"/><path d="M441 214v1h5l-5-1z" class="H"/><path d="M213 216v4h1l-1-4m28 0l-1 9h1v-9z" class="D"/><path d="M247 216v4h1l-1-4z" class="C"/><path d="M423 216v1h8l-8-1z" class="AL"/><path d="M230 217l-1 5h1v-5z" class="D"/><use xlink:href="#C" x="78" y="86" class="K"/><path d="M486 217v3h1l-1-3z" class="i"/><path d="M45 218v3h1l-1-3z" class="Z"/><path d="M85 218l1 3-1-3z" class="n"/><path d="M126 218l-1 9-8 1v1c7.692 1.746 12.95-3.556 9-11z" class="E"/><path d="M222 218v6h1l1-6h-2z" class="D"/><path d="M240 218v4h1l-1-4z" class="C"/><path d="M250 218v13h1l-1-13z" class="P"/><path d="M330 218v4h1l-1-4z" fill="#33758d"/><path d="M437 235c6.425-1.902 10.09-10.966 12-17-6.363 1.958-10.224 10.962-12 17z" class="I"/><path d="M44 219l-1 8 12 2v-1l-9-1-2-8z" class="E"/><path d="M210 219c-8.492 8.67-16.092 18.302-23.373 28-2.002 2.666-6.633 7.077-5.796 10.787 1.3 5.755 16.2 9.467 21.17 10.213 3.934-13.966 14.125-34.802 8-49z" class="O"/><path d="M244 219v7h1l-1-7z" class="D"/><use xlink:href="#E" x="6" y="47" class="k"/><path d="M84 220v7l-8 1v1c5.985 1.044 14.33-2.722 8-9z" class="E"/><path d="M247 220v9h1l-1-9m80 0v8h1l-1-8z" class="D"/><path d="M396 220v3h1l-1-3z" class="P"/><path d="M127 221l1 1-1-1z" class="V"/><use xlink:href="#C" x="77" y="90" class="C"/><path d="M124 222v4h-4v1c3.22-.535 5.124-1.572 4-5z" class="n"/><path d="M245 222v7h1l-1-7z" class="C"/><use xlink:href="#C" x="1" y="91" class="F"/><path d="M388 222v3h1l-1-3z" class="G"/><path d="M487 222v6h1l-1-6z" class="AC"/><path d="M42.333 223.667l.333.666-.333-.666M46 223v4h4v-1l-4-3z" class="J"/><path d="M228 225v1l3 2c.95-2.507-.652-2.706-3-3z" fill="#33758d"/><path d="M39 226v1l4 3-4-4z" fill="#202020"/><path d="M86 226l-3 3v1l5-4h-2z" class="J"/><path d="M87 230l8-1c-3.15-2.725-6.5-3.473-8 1z" class="E"/><path d="M124 226l1 1-1-1z" fill="#d9d9d9"/><path d="M127 226v9h1l1-9h-2z" class="o"/><path d="M128 230l8-1c-3.15-2.725-6.5-3.473-8 1z" class="E"/><path d="M220 237h9l2-11c-6.837.46-10.54 4.163-11 11z" class="O"/><path d="M235 226l-3 12c4.21-2.567 4.787-7.333 5-12h-2z" class="I"/><path d="M390 226v8h1l-1-8z" class="AE"/><path d="M34 227v1h4l-4-1z" class="e"/><path d="M35 228v1l6 1v-3l-6 1z"/><path d="M75 229l3-1-3 1z" class="o"/><path d="M84 227v2h2v-2h-2z" class="W"/><path d="M116 227v1h3l-3-1z" class="J"/><path d="M125 227v2h2v-2h-2z" class="W"/><use xlink:href="#C" x="-45" y="96" class="B"/><path d="M387 227v6h1l-1-6z" class="D"/><path d="M212 228v3h1l-1-3z" class="P"/><path d="M37 229l1 1-1-1z" class="u"/><path d="M44 229l-6 16 5 3 9-3-8-16z" class="E"/><path d="M46 229l1 1-1-1z" class="Y"/><use xlink:href="#D" x="22" y="93" class="k"/><path d="M91 229l1 1-1-1z" class="J"/><path d="M124 229l1 5h1l-2-5z" class="Y"/><path d="M126 229l-6 15h4l4 4 4-4-6-15z" class="E"/><path d="M132 229l1 1-1-1z" class="Y"/><path d="M217 229l-1 4 1-4z" class="F"/><path d="M240 229l-2 8h9l-7-8z" class="O"/><path d="M39 230v1h3l-3-1z" class="h"/><path d="M45 230v4h1l-1-4z" class="n"/><path d="M84 230l-6 15 9 3v-4l5 1-6-15h-2z" class="E"/><path d="M488 230v6h1l-1-6z" class="a"/><path d="M263 231v5h1l-1-5z" class="C"/><path d="M329 231v8h1l-1-8z" class="P"/><use xlink:href="#E" x="6" y="60" class="S"/><path d="M339 233v7h1l-1-7z" class="D"/><use xlink:href="#C" x="-29" y="103" class="B"/><path d="M404 234v1h29l-29-1z" class="P"/><path d="M366 235l2 3-2-3z" class="F"/><path d="M372 235l2 4-2-4z" class="C"/><path d="M378 235v3l2-1v-1l-2-1z" class="AM"/><path d="M443 235v15h-4v1h5l-1-16z" class="P"/><path d="M46 236l1 1-1-1z" class="V"/><path d="M247 236l-9 1v1l9-2z" class="P"/><path d="M263 236v12h1l-1-12z" class="H"/><path d="M214 237c-2.053 7.234-10.48 24.52-7.382 31.6 2.1 4.805 12.614 8.54 17.382 9.4l-3-23h-4l-1-18h-2z" class="O"/><path d="M220 237v1h7l-7-1m32 0v1h4l-4-1z" class="P"/><use xlink:href="#C" x="115" y="106" class="E"/><path d="M405 237v1h9l-9-1z" class="H"/><path d="M403 247h38l-1-10c-11.196 0-35.686-4.92-37 10z" class="I"/><path d="M440 237v7h1l-1-7z" class="D"/><path d="M123 238l1 1-1-1z" class="V"/><path d="M367 238v3h1l-1-3z" class="E"/><path d="M41 239l1 1-1-1z" class="Y"/><path d="M379 239v3l2-3h-2z" class="G"/><path d="M400 239v4h1l-1-4z" class="P"/><path d="M48 240l1 1-1-1z" class="J"/><path d="M220 240v1h33l-33-1z" class="H"/><path d="M253 240l-6 3v1h5l1 8h1l-1-12z" class="D"/><path d="M339 240v4h1l-1-4z" class="C"/><path d="M368 240l-1 3 1-3z" class="B"/><path d="M407 240v6h1l-1-6z" class="D"/><path d="M408 240v6h5v-6h-5z" class="E"/><path d="M413 240v6h1l-1-6m5 0v6h1l-1-6z" class="H"/><path d="M419 240v6h6v-6h-6z" class="E"/><path d="M430 240v6h1l-1-6z" class="C"/><path d="M431 240v6h5v-6h-5z" class="E"/><path d="M436 240v6h1l-1-6z" class="C"/><path d="M80 241l1 1-1-1z" class="Y"/><path d="M220 241v10h33v-1c-4.892-.373-6.627-2.108-7-7h7v-2h-33z" class="I"/><path d="M90 242l1 1-1-1z" class="J"/><path d="M327 242v8h1l-1-8z" class="D"/><path d="M38 243l1 1-1-1z" class="l"/><path d="M132 243l-3 1v1l3-2z" class="n"/><path d="M223 243v6h1l-1-6z" class="C"/><path d="M224 243v1h5l-5-1z" class="D"/><path d="M229 243v6h1l-1-6z" class="C"/><path d="M235 243v1h6l-6-1z" class="D"/><path d="M246 243c.174 5.3 1.7 6.826 7 7v-1h-6l-1-6z" class="H"/><path d="M37 244l1 1-1-1z" class="e"/><path d="M87 246l3-1-3 1m32-2v1h5l-5-1z" class="n"/><path d="M217 244v11h1l-1-11z" class="AL"/><path d="M224 244v5h5v-5h-5m11 0v5h6v-5h-6m12 0v5h5v-5h-5z" class="E"/><path d="M320 244l1 8h1l-2-8z" class="G"/><path d="M339 244v7h1l-1-7z" class="D"/><use xlink:href="#C" x="123" y="113" class="F"/><path d="M489 244v22h1l-1-22z" class="Q"/><use xlink:href="#C" x="-136" y="114" class="V"/><path d="M336 245l1 3-1-3z" class="P"/><path d="M362 245v3h1l-1-3m18 0v3h1l-1-3z" class="F"/><path d="M42 246l1 1-1-1z" class="J"/><path d="M309 246l2 3-2-3z" class="K"/><path d="M315 246l2 4-2-4z" class="F"/><path d="M402 246l11 2h28v-1l-39-1z" class="H"/><path d="M335 247c-5.9 10.53.377 42.68 15 41l-9.573-21L335 247z" class="O"/><use xlink:href="#C" x="104" y="116" class="C"/><path d="M374 247v3h1l-1-3z" class="F"/><path d="M263 248v5h1l-1-5z" class="D"/><path d="M358 248v3h1l-1-3z" class="AW"/><path d="M224 249v1h5l-5-1m11 0v1h6l-6-1z" class="H"/><path d="M304 249l1 8h1l-2-8z" class="s"/><path d="M310 249l4 10-4-10z" class="j"/><path d="M381 249v3h1l-1-3z" class="G"/><use xlink:href="#C" x="119" y="118" class="B"/><use xlink:href="#C" x="124" y="118" class="K"/><use xlink:href="#C" x="52" y="119" class="E"/><path d="M359 250l-1 4h1v-4z" class="G"/><use xlink:href="#C" x="99" y="119" class="K"/><use xlink:href="#C" x="101" y="119" class="G"/><use xlink:href="#C" x="107" y="119" class="B"/><path d="M395 259h10v-7h7l-1 7h13v-7h6v7h6v-9c-14.584 0-31.704-4.238-41 9z" class="I"/><path d="M26 251v4h1l-1-4z" class="Z"/><path d="M105 251l1 4h1l-2-4z" class="w"/><path d="M147 251l1 3-1-3z" class="J"/><path d="M220 251v1h33l-33-1z" class="H"/><path d="M322 251v3h1l-1-3z" class="E"/><path d="M25 252l-1 8 3 3 8-1v-1l-8-1-2-8z"/><path d="M65 252l-1 8h2l-1-8m40 0l-1 8-8 2c3.297 1.205 7.118 2.118 8-2h3v3l8-1v-1l-8-1-2-8z" class="E"/><path d="M316 252v2h2v-2h-2z" class="C"/><path d="M369 252v3h1l-1-3z" class="F"/><path d="M405 252v6h1v-5h5l-6-1z" class="D"/><path d="M411 252v6h-6v1c4.736-.156 8.096-1.824 6-7z" class="H"/><path d="M424 252v1h6l-6-1z" class="D"/><use xlink:href="#E" x="-13" y="80" class="AF"/><use xlink:href="#C" x="-160" y="122" class="k"/><path d="M146 253c-.926 4.453.258 6.507 3 10h1l-4-10z" class="E"/><path d="M298 253v3h1l1-3h-2z" class="AM"/><path d="M323 253l3 9-3-9z" class="j"/><path d="M337 253v5h1l-1-5z" class="AK"/><path d="M378 253v1h4l-4-1z" class="C"/><path d="M406 253v5h5v-5h-5m18 0v5h6v-5h-6z" class="E"/><path d="M145 254l1 1-1-1z" class="V"/><path d="M224 254v11h1v-10h21l-22-1z" class="C"/><use xlink:href="#B" x="-86" y="132" class="G"/><path d="M299 254l1 9h1l-2-9z" class="j"/><path d="M317 254v3h1l-1-3z" class="E"/><path d="M328 254v3h1l-1-3z" class="B"/><path d="M340 254v3h1l-1-3z" class="K"/><path d="M364 254v4h1l-1-4z" class="G"/><path d="M148 255v4h1l-1-4z" class="k"/><path d="M221 255v7h1l-1-7z" class="P"/><path d="M225 255c0 5.678 4.067 20.988-1.15 24.292-8.953 5.67-27.952-20.095-34.85-.292 19.486-7.1 45.83 17.67 64 23.92 35.62 12.257 77.325 11.35 114 5.158 13.225-2.233 31.068-5.42 41.996-13.636C418.714 287.137 425.42 273 430 262c-7.1 0-18.57-2.187-25 1.028-10.743 5.37-18.075 17.513-29 23.493-16.49 9.026-39.26 13.233-58 12.27-18.18-.934-36.937-3.6-52-14.715-6.226-4.594-11.215-10.32-14.96-17.076-1.737-3.135-2.535-8.855-5.55-10.972-4.412-3.1-15.242-1.028-20.5-1.028m23 0c19.145 59.853 122.428 51.82 154 7-10.297 3.5-18.008 14.607-28 19.74-28.644 14.718-68.622 17.494-98 3.15-7.598-3.71-13.93-9.914-18.64-16.9-2.847-4.216-4.353-11.26-9.36-13z" class="I"/><use xlink:href="#C" y="124" class="F"/><path d="M318 255l2 6-2-6z" class="j"/><use xlink:href="#B" x="33" y="133" class="K"/><path d="M436 255v4h1l-1-4z" class="H"/><path d="M23 256v3h1l-1-3m4 0v3h1l-1-3z" class="S"/><path d="M103 256l-3 3v1h4l-1-4z" class="J"/><path d="M107 256v4h4v-1l-4-3z" class="V"/><path d="M374 256v1h7l-7-1z" class="P"/><path d="M170 257v3h3v-3h-3z" class="I"/><use xlink:href="#C" x="-85" y="126" class="P"/><path d="M359 257v4h1l-1-4z" class="C"/><path d="M373 257c4.9 11.732 12.018 18.714 21 6h-4c-2.25-7.15-10.828-6-17-6z" class="O"/><use xlink:href="#C" x="-91" y="127" class="F"/><path d="M287 258l2 3-2-3z" class="D"/><path d="M424 258v1h6l-6-1z" class="H"/><path d="M27 259l1 1-1-1z" fill="#dfdfdf"/><path d="M28 259v1h3l-3-1z" class="AG"/><use xlink:href="#D" x="5" y="123" class="Z"/><path d="M63 259l4 4v-4h-4z" class="w"/><path d="M68 259v1h3l-3-1m73 0v1h3l-3-1z" class="J"/><path d="M145 259v4h4v-1l-4-3z" class="Z"/><use xlink:href="#B" x="-186" y="137" class="o"/><path d="M312 259v3h1l-1-3z" class="F"/><use xlink:href="#C" x="65" y="128" class="C"/><use xlink:href="#C" x="68" y="128" class="P"/><use xlink:href="#B" x="32" y="137" class="K"/><path d="M400 259v1h37c-9.798-4.11-26.35-1-37-1z" class="D"/><path d="M501 259v12h1l-1-12z" fill="#d3d3d3"/><path d="M33 260l1 1-1-1z" class="l"/><use xlink:href="#E" x="18" y="87" class="S"/><path d="M58 260l1 1-1-1z" class="J"/><path d="M56 261v1l8 1c-2.1-3.19-4.464-2.618-8-2m11-1v3l8-1-8-2z" class="E"/><path d="M104 260v8h1v-5h1v3h1v-6h-3z" class="w"/><path d="M137 261v1l8 1v-3l-8 1z" class="E"/><path d="M146 260v2h2v-2h-2z" class="W"/><path d="M171.667 260.333l.666.334-.666-.334m4.666.334l.334.666-.334-.666z" class="B"/><path d="M306 260v3h1l-1-3z" class="C"/><path d="M341 260v3h1l-1-3z" class="F"/><path d="M364 260l-8 26h4l7-26h-3z" class="I"/><use xlink:href="#C" x="-149" y="130" class="o"/><path d="M177 261v1l17 8c-3.337-5.095-11.316-7.445-17-9z" class="I"/><use xlink:href="#C" x="44" y="130" class="B"/><use xlink:href="#C" x="54" y="130" class="K"/><path d="M355 261v4h1l-1-4z" class="C"/><path d="M370 261l-6 22 17-8-11-14z" class="O"/><path d="M405 261v1h18l-18-1z" class="C"/><path d="M423 261v1h5l-5-1z" class="D"/><path d="M25 262l-1 5h1v-4h1v4h1l-2-5m7 0l1 1-1-1z" class="S"/><use xlink:href="#D" x="1" y="126" class="k"/><path d="M112 262l1 1-1-1z" class="J"/><use xlink:href="#B" x="-196" y="140" class="S"/><path d="M284 262v1h4l-4-1z" class="C"/><use xlink:href="#C" x="60" y="131" class="F"/><path d="M25 263v18l7-3-7-15z"/><path d="M28 263v1h3l-3-1m31 0v1h4l-4-1z" class="S"/><path d="M64 263l-6 15 9 3 5-3-6-15h-2z" class="E"/><path d="M68 263v1h3l-3-1z" class="S"/><path d="M100 263v1h3l-3-1z" class="J"/><path d="M105 263l-6 15h13l-7-15z" class="E"/><path d="M108 263v1h3l-3-1m33 0v1h3l-3-1z" class="J"/><path d="M146 263l-6 15 5 3c8.125-2.567 3.145-11.792 3-18h-2z" class="E"/><path d="M148 263l1 9h1v-9h-2z" class="W"/><path d="M278 263v1h4l-4-1z" class="B"/><use xlink:href="#C" x="36" y="132" class="K"/><path d="M313.333 263.667l.334.666-.334-.666m13 0l.334.666-.334-.666z" class="G"/><path d="M352 263v6h1l-1-6z" class="D"/><path d="M282 286c5.992-1.75 7.875-15.4 9-21-6.65 2.153-8.712 14.706-9 21z" class="I"/><use xlink:href="#C" x="55" y="134" class="K"/><use xlink:href="#C" x="57" y="134" class="B"/><path d="M279 283l5-17c-8.616 1.562-16.274 12.945-5 17z" class="O"/><use xlink:href="#C" x="61" y="135" class="F"/><use xlink:href="#C" x="101" y="135" class="G"/><use xlink:href="#C" x="26" y="136" class="B"/><path d="M294 267l-6 20 17 3c-1.028-5.764-5.344-21.14-11-23m63 0l-5 17h1l4-17z" class="O"/><path d="M403 267v1h5v4c1.28-3.906-1.55-4.732-5-5m14 0v1h5l-5-1z" class="D"/><path d="M63.333 268.667l.333.666-.333-.666m85 0l.334.666-.334-.666z" class="S"/><use xlink:href="#C" x="-70" y="137" class="B"/><path d="M314 268l-1 3 1-3z" class="F"/><path d="M403 268v4h5v-4h-5m13 0c1.1 3.32 2.6 3.737 6 4v-4h-6z" class="E"/><path d="M23 269v4h1l-1-4z" class="Z"/><path d="M301 269l7 18 8-12-15-6z" class="O"/><use xlink:href="#C" x="56" y="138" class="F"/><use xlink:href="#C" x="96" y="138" class="K"/><path d="M326 270v3h1l-1-3z" class="F"/><use xlink:href="#C" x="64" y="139" class="B"/><path d="M488 270v4h1l-1-4z" class="X"/><path d="M196 271v1h5l-5-1z" class="H"/><use xlink:href="#B" x="-133" y="149" class="B"/><path d="M350 271v4h1l-1-4z" class="D"/><path d="M28 272l1 1-1-1z" class="S"/><path d="M102 272l1 1-1-1z" class="Y"/><path d="M61 273l1 1-1-1z" class="J"/><use xlink:href="#C" x="99" y="142" class="B"/><path d="M11 274v3h1l-1-3z" fill="#b7b7b7"/><path d="M69 274l1 1-1-1z" class="J"/><path d="M327 274v3h1l-1-3z" class="C"/><path d="M488 274v5h1l-1-5z" class="Q"/><path d="M30 275l1 1-1-1z" class="l"/><path d="M31 276l1 1-1-1z" class="h"/><path d="M99 276l1 1-1-1z" class="Y"/><path d="M186 276v5h1l-1-5z" fill="#335f6f"/><use xlink:href="#E" x="-13" y="104" class="AG"/><path d="M32 277l-3 1v1l3-2z" class="Z"/><path d="M192 277v1h8l-8-1z" class="D"/><use xlink:href="#B" x="-15" y="155" class="P"/><path d="M349 277l-1 3 1-3z" class="D"/><path d="M58 278v1h5l-5-1z" class="w"/><use xlink:href="#E" x="30" y="105" class="o"/><path d="M312 290h26c-8.33-9.384-22.81-17.682-26 0z" class="O"/><path d="M24 279l3 3v-1l-3-2z" class="S"/><path d="M192 279v2h6v-2h-6z" class="s"/><path d="M63 280l1 1-1-1m85 0l1 1-1-1z" class="Y"/><use xlink:href="#B" x="-136" y="158" class="AV"/><path d="M200 280v2l2-2h-2z" class="B"/><path d="M220 280v1h4l-4-1z" class="D"/><use xlink:href="#C" x="236" y="149" class="L"/><use xlink:href="#D" x="9" y="145" class="k"/><use xlink:href="#B" x="-229" y="159" class="Z"/><use xlink:href="#B" x="-188" y="159" class="o"/><path d="M201 281v1c8.51 3.72 15.032 10.807 23 15.547 13.782 8.2 29.426 13.89 45 17.453v1l-43-14c5.7 9.694 20.895 13.132 31 16v1l-19-5c3.482 4.54 14.644 14.782 21 13.263 6.633-1.585 9.038-9.858 17-8.293 11.212 2.204 19.612 12.004 31 13.03 4.13-26.46 33.034-5.412 47-3 4.632-23.938 41.003-10.775 51-29-13.757 2.06-27.127 8.564-41 11.196-29.818 5.656-61.264 5.338-91-.645-13.567-2.73-26.825-7.26-39-13.86-10.345-5.608-21.135-13.913-33-15.69z" class="I"/><use xlink:href="#C" x="21" y="152" class="B"/><use xlink:href="#C" x="96" y="152" class="G"/><path d="M487 283v4h1l-1-4z" class="Q"/><use xlink:href="#E" x="-25" y="111" class="N"/><path d="M355 285l3 2v-1l-3-1z" class="B"/><path d="M45 286v3h1l-1-3z" class="h"/><path d="M85 286l-1 9-8 1v1c7.692 1.746 12.95-3.556 9-11z" class="E"/><path d="M44 287c-1.51 8.662 3.1 10.97 11 10v-1l-9-1-2-8z"/><path d="M126 287l-1 8-7 2c3.304.7 5.088.92 7-2h3l6 2v-2h-6l-2-8z" class="E"/><use xlink:href="#C" x="235" y="157" class="L"/><path d="M43 289l1 1-1-1z" class="u"/><use xlink:href="#B" x="-47" y="167" class="B"/><use xlink:href="#B" x="-32" y="167" class="P"/><path d="M486 289v3h1l-1-3z" class="i"/><path d="M46 290v4h1l-1-4z" class="AF"/><path d="M124 290v3h1l-1-3z" class="Y"/><path d="M291 290v1h3l-3-1z" class="G"/><path d="M312 290v1h21l-21-1z" class="AE"/><use xlink:href="#E" x="-24" y="118" class="N"/><path d="M42.333 291.667l.333.666-.333-.666M128 291v4h1l-1-4z" class="Z"/><use xlink:href="#B" x="-38" y="169" class="C"/><path d="M345 291v1h3l-3-1m-58.333 1.333l.666.334-.666-.334z" class="F"/><path d="M303 292v1h5l-5-1z" class="D"/><path d="M337 292v1h4l-4-1z" class="C"/><use xlink:href="#B" x="21" y="170" class="G"/><path d="M267 293v8h1l-1-8z" class="D"/><path d="M268 293v8h5v-8h-5z" class="E"/><path d="M273 293v8h1l-1-8z" class="H"/><use xlink:href="#B" x="-44" y="171" class="F"/><path d="M314 293v1h5l-5-1z" class="C"/><path d="M319 293v1h8l-8-1z" class="D"/><path d="M327 293v1h5l-5-1z" class="C"/><path d="M350 293v1h3l-3-1z" class="F"/><path d="M498 293v3h1l-1-3z" class="Z"/><path d="M39 294v1h3l-3-1z" class="AG"/><path d="M42 294l1 3h1v-3h-2z" class="e"/><path d="M46 294l1 1-1-1z" fill="#cfcfcf"/><path d="M50 294l1 1-1-1z" class="u"/><path d="M79 294v1h4l-4-1z" class="n"/><path d="M83 294l1 1-1-1z" fill="#e6e6e6"/><path d="M86 294v3h1l1-3h-2z" class="V"/><path d="M87 298l8-1c-3.15-2.725-6.5-3.473-8 1z" class="E"/><path d="M294 294v1h3l-3-1z" class="C"/><path d="M344 294v1h3l-3-1z" class="K"/><use xlink:href="#E" x="-2" y="122" class="AF"/><path d="M37 295l1 1-1-1z" class="u"/><path d="M36 296v1l7 1v-3l-7 1z"/><path d="M44 295v2h2v-2h-2z" class="W"/><path d="M53 295l1 1-1-1z" class="h"/><path d="M75 295v1h3l-3-1z" class="J"/><path d="M84 295v2h2v-2h-2z" class="W"/><path d="M116 295l1 2h1l1-2h-3z" class="Y"/><path d="M124 298l4 1v-4l-4 3z" fill="#d9d9d9"/><path d="M134 295l3 2-3-2z" class="n"/><use xlink:href="#B" x="-43" y="173" class="B"/><path d="M301 295v1h4l-4-1z" class="H"/><path d="M337 295v1l6 1-6-2z" class="j"/><path d="M349.667 295.333l.666.334-.666-.334M365 295v1h6l-6-1z" class="C"/><path d="M485 295v3h1l-1-3z" class="i"/><path d="M14 296v3h1l-1-3z" class="Z"/><path d="M295 296v1h3l-3-1z" class="K"/><path d="M309 296v1h20l-20-1z" class="D"/><path d="M309 297v1l31-1h-31z" class="E"/><path d="M343 296v1h3l-3-1z" class="K"/><path d="M365 296v8h1l-1-8z" class="D"/><path d="M366 296v8h5v-8h-5z" class="E"/><path d="M371 296v8h1l-1-8z" class="H"/><path d="M37 297l1 1-1-1z" class="h"/><path d="M44 297l2 6-2-6z"/><path d="M45.667 297.333l.667.334-.667-.334M51 297l1 1-1-1z" class="e"/><use xlink:href="#D" x="28" y="161" class="o"/><path d="M85 297l-1 6h2l-1-6z" class="E"/><path d="M91 297l1 1-1-1z" class="J"/><path d="M126 297l-1 6h3l-2-6z" class="E"/><path d="M132 297l1 1-1-1z" class="Y"/><path d="M302 297v1h7l-7-1m27 0v1h6l-6-1z" class="C"/><path d="M39 298v1h3l-3-1z" class="Z"/><path d="M45 298v3h1l-1-3z" class="AG"/><use xlink:href="#D" x="-7" y="162" class="Z"/><path d="M125 298v3h1l-1-3z" class="J"/><path d="M315 298v1h8l-8-1z" class="H"/><path d="M43 299v4h1l-1-4z" class="Z"/><path d="M86 299v4h1l-1-4z" class="w"/><use xlink:href="#C" x="-137" y="168" class="J"/><use xlink:href="#C" x="141" y="168" class="F"/><path d="M223 300l4 2-4-2z" class="K"/><path d="M15 301v3h1l-1-3z" class="AX"/><path d="M267 301v1h6l-6-1z" class="C"/><path d="M317 301v1h6l-6-1z" class="D"/><use xlink:href="#B" x="58" y="179" class="B"/><path d="M484 301v3h1l-1-3z" class="a"/><path d="M497 301l1 1-1-1z" class="M"/><path d="M317 302v8h6v-8h-6z" class="E"/><use xlink:href="#B" x="55" y="180" class="B"/><path d="M28 303v3h1l-1-3z" class="x"/><path d="M29 303v1h14l-14-1z" fill="#d74040"/><path d="M29 304c1.202 14.713 7.74 29.363 13 43l6-1v-1l-6-1v-1c12.964-1.877 1.495-9.59 0-17h-5l3-6v-1l-2-2 14 1c-.618 2.73-.665 11.623 4.69 8.25 3.898-2.455 9.105-16.81 15.31-7.25l3-1c5.075 14.07 13.67 8.034 26 8v-2c-5.075.218-12 2.555-16.847.397-8.417-3.742 5.74-8.255 8.847-8.397-16.743-17.284-42.046-12-64-12z" class="v"/><path d="M46 303v1h30l-30-1z" fill="#d74040"/><path d="M76 303v1h8l-8-1z" fill="#e06666"/><path d="M77 304v1l17.96 11.502L115 317l-1 3c12.974 0 15.795 1.298 24 11l-17-1v1l29 11v-38H77z" fill="#d53333"/><path d="M87 303v1h38c-10.036-4.21-27.09-1-38-1m41 0v1h22l-22-1z" fill="#e06666"/><path d="M409 303l1 1-1-1z" fill="#f2cf33"/><path d="M408 307v-2l-21 18 14 4c.74-13.513 12.496-9.897 21-15l-6-8h-1l-3 2 2-3-6 4z" class="I"/><path d="M365 304v1h6l-6-1z" class="H"/><path d="M408 304v3l2-3h-2z" class="s"/><path d="M412 306l3-2-3 2z" class="C"/><use xlink:href="#B" x="-81" y="183" class="B"/><path d="M404 305l-3 4 5-3-2-1z" class="F"/><path d="M496 305l1 1-1-1z" class="N"/><use xlink:href="#E" x="-21" y="133" class="Z"/><use xlink:href="#B" x="-69" y="184" class="C"/><path d="M374 306v1h3l-3-1z" class="G"/><use xlink:href="#C" x="219" y="175" class="R"/><use xlink:href="#B" x="-74" y="185" class="B"/><use xlink:href="#B" x="-65" y="185" class="G"/><use xlink:href="#B" x="46" y="185" class="K"/><path d="M16 308l1 1-1-1z" class="M"/><use xlink:href="#E" x="-8" y="135" class="AY"/><path d="M274.667 308.333l.666.334-.666-.334m90 0l.666.334-.666-.334z" class="C"/><use xlink:href="#B" x="42" y="186" class="F"/><use xlink:href="#C" x="133" y="177" class="B"/><path d="M495 308v3h1l-1-3z" class="AX"/><use xlink:href="#B" x="-66" y="187" class="B"/><path d="M279 309v1h4l-4-1z" class="H"/><path d="M357 309v1h3l-3-1z" class="K"/><use xlink:href="#B" x="37" y="187" class="G"/><path d="M371 315v1c8.732 2.696 20.3.55 26-7l-26 6z" class="I"/><use xlink:href="#B" x="-62" y="188" class="C"/><path d="M285 310v1h3l-3-1z" class="G"/><path d="M351 310v1h4l-4-1z" class="D"/><use xlink:href="#B" x="32" y="188" class="G"/><use xlink:href="#B" x="50" y="188" class="B"/><use xlink:href="#B" x="57" y="188" class="K"/><path d="M424 310l3 10c-8.445-3.5-23.968-4.487-26 8l-14 3v1c5.272 2.778 14.444 6.685 19.566 1.566 2.658-2.656 1.682-9.55 6.493-9.495 9.128.103 26.855 21.105 34.777 7.82 1.55-2.597 2.12-6.05 3.164-8.89l25 10 2-8c-11.836-4.928-33.998-19.828-37 2-9.093-2.626-10.918-9.24-15-17h-2z"/><use xlink:href="#C" x="218" y="179" class="R"/><path d="M292 311v1h7l-7-1z" class="C"/><path d="M299 311v1h6l-6-1m37 0v1h5l-5-1z" class="H"/><path d="M341 311v1h6l-6-1z" class="D"/><path d="M360 311v1h3l-3-1z" class="B"/><path d="M422 311l-5 5 10 4-5-9z" fill="#ffcf00"/><path d="M17 312l1 1-1-1z" class="L"/><use xlink:href="#E" x="-7" y="139" class="AY"/><path d="M235 312l4 2-4-2z" class="C"/><use xlink:href="#B" x="-81" y="190" class="G"/><path d="M316 312v1h10l-10-1z" class="D"/><path d="M352 312v1h4l-4-1z" class="C"/><use xlink:href="#B" x="50" y="190" class="F"/><path d="M261 315l3-2-3 2z" class="B"/><path d="M292 313v1h6l-6-1z" class="D"/><path d="M342 313v1h6l-6-1z" class="C"/><use xlink:href="#B" x="46" y="191" class="F"/><path d="M263 314v1h3l-3-1z" class="E"/><path d="M266 314l3 2v-1l-3-1z" class="C"/><path d="M301 314v1h5l-5-1z" class="H"/><path d="M306 314v1h9l-9-1z" class="C"/><path d="M315 314v1h10l-10-1z" class="D"/><path d="M325 314v1h8l-8-1z" class="C"/><path d="M333 314v1h5l-5-1z" class="H"/><path d="M368 314l3 2-3-2z" class="B"/><use xlink:href="#B" x="41" y="192" class="F"/><path d="M412 314v1h3l-3-1z" class="C"/><use xlink:href="#C" x="217" y="183" class="R"/><path d="M494 314l1 1-1-1z" class="L"/><path d="M43 317v1l2 3-3-3h-1l-4 8h5l7 18c4.284-1.773 13.653 2.284 15-4h-5l1-3-8 2 1-3-6-5v-1l-4-5-4-1v-2l6 2 4-8-6 1z" fill="#720000"/><path d="M99 315v1l8 1v1h-4v1l9-1-13-3z" class="AZ"/><path d="M401 324l16-8c-7.04-2.954-14.47.48-16 8z" class="E"/><use xlink:href="#B" x="121" y="193" fill="#005271"/><path d="M18 316l1 1-1-1z" class="L"/><use xlink:href="#E" x="-6" y="143" class="Aa"/><path d="M38 317v1l5-1h-5z" fill="#4c0028"/><path d="M64 316v1h8l-8-1z" class="f"/><path d="M84 317v1h12l-12-1z" class="AN"/><path d="M97 318c6.065 3.162 9.72 4.288 16 1v-1l-10 1v-1h4c-3.35-2.286-6.65-2.286-10 0z" fill="#ffd733"/><use xlink:href="#C" x="125" y="185" class="B"/><path d="M46 317c.014 3.194-.403 5.27 3 6v-6h-3z" class="p"/><path d="M49 317l-1 5h1l3-2-1-3h-2m13 0c-3.13 4.476-5.41 12.748-11 6h-1l6 6-1 7 5-1h1v-4h2l3 4v-1l-2-4 5 8h1v-10h1v3h1v-4l-5 2 6-5v-3l-6-2-4 1 2 3 1 5c-3.996-3.476-4.12-6.294-2-11h-2z" class="AO"/><path d="M66 328l-1-5-2-3 4 1 3-4c-7.275.237-11.588 6.675-4 11m5-11l-1 4 3 3-5 4 6-3c-1.165 3.187-1.867 6.17 2 7-.42-5.73-.328-11.067-5-15z" class="T"/><path d="M84 318v1h9v-2l-9 1z" class="Ab"/><path d="M112 317l1 2h1l1-2h-3z" fill="#ba7b33"/><path d="M254 317l3 2-3-2z" class="C"/><path d="M378 317v1l3 2-3-3z" class="D"/><use xlink:href="#B" x="51" y="195" class="F"/><path d="M381 319c3.45 2.202 5.515.956 8-2l-8 2z" class="I"/><path d="M42 318l3 3-3-3z" class="T"/><path d="M69 318v3h1l1-3h-2z" class="b"/><path d="M74 318l2 14 15-4v-1c-11.193.48-9.967-1.452-17-9z" class="Ac"/><path d="M82 318l-1 5h1v-3h1l3 3 2-3-6-2z" class="Ad"/><path d="M93 318v1l7 2-7-3z" class="T"/><path d="M180 318v1h9l-9-1z" class="AL"/><path d="M272 318v1h4l-4-1m47 0v1h5l-5-1z" class="H"/><path d="M493 318l1 1-1-1z" class="M"/><path d="M50 319l-1 4-5 1-5-2v2c4.17 2.644 5.903 6.493 11 4v3h1l-1-12z" class="T"/><path d="M85 320c2.658 4.1 7.754 3.255 12 2l-12-2z" class="v"/><path d="M92 319v1l5 1-5-2z" class="Ad"/><path d="M100 319l-2 4 3 1 2-2-3-3z" class="y"/><path d="M111 320v1h9l-9-1z" class="AZ"/><path d="M226 319v1h5l-5-1z" class="P"/><use xlink:href="#B" x="-20" y="197" class="B"/><path d="M326 319v1h3l-3-1z" class="G"/><path d="M19 320l1 1-1-1z" class="M"/><path d="M82 320l4 4v-1l-4-3z" fill="#ecb300"/><path d="M110 320l-6 2v1l1 3 5-6z" fill="#a63"/><path d="M120 320v1h9l-9-1z" fill="#a35c33"/><path d="M129 320l2 8h3v-1l-5-7z" fill="#893333"/><path d="M96 323l3-2-3 2z" class="c"/><path d="M103 321l-3 1 3 4v-5z" class="b"/><path d="M109 323c6.457 1.594 19.824-5.567 20 5 3.55-2.6 2.485-6.12-2.02-6.852-5.235-.85-13.55-1.175-17.98 1.852z" fill="#ffd733"/><use xlink:href="#C" x="215" y="190" class="R"/><path d="M67 322l-1 4h1v-4z" class="T"/><path d="M113 327h16v-1h-13v-1l13-1v-2c-5.554 0-13.902-1.384-16 5z" fill="#ad3333"/><path d="M147 322v4h1l-1-4z" class="AZ"/><use xlink:href="#C" x="177" y="191" fill="#004058"/><path d="M20 323l1 1-1-1z" class="N"/><path d="M81 323v1l15 1v-2H81z" class="f"/><path d="M87 323v1h4l-4-1z" class="c"/><path d="M96 323v1h3l-3-1z" class="Ae"/><path d="M102 325l4-1-4 1z" class="T"/><path d="M107 323l1 3c2.927-.3 4.39.105 5-3h-6z" fill="#d1982d"/><path d="M411 323v1h3l-3-1z" class="h"/><use xlink:href="#B" x="117" y="201" class="AF"/><path d="M116 325v1h14v-2l-14 1z" fill="#d53333"/><path d="M409 324v3h1l-1-3z" class="AG"/><path d="M415 324l1 1-1-1z" class="e"/><path d="M455 324l1 1-1-1z" class="h"/><path d="M60 325l-2 7h1l1-7z" fill="#efb800"/><path d="M72 325v2l2-2h-2z" class="f"/><path d="M92 326v1h21l-21-1z" class="c"/><path d="M417 325l1 1-1-1z" class="e"/><path d="M458 325l1 1-1-1z" class="l"/><path d="M491 325l1 1-1-1z" class="M"/><use xlink:href="#E" x="-3" y="153" class="Aa"/><use xlink:href="#B" x="61" y="204" fill="#b39720"/><path d="M419 326l1 1-1-1z" class="e"/><path d="M449 326v3h1l-1-3z" class="AF"/><path d="M460 326l1 1-1-1z" class="S"/><path d="M67 327v2h2l-2-2z" class="b"/><path d="M72 327l-2 13h2v-5l2-2 2 2h1l-4-3-1-5z" fill="#cc8e00"/><path d="M79 329l-7 12-3-1-19 4-5-1v1l3 1v1l-3 3 5-3-1 4 8-3 2 2h1l6-2h1l1 2h1l4-1 8-11c2.26 3.145 10.086-4.617 14-4.89 7.796-.54 8.832 6.034 14.11 9.167 5.967 3.54 22.11-5.022 15.89 7.722l3-2h2l2 2 2-4v-1l-9-8c-8.646 3.057-12.254-5.314-20.285-7.53-8.66-2.39-17.074.457-25.715.53z" class="T"/><path d="M95 327v1l22 1-22-2z" fill="#cf8a00"/><path d="M115 327v1h13l-13-1z" fill="#c28533"/><path d="M117 328v1h18l-18-1z" fill="#e0ae33"/><path d="M273 327v1h3l-3-1m45 0v1h7l-7-1z" class="J"/><path d="M398 327v1h3l-3-1z" fill="#8f7400"/><path d="M409 327v3h1l-1-3z" class="h"/><path d="M412 327v1h3l-3-1z" class="U"/><path d="M421 327l1 1-1-1m41 0l1 1-1-1z" class="S"/><path d="M43 328l2 2v-2h-2z" class="q"/><path d="M49 328l-4 3 8 5-1 3c4.252-.91 3.003-6.294 4-10l-4-1-1 3-2-3z" fill="#dfa100"/><path d="M70 328v4h1l-1-4z" class="T"/><path d="M119 329v1l19 1-1-3-18 1z" fill="#983333"/><path d="M227 328v1h5l-5-1z" class="o"/><path d="M271 328l1 1-1-1z" class="V"/><use xlink:href="#B" x="-7" y="206" class="k"/><path d="M367 328v1h4l-4-1z" class="Af"/><path d="M379 328l1 1-1-1z" class="J"/><path d="M411 328c-.14 5.736-2.4 11.8-9 12.628-7.52.94-13.568-6.73-21-6.31-8.266.465-18.07 6.428-26 9.013-12.9 4.205-27.656 5.46-40 10.67v1c5.46 3.187 11.448 6.55 18 5.81 10.476-1.18 18.498-11.147 29-11.667 12.577-.624 25.018 6.847 38 6.856v1l-11 3.323-29-5.02-29 11.6-27-9.82-23 4.862-14-2.852-40-1.078-17 3.12-16-7.166-10.83-1.44L150 343v88c0 7.215-3.31 25.79 1.603 31.363 5.02 5.694 16.473 8.4 23.397 10.922 22.77 8.29 47.705 13.715 72 13.715 76.498 0 147.625-28.5 194.87-91 12.636-16.716 28.5-38.904 32.13-60-5.264-1.824-14.997-9.46-20.683-7.303-6.034 2.29-3.412 12.275-13.317 11.075-10.744-1.302-17.725-11.507-29-11.772z" fill="#0092c8"/><path d="M423 328l1 1-1-1z" class="l"/><path d="M464 328l1 1-1-1z" class="S"/><path d="M490 328l1 1-1-1z" class="L"/><use xlink:href="#E" x="-2" y="156" class="Aa"/><path d="M106 329v1l11 6-5-5v-1h7l-13-1z" fill="#7f0000"/><use xlink:href="#B" x="-100" y="207" class="k"/><use xlink:href="#B" x="-4" y="207" class="S"/><path d="M359 342l24-8c-12.925-8.684-17.272-3.29-24 8z" fill="#33a7d3"/><path d="M381 329l1 1-1-1z" class="J"/><path d="M466 329l1 1-1-1z" class="u"/><path d="M64 330v2h3v-2h-3z"/><path d="M112 330v1l5 7 10-4-15-4z" class="v"/><path d="M152 330l1 1-1-1z" class="J"/><path d="M175 330l1 1-1-1z" class="V"/><use xlink:href="#B" x="-122" y="208" class="P"/><path d="M237 330l1 1-1-1z" class="V"/><path d="M383 330l1 1-1-1z" class="J"/><path d="M426 330l1 1-1-1z" class="h"/><path d="M468 330l1 1-1-1z" class="S"/><path d="M61 331v4h-1l-1-2c-1.497 2.47-2.033 3.333 1 4l-1 3 3-1 2 3 5-6-3 3-4-2v-1h4v-1h-3v-4h-2z" fill="#dfa600"/><path d="M77 331v4h1l1-4h-2z" fill="#620000"/><path d="M150 332v11c9.873 1.458 19.073 6.496 29 7.853 4.21.575 7.74-2.186 12-1.228 6.47 1.456 12.227 6.016 19 6.242 13.647.454 21.973-12.534 35-1.867l-23 3v1l47 1v-1l-3-1v-1c5.798.25 11.182 1.413 17 .385 11.268-1.99 20.22-8.077 31-1.385h1c10.214-6.257 32.595-3.23 40-13-11.223-1.744-21.932-11.778-33.89-9.848-7.218 1.165-4.376 14.03-14.11 13.4-10.66-.68-18.582-11.385-29-13.153-8.385-1.423-11.844 10.07-20 9.927-9.528-.168-16.987-9.667-26.985-9.238-6.775.3-8.82 8.915-16.015 9.698-10.243 1.113-18.123-9.744-28-11.313-7.61-1.21-11.99 5.903-19 7.086-6.318 1.067-12.772-3.702-18-6.57z" fill="#33a7d3"/><use xlink:href="#B" x="-147" y="209" class="AP"/><path d="M195 331l1 1-1-1m29 0l1 1-1-1z" class="J"/><path d="M320 331v1h6l-6-1z" class="Q"/><path d="M385 331l1 1-1-1z" class="J"/><path d="M408 331l1 1-1-1z" class="S"/><path d="M428 331l1 1-1-1z" class="u"/><path d="M448 331l1 1-1-1z" class="e"/><path d="M470 331l1 1-1-1z" class="h"/><path d="M489 331l1 1-1-1z" class="L"/><path d="M56 332v2l2-2h-2z" class="AQ"/><path d="M64 332v2h2v-2h-2z" fill="#19005e"/><use xlink:href="#E" x="29" y="159" class="c"/><path d="M67 332v3l2-1v-1l-2-1z" class="AR"/><path d="M92 332v1h7l-7-1z" class="b"/><path d="M229 332v1h4l-4-1z" class="Af"/><use xlink:href="#B" x="-29" y="210" class="B"/><use xlink:href="#C" x="51" y="201" class="Z"/><path d="M327 332v1h3l-3-1z" class="AP"/><path d="M361 332l1 1-1-1z" class="Y"/><path d="M387 332l1 1-1-1z" class="S"/><path d="M473 332l1 1-1-1z" class="l"/><path d="M74 333l4 3-4-3z" fill="#ae6300"/><path d="M90 333v1h3l-2 5h1l5-5 8 3 2 6-4 2 1 3h1c4.585-5.646 9.475-4.446 16-6l-2 8 4 2 7-4h-8l6-3c-3.86-6.61-10.053-2.085-15.98-3.357-4.217-.905-5.487-5.54-9.073-7.464C99.243 332.193 94.06 333 90 333z" class="Ag"/><path d="M170 333l1 1-1-1z" class="J"/><path d="M389 333l1 1-1-1z" class="e"/><use xlink:href="#C" x="146" y="202" class="g"/><use xlink:href="#C" x="186" y="202" class="d"/><path d="M66 334c1.127 2.006 1.873 2.006 3 0h-3z" class="Ac"/><path d="M81 337l-6 7 15-10-9 3z" class="z"/><path d="M50 354l-6-4 11 22h1c4.018-5.496 9.26-17.868 17.736-9.72 2.745 2.638 3.596 7.667 7.394 9.1 4.07 1.535 15.59-1.113 19.87-2.378v-1c-4.878.616-11.002 2.175-15.8.486-4.034-1.417-3.637-5.255-.127-7.053 9.135-4.68 22.24-1.024 31.937-1.433l-2 2v1c7.945 0 15.572-1.304 18 8l5 4-25-1 4 7c2.942-.267 6.17-2.164 9-2.03 9.973.47 7.794 11.196 6 17.03h-1c-2.123-3.264-4.877-3.264-7 0h-1v-3l-4 1 2-8h-13c-3.152 7.034-9.15 7-16 7l1 3-2-6-4 5h-1l-3-4 2-7 10 3-1-10-24 16c2.882 8.7 10.817 15.374 16.83 22 16.958 18.684 39.686 37.172 63.17 47v-87c0-7.365 3.428-26.354-1.028-32.298-3.34-4.457-15.698-7.26-20.972-8.702 4.913 8.286 6.824 9.094 4 19h-1l-1-4-7 3c-.614-2.85-1.303-2.854-4-2l2-8-29 7 1 3-8-1v-11l6 4h5l-3-10c-9.956 2.583-15.747 13.035-25.015 16.23-5.804 2.002-14.017-1.733-17.985 3.77z" class="v"/><path d="M97 346l5-2-1 4 2-3 4-2-3-7-7-2c-5.355 2.994-1.97 7.502 0 12z" fill="#f1b800"/><path d="M124 334v1h3l-1 2 6 2v1h-2v1l2 3-2 5 1 4c6.272-7.606 3.146-17.535-7-19z" class="z"/><path d="M162 334v1h6l-6-1z" class="n"/><path d="M200 334l1 1-1-1m22 0l1 1-1-1m67 0l1 1-1-1m71 0l1 1-1-1z" class="J"/><path d="M392 334l1 1-1-1z" class="l"/><path d="M488 334l1 1-1-1z" class="L"/><path d="M72 335v5h1l3-4-4-1z" fill="#761a00"/><path d="M123 337l9 3v-1l-5-4-4 2z" fill="#bc7300"/><path d="M394.667 335.333l.666.334-.666-.334M404 335l1 1-1-1m32.667.333l.666.334-.666-.334z" class="l"/><path d="M444 335l1 1-1-1z" class="e"/><path d="M55 336v3l2-3h-2z" class="q"/><path d="M62 336v1l4 2 1-3h-5z" fill="#6d0d00"/><path d="M262 336l1 1-1-1z" class="Y"/><path d="M398 336v1h5l-5-1z" class="h"/><use xlink:href="#E" x="1" y="164" class="AY"/><path d="M92 337l2 3-2-3z" class="y"/><use xlink:href="#C" x="-160" y="206" class="q"/><path d="M118 337v1h4l-4-1z" class="c"/><path d="M219 337l1 1-1-1z" class="V"/><use xlink:href="#B" x="16" y="215" class="k"/><path d="M357 337l1 1-1-1z" class="Y"/><path d="M487 337l1 1-1-1z" class="M"/><path d="M69 338l-5 4v1c3.046-.648 5.497-1.566 5-5z" class="y"/><use xlink:href="#B" x="-126" y="216" class="S"/><path d="M52 340l8 2-2-3-6 1z" class="v"/><use xlink:href="#E" x="24" y="166" class="Ab"/><path d="M80 339l1 1-1-1z" fill="#ecb300"/><use xlink:href="#B" x="61" y="217" class="m"/><use xlink:href="#B" x="103" y="217" class="R"/><path d="M39 340l1 1-1-1z" class="AA"/><path d="M71 340l1 1-1-1m14 0v11l2-2 6 3-7-5 1-5 4 1-6-3z" class="c"/><path d="M398 340v1h7l-7-1z" class="U"/><path d="M26 341l1 1-1-1z" class="M"/><path d="M130 341l2 3 1-3h-3z" class="p"/><path d="M304 341v1h5l-5-1z" class="J"/><path d="M42 344l3-2-3 2z" fill="#580020"/><path d="M46.667 342.333l.667.334-.667-.334M74 342v4h1l-1-4z" class="b"/><path d="M87 342l-1 5h1l4-4-4-1z" class="q"/><path d="M256 342v1h5l-5-1m99 0v1h3l-3-1z" class="AP"/><path d="M58 343v1h3l-3-1z" class="q"/><use xlink:href="#D" x="-1" y="208" class="b"/><path d="M90 344l-3 3 3-3z" class="T"/><path d="M92 349v-4h1l1 3 2-2 1 2 1-1c-2.88-2.94-9.255-3.18-6 2z" class="AQ"/><path d="M96 346h-1v2l-2-2-1 3h11v-1l-1-4-6 2z" class="AO"/><path d="M123 344v1l5 2-5-3z" class="Ah"/><use xlink:href="#E" x="55" y="172" class="T"/><path d="M123 345l1 4h1l-2-4z" class="y"/><path d="M132 345v3h1l1-3h-2z" class="Ah"/><path d="M305 345v1h6l-6-1z" class="Af"/><path d="M484 345l1 1-1-1z" class="M"/><path d="M28 346l1 1-1-1z" class="L"/><path d="M44 346l-1 4 7 4 5-4v-1l-6 1 1-4h-6z" class="c"/><use xlink:href="#E" x="62" y="173" fill="#e0a400"/><path d="M122 346v2h2v-2h-2z" class="AR"/><use xlink:href="#E" x="5" y="174" fill="#ebbfbf"/><path d="M57 347l-4 1v1l7 1v-1l-3-2z" class="Ac"/><path d="M60 347l1 3h4l-5-3z" fill="#a75c00"/><path d="M66 347l-1 3-4-2-8 2v1l20-2v-1l-7-1z" class="AN"/><use xlink:href="#D" x="14" y="211" fill="#b06500"/><use xlink:href="#B" x="-206" y="225" class="q"/><use xlink:href="#B" x="-209" y="227" class="b"/><path d="M181 353l30 7.945 20-7.308 14 .363c-10.03-11.365-23.77 2.213-35 1.72-9.77-.427-20.54-12.307-29-2.72z" class="W"/><path d="M230 349v1h9l-9-1z" fill="#cce9f4"/><use xlink:href="#B" x="24" y="227" class="R"/><path d="M266 356v1c13.555 8.516 23.327-.316 37-.46 10.106-.107 18.917 10.335 30 10.28 10.9-.052 17.535-10.704 28-11.715 12.13-1.172 24.41 8.472 36 2.895-8.8-4.674-30.294-10.564-40-7.83-8.476 2.39-16.157 10.276-25 11.148-9.38.926-17.663-9.228-27-10.12-6.35-.607-11.993 3.096-18 4.437-7.262 1.62-13.735.514-21 .364z" class="W"/><path d="M364 349v1h3l-3-1z" class="t"/><use xlink:href="#B" x="35" y="228" class="AS"/><path d="M30 351l1 1-1-1z" class="M"/><use xlink:href="#B" x="39" y="229" class="d"/><path d="M183 352v1h7l-7-1z" class="U"/><use xlink:href="#B" x="42" y="230" class="d"/><path d="M481 352l1 1-1-1z" class="M"/><path d="M31 353l1 1-1-1z" class="N"/><path d="M238 353v1h3l-3-1z" class="AP"/><use xlink:href="#B" x="45" y="231" class="g"/><path d="M442 353v1h5l-5-1z" class="U"/><path d="M45 354l1 1-1-1z" class="x"/><use xlink:href="#B" x="49" y="232" class="g"/><path d="M420 357c8.344 10.624 14.98 2.2 25 1.716 4.277-.21 8.632 2.084 13 2.284-11.07-12.914-24.367-.884-38-4z" class="W"/><path d="M480 354l1 1-1-1z" class="N"/><use xlink:href="#B" x="-47" y="233" fill="#a6d9ec"/><use xlink:href="#B" x="23" y="233" class="U"/><path d="M367 355v1h3l-3-1z" class="g"/><path d="M387 355v1h4l-4-1z" class="X"/><path d="M46 356l1 1-1-1z" class="x"/><path d="M301 356v1h5l-5-1z" class="U"/><use xlink:href="#B" x="39" y="234" class="m"/><path d="M393 356v1h7l-7-1z" class="Q"/><use xlink:href="#B" x="-36" y="235" class="d"/><path d="M47 358l1 1-1-1z" class="x"/><use xlink:href="#B" x="46" y="236" class="R"/><path d="M425 358v1h7l-7-1z" class="X"/><path d="M432.667 358.333l.666.334-.666-.334m13 0l.666.334-.666-.334z" class="R"/><path d="M64 360v1l6-1h-6z" fill="#7e0000"/><path d="M81 367h1v-3h1l3 3v1h-3v1h15v-1l-13-2v-2l12 1v1h-3v1l10-1v-1l-16-3v-1h20c-6.03-4.568-25.64-2.53-27 6z" class="Ag"/><use xlink:href="#B" x="50" y="237" class="m"/><use xlink:href="#B" x="114" y="237" class="R"/><path d="M48 360l1 1-1-1z" fill="#b28080"/><path d="M67 360v1h3l-3-1z" class="q"/><path d="M70 362h0z" class="z"/><path d="M94 362v1l16 2v1l-2 1c5.554.943 22.79-5.024 20 5 3.115-1.253 5.605-5.277.852-6.682-5.53-1.634-13.1-.318-18.852-.318v-1l3-1v-1l-10 1 2-2-11 1z" class="T"/><path d="M103 361v1h4l-4-1z" class="p"/><path d="M111 360v1l3 3h16v-1h-15v-1l2-2h-6z" class="AN"/><use xlink:href="#B" x="-46" y="238" class="d"/><path d="M388 360v1h4l-4-1z" class="X"/><use xlink:href="#B" x="117" y="238" class="m"/><path d="M58 375l4-6 2-8c-3.83 1.93-10.414 10.484-6 14z" class="c"/><path d="M63 362l3 3 7-1-6 8 7-3-1 6c5.1-3.635 1.892-9.858-1-14l-9 1z" class="T"/><path d="M88 361v1h5l-5-1z" class="p"/><path d="M92 362v1l5-1h-5z" class="b"/><path d="M103 362v1h11l-11-1z" class="f"/><path d="M210 361v1h4l-4-1z" class="X"/><path d="M275 361v1h11l-11-1z" class="Q"/><path d="M329 361v1h5l-5-1z" class="AS"/><path d="M454 361v1h4l-4-1z" class="Q"/><path d="M49 362l1 1-1-1z" fill="#b28080"/><use xlink:href="#D" x="17" y="226" fill="#bc7300"/><path d="M74 362l2 11 4-1-6-10z" class="c"/><use xlink:href="#D" x="29" y="226" class="q"/><path d="M50 363l1 1-1-1z" fill="#e2aa10"/><path d="M61 367h1l3-3-4 3z" class="Ah"/><path d="M67 363l1 5 5-4-3 1-3-2z" class="f"/><path d="M85 364v2h12c-3.733-2.778-7.57-3.272-12-2z" class="v"/><path d="M110 364v1l4-1h-4m-47 0l3 8-4-2 1 6 1-3h3l2 5-6 2v1l6 2h1c0-3.884 1.58-10.018-3-11l2-4-3 2 1-5-4-1z" class="c"/><path d="M82 364l4 4v-1l-4-3z" class="AR"/><path d="M113 364v1h8l-8-1z" class="f"/><path d="M121 364v1h9l-9-1m-30 3v1l22 2v-3H91z" class="b"/><use xlink:href="#B" x="-226" y="243" class="z"/><path d="M62 366l4 6-2-6h-2m5 0l-1 4h1v-4z" class="T"/><path d="M69 368l4-1-4 1z" class="c"/><path d="M118 366v1l11 3c1.208-5.38-7.57-4-11-4z" class="f"/><path d="M327 366v1h3l-3-1z" class="R"/><use xlink:href="#B" x="2" y="244" class="U"/><path d="M99 367v1l2 1-15 2v1l43-1v-1l-15-2-12 1-3-2z" class="c"/><path d="M102 369l3-2-3 2z" class="T"/><path d="M114 370l3-3-3 3z" class="y"/><path d="M116 370h13c-2.757-4.253-10.243-4.253-13 0z" class="v"/><path d="M132 367c-.235 2.975-1.4 4.588 2 5v1h-26v1l9 6-4-6 25 1-5-4-1-4z" class="AN"/><path d="M400 367v1h5l-5-1z" class="R"/><path d="M60 368l-3 8c3.096-1.954 4.328-4.484 3-8z" fill="#dea100"/><path d="M62 368l-1 3 1-3z" class="b"/><path d="M335 381l22-5.63 24 7.418 22-9.65 20 5.398L437 377c-8.66-3.642-28.697-10.618-38-8.6-7.645 1.65-13.92 10.37-22 9.88-7.18-.436-13.085-6.252-20-7.527-5.622-1.036-19.13 5.513-22 10.258z" class="W"/><use xlink:href="#B" x="73" y="246" class="d"/><path d="M69 371l2 4h1l2-6-5 2z" class="f"/><path d="M213 378c6.058-.13 12.038-3.755 18-2.467 6.693 1.446 13.008 8.805 20 7.972 7.743-.923 12.938-9.266 21-9.296 9.98-.036 21.947 11.154 29-1.21-3.632 1.036-7.124 3.04-11 2.44-7.33-1.134-14.392-6.86-22-6.124-7.135.69-11.605 9.546-19 8.94-11.393-.935-26.22-16.243-36-.254z" class="W"/><path d="M271 369v1h3l-3-1z" class="t"/><use xlink:href="#B" x="76" y="247" class="d"/><path d="M226 370v1h7l-7-1z" class="U"/><path d="M54 371l1 1-1-1z" fill="#de8080"/><path d="M72 371v4h-1v-3h-1v11h2v-4l2 1v-4h1l1 3h1l-1-5-3 1-1-4z" fill="#daa100"/><path d="M79 373l-7 12-2-2-5 3 3 7 13-10c6.05-3.896 13.698-9.88 20.985-5.258 2.992 1.9 4.74 5.926 8.224 6.94 6.817 1.984 19.872-3.35 14.79 8.318l3-2 4 1 2-3v-1l-4-3v-1h2v-1l-7-1 2-2v-1c-9.065 2.243-13.756-.58-21-7h4c-9.538-4.002-21.254.772-31 1z" class="T"/><path d="M110 371v1h18l-18-1z" class="p"/><path d="M106 374l28-1c-4.655-2.505-24.453-3.06-28 1z" class="b"/><path d="M75 373l1 3 10-3H75z" fill="#a65c00"/><path d="M471 372l1 1-1-1m-430 1l1 1-1-1z" class="N"/><path d="M60 373l-2 3v1l2 2h1l1-6h-2z" class="Ab"/><path d="M64 373l2 5h1v-5h-3z" fill="#00000a"/><use xlink:href="#B" x="72" y="251" class="m"/><path d="M78 374l-1 5h1v-5z" class="c"/><path d="M268 374v1h6l-6-1z" class="X"/><use xlink:href="#B" x="-60" y="252" class="R"/><use xlink:href="#B" x="90" y="252" class="d"/><path d="M470 374l1 1-1-1m-428 1l1 1-1-1z" class="M"/><path d="M61 375v4h2v-4h-2z" class="Ae"/><use xlink:href="#B" x="-110" y="253" class="g"/><path d="M289 375v1h6l-6-1z" class="U"/><path d="M428 375v1h3l-3-1z" class="g"/><path d="M63 376v2h3v-2h-3z" fill="#2c004d"/><path d="M66 379l3-3-3 3z" class="Ae"/><path d="M74 376v4l-2-1-1 6h1l4-4-2-5z" class="AO"/><path d="M88 378v1h10l3-2-13 1z" class="f"/><use xlink:href="#B" x="15" y="254" class="d"/><path d="M58 377l3 6h1l-4-6z" fill="#dda100"/><path d="M75 377l3 3-3-3z" class="b"/><path d="M98 380l5-1 4 8-6 3-11 2 3 4-1-3c6.564 0 22.1-1.405 14.528-12-2.237-3.125-7.413-6.206-8.528-1z" class="Ad"/><use xlink:href="#B" x="-115" y="255" class="d"/><use xlink:href="#B" x="99" y="255" class="g"/><path d="M63 378v1h3l-3-1z" class="f"/><path d="M95 389h4l-1 3 4-4-1 4h1l1-3 4-2-3-7c-10.38-.652-9.09-.692-9 9z" fill="#f1b800"/><path d="M124 378v1h3v1h-2v1h5l-6-3z" fill="#670000"/><path d="M214 378v1h4l-4-1z" class="X"/><path d="M248 378v1h4l-4-1z" class="Q"/><use xlink:href="#B" x="-48" y="256" class="t"/><path d="M376 378v1h4l-4-1z" class="U"/><use xlink:href="#B" x="87" y="256" class="R"/><path d="M61 379l1 4h1l-2-4z" fill="#af6800"/><path d="M63 379v1h3l-3-1z" class="AR"/><path d="M81 383v-2c-4.886 2.22-6 4.898-7 10h1l13-12-7 4z" class="z"/><path d="M92 379l3 8-10-3-2 7 3 4h1v-7h9l-2-9h-2z" class="AO"/><use xlink:href="#B" x="-233" y="257" fill="#a75c00"/><path d="M290 379v1h4l-4-1z" class="X"/><path d="M425 379v1h3l-3-1z" class="U"/><path d="M467 379l1 1-1-1z" class="N"/><path d="M45 380l1 1-1-1z" class="L"/><path d="M67 380l-2 5 5-1-1-4h-2z" fill="#ce9200"/><path d="M117 381v1l6-1h-6z" class="f"/><use xlink:href="#B" x="6" y="258" class="g"/><path d="M62 384l3-3-3 3z" fill="#d99d00"/><use xlink:href="#D" x="27" y="245" class="AQ"/><path d="M125 381v1h5l-5-1z" fill="#d39100"/><path d="M128 382v1h4v1h-2v1l2 4v1l2 2-2-11-4 1z" class="z"/><path d="M335 381v1h4l-4-1z" class="U"/><path d="M466 381l1 1-1-1z" class="M"/><path d="M64 382v5l4-1v-1h-3l1-3h-2z" class="f"/><path d="M167 389c13.904-3.178 17.25 7.647 30 8.895 13.436 1.315 22.084-7.577 36-3.895-8.208-14.854-23.63 1.22-34-.743-7.915-1.498-12.865-10.2-21-11-5.03-.495-8.91 2.497-11 6.743z" class="W"/><use xlink:href="#D" x="24" y="247" class="p"/><path d="M375 383v1h6l-6-1z" class="U"/><path d="M120 384v1h3l-3-1z" fill="#ac5c00"/><use xlink:href="#B" x="-85" y="262" class="AS"/><path d="M464 384l1 1-1-1z" class="L"/><path d="M48 385l1 1-1-1z" class="M"/><path d="M109 385v1h8l-8-1z" class="p"/><path d="M117 385v1l6 3h5c-1.696-4.823-6.576-3.997-11-4z" fill="#910000"/><path d="M74 386v3h1l-1-3z" class="b"/><path d="M109 386v1h8l-8-1z" fill="#7e0000"/><path d="M132 386v2h2v-2h-2z" fill="#a35100"/><path d="M277 395v1c6.376-.56 12.768-6.14 19-5.397 7.96.95 12.462 9.355 21 9.366 7.07.01 12.355-6.764 19-6.365 7.162.43 12.547 7.225 20 7.313 8.52.102 14.836-6.718 23-7.248 15.205-.987 24.497 15.816 38-1.67-4.91 1.415-9.72 5.217-15 4.63-8.506-.943-15.016-8.16-24-7.51-7.222.52-12.76 7.415-20 7.457-9.002.053-15.26-8.835-25-7.362-5.75.87-10.23 7.103-16 6.973-6.653-.15-12.452-7.883-19-9.575-7.574-1.956-15.055 4.453-21 8.387z" class="W"/><path d="M120 387l-1 7 4 2h1l2-6-4 1 1-4h-3z" class="c"/><path d="M172 387v1h7l-7-1z" class="g"/><path d="M216 387v1h7l-7-1z" class="Q"/><use xlink:href="#B" x="-111" y="265" class="d"/><path d="M462 387l1 1-1-1z" class="N"/><path d="M50 388l1 1-1-1z" class="L"/><path d="M87 388c.513 2.475.604 2.575 3 2l-3-2z" class="T"/><path d="M88 388v1l2 3h7c-.927-4.33-5.132-3.965-9-4z" class="p"/><path d="M100 388v2h2v-2h-2z" fill="#ac5c00"/><path d="M123 389v1h5l-5-1z" class="b"/><path d="M166 388v2h2l-2-2m3.667.333l.666.334-.666-.334z" class="d"/><use xlink:href="#B" x="-121" y="266" class="m"/><path d="M334 388v1h4l-4-1m44 0v1h4l-4-1z" class="X"/><use xlink:href="#E" x="61" y="216" fill="#700d00"/><use xlink:href="#B" x="49" y="267" class="g"/><path d="M92 391v1l4-2-4 1z" class="y"/><use xlink:href="#B" x="-212" y="268" class="T"/><use xlink:href="#C" x="-132" y="259" class="AQ"/><path d="M52 391l1 1-1-1z" class="L"/><path d="M69 394l5-2c-2.555-1.36-4.412-.99-5 2z" class="Ag"/><path d="M128 391l3 5h1l1-4-5-1z" fill="#6b0000"/><use xlink:href="#B" x="-44" y="269" class="g"/><path d="M226 392v1h3l-3-1z" class="U"/><path d="M198 393v1h5l-5-1z" class="Q"/><path d="M333 393v1h5l-5-1z" class="X"/><path d="M377 393v1h4l-4-1z" class="U"/><path d="M458 393l1 1-1-1z" class="N"/><path d="M54 394l1 1-1-1z" class="M"/><use xlink:href="#B" x="50" y="272" class="m"/><path d="M70 395l1 1-1-1z" class="x"/><use xlink:href="#B" x="-57" y="274" class="AS"/><path d="M315 396v1h4l-4-1z" class="U"/><path d="M355 396v1h6l-6-1z" class="d"/><path d="M400 396v1h7l-7-1z" class="X"/><path d="M456 396l1 1-1-1z" class="L"/><path d="M57 398l1 1-1-1z" class="N"/><path d="M197 398v1h6l-6-1z" class="U"/><path d="M314 400v1h6l-6-1z" class="Q"/><use xlink:href="#B" x="26" y="278" class="g"/><path d="M453 400l1 1-1-1m-393 2l1 1-1-1z" class="N"/><path d="M450 404l1 1-1-1z" class="L"/><path d="M78 405l1 1-1-1z" class="AB"/><path d="M63 406l1 1-1-1z" class="L"/><path d="M447 408l1 1-1-1z" class="M"/><path d="M446 409l1 1-1-1m-379 2l1 1-1-1m1 1l1 1-1-1m373 3l1 1-1-1z" class="L"/><path d="M88 416l1 1-1-1z" class="AA"/><path d="M440 416l1 1-1-1z" class="N"/><path d="M74 419l1 1-1-1m1 1l1 1-1-1m1 1l1 1-1-1z" class="L"/><path d="M94 422l1 1-1-1z" class="x"/><path d="M105 432l1 1-1-1z" class="AB"/><path d="M89 434l1 1-1-1m1 1l1 1-1-1z" class="L"/><path d="M91 436l1 1-1-1z" class="M"/><path d="M110 436l1 1-1-1z" class="AA"/><path d="M418 438l1 1-1-1z" class="N"/><path d="M417 439l1 1-1-1z" class="L"/><path d="M115 440l1 1-1-1z" class="AB"/><path d="M98 442l1 1-1-1z" class="L"/><path d="M119 443l1 1-1-1z" class="AB"/><path d="M411 444l1 1-1-1z" class="L"/><path d="M122 445l1 1-1-1z" class="AA"/><path d="M103 446l1 1-1-1z" class="N"/><path d="M104 447l1 1-1-1z" class="M"/><path d="M406 448l1 1-1-1m-298 2l1 1-1-1z" class="L"/><path d="M131 451l1 1-1-1z" class="AA"/><path d="M402 451l1 1-1-1z" class="N"/><path d="M112 453l1 1-1-1z" class="M"/><path d="M134 453l1 1-1-1z" class="AB"/><path d="M398 454l1 1-1-1z" class="L"/><path d="M115 455l1 1-1-1z" class="N"/><path d="M139 456l1 1-1-1z" class="AB"/><path d="M395 456l1 1-1-1m-277 1l1 1-1-1z" class="N"/><path d="M141 457l1 1-1-1z" class="AA"/><path d="M389 460l1 1-1-1m-265 1l1 1-1-1z" class="N"/><path d="M386 462l1 1-1-1z" class="L"/><path d="M127 463l1 1-1-1z" class="M"/><path d="M381 465l1 1-1-1z" class="N"/><path d="M132 466l1 1-1-1z" class="M"/><path d="M134 467l1 1-1-1z" class="N"/><path d="M376 468l1 1-1-1z" class="M"/><path d="M374 469l1 1-1-1z" class="N"/><path d="M139 470l1 1-1-1m2 1l1 1-1-1z" class="M"/><use xlink:href="#B" x="-159" y="351" class="r"/><use xlink:href="#B" x="-4" y="353" class="m"/><path d="M151 476l1 1-1-1z" class="M"/><use xlink:href="#B" x="-7" y="354" class="m"/><path d="M153 477l1 1-1-1z" class="M"/><use xlink:href="#B" x="-147" y="355" class="r"/><use xlink:href="#B" x="-144" y="356" class="i"/><use xlink:href="#B" x="-14" y="356" class="t"/><path d="M356 478l1 1-1-1z" class="N"/><use xlink:href="#B" x="-140" y="357" class="r"/><use xlink:href="#B" x="-17" y="357" class="m"/><path d="M354 479l1 1-1-1z" class="M"/><use xlink:href="#B" x="-137" y="358" class="a"/><use xlink:href="#B" x="-21" y="358" class="R"/><path d="M201 481v1h3l-3-1z" class="a"/><use xlink:href="#B" x="-25" y="359" class="R"/><path d="M349 481l1 1-1-1z" class="N"/><use xlink:href="#B" x="-128" y="360" class="AC"/><use xlink:href="#B" x="-30" y="360" class="a"/><path d="M210 483v1h3l-3-1z" class="t"/><path d="M299 483v1h3l-3-1z" class="a"/><path d="M344 483l1 1-1-1z" class="N"/><path d="M170 484l1 1-1-1z" class="L"/><path d="M216 484v1h4l-4-1z" class="X"/><path d="M294 484v1h3l-3-1z" class="t"/><path d="M221 485v1h4l-4-1z" class="a"/><path d="M287 485v1h4l-4-1z" class="Q"/><path d="M339 485l1 1-1-1z" class="M"/><path d="M229 486v1h5l-5-1z" class="a"/><path d="M279 486v1h4l-4-1z" class="Q"/><path d="M336 486l1 1-1-1z" class="L"/><path d="M240 487v1h4l-4-1z" class="Q"/><path d="M244 487v1h8l-8-1z" class="a"/><path d="M252 487v1h9l-9-1z" class="X"/><path d="M261 487v1h7l-7-1z" class="a"/><path d="M268 487v1h5l-5-1z" class="Q"/><path d="M333 487l1 1-1-1m-3 1l1 1-1-1z" class="L"/><path d="M327 489l1 1-1-1m-139 1l1 1-1-1m132 1l1 1-1-1z" class="M"/><path d="M316 492l1 1-1-1z" class="L"/><path d="M312 493l1 1-1-1z" class="M"/><path d="M294 496v1h4l-4-1z" fill="#d5d5d5"/><path d="M288 497v1h3l-3-1z" class="AX"/><path d="M291 497l1 1-1-1z" class="M"/><path d="M229.667 498.333l.666.334-.666-.334M281 498v1h3l-3-1m-41 1v1h5l-5-1z" class="N"/><path d="M245 499v1h10l-10-1m13 0v1h10l-10-1z" fill="#d5d5d5"/><path d="M268 499v1h4l-4-1z" class="N"/><defs ><path id="B" d="M334.667 122.333l.666.334-.666-.334z"/><path id="C" d="M264.333 131.667l.334.666-.334-.666z"/><path id="D" d="M55.667 136.333l.667.334-.667-.334z"/><path id="E" d="M37.333 173.667l.333.666-.333-.666z"/></defs></svg>