<svg xmlns="http://www.w3.org/2000/svg" xmlns:xlink="http://www.w3.org/1999/xlink" width="512" height="512" xmlns:v="https://vecta.io/nano"><style><![CDATA[.B{fill:#696969}.C{fill:#a0a0a0}.D{fill:#898989}.E{fill:#fccad0}.F{fill:#fa95a0}.G{fill:#fbafb8}.H{fill:#f75f71}.I{fill:#f87a88}.J{fill:#fbaab3}.K{fill:#f76d7c}.L{fill:#fa9faa}.M{fill:#fcbcc4}.N{fill:#faa2ac}.O{fill:#f98794}.P{fill:#7082c9}.Q{fill:#f42a41}.R{fill:#fdd5d9}.S{fill:#f65567}.T{fill:#bfbfbf}.U{fill:#cacaca}]]></style><path d="M0 0v512h512V0H0z"/><path d="M250 8.424c-22.134 2.906-43.322 3.767-65 10.296C117.646 39.006 61.644 88.102 32.31 152-32.566 293.306 56.577 470.146 212 496.08c21.747 3.63 46.035 5.26 68 2.635C395.308 484.924 489.646 395.446 500.83 278 511.826 162.535 438.53 50.598 326 18.29c-23.258-6.677-51.733-13.053-76-9.867z" fill="#fff"/><path d="M241 20v1h5l-5-1z" class="E"/><path d="M246 20v1h20l-20-1z" class="F"/><path d="M266 20v1h5l-5-1z" class="E"/><path d="M232 21v1h6l-6-1z" class="H"/><path d="M213 24v17c22.935-1.813 44.838-6 68-2.7 94.474 13.467 176.767 86.908 189 183.7l7-3v108c14.022-25.797 13.164-64.69 11.09-93-7.22-98.494-79.34-182.804-175.09-206.625-33.96-8.448-65.824-4.846-100-3.375z" class="Q"/><path d="M274 21v1h4l-4-1z" class="H"/><path d="M278 21v1h5l-5-1z" class="E"/><path d="M285.667 22.333l.666.333-.666-.333z" class="K"/><path d="M287 22v1h3l-3-1m-71 1v1h3l-3-1z" class="G"/><path d="M292 23v1h3l-3-1z" class="I"/><path d="M298 24v1h3l-3-1z" class="O"/><path d="M207 25c5.72 24.026 1 54.287 1 79h1V46c0-5.373 2.236-17.298-2-21z" class="R"/><path d="M212 25v16h1l-1-16z" class="H"/><path d="M303.667 25.333l.666.333-.666-.333M202 26v1h3l-3-1z" class="I"/><path d="M148 66c19.274-8.067 38.575-21.25 60-23V26c-14.998 1.937-30.157 7.205-44 13.15-4.418 1.897-12.262 3.992-14.972 8.24C146.23 51.774 148 60.944 148 66z" class="Q"/><path d="M198.667 27.333l.666.333-.666-.333m-4 1l.666.333-.666-.333z" class="I"/><path d="M320.667 29.333l.666.333-.666-.333z" class="G"/><path d="M187.667 30.333l.666.333-.666-.333z" class="I"/><path d="M184.667 31.333l.666.333-.666-.333m-3 1l.666.333-.666-.333m-3 1l.666.333-.666-.333z" class="K"/><path d="M213 41v83c0 6.26 3.017 23.776-1.603 28.397C208.52 155.272 201.694 154 198 154H91c-6.76 0-20.81-2.67-26.6 1.028-4.452 2.84-6.42 11.34-8.4 15.972-6.92 16.27-11.688 33.48-14.13 51-1.924 13.803-4.45 31.2-1.59 45 1.48 7.157 9.757 14.034 14.722 19 15.306 15.306 33.644 28.545 53 38.248C156.9 348.76 207.555 359 262 359c13.254 0 26.992-.715 40-3.335 3.846-.774 10.096-.09 13.272-2.678 3.168-2.58 4.178-10.2 5.384-13.987 4.616-14.463 8.03-30.8 8.344-46-43.5.36-84.417 20.23-119 45V220c12.155 3.873 23.428 13.143 35 18.742 25.173 12.18 55.715 23.024 84 23.258-.027-41.322-19.725-84.13-45-116h119c-18.552 35.26-41.886 73.69-42 115 40.793-.338 74.013-22.938 110-38-8.488-30.205-14.45-57.732-31.425-85C405.626 83.47 345.097 45.036 281 38.174 257.882 35.7 235.897 38.09 213 41z" class="S"/><path d="M212 41v41h1c0-11.696 3.51-30.25-1-41z" class="J"/><path d="M148 149h60V43c-15.32.668-31.152 9-45 15-4.276 1.853-12.406 4.63-14.397 9.213C145.812 73.64 148 85.04 148 92v57z" class="S"/><path d="M212 82v58h1v-39l-1-19z" class="R"/><path d="M85 94c4.103 17.232 1 38.3 1 56h1v-41l-2-15z" fill="#ccd3ec"/><path d="M85 95c-14.685 15.344-28.795 34.293-37 54 5.066 0 14.213 1.764 18.6-1.028 3.63-2.304 6.04-8.448 8.4-11.972 7.87-11.807 16.253-26.098 10-41z" fill="#00209f"/><path d="M79 101l1 1-1-1z" class="P"/><path d="M208 104v39h1c0-11.172 3.31-28.726-1-39z" class="J"/><path d="M74 107l1 1-1-1z" class="P"/><path d="M70 112l1 1-1-1m-3 4l1 1-1-1z" fill="#8f9dd5"/><path d="M65 119l1 1-1-1z" class="P"/><path d="M85 121l-18 28h19l-1-28z" fill="#334db2"/><path d="M59 128l1 1-1-1z" class="P"/><path d="M57 131l1 1-1-1m-3 5l1 1-1-1z" fill="#8090cf"/><path d="M212 140v13h1l-1-13z" class="J"/><path d="M208 143v6h-27v1h28l-1-7z" fill="#f8808d"/><path d="M49 145l1 1-1-1z" fill="#8f9dd5"/><path d="M48 147l1 1-1-1z" fill="#8090cf"/><path d="M48 149v1h19l-19-1z" fill="#4058b7"/><path d="M67 149v1h19l-19-1z" fill="#667ac5"/><path d="M148 149v1h33l-33-1z" class="J"/><path d="M45 153v1h55l-18-1H45m121 0v1h25l-25-1z" class="R"/><path d="M191 153v1h21l-21-1z" class="J"/><path d="M403 413H283c10.455-18.76 28.232-37.117 32-59-26.2 1.125-51.448 6.123-78 4.96-49.48-2.167-100.967-16.787-143-43.28-14.854-9.362-28.706-20.094-40.985-32.68-4.252-4.36-10.706-10.022-12.5-16-2.04-6.8-.514-15.935-.514-23 .002-32.147 11.9-60.934 24-90-4.825 0-14.28-1.824-18.363 1.028C38.655 159.904 34.908 178.093 33 186c-6.82 28.257-9.01 54.03-9 83 .035 91.414 72.97 179 158 205.95 74.948 23.754 159.496 9.88 221-39.755 23.758-19.174 44.963-43.81 58.752-71.195 3.022-6 12.603-18.987 10.54-25.907-1.18-3.964-7.06-6.895-10.292-9.014-10.182-6.68-21.428-13.768-33-17.74-8.046-2.762-19.04 7.754-26 11.405-7.257 3.806-14.454 7.598-22 10.828-2.93 1.254-8.097 2.23-9.932 5.076-2.722 4.22 3.258 15.12 4.793 19.35 6.994 19.286 20.175 35.978 27.14 55z" class="Q"/><use xlink:href="#B" class="I"/><path d="M476.333 176.667l.334.666-.334-.666m1 3l.334.666-.334-.666m1 3l.334.666-.334-.666z" class="K"/><use xlink:href="#B" x="4" y="12" class="I"/><use xlink:href="#C" class="K"/><path d="M31.333 190.667l.333.666-.333-.666m450 2l.334.666-.334-.666z" class="O"/><path d="M30.333 194.667l.333.666-.333-.666m452 2l.334.666-.334-.666M29 198v3h1l-1-3z" class="I"/><path d="M483 200v3h1l-1-3z" class="O"/><use xlink:href="#C" x="-4" y="15" class="F"/><use xlink:href="#B" x="9" y="31" class="N"/><use xlink:href="#C" x="-5" y="19" class="G"/><use xlink:href="#B" x="10" y="36" class="N"/><path d="M26 213v3h1l-1-3m460 3v3h1l-1-3z" class="I"/><use xlink:href="#C" x="-7" y="32" class="F"/><path d="M475 219c5.86 24.615 1 55.68 1 81 0 6.586-3.065 24.574 2 29-4.753-25.603-1-54.96-1-81 0-6.586 3.065-24.574-2-29z" class="E"/><path d="M487 221v6h1l-1-6z" class="O"/><path d="M24 225v4h1l-1-4z" class="F"/><use xlink:href="#B" x="-110" y="59" class="L"/><path d="M488 232v6h1l-1-6z" class="H"/><path d="M23 234v4h1l-1-4z" class="E"/><path d="M23 238v4h1l-1-4z" class="F"/><path d="M363 241v3h1l-1-3z" class="L"/><path d="M23 242v10h1l-1-10z" class="H"/><path d="M489 243v22h1l-1-22z" class="E"/><path d="M23 255v10h1l-1-10z" class="H"/><use xlink:href="#D" class="L"/><path d="M298.667 257.333l.666.334-.666-.334m87 0l.666.334-.666-.334z" class="J"/><path d="M303 258v1h3l-3-1z" class="L"/><path d="M360 258v4h5v-1l-5-3z" fill="#fcbfc6"/><path d="M380 258v1h3l-3-1z" class="L"/><path d="M501 259v12h1l-1-12z" fill="#d3d3d3"/><path d="M368 260v1h5l-5-1z" fill="#fcbfc6"/><path d="M23 265v4h1l-1-4z" class="F"/><path d="M23 269v4h1l-1-4z" class="E"/><path d="M488 269v4h1l-1-4z" class="H"/><path d="M488 273v5h1l-1-5z" class="E"/><path d="M11 274v3h1l-1-3z" fill="#b7b7b7"/><path d="M24 278v5h1l-1-5z" class="E"/><use xlink:href="#B" x="25" y="107" class="D"/><path d="M487 282v4h1l-1-4z" class="E"/><use xlink:href="#C" x="-20" y="97" class="C"/><use xlink:href="#C" x="-7" y="99" class="F"/><path d="M486 288v3h1l-1-3z" class="I"/><use xlink:href="#B" x="24" y="115" class="D"/><use xlink:href="#C" x="-19" y="104" class="C"/><use xlink:href="#C" x="-6" y="104" class="K"/><use xlink:href="#C" x="-6" y="106" class="M"/><path d="M498 293v3h1l-1-3z" class="T"/><path d="M361 294l8 46h1l24-11.89L424 311v-2c-19.408-7.487-42.038-14.986-63-15z" class="S"/><path d="M485 294v3h1l-1-3z" class="I"/><path d="M305 295v1h3l-3-1z" fill="#fbb5bd"/><path d="M374 295v1h3l-3-1z" class="J"/><path d="M14 296v3h1l-1-3z" class="T"/><use xlink:href="#D" x="6" y="40" class="J"/><use xlink:href="#C" x="-5" y="110" class="O"/><path d="M295.667 297.333l.666.334-.666-.334m94 1l.666.334-.666-.334M328 299v4h1l-1-4m65.667.333l.666.334-.666-.334z" class="J"/><use xlink:href="#D" x="-11" y="44" class="L"/><use xlink:href="#D" x="103" y="44" fill="#fbb5bd"/><use xlink:href="#B" x="9" y="127" class="F"/><path d="M15 301v3h1l-1-3z" class="U"/><path d="M497 301l1 1-1-1z" class="B"/><use xlink:href="#C" x="-4" y="116" class="M"/><use xlink:href="#B" x="8" y="132" class="G"/><path d="M496 305l1 1-1-1z" class="C"/><use xlink:href="#C" x="-16" y="119" class="T"/><use xlink:href="#C" x="-3" y="120" class="G"/><path d="M327 307v3h1l-1-3m35 0v3h1l-1-3z" class="L"/><path d="M16 308l1 1-1-1z" class="B"/><path d="M495 308v3h1l-1-3z" class="U"/><path d="M482.333 309.667l.334.666-.334-.666m-452 2l.333.666-.333-.666z" class="G"/><path d="M17 312l1 1-1-1z" class="D"/><path d="M326 313v3h1l-1-3z" class="L"/><use xlink:href="#B" x="6" y="140" class="G"/><path d="M494 314l1 1-1-1z" class="D"/><use xlink:href="#C" x="-1" y="128" class="M"/><path d="M18 316l1 1-1-1z" class="D"/><path d="M493 318l1 1-1-1m-474 2l1 1-1-1z" class="B"/><use xlink:href="#B" x="4" y="147" class="G"/><path d="M20 323l1 1-1-1z" class="C"/><use xlink:href="#B" x="-151" y="150" class="L"/><use xlink:href="#B" x="-110" y="150" class="J"/><use xlink:href="#B" x="3" y="150" class="G"/><use xlink:href="#C" x="2" y="138" class="M"/><path d="M491 325l1 1-1-1z" class="B"/><use xlink:href="#C" x="3" y="141" class="M"/><path d="M490 328l1 1-1-1m-1 3l1 1-1-1m-1 3l1 1-1-1z" class="D"/><use xlink:href="#C" x="6" y="149" class="G"/><use xlink:href="#B" x="-2" y="164" class="N"/><path d="M487 337l1 1-1-1m-461 4l1 1-1-1m458 4l1 1-1-1z" class="B"/><path d="M28 346l1 1-1-1z" class="D"/><path d="M30 351l1 1-1-1m451 1l1 1-1-1z" class="B"/><path d="M31 353l1 1-1-1z" class="C"/><use xlink:href="#B" x="-101" y="180" class="G"/><path d="M480 354l1 1-1-1m-9 18l1 1-1-1m-430 1l1 1-1-1z" class="C"/><path d="M470 374l1 1-1-1m-428 1l1 1-1-1z" class="B"/><path d="M467 379l1 1-1-1z" class="C"/><path d="M45 380l1 1-1-1z" class="D"/><path d="M466 381l1 1-1-1z" class="B"/><path d="M464 384l1 1-1-1z" class="D"/><path d="M48 385l1 1-1-1z" class="B"/><path d="M462 387l1 1-1-1z" class="C"/><path d="M50 388l1 1-1-1m2 3l1 1-1-1z" class="D"/><path d="M458 393l1 1-1-1z" class="C"/><path d="M54 394l1 1-1-1z" class="B"/><path d="M456 396l1 1-1-1z" class="D"/><path d="M57 398l1 1-1-1m396 2l1 1-1-1m-393 2l1 1-1-1z" class="C"/><path d="M450 404l1 1-1-1m-387 2l1 1-1-1z" class="D"/><path d="M447 408l1 1-1-1z" class="B"/><path d="M446 409l1 1-1-1m-379 2l1 1-1-1m1 1l1 1-1-1z" class="D"/><path d="M283 412v1h120l-36-1h-84z" class="F"/><path d="M441 415l1 1-1-1z" class="D"/><path d="M440 416l1 1-1-1z" class="C"/><path d="M74 419l1 1-1-1m1 1l1 1-1-1m1 1l1 1-1-1m13 13l1 1-1-1m1 1l1 1-1-1z" class="D"/><path d="M91 436l1 1-1-1z" class="B"/><path d="M418 438l1 1-1-1z" class="C"/><path d="M417 439l1 1-1-1m-319 3l1 1-1-1m313 2l1 1-1-1z" class="D"/><path d="M103 446l1 1-1-1z" class="C"/><path d="M104 447l1 1-1-1z" class="B"/><path d="M406 448l1 1-1-1m-298 2l1 1-1-1z" class="D"/><path d="M402 451l1 1-1-1z" class="C"/><path d="M112 453l1 1-1-1z" class="B"/><path d="M398 454l1 1-1-1z" class="D"/><path d="M115 455l1 1-1-1m280 1l1 1-1-1m-277 1l1 1-1-1m271 3l1 1-1-1m-265 1l1 1-1-1z" class="C"/><path d="M386 462l1 1-1-1z" class="D"/><path d="M127 463l1 1-1-1z" class="B"/><path d="M381 465l1 1-1-1z" class="C"/><path d="M132 466l1 1-1-1z" class="B"/><path d="M134 467l1 1-1-1z" class="C"/><path d="M376 468l1 1-1-1z" class="B"/><path d="M374 469l1 1-1-1z" class="C"/><path d="M139 470l1 1-1-1m2 1l1 1-1-1z" class="B"/><use xlink:href="#D" x="-119" y="216" class="K"/><path d="M330.667 474.333l.666.334-.666-.334m-3 1l.666.334-.666-.334z" class="M"/><path d="M151 476l1 1-1-1z" class="B"/><use xlink:href="#D" x="-107" y="220" class="K"/><path d="M153 477l1 1-1-1z" class="B"/><use xlink:href="#D" x="-104" y="221" class="I"/><use xlink:href="#D" x="26" y="221" class="N"/><use xlink:href="#D" x="-100" y="222" class="K"/><use xlink:href="#D" x="23" y="222" class="M"/><path d="M356 478l1 1-1-1z" class="C"/><use xlink:href="#D" x="19" y="223" class="G"/><path d="M354 479l1 1-1-1z" class="B"/><use xlink:href="#D" x="-92" y="224" class="K"/><path d="M309.667 480.333l.666.334-.666-.334M205 481v1h3l-3-1z" class="G"/><use xlink:href="#D" x="10" y="225" class="F"/><path d="M349 481l1 1-1-1z" class="C"/><path d="M210 482v1h3l-3-1z" class="N"/><path d="M299 482v1h3l-3-1z" class="F"/><path d="M216 483v1h4l-4-1z" class="H"/><path d="M294 483v1h3l-3-1z" class="N"/><path d="M344 483l1 1-1-1z" class="C"/><path d="M170 484l1 1-1-1z" class="D"/><path d="M223 484v1h4l-4-1z" class="H"/><path d="M287 484v1h4l-4-1z" class="E"/><path d="M231 485v1h6l-6-1z" class="H"/><path d="M279 485v1h4l-4-1z" class="E"/><path d="M339 485l1 1-1-1z" class="B"/><path d="M240 486v1h4l-4-1z" class="E"/><path d="M244 486v1h7l-7-1z" class="F"/><path d="M251 486v1h10l-10-1z" class="H"/><path d="M261 486v1h7l-7-1z" class="F"/><path d="M268 486v1h5l-5-1z" class="E"/><path d="M336 486l1 1-1-1m-3 1l1 1-1-1m-3 1l1 1-1-1z" class="D"/><path d="M327 489l1 1-1-1m-139 1l1 1-1-1m132 1l1 1-1-1z" class="B"/><path d="M316 492l1 1-1-1z" class="D"/><path d="M312 493l1 1-1-1z" class="B"/><path d="M294 496v1h4l-4-1z" fill="#d5d5d5"/><path d="M288 497v1h3l-3-1z" class="U"/><path d="M291 497l1 1-1-1z" class="B"/><path d="M229.667 498.333l.666.334-.666-.334M281 498v1h3l-3-1m-41 1v1h5l-5-1z" class="C"/><path d="M245 499v1h10l-10-1m13 0v1h10l-10-1z" fill="#d5d5d5"/><path d="M268 499v1h4l-4-1z" class="C"/><defs ><path id="B" d="M475.333 173.667l.334.666-.334-.666z"/><path id="C" d="M32.333 187.667l.333.666-.333-.666z"/><path id="D" d="M294.667 256.333l.666.334-.666-.334z"/></defs></svg>