<svg width="17" height="17" viewBox="0 0 17 17" fill="none" xmlns="http://www.w3.org/2000/svg">
<rect opacity="0.01" width="17" height="17" transform="matrix(-1 0 0 1 17 0)" fill="#D8D8D8"/>
<path d="M8.479 5.6665V8.79953L5.71949 10.7665L5.20493 9.98914L7.56827 8.30484V5.6665H8.479Z" fill="white"/>
<path d="M7.53196 2.2666C10.7481 2.26801 13.4166 4.79541 13.6453 8.05667H15.5938L13.0958 10.827L10.5977 8.05667H12.5076C12.3103 5.7371 10.587 3.8509 8.326 3.48C6.06504 3.1091 3.84553 4.34848 2.94059 6.48724C2.03564 8.626 2.67701 11.1164 4.49681 12.5299C6.31662 13.9435 8.84879 13.9181 10.6409 12.4685L11.3381 13.3919C9.2302 15.084 6.28442 15.1846 4.06965 13.6401C1.85487 12.0955 0.886666 9.26545 1.6807 6.65711C2.47473 4.04877 4.84616 2.26936 7.53196 2.2666Z" fill="white"/>
</svg>
