<?xml version="1.0" encoding="UTF-8" standalone="no"?>
<svg
   xmlns:svg="http://www.w3.org/2000/svg"
   xmlns="http://www.w3.org/2000/svg"
   viewBox="0 0 7.9374998 7.9375002"
   version="1.1">
  <g transform="translate(0,-289.06248)">
    <path
       d="m 3.5718749,289.95545 c 0,-0.0546 -0.044648,-0.0992 -0.099219,-0.0992 H 2.8773436 c -0.05457,0 -0.099219,0.0447 -0.099219,0.0992 v 1.88516 h 0.79375 z m -1.5875,0 c 0,-0.0546 -0.044648,-0.0992 -0.099219,-0.0992 H 0.89296865 c -0.0545703,0 -0.0992188,0.0447 -0.0992188,0.0992 v 1.88516 H 1.9843749 Z m -1.190625,6.15156 c 0,0.0546 0.0446484,0.0992 0.0992188,0.0992 h 0.9921874 c 0.05457,0 0.099219,-0.0446 0.099219,-0.0992 v -1.88515 H 0.7937499 Z m 5.159375,-6.15156 c 0,-0.0546 -0.044648,-0.0992 -0.099219,-0.0992 H 5.2585936 c -0.05457,0 -0.099219,0.0447 -0.099219,0.0992 v 1.88516 h 0.79375 z m 1.190625,0 c 0,-0.0546 -0.044648,-0.0992 -0.099219,-0.0992 H 6.4492186 c -0.05457,0 -0.099219,0.0447 -0.099219,0.0992 v 1.88516 h 0.79375 z m -2.38125,0 c 0,-0.0546 -0.044648,-0.0992 -0.099219,-0.0992 H 4.4648436 c -0.05457,0 -0.099219,0.0447 -0.099219,0.0992 v 1.88516 h 0.3968753 z m 1.5875,6.15156 c 0,0.0546 0.044648,0.0992 0.099219,0.0992 h 0.5953125 c 0.05457,0 0.099219,-0.0446 0.099219,-0.0992 v -1.88515 H 6.3499999 Z m -3.571875,0 c 0,0.0546 0.044648,0.0992 0.099219,0.0992 h 0.5953125 c 0.05457,0 0.099219,-0.0446 0.099219,-0.0992 v -1.88515 h -0.79375 z m 2.38125,0 c 0,0.0546 0.044648,0.0992 0.099219,0.0992 h 0.5953125 c 0.05457,0 0.099219,-0.0446 0.099219,-0.0992 v -1.88515 h -0.79375 z m -0.79375,0 c 0,0.0546 0.044648,0.0992 0.099219,0.0992 h 0.1984375 c 0.05457,0 0.099219,-0.0446 0.099219,-0.0992 v -1.88515 H 4.3656249 Z m 3.4726562,-3.47265 H 0.09921865 c -0.05457031,0 -0.09921875,0.0446 -0.09921875,0.0992 v 0.59532 c 0,0.0546 0.04464844,0.0992 0.09921875,0.0992 H 7.8382811 c 0.05457,0 0.099219,-0.0446 0.099219,-0.0992 v -0.59532 c 0,-0.0546 -0.044648,-0.0992 -0.099219,-0.0992 z"
       style="fill:currentColor;stroke-width:0.01240234" />
  </g>
</svg>
