<?xml version="1.0" encoding="UTF-8"?>
<svg viewBox="0 0 30 17" version="1.1" xmlns="http://www.w3.org/2000/svg" xmlns:xlink="http://www.w3.org/1999/xlink">
    <g id="Page-1" stroke="none" stroke-width="1" fill="none" fill-rule="evenodd">
        <g id="Mobile" transform="translate(-40.000000, -2681.000000)">
            <g id="Group-16" transform="translate(40.000000, 2675.000000)">
                <rect id="Rectangle" stroke="#979797" fill="#D8D8D8" opacity="0" x="0.5" y="0.5" width="29" height="29"></rect>
                <g id="battery" transform="translate(14.767857, 14.500000) rotate(90.000000) translate(-14.767857, -14.500000) translate(7.000000, 0.000000)" fill="#000000" fill-rule="nonzero">
                    <path d="M13.6099823,2.78161429 L12.1921942,2.78161429 L12.1921942,1.53837585 C12.1921942,0.690115405 11.616272,0 10.9083729,0 L4.62727716,0 C3.91937809,0 3.34345585,0.690115405 3.34345585,1.53837585 L3.34345585,2.78161429 L1.92573197,2.78161429 C0.863883362,2.78161429 0,3.81678739 0,5.08917806 L0,26.6924362 C0,27.9648269 0.863883362,29 1.92573197,29 L13.6099823,29 C14.6718309,29 15.5357143,27.9648269 15.5357143,26.6924362 L15.5357143,5.08917806 C15.5357143,3.81678739 14.6718309,2.78161429 13.6099823,2.78161429 Z M1.92573197,26.6924362 L1.92573197,5.08917806 L13.6099823,5.08917806 L13.6101749,26.6924362 L1.92573197,26.6924362 Z" id="Shape"></path>
                    <rect id="Rectangle" x="4.14285714" y="20.173913" width="7.25" height="3.7826087"></rect>
                    <rect id="Rectangle" x="4.14285714" y="13.8695652" width="7.25" height="3.7826087"></rect>
                    <rect id="Rectangle" x="4.14285714" y="7.56521739" width="7.25" height="3.7826087"></rect>
                </g>
            </g>
        </g>
    </g>
</svg>