<?xml version="1.0" encoding="UTF-8"?>
<svg viewBox="0 0 30 30" version="1.1" xmlns="http://www.w3.org/2000/svg" xmlns:xlink="http://www.w3.org/1999/xlink">
    <g stroke="none" stroke-width="1" fill="none" fill-rule="evenodd">
        <g transform="translate(-364.000000, -2566.000000)">
            <g transform="translate(364.000000, 2566.000000)">
                <g transform="translate(3.000000, 2.000000)" fill="currentColor" fill-rule="nonzero">
                    <path d="M23.2510402,3.74177632 L17.6366158,3.74177632 L17.6366158,2.85978618 C17.6366158,1.28289474 16.3051318,0 14.668516,0 L9.33148405,0 C7.69486824,0 6.36338419,1.28289474 6.36338419,2.85978618 L6.36338419,3.74177632 L0.748959778,3.74177632 C0.332871012,3.74177632 0,4.0625 0,4.46340461 C0,4.86430921 0.332871012,5.18503289 0.748959778,5.18503289 L2.10263523,5.18503289 L2.10263523,22.140625 C2.10263523,24.2680921 3.9001387,26 6.10818308,26 L17.8918169,26 C20.0998613,26 21.8973648,24.2680921 21.8973648,22.140625 L21.8973648,5.18503289 L23.2510402,5.18503289 C23.667129,5.18503289 24,4.86430921 24,4.46340461 C24,4.0625 23.667129,3.74177632 23.2510402,3.74177632 Z M7.86130374,2.85978618 C7.86130374,2.07935855 8.52149792,1.44325658 9.33148405,1.44325658 L14.668516,1.44325658 C15.4785021,1.44325658 16.1386963,2.07935855 16.1386963,2.85978618 L16.1386963,3.74177632 L7.86130374,3.74177632 L7.86130374,2.85978618 Z M20.3994452,22.140625 C20.3994452,23.4716283 19.2732316,24.5567434 17.8918169,24.5567434 L6.10818308,24.5567434 C4.72676838,24.5567434 3.60055479,23.4716283 3.60055479,22.140625 L3.60055479,5.18503289 L20.4049931,5.18503289 L20.4049931,22.140625 L20.3994452,22.140625 Z"></path>
                    <path d="M12,22.1481481 C12.5555556,22.1481481 13,21.8218429 13,21.4139614 L13,8.43789045 C13,8.03000892 12.5555556,7.7037037 12,7.7037037 C11.4444444,7.7037037 11,8.03000892 11,8.43789045 L11,21.408523 C11,21.8164045 11.4444444,22.1481481 12,22.1481481 Z"></path>
                    <path d="M7,21.1851852 C7.55555556,21.1851852 8,20.8667828 8,20.4687799 L8,9.38307192 C8,8.985069 7.55555556,8.66666667 7,8.66666667 C6.44444444,8.66666667 6,8.985069 6,9.38307192 L6,20.4687799 C6,20.8667828 6.45185185,21.1851852 7,21.1851852 Z"></path>
                    <path d="M17,21.1851852 C17.5555556,21.1851852 18,20.8667828 18,20.4687799 L18,9.38307192 C18,8.985069 17.5555556,8.66666667 17,8.66666667 C16.4444444,8.66666667 16,8.985069 16,9.38307192 L16,20.4687799 C16,20.8667828 16.4444444,21.1851852 17,21.1851852 Z"></path>
                </g>
            </g>
        </g>
    </g>
</svg>