<?xml version="1.0" encoding="UTF-8"?>
<svg width="32px" height="30px" viewBox="0 0 32 30" version="1.1" xmlns="http://www.w3.org/2000/svg" xmlns:xlink="http://www.w3.org/1999/xlink">
    <!-- Generator: Sketch 55.2 (78181) - https://sketchapp.com -->
    <title>Group 4</title>
    <desc>Created with Sketch.</desc>
    <g id="Page-1" stroke="none" stroke-width="1" fill="none" fill-rule="evenodd">
        <g id="Mobile" transform="translate(-364.000000, -523.000000)" fill="#000000" fill-rule="nonzero" stroke="#000000">
            <g id="Group-4" transform="translate(365.000000, 522.000000)">
                <g id="Megaphone-2" transform="translate(15.000000, 15.000000) scale(-1, 1) translate(-15.000000, -15.000000) ">
                    <g id="Group" transform="translate(15.000000, 15.484323) scale(-1, 1) rotate(-180.000000) translate(-15.000000, -15.484323) translate(0.000000, 0.984323)">
                        <path d="M4.41712538,28.7748223 C2.88623853,28.3613347 1.45474006,25.752639 0.686238532,21.9708926 C0.193577982,19.5577707 0,17.3852947 0,14.4156302 C0,11.4459657 0.175840979,9.44633152 0.662996942,7.00303094 C1.66605505,1.94319607 3.70733945,-0.800715928 5.70795107,0.206547868 C5.85474006,0.281798704 6.5,0.747805184 7.14525994,1.23654369 C9.28042813,2.87560096 12.0785933,4.79253763 13.4629969,5.56699415 L13.7972477,5.75472931 L14.0376147,5.34868834 C15.0877676,3.55912939 16.6715596,2.50679348 18.4489297,2.40175585 C20.2262997,2.30416492 21.8100917,3.12330163 23.0009174,4.7623589 C23.8281346,5.88994565 24.3617737,7.34087584 24.4966361,8.82198474 C24.5611621,9.48356501 24.5727829,9.52863712 24.7137615,9.56626254 C24.8428135,9.59644126 26.2214067,9.73165761 27.8522936,9.87471258 C28.5737003,9.93467809 28.8143731,10.0475543 29.1134557,10.483774 C30.2868502,12.1976902 30.2455657,16.9643604 29.0431193,18.452916 C28.7321101,18.8440635 28.5152905,18.9114758 27.406422,19.00162 C24.8428135,19.2046405 22.948318,19.4903585 21.3232416,19.9112929 C17.0116208,21.0239862 12.7529052,23.3242318 7.36207951,27.4367684 C6.61131498,28.0082044 5.86636086,28.5420151 5.70795107,28.6247126 C5.36146789,28.7975543 4.77492355,28.8649666 4.41712538,28.7748223 Z M5.56697248,27.3615176 C6.13608563,26.9856553 6.79877676,25.9779996 7.27400612,24.7528219 C7.95443425,23.0161737 8.4648318,20.4827289 8.71131498,17.6106553 C8.81100917,16.4152644 8.81100917,12.4983016 8.71131498,11.2578386 C8.35932722,6.95756689 7.39143731,3.47682379 6.14189602,2.01805497 C5.64342508,1.43172554 5.40856269,1.2965092 4.88654434,1.2965092 C4.35259939,1.2965092 4.08287462,1.45445757 3.59021407,2.06351902 C0.985626911,5.24365071 0.105810398,15.8214883 1.87155963,22.7680811 C2.51070336,25.3015259 3.43149847,27.0005487 4.41131498,27.4743938 C4.69877676,27.6096102 5.2675841,27.5570913 5.56697248,27.3615176 Z M9.05137615,24.7453752 C10.1718654,23.94074 12.5828746,22.3922189 13.5801223,21.8282295 C18.1672783,19.241874 21.6929664,18.189538 27.148318,17.7760504 L28.3217125,17.6859061 L28.5036697,17.332384 C28.9437309,16.4905153 29.1314985,14.3780048 28.8908257,12.9043426 C28.7617737,12.1000993 28.5211009,11.3781616 28.3336391,11.2276599 C28.2513761,11.1598558 27.7764526,11.0998903 26.9727829,11.0399247 C21.8107034,10.6640625 18.2204893,9.58899457 13.6568807,7.04771112 C12.5715596,6.43864967 10.6125382,5.19073997 9.31590214,4.2810671 C8.6706422,3.82250732 8.13669725,3.46153846 8.12507645,3.46887199 C8.11926606,3.48387855 8.20122324,3.73941785 8.31284404,4.04786789 C9.69724771,7.90447324 10.1605505,14.2423965 9.45657492,19.7153271 C9.22782875,21.5044941 8.77614679,23.4966816 8.31284404,24.7826087 C8.11345566,25.3313127 8.09571865,25.3916702 8.13088685,25.3916702 C8.14220183,25.3916702 8.5587156,25.0985054 9.05137615,24.7453752 Z M23.5403982,9.13043478 C23.5403982,8.75457253 23.3232416,7.74730874 23.1296636,7.21349812 C22.5018349,5.49958194 21.3639144,4.30419105 19.8917431,3.80800585 C19.2229358,3.58264528 18.1966361,3.58264528 17.5278287,3.80800585 C16.9470948,4.00357964 16.3018349,4.39433528 15.8266055,4.83055497 C15.4336391,5.19152383 14.7238532,6.12353679 14.7590214,6.24385974 C14.7883792,6.35673599 16.2195719,7.06338838 17.5865443,7.64227111 C19.3287462,8.37165552 21.1119266,8.93525293 22.7486239,9.25859636 C23.558104,9.4161528 23.5403982,9.4161528 23.5403982,9.13043478 Z" id="Shape" stroke-width="0.3"></path>
                        <path d="M6.2941896,18.6782765 C5.73700306,18.4376306 5.37920489,18.1370192 4.91559633,17.5428512 C4.04159021,16.4227111 3.70122324,14.8890834 3.97706422,13.3703491 C4.26452599,11.8065426 5.40825688,10.3630592 6.61100917,10.0397157 C7.00978593,9.92683946 7.23272171,10.009537 7.33853211,10.3027017 C7.4911315,10.7161894 7.29755352,11.1222304 6.90458716,11.2123746 C6.77553517,11.2425533 6.5116208,11.370323 6.30642202,11.4980926 C5.32079511,12.1220474 4.69908257,13.5804243 4.88103976,14.8886915 C5.05107034,16.1291545 5.76666667,17.166597 6.70550459,17.5350125 C7.18073394,17.7231396 7.27461774,17.7979985 7.35657492,18.0311977 C7.40948012,18.2040395 7.40948012,18.3016304 7.35076453,18.4748641 C7.21529052,18.8961904 6.92201835,18.9565479 6.2941896,18.6782765 Z" id="Path" stroke-width="0.5"></path>
                    </g>
                </g>
            </g>
        </g>
    </g>
</svg>