<?xml version="1.0" encoding="UTF-8"?>
<svg width="40px" height="42px" viewBox="0 0 40 42" version="1.1" xmlns="http://www.w3.org/2000/svg" xmlns:xlink="http://www.w3.org/1999/xlink">
    <desc>Created with Sketch.</desc>
    <g id="Page-1" stroke="none" stroke-width="1" fill="currentColor" fill-rule="evenodd">
        <g id="Mobile" transform="translate(-415.000000, -1972.000000)">
            <g id="Menu-Top_Mobile_Calendar-White-Selected--25x25px-Copy" transform="translate(415.000000, 1973.000000)">
                <path d="M8.06666667,1.6 L30.7656885,1.6 C34.3003109,1.6 37.1656885,4.4653776 37.1656885,8 L37.3173502,22.5917959 C32.6603004,19.6820648 27.7907516,19.6768588 23.2333581,22.854686 C20.4515832,25.6248527 18.0229467,31.1613068 22.334648,36.8 L8.06666667,36.8 C4.53204427,36.8 1.66666667,33.9346224 1.66666667,30.4 L1.66666667,8 C1.66666667,4.4653776 4.53204427,1.6 8.06666667,1.6 Z M30.8947878,14.227415 C31.8727843,14.227415 32.665607,13.4452649 32.665607,12.4804338 C32.665607,11.5156027 31.8727843,10.7334526 30.8947878,10.7334526 C29.9167914,10.7334526 29.1239687,11.5156027 29.1239687,12.4804338 C29.1239687,13.4452649 29.9167914,14.227415 30.8947878,14.227415 Z M23.1917245,14.227415 C24.1697209,14.227415 24.9625436,13.4452649 24.9625436,12.4804338 C24.9625436,11.5156027 24.1697209,10.7334526 23.1917245,10.7334526 C22.2137281,10.7334526 21.4209053,11.5156027 21.4209053,12.4804338 C21.4209053,13.4452649 22.2137281,14.227415 23.1917245,14.227415 Z M15.4886611,21.8267833 C16.4666575,21.8267833 17.2594802,21.0446332 17.2594802,20.0798021 C17.2594802,19.114971 16.4666575,18.3328209 15.4886611,18.3328209 C14.5106647,18.3328209 13.7178419,19.114971 13.7178419,20.0798021 C13.7178419,21.0446332 14.5106647,21.8267833 15.4886611,21.8267833 Z M23.1988077,21.3830502 C24.1768041,21.3830502 24.9696268,20.6009 24.9696268,19.636069 C24.9696268,18.6712379 24.1768041,17.8890877 23.1988077,17.8890877 C22.2208113,17.8890877 21.4279885,18.6712379 21.4279885,19.636069 C21.4279885,20.6009 22.2208113,21.3830502 23.1988077,21.3830502 Z M7.78559771,14.227415 C8.76359413,14.227415 9.55641688,13.4452649 9.55641688,12.4804338 C9.55641688,11.5156027 8.76359413,10.7334526 7.78559771,10.7334526 C6.80760129,10.7334526 6.01477854,11.5156027 6.01477854,12.4804338 C6.01477854,13.4452649 6.80760129,14.227415 7.78559771,14.227415 Z M7.78559771,21.8267833 C8.76359413,21.8267833 9.55641688,21.0446332 9.55641688,20.0798021 C9.55641688,19.114971 8.76359413,18.3328209 7.78559771,18.3328209 C6.80760129,18.3328209 6.01477854,19.114971 6.01477854,20.0798021 C6.01477854,21.0446332 6.80760129,21.8267833 7.78559771,21.8267833 Z M7.78559771,29.4261516 C8.76359413,29.4261516 9.55641688,28.6440015 9.55641688,27.6791704 C9.55641688,26.7143393 8.76359413,25.9321892 7.78559771,25.9321892 C6.80760129,25.9321892 6.01477854,26.7143393 6.01477854,27.6791704 C6.01477854,28.6440015 6.80760129,29.4261516 7.78559771,29.4261516 Z M15.4886611,29.4261516 C16.4666575,29.4261516 17.2594802,28.6440015 17.2594802,27.6791704 C17.2594802,26.7143393 16.4666575,25.9321892 15.4886611,25.9321892 C14.5106647,25.9321892 13.7178419,26.7143393 13.7178419,27.6791704 C13.7178419,28.6440015 14.5106647,29.4261516 15.4886611,29.4261516 Z M15.4886611,14.227415 C16.4666575,14.227415 17.2594802,13.4452649 17.2594802,12.4804338 C17.2594802,11.5156027 16.4666575,10.7334526 15.4886611,10.7334526 C14.5106647,10.7334526 13.7178419,11.5156027 13.7178419,12.4804338 C13.7178419,13.4452649 14.5106647,14.227415 15.4886611,14.227415 Z" id="Combined-Shape" fill-rule="nonzero"></path>
                <path d="M21.4279885,36.4545869 C21.4877858,36.444248 21.5491981,36.4388683 21.6118205,36.4388683 C22.2254702,36.4388683 22.7229317,36.9554627 22.7229317,37.5927144 C22.7229317,38.2299659 22.2254702,38.7465605 21.6118205,38.7465605 C21.5315525,38.7465605 21.4532725,38.7377218 21.3778336,38.7209302 L7.82809738,38.7209302 C3.72169283,38.7209302 0.370370371,35.4147218 0.370370371,31.3059034 L0.370370371,8.05008944 C0.370370371,3.9412711 3.72169283,0.635062613 7.82809738,0.635062613 L31.4012421,0.635062613 C35.5076467,0.635062613 38.8589691,3.9412711 38.8589691,8.05008944 L38.8589691,21.3409338 C38.8684666,21.4016322 38.8734037,21.4639197 38.8734037,21.5274043 C38.8734037,22.1646562 38.3759422,22.6812507 37.7622925,22.6812507 C37.1486427,22.6812507 36.6511814,22.1646562 36.6511814,21.5274043 C36.6511814,21.5071115 36.6516859,21.4869406 36.6526826,21.4669051 L36.6367469,21.4669051 L36.6367469,8.05008944 C36.6367469,5.24299858 34.3051158,2.94275493 31.4012421,2.94275493 L7.82809738,2.94275493 C4.92422358,2.94275493 2.59259259,5.24299858 2.59259259,8.05008944 L2.59259259,31.3059034 C2.59259259,34.1129942 4.92422358,36.4132379 7.82809738,36.4132379 L21.4279885,36.4132379 L21.4279885,36.4545869 Z" id="Combined-Shape" fill-rule="nonzero"></path>
                <path d="M10.5480756,5.36672629 L10.5480756,0" id="Line-18" stroke="#000000" stroke-width="1.5" stroke-linecap="round"></path>
                <path d="M19.6146698,5.36672629 L19.6146698,0" id="Line-18-Copy" stroke="#000000" stroke-width="1.5" stroke-linecap="round"></path>
                <path d="M28.6812638,5.36672629 L28.6812638,0" id="Line-18-Copy-2" stroke="#000000" stroke-width="1.5" stroke-linecap="round"></path>
                <path d="M30.9508627,30.665023 L30.9508627,26.1224607 C30.9508627,25.7082472 30.6150763,25.3724607 30.2008627,25.3724607 L29.3652039,25.3724607 C28.9509903,25.3724607 28.6152039,25.7082472 28.6152039,26.1224607 L28.6152039,31.2827493 C28.6075635,31.3256874 28.6035768,31.3698896 28.6035768,31.415023 L28.6035768,32.2825524 C28.6035768,32.6967659 28.9393633,33.0325524 29.3535768,33.0325524 L34.9648115,33.0325524 C35.3790251,33.0325524 35.7148115,32.6967659 35.7148115,32.2825524 L35.7148115,31.415023 C35.7148115,31.0008094 35.3790251,30.665023 34.9648115,30.665023 L30.9508627,30.665023 Z M30.3346481,39.8085869 C25.3640854,39.8085869 21.3346481,35.7791496 21.3346481,30.8085869 C21.3346481,25.8380241 25.3640854,21.8085869 30.3346481,21.8085869 C35.3052109,21.8085869 39.3346481,25.8380241 39.3346481,30.8085869 C39.3346481,35.7791496 35.3052109,39.8085869 30.3346481,39.8085869 Z" id="Combined-Shape" stroke-width="0.5" fill-rule="nonzero"></path>
            </g>
        </g>
    </g>
</svg>