<?xml version="1.0" encoding="UTF-8"?>
<svg width="30px" height="30px" viewBox="0 0 30 30" version="1.1" xmlns="http://www.w3.org/2000/svg" xmlns:xlink="http://www.w3.org/1999/xlink">
    <!-- Generator: Sketch 55.2 (78181) - https://sketchapp.com -->
    <title>Group 2</title>
    <desc>Created with Sketch.</desc>
    <g id="Page-1" stroke="none" stroke-width="1" fill="none" fill-rule="evenodd">
        <g id="Mobile" transform="translate(-235.000000, -2675.000000)" fill="#000000">
            <g id="Group-2" transform="translate(235.000000, 2675.000000)">
                <path d="M15,30 C6.71572875,30 0,23.2842712 0,15 C0,6.71572875 6.71572875,0 15,0 C23.2842712,0 30,6.71572875 30,15 C30,23.2842712 23.2842712,30 15,30 Z M7.6,14.3827586 C7.6,18.6027586 10.26,21.5827586 14.6,21.5827586 C18.34,21.5827586 20.88,19.3427586 21.46,16.0027586 L16.78,16.0027586 C16.36,16.9427586 15.52,17.4827586 14.52,17.4827586 C13.02,17.4827586 12.1,16.2627586 12.1,14.3827586 C12.1,12.5027586 13.02,11.2827586 14.52,11.2827586 C15.52,11.2827586 16.36,11.8227586 16.78,12.7627586 L21.46,12.7627586 C20.88,9.42275862 18.34,7.18275862 14.6,7.18275862 C10.26,7.18275862 7.6,10.1627586 7.6,14.3827586 Z" id="Combined-Shape"></path>
            </g>
        </g>
    </g>
</svg>