<?xml version="1.0" encoding="UTF-8" standalone="no"?>
<svg
   xmlns:dc="http://purl.org/dc/elements/1.1/"
   xmlns:cc="http://creativecommons.org/ns#"
   xmlns:rdf="http://www.w3.org/1999/02/22-rdf-syntax-ns#"
   xmlns:svg="http://www.w3.org/2000/svg"
   xmlns="http://www.w3.org/2000/svg"
   xmlns:sodipodi="http://sodipodi.sourceforge.net/DTD/sodipodi-0.dtd"
   xmlns:inkscape="http://www.inkscape.org/namespaces/inkscape"
   width="41px"
   height="42px"
   viewBox="0 0 41 42"
   version="1.1"
   sodipodi:docname="calendar.svg"
   inkscape:version="0.92.4 (5da689c313, 2019-01-14)">
  <path
     inkscape:connector-curvature="0"
     d="m 21.542228,38.209302 c 0.540793,0 0.979192,0.41648 0.979192,0.930233 0,0.513753 -0.438399,0.930232 -0.979192,0.930232 H 6.8543452 C 3.0687949,40.069767 0,37.154412 0,33.55814 V 9.372093 C 0,5.7758202 3.0687949,2.8604651 6.8543452,2.8604651 H 32.313341 c 3.785551,0 6.854346,2.9153551 6.854346,6.5116279 v 13.953488 c 0,0.513754 -0.4384,0.930233 -0.979193,0.930233 -0.540792,0 -0.979192,-0.416479 -0.979192,-0.930233 V 9.372093 c 0,-2.5687663 -2.191996,-4.6511628 -4.895961,-4.6511628 H 6.8543452 c -2.7039645,0 -4.8959609,2.0823965 -4.8959609,4.6511628 V 33.55814 c 0,2.568766 2.1919964,4.651162 4.8959609,4.651162 z" />
  <path
     d="M 9.7773438,-0.01367188 A 1.0001,1.0001 0 0 0 8.7910156,1 v 5.5820312 a 1.0001,1.0001 0 1 0 2.0000004,0 V 1 A 1.0001,1.0001 0 0 0 9.7773438,-0.01367188 Z"
     inkscape:connector-curvature="0" />
  <path
     d="M 19.568359,-0.01367188 A 1.0001,1.0001 0 0 0 18.583984,1 v 5.5820312 a 1.0001,1.0001 0 1 0 2,0 V 1 a 1.0001,1.0001 0 0 0 -1.015625,-1.01367188 z"
     inkscape:connector-curvature="0" />
  <path
     d="M 29.361328,-0.01367188 A 1.0001,1.0001 0 0 0 28.375,1 v 5.5820312 a 1.0001,1.0001 0 1 0 2,0 V 1 a 1.0001,1.0001 0 0 0 -1.013672,-1.01367188 z"
     inkscape:connector-curvature="0" />
  <path
     d="m 30.339844,27.892578 a 1.0001,1.0001 0 0 0 -0.984375,1.013672 v 5.652344 h 5.375 a 1.0001,1.0001 0 1 0 0,-2 h -3.375 V 28.90625 a 1.0001,1.0001 0 0 0 -1.015625,-1.013672 z"
     inkscape:connector-curvature="0" />
  <ellipse
     ry="1.8168604"
     rx="1.9124846"
     cy="13.979651"
     cx="31.766371" />
  <ellipse
     ry="1.8168604"
     rx="1.9124846"
     cy="13.979651"
     cx="23.447062" />
  <ellipse
     ry="1.8168604"
     rx="1.9124846"
     cy="21.882994"
     cx="15.127754" />
  <ellipse
     ry="1.8168604"
     rx="1.9124846"
     cy="21.421511"
     cx="23.454712" />
  <ellipse
     ry="1.8168604"
     rx="1.9124846"
     cy="13.979651"
     cx="6.8084455" />
  <ellipse
     ry="1.8168604"
     rx="1.9124846"
     cy="21.882994"
     cx="6.8084455" />
  <ellipse
     ry="1.8168604"
     rx="1.9124846"
     cy="29.786337"
     cx="6.8084455" />
  <ellipse
     ry="1.8168604"
     rx="1.9124846"
     cy="29.786337"
     cx="15.127754" />
  <ellipse
     ry="1.8168604"
     rx="1.9124846"
     cy="13.979651"
     cx="15.127754" />
  <path
     d="m 30.84375,23.720703 c -5.110158,0 -9.322266,3.970463 -9.322266,8.90625 0,4.935787 4.212108,8.908203 9.322266,8.908203 5.110158,0 9.324219,-3.972416 9.324219,-8.908203 0,-4.935787 -4.214061,-8.90625 -9.324219,-8.90625 z m 0,2 c 4.083322,0 7.324219,3.108232 7.324219,6.90625 0,3.798018 -3.240897,6.908203 -7.324219,6.908203 -4.083322,0 -7.322266,-3.110185 -7.322266,-6.908203 0,-3.798018 3.238944,-6.90625 7.322266,-6.90625 z"
     inkscape:connector-curvature="0" />
</svg>
