<?xml version="1.0" encoding="UTF-8"?>
<svg width="42px" height="42px" viewBox="0 0 42 42" version="1.1" xmlns="http://www.w3.org/2000/svg" xmlns:xlink="http://www.w3.org/1999/xlink">
    <desc>Created with Sketch.</desc>
    <g id="Page-1" stroke="none" stroke-width="1" fill="none" fill-rule="evenodd">
        <g id="Mobile" transform="translate(-189.000000, -1972.000000)">
            <g id="Menu-Top_Desktop_Cassa-Black-Selected-30x30px-Copy" transform="translate(190.000000, 1973.000000)">
                <path d="M5.16435747,17.1858217 C4.14539613,17.1858217 3.28090182,17.9534701 3.1343904,18.9883795 L0.500684185,37.5920315 C0.486492687,37.6922756 0.47936919,37.7934402 0.47936919,37.8947368 C0.47936919,39.0574416 1.39775945,40 2.53065124,40 L37.7905669,40 C37.8807363,40 37.9708075,39.9938981 38.0601946,39.981734 C39.183257,39.8289041 39.9729626,38.7706304 39.8240514,37.6180137 L37.4205698,19.0143617 C37.2853572,17.9677763 36.4157604,17.1858217 35.3870854,17.1858217 L5.16435747,17.1858217 Z" id="Rectangle" stroke="#000000" stroke-width="2" fill-rule="nonzero"></path>
                <path d="M3,18 L37.5,18 L39.8420843,39.2524462 L1.21220018,39.2524462 L3,18 Z M16.2800163,23.6734694 L16.2800163,26.6734694 L19.3569394,26.6734694 L19.3569394,23.6734694 L16.2800163,23.6734694 Z M16.2800163,30.2040816 L16.2800163,33.2040816 L19.3569394,33.2040816 L19.3569394,30.2040816 L16.2800163,30.2040816 Z M23.6060236,23.6734694 L23.6060236,26.6734694 L26.6829467,26.6734694 L26.6829467,23.6734694 L23.6060236,23.6734694 Z M23.6060236,30.2040816 L23.6060236,33.2040816 L26.6829467,33.2040816 L26.6829467,30.2040816 L23.6060236,30.2040816 Z M30.932031,23.6734694 L30.932031,26.6734694 L34.0089541,26.6734694 L34.0089541,23.6734694 L30.932031,23.6734694 Z M30.932031,30.2040816 L30.932031,33.2040816 L34.0089541,33.2040816 L34.0089541,30.2040816 L30.932031,30.2040816 Z M8.67736457,34.9682653 L9.48736457,34.9682653 L9.48736457,33.7532653 C11.5273646,33.6182653 12.5773646,32.1932653 12.5773646,30.7982653 C12.5773646,28.7132653 10.9723646,28.2782653 9.48736457,27.9032653 L9.48736457,24.2432653 C10.4023646,24.4382653 10.8973646,25.1132653 10.9873646,25.7582653 L12.4423646,25.7582653 C12.2923646,24.2432653 11.1973646,23.2382653 9.48736457,23.0882653 L9.48736457,21.8432653 L8.67736457,21.8432653 L8.67736457,23.0882653 C6.80236457,23.2082653 5.57236457,24.3632653 5.57236457,25.9832653 C5.57236457,28.0532653 7.17736457,28.4882653 8.67736457,28.8782653 L8.67736457,32.6282653 C7.61236457,32.4632653 7.11736457,31.7282653 7.04236457,30.9482653 L5.58736457,30.9482653 C5.61736457,32.5382653 6.87736457,33.5882653 8.67736457,33.7532653 L8.67736457,34.9682653 Z M11.2123646,30.8732653 C11.2123646,31.7732653 10.5973646,32.5232653 9.48736457,32.6432653 L9.48736457,29.1032653 C10.4473646,29.3882653 11.2123646,29.8082653 11.2123646,30.8732653 Z M6.96736457,25.9082653 C6.96736457,24.8432653 7.67236457,24.3032653 8.67736457,24.2132653 L8.67736457,27.6782653 C7.71736457,27.3782653 6.96736457,26.9732653 6.96736457,25.9082653 Z" id="Combined-Shape" fill="#000000"></path>
                <rect id="Rectangle" fill="#000000" fill-rule="nonzero" x="29.0923891" y="10.9774436" width="2.05128205" height="5.15574651"></rect>
                <rect id="Rectangle" stroke="#000000" stroke-width="2" fill="#000000" fill-rule="nonzero" x="21.1640211" y="0" width="17.4847374" height="9.92481203" rx="3"></rect>
            </g>
        </g>
    </g>
</svg>