<?xml version="1.0" encoding="UTF-8" standalone="no"?>
<svg
   xmlns:dc="http://purl.org/dc/elements/1.1/"
   xmlns:cc="http://creativecommons.org/ns#"
   xmlns:rdf="http://www.w3.org/1999/02/22-rdf-syntax-ns#"
   xmlns:svg="http://www.w3.org/2000/svg"
   xmlns="http://www.w3.org/2000/svg"
   xmlns:sodipodi="http://sodipodi.sourceforge.net/DTD/sodipodi-0.dtd"
   xmlns:inkscape="http://www.inkscape.org/namespaces/inkscape"
   width="42px"
   height="42px"
   viewBox="0 0 42 42"
   version="1.1"
   sodipodi:docname="Cassa.svg"
   inkscape:version="0.92.4 (5da689c313, 2019-01-14)">
  <rect
     height="3"
     width="3.0769231"
     y="24.67347"
     x="17.280016" />
  <rect
     height="3"
     width="3.0769231"
     y="31.204082"
     x="17.280016" />
  <rect
     height="3"
     width="3.0769231"
     y="24.67347"
     x="24.606024" />
  <rect
     height="3"
     width="3.0769231"
     y="31.204082"
     x="24.606024" />
  <rect
     height="3"
     width="3.0769231"
     y="24.67347"
     x="31.932032" />
  <rect
     height="3"
     width="3.0769231"
     y="31.204082"
     x="31.932032" />
  <g
     aria-label="$"
     id="$">
    <path
       d="m 10.740724,36.867855 h -0.732422 l -0.0073,-2.20459 Q 9.231935,34.648617 8.4628921,34.487484 7.6938491,34.319027 6.9174819,33.989437 v -1.318359 q 0.7470703,0.46875 1.5087891,0.710449 0.7690429,0.234375 1.582031,0.241699 V 30.283382 Q 8.3896499,30.019711 7.6499038,29.389828 6.9174819,28.759945 6.9174819,27.661312 q 0,-1.193848 0.7983398,-1.882324 0.7983399,-0.688477 2.2924803,-0.791016 v -1.721191 h 0.732422 V 24.966 q 0.681152,0.0293 1.318359,0.146484 0.637207,0.109863 1.245118,0.307617 v 1.281738 Q 12.69629,26.394222 12.051759,26.225765 11.414552,26.057308 10.740724,26.028011 v 3.127442 q 1.662598,0.256347 2.446289,0.915527 0.783692,0.65918 0.783692,1.801758 0,1.237793 -0.834961,1.955566 -0.827637,0.71045 -2.39502,0.820313 z m -0.732422,-7.844238 v -3.00293 q -0.8496092,0.09521 -1.2963865,0.483399 -0.4467774,0.388183 -0.4467774,1.032714 0,0.629883 0.4101563,0.981446 0.4174805,0.351562 1.3330076,0.505371 z m 0.732422,1.40625 v 3.171387 q 0.930176,-0.124512 1.398926,-0.527344 0.476074,-0.402832 0.476074,-1.062012 0,-0.644531 -0.454101,-1.025391 -0.446778,-0.380859 -1.420899,-0.55664 z" />
  </g>
  <path
     d="m 6.1640625,17.185547 c -1.5212035,0 -2.8061136,1.154596 -3.0195313,2.662109 L 0.50976562,38.451172 c -0.0207696,0.146711 -0.03125,0.29518 -0.03125,0.443359 C 0.47851562,40.583819 1.8436962,42 3.53125,42 h 35.259766 c 0.13527,0 0.270194,-0.0091 0.404296,-0.02734 1.672154,-0.227552 2.837536,-1.807105 2.621094,-3.482422 L 39.412109,19.886719 c -0.196912,-1.524154 -1.489944,-2.701172 -3.02539,-2.701172 z m 0,2 H 36.386719 c 0.521904,0 0.969455,0.388013 1.042969,0.957031 l 2.402343,18.603516 c 0.08138,0.629915 -0.332279,1.166033 -0.90625,1.24414 C 38.881108,39.996317 38.836086,40 38.791016,40 H 3.53125 c -0.5782298,0 -1.0527344,-0.469346 -1.0527344,-1.105469 0,-0.05441 0.00411,-0.10833 0.011719,-0.162109 L 5.125,20.128906 c 0.079605,-0.562305 0.5223432,-0.943359 1.0390625,-0.943359 z"
     inkscape:connector-curvature="0" />
  <rect
     height="5.1557465"
     width="2.0512822"
     y="11.977444"
     x="30.092388" />
  <path
     d="m 25.164062,0 c -2.198702,0 -4,1.8012972 -4,4 v 3.9257812 c 0,2.1987028 1.801298,3.9999998 4,3.9999998 h 11.484376 c 2.198702,0 4,-1.801297 4,-3.9999998 V 4 c 0,-2.1987028 -1.801298,-4 -4,-4 z m 0,2 h 11.484376 c 1.125297,0 2,0.8747028 2,2 v 3.9257812 c 0,1.1252973 -0.874703,2 -2,2 H 25.164062 c -1.125297,0 -1.999999,-0.8747027 -2,-2 V 4 c 0,-1.1252972 0.874703,-2 2,-2 z"
     inkscape:connector-curvature="0" />
</svg>
