<?xml version="1.0" encoding="UTF-8"?>
<svg width="32px" height="31px" viewBox="0 0 32 31" version="1.1" xmlns="http://www.w3.org/2000/svg" xmlns:xlink="http://www.w3.org/1999/xlink">
    <!-- Generator: Sketch 55.2 (78181) - https://sketchapp.com -->
    <title>Certificati New Icon 1.5px</title>
    <desc>Created with Sketch.</desc>
    <g id="Page-1" stroke="none" stroke-width="1" fill="none" fill-rule="evenodd">
        <g id="Mobile" transform="translate(-364.000000, -695.000000)" stroke="#000000" stroke-width="1.5">
            <g id="Certificati-New-Icon-1.5px" transform="translate(365.000000, 696.000000)">
                <path d="M3.87812954,0 L1.2,0 C0.5372583,0 -8.8817842e-16,0.5372583 -8.8817842e-16,1.2 L-8.8817842e-16,9.6 C-8.8817842e-16,11.5882251 1.6117749,13.2 3.6,13.2 L13.8977332,13.2 C15.8859582,13.2 17.4977332,11.5882251 17.4977332,9.6 L17.4977332,1.2 C17.4977332,0.5372583 16.9604748,0 16.2977332,0 L12.8983492,0" id="Path-2" stroke-linecap="round"></path>
                <path d="M8.74886658,13.2 L8.74886658,22.0093942 C8.74886658,25.9858444 11.9724164,29.2093942 15.9488665,29.2093942 L19.5488665,29.2093942 C23.5253167,29.2093942 26.7488666,25.9858444 26.7488666,22.0093942 L26.7488666,14.0679385" id="Path-3"></path>
                <circle id="Oval" cx="26.4" cy="10.8" r="3.6"></circle>
            </g>
        </g>
    </g>
</svg>