<?xml version="1.0" encoding="UTF-8"?>
<svg width="30px" height="30px" viewBox="0 0 30 30" version="1.1" xmlns="http://www.w3.org/2000/svg" xmlns:xlink="http://www.w3.org/1999/xlink">
    <title>Group 19</title>
    <g id="Page-1" stroke="none" stroke-width="1" fill="none" fill-rule="evenodd">
        <g id="Icons-Layout" transform="translate(-500.000000, -2696.000000)">
            <g id="Group-19" transform="translate(500.000000, 2696.000000)">
                <path d="M15,0 C23.2842712,0 30,6.71572875 30,15 C30,23.2842712 23.2842712,30 15,30 C6.71572875,30 0,23.2842712 0,15 C0,6.71572875 6.71572875,0 15,0 Z M16.0226448,5.78237565 L12.023232,23.782415 L13.976596,24.2164313 L17.9760088,6.21639186 L16.0226448,5.78237565 Z M10.375,10.219 L5.375,14.219 C5.138,14.409 5,14.696 5,15 C5,15.304 5.138,15.591 5.375,15.781 L10.375,19.781 L11.625,18.219 L7.601,15 L11.625,11.781 L10.375,10.219 Z M19.625,10.219 L18.375,11.781 L22.399,15 L18.375,18.219 L19.625,19.781 L24.625,15.781 C24.862,15.591 25,15.304 25,15 C25,14.696 24.862,14.409 24.625,14.219 L19.625,10.219 Z" id="Combined-Shape" fill="#000000"></path>
                <g id="bx-code-alt" transform="translate(5.000000, 5.000000)"></g>
            </g>
        </g>
    </g>
</svg>