<?xml version="1.0" encoding="UTF-8" standalone="no"?>
<svg
   xmlns:dc="http://purl.org/dc/elements/1.1/"
   xmlns:cc="http://creativecommons.org/ns#"
   xmlns:rdf="http://www.w3.org/1999/02/22-rdf-syntax-ns#"
   xmlns:svg="http://www.w3.org/2000/svg"
   xmlns="http://www.w3.org/2000/svg"
   xmlns:sodipodi="http://sodipodi.sourceforge.net/DTD/sodipodi-0.dtd"
   xmlns:inkscape="http://www.inkscape.org/namespaces/inkscape"
   width="30px"
   height="30px"
   viewBox="0 0 30 30"
   version="1.1"
   id="svg12"
   sodipodi:docname="Accounting.svg"
   inkscape:version="0.92.4 (5da689c313, 2019-01-14)">
  <metadata
     id="metadata18">
    <rdf:RDF>
      <cc:Work
         rdf:about="">
        <dc:format>image/svg+xml</dc:format>
        <dc:type
           rdf:resource="http://purl.org/dc/dcmitype/StillImage" />
      </cc:Work>
    </rdf:RDF>
  </metadata>
  <defs
     id="defs16" />
  <sodipodi:namedview
     pagecolor="#ffffff"
     bordercolor="#666666"
     borderopacity="1"
     objecttolerance="10"
     gridtolerance="10"
     guidetolerance="10"
     inkscape:pageopacity="0"
     inkscape:pageshadow="2"
     inkscape:window-width="1920"
     inkscape:window-height="1023"
     id="namedview14"
     showgrid="false"
     inkscape:zoom="3.9333333"
     inkscape:cx="52.960467"
     inkscape:cy="31.418657"
     inkscape:window-x="0"
     inkscape:window-y="0"
     inkscape:window-maximized="1"
     inkscape:current-layer="svg12" />
  <!-- Generator: Sketch 55.2 (78181) - https://sketchapp.com -->
  <title
     id="title2">Group-23</title>
  <desc
     id="desc4">Created with Sketch.</desc>
  <g
     id="g4618"
     transform="translate(-38.5461,0.00466369)">
    <path
       id="Shape"
       d="m 47.5625,0.00976563 c -2.173935,0 -4.231254,0.28702229 -5.787109,0.81249999 C 39.398982,1.6152594 38.898437,2.6848876 38.898438,3.4492188 v 3.3046874 0.039063 3.3066398 0.03711 0.03906 3.267578 0.03711 0.03906 3.304688 0.03906 3.304688 c 0,0.754777 0.500544,1.826359 2.876953,2.628906 1.555855,0.525478 3.613174,0.810547 5.787109,0.810547 0.468888,0 0.926535,-0.0085 1.384766,-0.03711 v -0.324218 -0.03906 -0.01953 -0.01953 -1.308594 c -0.447575,0.02866 -0.915878,0.04883 -1.384766,0.04883 -1.950147,0 -3.77251,-0.248221 -5.115234,-0.697265 -1.332067,-0.449052 -1.640625,-0.899022 -1.640625,-1.013672 v -1.080078 c 0.27707,0.133758 0.606428,0.258608 0.96875,0.382812 1.555855,0.525478 3.613174,0.8125 5.787109,0.8125 0.468888,0 0.926535,-0.01044 1.384766,-0.03906 v -0.410157 -0.01953 -0.01953 -1.308594 c -0.447575,0.02866 -0.915878,0.04883 -1.384766,0.04883 -1.950147,0 -3.77251,-0.248221 -5.115234,-0.697265 -1.332067,-0.449039 -1.640625,-0.899022 -1.640625,-1.013672 V 15.78321 c 0.27707,0.133758 0.606428,0.258609 0.96875,0.382813 1.555855,0.525478 3.613174,0.8125 5.787109,0.8125 0.468888,0 0.926535,-0.01044 1.384766,-0.03906 v -0.410156 c 0,-0.382165 0.06456,-0.879031 0.320312,-1.414063 -0.55414,0.04777 -1.118969,0.06641 -1.705078,0.06641 -1.950147,0 -3.77251,-0.248221 -5.115234,-0.697266 -1.332067,-0.449041 -1.640625,-0.899023 -1.640625,-1.013672 v -1.070312 c 0.287726,0.105095 0.606428,0.239077 0.96875,0.363281 1.555855,0.525478 3.613174,0.8125 5.787109,0.8125 1.150906,0 2.269941,-0.08542 3.292969,-0.238281 0.564797,-0.382166 1.289678,-0.745049 2.216797,-1.050782 0.927119,-0.305732 2.00339,-0.544399 3.154296,-0.697265 V 10.203125 10.146484 10.107422 6.859375 6.8027344 6.7636719 3.515625 3.4589844 c 0,-0.754777 -0.502497,-1.8244053 -2.878906,-2.62695315 C 51.791802,0.2969994 49.736434,0.00976563 47.5625,0.00976563 Z m 0,1.71874997 c 1.950147,0 3.77251,0.248221 5.115234,0.6972656 1.289442,0.4299364 1.609547,0.8605942 1.63086,1.0039063 v 0.029297 c -0.02131,0.1433121 -0.341418,0.5720168 -1.63086,1.0019531 -1.35338,0.4490446 -3.175744,0.6992187 -5.115234,0.6992187 -1.950147,0 -3.77251,-0.2501741 -5.115234,-0.6992187 -1.332067,-0.4490442 -1.640625,-0.897069 -1.640625,-1.0117187 0,-0.1146498 0.308558,-0.5839472 1.640625,-1.0234376 1.353381,-0.4490446 3.175743,-0.6972656 5.115234,-0.6972657 z m 6.755859,3.9472656 v 1.0703126 0.00781 c -0.02131,0.1433164 -0.341418,0.57397 -1.630859,1.0039063 -1.353381,0.4490446 -3.175743,0.6972656 -5.115234,0.6972656 -1.950147,0 -3.772511,-0.248221 -5.115235,-0.6972656 C 41.124963,7.3087679 40.816406,6.8607435 40.816406,6.7460938 V 5.6796875 c 0.275334,0.1322163 0.600324,0.2540043 0.958985,0.3769531 1.555855,0.5254777 3.613174,0.8125 5.787109,0.8125 2.173934,0 4.229301,-0.2870223 5.785156,-0.8125 0.362322,-0.1242038 0.682976,-0.2471013 0.970703,-0.3808594 z m 0,3.3535157 v 1.0703121 0.0078 c -0.02131,0.143312 -0.341418,0.57397 -1.630859,1.003906 -1.353381,0.449045 -3.175743,0.697266 -5.115234,0.697266 -1.950147,0 -3.772511,-0.248221 -5.115235,-0.697266 -1.332068,-0.449091 -1.640625,-0.897069 -1.640625,-1.011719 V 9.0332031 c 0.275334,0.1322164 0.600324,0.2540043 0.958985,0.3769531 1.555855,0.5254777 3.613174,0.8124998 5.787109,0.8124998 2.173934,0 4.229301,-0.287022 5.785156,-0.8124998 0.362322,-0.1242038 0.682976,-0.2471013 0.970703,-0.3808593 z"
       style="fill:#000000;fill-rule:nonzero;stroke:#ffffff;stroke-width:0.5;stroke-miterlimit:4;stroke-dasharray:none"
       inkscape:connector-curvature="0" />
    <path
       d="m 65.315875,13.882166 c -1.555855,-0.525478 -3.612568,-0.812102 -5.786502,-0.812102 -2.173934,0 -4.230646,0.286624 -5.786502,0.812102 -2.376408,0.792993 -2.877265,1.863057 -2.877265,2.627388 v 3.305733 c 0,0.0096 0,0.02866 0,0.03822 v 0 3.305733 c 0,0.0096 0,0.02866 0,0.03822 v 0 0.03822 3.267516 0.03822 c 0,0.754777 0.500857,1.824841 2.877265,2.627389 1.555856,0.525477 3.612568,0.812102 5.786502,0.812102 2.173934,0 4.230647,-0.286625 5.786502,-0.812102 2.376409,-0.792994 2.877746,-1.863057 2.877746,-2.627389 v -0.03822 0 -3.248408 c 0,-0.01911 0,-0.03822 0,-0.05733 v 0 c 0,-0.0096 0,-0.02866 0,-0.03822 V 19.91083 c 0,-0.01911 0,-0.03822 0,-0.05732 v 0 c 0,-0.0096 0,-0.02866 0,-0.03822 v -3.248408 c 0,-0.01911 0,-0.03822 0,-0.05732 0.01018,-0.754777 -0.490681,-1.824841 -2.877746,-2.627388 z m -10.901641,1.614649 c 1.35338,-0.449044 3.175649,-0.697452 5.115139,-0.697452 1.950147,0 3.772416,0.248408 5.11514,0.697452 1.289441,0.429937 1.619794,0.859873 1.630451,1.003185 v 0.02866 c -0.02131,0.143312 -0.34101,0.573249 -1.630451,1.003185 -1.353381,0.449045 -3.175649,0.697452 -5.11514,0.697452 -1.950147,0 -3.772415,-0.248407 -5.115139,-0.697452 -1.332068,-0.449044 -1.641108,-0.898089 -1.641108,-1.012739 0,-0.114649 0.298383,-0.582802 1.641108,-1.022293 z m 10.240935,12.038217 c -1.35338,0.449044 -3.175649,0.697452 -5.115139,0.697452 -1.950147,0 -3.772416,-0.248408 -5.11514,-0.697452 -1.332067,-0.449045 -1.641107,-0.898089 -1.641107,-1.012739 v -1.070064 c 0.27707,0.133758 0.607423,0.257962 0.969745,0.382166 1.555855,0.525478 3.612567,0.812102 5.786502,0.812102 2.173934,0 4.230646,-0.286624 5.786501,-0.812102 0.362323,-0.124204 0.682019,-0.248408 0.969746,-0.382166 v 1.070064 c -0.01066,0.11465 -0.30904,0.563694 -1.641108,1.012739 z M 66.28562,23.16879 v 0 0.0096 c -0.02131,0.143312 -0.341009,0.573248 -1.630451,1.003185 -1.35338,0.449044 -3.175649,0.697452 -5.115139,0.697452 -1.950147,0 -3.772416,-0.248408 -5.11514,-0.697452 -1.332067,-0.449045 -1.641107,-0.89809 -1.641107,-1.012739 v -1.070064 c 0.27707,0.133758 0.607423,0.257962 0.969745,0.382166 1.555855,0.525477 3.612567,0.812102 5.786502,0.812102 2.173934,0 4.230646,-0.286625 5.786501,-0.812102 0.362323,-0.124204 0.682019,-0.248408 0.969746,-0.382166 l -0.01066,1.070064 z m 0,-3.353503 v 0 0.0096 c -0.02131,0.143312 -0.341009,0.573248 -1.630451,1.003184 -1.35338,0.449045 -3.175649,0.697453 -5.115139,0.697453 -1.950147,0 -3.772416,-0.248408 -5.11514,-0.697453 -1.332067,-0.449044 -1.641107,-0.898089 -1.641107,-1.012738 v -1.070064 c 0.27707,0.133758 0.607423,0.257962 0.969745,0.382165 1.555855,0.525478 3.612567,0.812103 5.786502,0.812103 2.173934,0 4.230646,-0.286625 5.786501,-0.812103 0.362323,-0.124203 0.682019,-0.248407 0.969746,-0.382165 l -0.01066,1.070064 z"
       id="path7"
       inkscape:connector-curvature="0"
       style="fill:#000000;fill-rule:nonzero;stroke:#ffffff;stroke-width:0.5;stroke-miterlimit:4;stroke-dasharray:none" />
  </g>
</svg>
