<?xml version="1.0" encoding="UTF-8"?>
<svg width="30px" height="30px" viewBox="0 0 30 30" version="1.1" xmlns="http://www.w3.org/2000/svg" xmlns:xlink="http://www.w3.org/1999/xlink">
    <!-- Generator: Sketch 55.2 (78181) - https://sketchapp.com -->
    <title>Contratti New Icon 1.5px</title>
    <desc>Created with Sketch.</desc>
    <g id="Page-1" stroke="none" stroke-width="1" fill="none" fill-rule="evenodd">
        <g id="Mobile" transform="translate(-430.000000, -696.000000)" stroke="#000000" stroke-width="1.5">
            <g id="Contratti-New-Icon-1.5px" transform="translate(430.000000, 696.000000)">
                <g id="Group-2">
                    <path d="M17.9227018,0.9 L2.4,0.9 C1.57157287,0.9 0.9,1.57157287 0.9,2.4 L0.9,27.6 C0.9,28.4284271 1.57157287,29.1 2.4,29.1 L21.6,29.1 C22.4284271,29.1 23.1,28.4284271 23.1,27.6 L23.1,6.5087397 L17.9227018,0.9 Z" id="Combined-Shape"></path>
                    <path d="M4.19226263,6.13636363 L12,6.13636363" id="Line" stroke-linecap="round"></path>
                    <path d="M3.97514251,9.13636363 L14.5,9.13636363" id="Line-Copy" stroke-linecap="round"></path>
                    <path d="M3.95469138,14.1363636 L14.5,14.1363636" id="Line-Copy-2" stroke-linecap="round"></path>
                    <path d="M6.5,18.1363637 L11.2375713,18.1363637" id="Line-Copy-3" stroke-linecap="round"></path>
                    <path d="M14.0961313,24.1363637 L18.8337025,24.1363637" id="Line-Copy-4" stroke-linecap="round"></path>
                    <polyline id="Path-2" points="16.4895924 0.818181818 16.4895924 6.81818182 22.5 6.81818182"></polyline>
                </g>
                <g id="Group" transform="translate(25.000000, 0.000000)">
                    <path d="M0.9,24.7535831 L2.5,27.4564235 L4.1,24.7535831 L4.1,2.5 C4.1,1.6163444 3.3836556,0.9 2.5,0.9 C1.6163444,0.9 0.9,1.6163444 0.9,2.5 L0.9,24.7535831 Z" id="Rectangle"></path>
                    <path d="M1.25,4.58333333 L3.75,4.58333333" id="Line-2" stroke-linecap="square"></path>
                </g>
            </g>
        </g>
    </g>
</svg>