<?xml version="1.0" encoding="UTF-8"?>
<svg width="30px" height="30px" viewBox="0 0 30 30" version="1.1" xmlns="http://www.w3.org/2000/svg" xmlns:xlink="http://www.w3.org/1999/xlink">
    <g stroke="none" stroke-width="1" fill="none" fill-rule="evenodd">
        <g transform="translate(-38.000000, -2396.000000)" fill="currentColor" fill-rule="nonzero">
            <g transform="translate(38.000000, 2396.000000)">
                <path d="M18.8571429,9.89010989 L2.57142857,9.89010989 C1.14285714,9.89010989 0,10.9450549 0,12.2637363 L0,27.3296703 C0,28.6153846 1.14285714,29.7032967 2.57142857,29.7032967 L18.8928571,29.7032967 C20.2857143,29.7032967 21.4642857,28.6483516 21.4642857,27.3296703 L21.4642857,12.2637363 C21.4285714,10.9450549 20.2857143,9.89010989 18.8571429,9.89010989 Z M19.2857143,27.2967033 C19.2857143,27.4945055 19.1071429,27.6593407 18.8928571,27.6593407 L2.57142857,27.6593407 C2.35714286,27.6593407 2.17857143,27.4945055 2.17857143,27.2967033 L2.17857143,12.2637363 C2.17857143,12.0659341 2.35714286,11.9010989 2.57142857,11.9010989 L18.8928571,11.9010989 C19.1071429,11.9010989 19.2857143,12.0659341 19.2857143,12.2637363 L19.2857143,27.2967033 Z"></path>
                <path d="M27.4285714,0 L11.1428571,0 C9.71428571,0 8.57142857,1.05494505 8.57142857,2.37362637 L8.57142857,7.91208791 L10.7142857,7.91208791 L10.7142857,2.37362637 C10.7142857,2.17582418 10.8928571,2.01098901 11.1071429,2.01098901 L27.4285714,2.01098901 C27.6428571,2.01098901 27.8214286,2.17582418 27.8214286,2.37362637 L27.8214286,17.4395604 C27.8214286,17.6373626 27.6428571,17.8021978 27.4285714,17.8021978 L23.5714286,17.8021978 L23.5714286,19.7802198 L27.4285714,19.7802198 C28.8214286,19.7802198 30,18.7252747 30,17.4065934 L30,2.37362637 C30,1.05494505 28.8571429,0 27.4285714,0 Z"></path>
            </g>
        </g>
    </g>
</svg>
