<?xml version="1.0" encoding="UTF-8"?>
<svg width="30px" height="30px" viewBox="0 0 30 30" version="1.1" xmlns="http://www.w3.org/2000/svg" xmlns:xlink="http://www.w3.org/1999/xlink">
    <title>Group 29</title>
    <g id="Page-1" stroke="none" stroke-width="1" fill="none" fill-rule="evenodd">
        <g id="Icons-Layout" transform="translate(-171.000000, -263.000000)">
            <g id="Group-29" transform="translate(171.000000, 263.000000)">
                <rect id="Rectangle" stroke="#979797" fill="#D8D8D8" opacity="0" x="0.5" y="0.5" width="29" height="29"></rect>
                <g id="iconfinder_sale" transform="translate(2.400000, 2.400000)" fill="#000000" fill-rule="nonzero">
                    <path d="M24.5077875,12.4554937 L13.0715156,1.01961562 C12.4720313,0.419146875 11.4598969,0 10.610775,0 L2.36545313,0 C1.06135312,0 0,1.06115625 0,2.36565 L0,10.6111687 C0,11.4600937 0.41895,12.4720312 1.01941875,13.0721062 L12.4551,24.5077875 C12.9010219,24.9543 13.4955844,25.2001969 14.12775,25.2001969 C14.7603094,25.2001969 15.3540844,24.9544969 15.8004,24.5077875 L24.5081812,15.8005969 C25.4307375,14.8778437 25.4307375,13.3772625 24.5077875,12.4554937 Z M23.3930812,14.6854969 L14.6853,23.3928844 C14.5319344,23.5458562 14.3291531,23.623425 14.12775,23.623425 C13.9259531,23.623425 13.7235656,23.54625 13.5698063,23.3928844 L2.13451875,11.9568094 C1.82798438,11.650275 1.57677188,11.0446875 1.57677188,10.6109719 L1.57677188,2.36565 C1.57677188,1.9317375 1.9317375,1.57696875 2.36545313,1.57696875 L10.610775,1.57696875 C11.0440969,1.57696875 11.6496844,1.82798438 11.9570062,2.13471563 L23.3930812,13.5705938 C23.7000094,13.8769313 23.7000094,14.3787656 23.3930812,14.6854969 Z" id="Shape"></path>
                    <path d="M4.87029375,3.68865 C4.2186375,3.68884688 3.68884687,4.21883438 3.68845313,4.87049063 C3.68845313,5.52214688 4.2186375,6.05233125 4.87029375,6.05233125 C5.52195,6.05233125 6.0519375,5.52234375 6.0519375,4.87029375 C6.05174062,4.21883438 5.52155625,3.68884687 4.87029375,3.68865 Z" id="Path"></path>
                    <path d="M17.4500156,11.0960719 L7.14853125,12.4877813 C6.8252625,12.5312906 6.59826562,12.828375 6.64216875,13.1518406 C6.6819375,13.4483344 6.93531562,13.6637156 7.22629687,13.6633219 C7.25267812,13.6637156 7.27925625,13.6625344 7.306425,13.6580062 L17.6085,12.2668875 C17.9315719,12.2229844 18.1583719,11.9257031 18.1144687,11.6024344 C18.0705656,11.2791656 17.7724969,11.0535469 17.4500156,11.0960719 Z" id="Path"></path>
                    <path d="M11.6240906,10.4688281 C12.2546813,10.4688281 12.8848781,10.2006844 13.3520625,9.73369687 C14.2734375,8.8129125 14.33565,7.3765125 13.4916469,6.5323125 C13.10715,6.14742187 12.5838563,5.93558437 12.0182344,5.9353875 C11.3876437,5.93578125 10.7578406,6.20353125 10.2902625,6.6709125 C9.36908437,7.59189375 9.30647812,9.02770312 10.150875,9.87249375 C10.535175,10.2569906 11.0584688,10.4688281 11.6240906,10.4688281 Z M11.1254062,7.50625313 C11.3734687,7.25878125 11.6983125,7.11644063 12.0186281,7.1166373 C12.1950281,7.1166373 12.4495875,7.16034375 12.6565031,7.36686563 C13.0398187,7.75077188 12.978,8.43786563 12.5173125,8.89776563 C12.2696437,9.14543438 11.9440125,9.28738125 11.6244844,9.28738125 C11.4472969,9.28738125 11.1931312,9.2444625 10.9862156,9.03715313 C10.6025062,8.65344375 10.6651125,7.96654688 11.1254062,7.50625313 Z" id="Shape"></path>
                    <path d="M13.1313656,14.2860375 C12.4999875,14.2860375 11.8701844,14.5537875 11.4026063,15.0213656 C10.4812313,15.9429375 10.4188219,17.3791406 11.2634156,18.2235375 C11.6479125,18.6080344 12.1704188,18.819675 12.7360406,18.8194783 C13.3674188,18.819675 13.9976156,18.5515312 14.4651938,18.0843469 C14.9024531,17.6470875 15.1619344,17.0800875 15.1969781,16.4888719 C15.2330063,15.8708813 15.0227438,15.3003375 14.6039906,14.8819781 C14.2200844,14.4976781 13.6965937,14.2860375 13.1313656,14.2860375 Z M13.6296563,17.2484156 C13.3819875,17.4960844 13.0563563,17.6380313 12.7364344,17.6380313 C12.5596406,17.6380313 12.3050812,17.5945219 12.0985594,17.3878031 C11.71485,17.0037 11.7774563,16.317 12.23775,15.8563125 C12.4854188,15.6090375 12.8106562,15.4666969 13.1309719,15.4666969 C13.3077656,15.4666969 13.5619312,15.5100094 13.7692406,15.7171219 C13.9456406,15.8935219 14.0342344,16.1427656 14.0176969,16.4185875 C13.9999781,16.721775 13.8619687,17.0163 13.6296563,17.2484156 Z" id="Shape"></path>
                </g>
            </g>
        </g>
    </g>
</svg>