<?xml version="1.0" encoding="UTF-8" standalone="no"?>
<svg
   xmlns:dc="http://purl.org/dc/elements/1.1/"
   xmlns:cc="http://creativecommons.org/ns#"
   xmlns:rdf="http://www.w3.org/1999/02/22-rdf-syntax-ns#"
   xmlns:svg="http://www.w3.org/2000/svg"
   xmlns="http://www.w3.org/2000/svg"
   xmlns:sodipodi="http://sodipodi.sourceforge.net/DTD/sodipodi-0.dtd"
   xmlns:inkscape="http://www.inkscape.org/namespaces/inkscape"
   width="21px"
   height="22px"
   viewBox="0 0 21 22"
   version="1.1"
   id="svg24"
   sodipodi:docname="Course.svg"
   inkscape:version="0.92.4 (5da689c313, 2019-01-14)">
  <metadata
     id="metadata30">
    <rdf:RDF>
      <cc:Work
         rdf:about="">
        <dc:format>image/svg+xml</dc:format>
        <dc:type
           rdf:resource="http://purl.org/dc/dcmitype/StillImage" />
      </cc:Work>
    </rdf:RDF>
  </metadata>
  <defs
     id="defs28" />
  <sodipodi:namedview
     pagecolor="#ffffff"
     bordercolor="#666666"
     borderopacity="1"
     objecttolerance="10"
     gridtolerance="10"
     guidetolerance="10"
     inkscape:pageopacity="0"
     inkscape:pageshadow="2"
     inkscape:window-width="1920"
     inkscape:window-height="1023"
     id="namedview26"
     showgrid="false"
     inkscape:zoom="15.170655"
     inkscape:cx="20.418794"
     inkscape:cy="13.619236"
     inkscape:window-x="0"
     inkscape:window-y="0"
     inkscape:window-maximized="1"
     inkscape:current-layer="svg24" />
  <!-- Generator: Sketch 55.2 (78181) - https://sketchapp.com -->
  <title
     id="title2">Group 4</title>
  <desc
     id="desc4">Created with Sketch.</desc>
  <rect
     style="opacity:0;fill:#d8d8d8;fill-rule:evenodd;stroke:#979797;stroke-width:0.63362873;stroke-miterlimit:4;stroke-dasharray:none"
     height="29"
     width="29"
     y="-3.5"
     x="32.228809"
     id="Rectangle" />
  <g
     id="g933"
     transform="translate(-36.505965,0.08951345)">
    <path
       d="m 38.885405,4.4488701 c -0.09719,0.097189 -0.09769,0.2546082 -0.0011,0.3524178 l 1.405158,1.4232687 c 5.63e-4,5.69e-4 5.63e-4,5.69e-4 0.0011,0.00114 0.09763,0.097631 0.255922,0.097631 0.353553,0 l 1.649887,-1.6498868 c 0.09719,-0.097189 0.09769,-0.2546082 0.0011,-0.3524179 l -1.40513,-1.4232738 c -5.63e-4,-5.689e-4 -5.63e-4,-5.689e-4 -0.0011,-0.00114 -0.09763,-0.097631 -0.255922,-0.097631 -0.353553,0 z"
       id="path7"
       inkscape:connector-curvature="0"
       style="fill:none;fill-rule:evenodd;stroke:#000000;stroke-width:0.95044309;stroke-miterlimit:4;stroke-dasharray:none" />
    <rect
       transform="rotate(-45)"
       id="rect9"
       x="19.773357"
       y="33.157661"
       width="11.5"
       height="3.5"
       rx="1"
       style="fill:none;fill-rule:evenodd;stroke:#000000;stroke-width:0.95044309;stroke-miterlimit:4;stroke-dasharray:none" />
    <path
       d="m 53.463427,19.000098 c -0.0011,0.0011 -0.0011,0.0011 -0.0022,0.0022 -0.09884,0.09641 -0.257121,0.09443 -0.353526,-0.0044 l -1.396555,-1.431871 c -0.09555,-0.09797 -0.09458,-0.254563 0.0022,-0.351333 l 1.649805,-1.649806 c 0.0011,-0.0011 0.0011,-0.0011 0.0022,-0.0022 0.09884,-0.09641 0.257122,-0.09443 0.353526,0.0044 l 1.396556,1.431871 c 0.09555,0.09797 0.09458,0.254563 -0.0022,0.351333 z"
       id="path12"
       inkscape:connector-curvature="0"
       style="fill:none;fill-rule:evenodd;stroke:#000000;stroke-width:0.95044309;stroke-miterlimit:4;stroke-dasharray:none" />
    <rect
       transform="matrix(0.70710678,-0.70710678,-0.70710678,-0.70710678,0,0)"
       id="rect14"
       x="19.773357"
       y="-48.748569"
       width="11.5"
       height="3.5"
       rx="1"
       style="fill:none;fill-rule:evenodd;stroke:#000000;stroke-width:0.95044309;stroke-miterlimit:4;stroke-dasharray:none" />
    <path
       inkscape:connector-curvature="0"
       id="path18"
       d="m 43.289354,8.6402319 6.00466,6.0046601 1.446355,-1.446355 -6.00466,-6.0046599 z"
       style="fill:none;fill-rule:evenodd;stroke:#000000;stroke-width:0.95044309;stroke-miterlimit:4;stroke-dasharray:none" />
  </g>
</svg>
