<?xml version="1.0" encoding="UTF-8"?>
<svg width="30px" height="30px" viewBox="0 0 30 30" version="1.1" xmlns="http://www.w3.org/2000/svg" xmlns:xlink="http://www.w3.org/1999/xlink">
    <title>Group 2</title>
    <g id="Page-1" stroke="none" stroke-width="1" fill="none" fill-rule="evenodd">
        <g id="Icons-Layout" transform="translate(-235.000000, -2526.000000)">
            <g id="Group-2" transform="translate(235.000000, 2526.000000)">
                <rect id="Rectangle" stroke="#979797" fill="#D8D8D8" opacity="0" x="0.5" y="0.5" width="29" height="29"></rect>
                <g id="Group" transform="translate(2.000000, 5.000000)" stroke="#000000" stroke-width="1.5">
                    <g id="Add_Person" transform="translate(4.105263, 0.000000)">
                        <path d="M0.747519922,19.853557 L17.1685726,19.853557 L17.1685726,14.9673005 C17.1685726,13.6592576 16.1549842,12.5988794 14.9046596,12.5988794 L3.01143284,12.5988794 C1.76110826,12.5988794 0.747519922,13.6592576 0.747519922,14.9673005 L0.747519922,19.853557 Z" id="Rectangle"></path>
                        <path d="M15.0526316,4.66666667 C16.5641477,4.66666667 17.7894737,5.860574 17.7894737,7.33333333 C17.7894737,8.80609267 16.5641477,10 15.0526316,10 C13.5411154,10 12.3157895,8.80609267 12.3157895,7.33333333 C12.3157895,5.860574 13.5411154,4.66666667 15.0526316,4.66666667 Z M8.70924014,0.459578947 C10.9765144,0.459578947 12.8145033,2.25043995 12.8145033,4.45957895 C12.8145033,6.66871795 10.9765144,8.45957895 8.70924014,8.45957895 C7.36948718,8.45957895 6.1796293,7.83425765 5.43032407,6.86681986 C5.45931096,7.01758754 5.47368421,7.17382495 5.47368421,7.33333333 C5.47368421,8.80609267 4.24835826,10 2.73684211,10 C1.22532595,10 0,8.80609267 0,7.33333333 C0,5.860574 1.22532595,4.66666667 2.73684211,4.66666667 C3.53594663,4.66666667 4.25506104,5.0003636 4.75541366,5.53254406 C4.65609138,5.19169775 4.60397698,4.83156828 4.60397698,4.45957895 C4.60397698,2.25043995 6.4419659,0.459578947 8.70924014,0.459578947 Z" id="Combined-Shape"></path>
                    </g>
                    <g id="Add_Person-Copy" transform="translate(20.526316, 12.666667)">
                        <path d="M0.791411617,5.34467244 L5.47368421,5.33333333 L5.47368421,2.19018463 C5.47368421,1.34876888 5.05135574,0.666666667 4.53038716,0.666666667 C1.55317364,0.628504366 0.064566881,0.609423216 0.064566881,0.609423216 C0.064566881,0.609423216 0.791411617,1.36010798 0.791411617,2.20152373 L0.791411617,5.34467244 Z" id="Rectangle"></path>
                    </g>
                    <g id="Add_Person-Copy-2" transform="translate(3.078947, 15.333333) scale(-1, 1) translate(-3.078947, -15.333333) translate(0.000000, 12.666667)">
                        <path d="M1.30511166,5.33333333 L6.15789474,5.33333333 L6.15789474,2.19018463 C6.15789474,1.34876888 5.73556627,0.666666667 5.21459769,0.666666667 C2.12371051,0.620944965 0.578266921,0.598084114 0.578266921,0.598084114 C0.578266921,0.598084114 1.30511166,1.34876888 1.30511166,2.19018463 L1.30511166,5.33333333 Z" id="Rectangle"></path>
                    </g>
                </g>
            </g>
        </g>
    </g>
</svg>