<?xml version="1.0" encoding="UTF-8"?>
<svg width="30px" height="30px" viewBox="0 0 30 30" version="1.1" xmlns="http://www.w3.org/2000/svg" xmlns:xlink="http://www.w3.org/1999/xlink">
    <g stroke="none" stroke-width="1" fill="none" fill-rule="evenodd">
        <g transform="translate(-170.000000, -1110.000000)" fill="currentColor" stroke="currentColor">
            <g transform="translate(170.000000, 1110.000000)">
                <path d="M21.7580645,2.78125 L21.7580645,1 C21.7580645,0.723857625 21.5342069,0.5 21.2580645,0.5 L1,0.5 C0.723857625,0.5 0.5,0.723857625 0.5,1 L0.5,29 C0.5,29.2761424 0.723857625,29.5 1,29.5 L21.2580645,29.5 C21.5342069,29.5 21.7580645,29.2761424 21.7580645,29 L21.7580645,26.28125 L1.9516129,26.28125 C1.39932815,26.28125 0.951612903,25.8335347 0.951612903,25.28125 L0.951612903,3.78125 C0.951612903,3.22896525 1.39932815,2.78125 1.9516129,2.78125 L21.7580645,2.78125 Z M11.6129032,29.5625 C10.8057817,29.5625 10.1451613,28.922524 10.1451613,28.125 C10.1451613,27.327476 10.8057817,26.6875 11.6129032,26.6875 C12.4200248,26.6875 13.0806452,27.327476 13.0806452,28.125 C13.0806452,28.922524 12.4200248,29.5625 11.6129032,29.5625 Z"></path>
                <path d="M20.3870968,5.33870968 C19.5586696,5.33870968 18.8870968,6.01028255 18.8870968,6.83870968 L18.8870968,22.1935484 C18.8870968,23.0219755 19.5586696,23.6935484 20.3870968,23.6935484 L28,23.6935484 C28.8284271,23.6935484 29.5,23.0219755 29.5,22.1935484 L29.5,6.83870968 C29.5,6.01028255 28.8284271,5.33870968 28,5.33870968 L20.3870968,5.33870968 Z M19.8225806,20.8225806 L19.8225806,7.24193548 L28.5645161,7.24193548 L28.5645161,20.8225806 L19.8225806,20.8225806 Z M26.6290323,7.50645161 L21.7580645,7.50645161 L21.7580645,5.30645161 L26.6290323,5.30645161 L26.6290323,7.50645161 Z M24.1532761,23.3116687 C23.5457629,23.3116687 23.0532761,22.819182 23.0532761,22.2116687 C23.0532761,21.6041555 23.5457629,21.1116687 24.1532761,21.1116687 C24.7607893,21.1116687 25.2532761,21.6041555 25.2532761,22.2116687 C25.2532761,22.819182 24.7607893,23.3116687 24.1532761,23.3116687 Z"></path>
            </g>
        </g>
    </g>
</svg>