<?xml version="1.0" encoding="UTF-8" standalone="no"?>
<svg
   xmlns:dc="http://purl.org/dc/elements/1.1/"
   xmlns:cc="http://creativecommons.org/ns#"
   xmlns:rdf="http://www.w3.org/1999/02/22-rdf-syntax-ns#"
   xmlns:svg="http://www.w3.org/2000/svg"
   xmlns="http://www.w3.org/2000/svg"
   xmlns:sodipodi="http://sodipodi.sourceforge.net/DTD/sodipodi-0.dtd"
   xmlns:inkscape="http://www.inkscape.org/namespaces/inkscape"
   width="32px"
   height="32px"
   viewBox="0 0 32 32"
   version="1.1"
   id="svg19"
   sodipodi:docname="Payments.svg"
   inkscape:version="0.92.4 (5da689c313, 2019-01-14)">
  <metadata
     id="metadata25">
    <rdf:RDF>
      <cc:Work
         rdf:about="">
        <dc:format>image/svg+xml</dc:format>
        <dc:type
           rdf:resource="http://purl.org/dc/dcmitype/StillImage" />
        <dc:title>Business Menu_Pagamenti</dc:title>
      </cc:Work>
    </rdf:RDF>
  </metadata>
  <defs
     id="defs23" />
  <sodipodi:namedview
     pagecolor="#ffffff"
     bordercolor="#666666"
     borderopacity="1"
     objecttolerance="10"
     gridtolerance="10"
     guidetolerance="10"
     inkscape:pageopacity="0"
     inkscape:pageshadow="2"
     inkscape:window-width="1920"
     inkscape:window-height="1023"
     id="namedview21"
     showgrid="false"
     inkscape:zoom="2.6074563"
     inkscape:cx="13.243779"
     inkscape:cy="-2.9970798"
     inkscape:window-x="0"
     inkscape:window-y="0"
     inkscape:window-maximized="1"
     inkscape:current-layer="svg19" />
  <!-- Generator: Sketch 55.2 (78181) - https://sketchapp.com -->
  <title
     id="title2">Business Menu_Pagamenti</title>
  <desc
     id="desc4">Created with Sketch.</desc>
  <g
     id="g104"
     transform="translate(-48.680833,0.23287555)">
    <circle
       id="circle27"
       cx="61.830742"
       cy="13.152778"
       r="12.152778"
       style="fill:none;fill-rule:evenodd;stroke:#000000;stroke-width:1.5" />
    <path
       style="fill:none;fill-rule:evenodd;stroke:#000000;stroke-width:1.5;stroke-linecap:round"
       inkscape:connector-curvature="0"
       d="m 70.803081,22.553316 8.872656,7.973768"
       id="path29" />
    <g
       transform="matrix(1.5483116,0,0,1.5483116,-34.931533,-7.4757529)"
       id="text39"
       style="font-weight:normal;font-size:12px;font-family:Poppins-Regular, Poppins;fill:#000000;fill-rule:evenodd;stroke:none;stroke-width:1"
       aria-label="$">
      <path
         inkscape:connector-curvature="0"
         id="path87"
         d="M 62.732655,18.763672 H 62.146717 L 62.140858,17 Q 61.525623,16.98828 60.910389,16.859375 60.295155,16.724609 59.674061,16.460937 V 15.40625 q 0.597656,0.375 1.207031,0.568359 0.615234,0.1875 1.265625,0.19336 v -2.671875 q -1.294922,-0.210938 -1.886719,-0.714844 -0.585937,-0.503906 -0.585937,-1.382812 0,-0.955079 0.638672,-1.5058599 0.638672,-0.5507812 1.833984,-0.6328125 V 7.8828125 h 0.585938 v 1.359375 q 0.544921,0.023437 1.054687,0.1171875 0.509766,0.087891 0.996094,0.2460938 V 10.630859 Q 64.297108,10.384766 63.781483,10.25 63.271717,10.115234 62.732655,10.091797 v 2.501953 q 1.330078,0.205078 1.957031,0.732422 0.626953,0.527344 0.626953,1.441406 0,0.990235 -0.667969,1.564453 -0.662109,0.56836 -1.916015,0.65625 z m -0.585938,-6.275391 v -2.402343 q -0.679687,0.07617 -1.037109,0.386718 -0.357422,0.310547 -0.357422,0.826172 0,0.503906 0.328125,0.785156 0.333984,0.28125 1.066406,0.404297 z m 0.585938,1.125 v 2.53711 q 0.74414,-0.09961 1.11914,-0.421875 0.38086,-0.322266 0.38086,-0.84961 0,-0.515625 -0.363282,-0.820312 -0.357422,-0.304688 -1.136718,-0.445313 z" />
    </g>
  </g>
</svg>
