<?xml version="1.0" encoding="UTF-8" standalone="no"?>
<svg
   xmlns:dc="http://purl.org/dc/elements/1.1/"
   xmlns:cc="http://creativecommons.org/ns#"
   xmlns:rdf="http://www.w3.org/1999/02/22-rdf-syntax-ns#"
   xmlns:svg="http://www.w3.org/2000/svg"
   xmlns="http://www.w3.org/2000/svg"
   xmlns:sodipodi="http://sodipodi.sourceforge.net/DTD/sodipodi-0.dtd"
   xmlns:inkscape="http://www.inkscape.org/namespaces/inkscape"
   width="26px"
   height="30px"
   viewBox="0 0 26 30"
   version="1.1"
   id="svg11"
   sodipodi:docname="Door.svg"
   inkscape:version="0.92.4 (5da689c313, 2019-01-14)">
  <metadata
     id="metadata17">
    <rdf:RDF>
      <cc:Work
         rdf:about="">
        <dc:format>image/svg+xml</dc:format>
        <dc:type
           rdf:resource="http://purl.org/dc/dcmitype/StillImage" />
      </cc:Work>
    </rdf:RDF>
  </metadata>
  <defs
     id="defs15" />
  <sodipodi:namedview
     pagecolor="transparent"
     bordercolor="currentColor"
     borderopacity="1"
     objecttolerance="10"
     gridtolerance="10"
     guidetolerance="10"
     inkscape:pageopacity="0"
     inkscape:pageshadow="2"
     inkscape:window-width="1920"
     inkscape:window-height="1023"
     id="namedview13"
     showgrid="false"
     inkscape:zoom="7.8666667"
     inkscape:cx="13"
     inkscape:cy="15"
     inkscape:window-x="0"
     inkscape:window-y="0"
     inkscape:window-maximized="1"
     inkscape:current-layer="svg11" />
  <!-- Generator: Sketch 55.2 (78181) - https://sketchapp.com -->
  <title
     id="title2">iconfinder_Door_Enter_Arrow_335909</title>
  <desc
     id="desc4">Created with Sketch.</desc>
  <path
     style="fill:inherit;fill-rule:nonzero;stroke:none;stroke-width:1"
     inkscape:connector-curvature="0"
     id="Shape"
     d="m 14.741348,6.0049219 c 3.481758,-1.6067578 5.223105,-2.4106055 8.704863,-4.0173633 0.960351,-0.4430859 1.741289,0.457793 1.741289,2.0087109 0,7.1237115 0,10.1962505 0,17.3199605 0,1.550918 -0.780938,3.173204 -1.741348,3.616348 -3.481758,1.606758 -5.223105,2.410606 -8.704863,4.017363 -0.96041,0.443145 -1.741348,-0.457793 -1.741348,-2.008652 0,-7.123711 0,-10.19625 0,-17.3199609 0,-1.5509765 0.780996,-3.1732617 1.741407,-3.6164062 z M 3.625,3.75 c 0,-1.550918 1.261582,-2.8125 2.8125,-2.8125 h 16.594863 l -4.063125,1.875 H 6.4375 C 5.919297,2.8125 5.5,3.2317969 5.5,3.75 v 6.5625 H 3.625 Z M 5.5,21.5625 C 5.5,22.080703 5.919297,22.5 6.4375,22.5 h 5.625 v 1.875 H 6.4375 C 4.886582,24.375 3.625,23.113418 3.625,21.5625 V 15 H 5.5 Z M 1.75,11.25 H 7.375 V 9.0014648 c 0,-0.4897851 0.566719,-0.7470703 0.918281,-0.415664 l 3.403008,3.2135152 c 0.487969,0.461426 0.487969,1.252442 0,1.713868 L 8.293281,16.726699 C 7.941719,17.058105 7.375,16.800879 7.375,16.311035 V 14.0625 H 1.75 c -0.518203,0 -0.9375,-0.419297 -0.9375,-0.9375 V 12.1875 C 0.8125,11.669297 1.231797,11.25 1.75,11.25 Z m 14.932266,5.570098 c 0.462363,-0.21334 0.836777,-0.990586 0.836777,-1.737657 0,-0.746132 -0.374473,-1.179199 -0.836777,-0.96498 -0.462364,0.21334 -0.835899,0.989707 -0.835899,1.736777 0,0.746133 0.373535,1.180078 0.835899,0.96586 z" />
</svg>
