<?xml version="1.0" encoding="UTF-8"?>
<svg width="32px" height="32px" viewBox="0 0 32 32" version="1.1" xmlns="http://www.w3.org/2000/svg" xmlns:xlink="http://www.w3.org/1999/xlink">
    <!-- Generator: Sketch 55.2 (78181) - https://sketchapp.com -->
    <title>smiling-emoticon-square-face</title>
    <desc>Created with Sketch.</desc>
    <g id="Page-1" stroke="none" stroke-width="1" fill="none" fill-rule="evenodd">
        <g id="Mobile" transform="translate(-39.000000, -695.000000)">
            <g id="smiling-emoticon-square-face" transform="translate(40.000000, 696.000000)">
                <path d="M9.31962617,10.8423364 C9.31962617,9.88233645 10.0982243,9.10373832 11.0582243,9.10373832 C12.0179439,9.10373832 12.7965421,9.88205607 12.7965421,10.8423364 C12.7965421,11.8028972 12.0179439,12.581215 11.0582243,12.581215 C10.0982243,12.581215 9.31962617,11.8028972 9.31962617,10.8423364 Z M17.2028972,10.8423364 C17.2028972,9.88233645 17.9820561,9.10373832 18.9420561,9.10373832 C19.9017757,9.10373832 20.6803738,9.88205607 20.6803738,10.8423364 C20.6803738,11.8028972 19.9020561,12.581215 18.9420561,12.581215 C17.9820561,12.581215 17.2028972,11.8028972 17.2028972,10.8423364 Z M22.7830574,19.1229869 C21.4598459,21.9512901 18.3609898,23.7786916 14.8888938,23.7786916 C11.3420809,23.7786916 8.22497597,21.9420608 6.94755864,19.0994363 C6.72857281,18.6128294 6.97820288,18.0539793 7.50535273,17.8515712 C7.63481605,17.8022422 7.76909981,17.7786916 7.90131767,17.7786916 C8.30623487,17.7786916 8.69049302,17.9998765 8.85542102,18.3674573 C9.81159028,20.4952884 12.1798049,21.8694994 14.8888938,21.8694994 C17.5366941,21.8694994 19.8911361,20.4943337 20.8869018,18.3652295 C21.1134627,17.8811686 21.7215271,17.6580742 22.2448894,17.8678021 C22.7682518,18.07753 23.0096182,18.6392443 22.7830574,19.1229869 Z" id="Shape" fill="#000000" fill-rule="nonzero"></path>
                <circle id="Oval" stroke="#000000" stroke-width="1.5" cx="15" cy="15" r="15"></circle>
            </g>
        </g>
    </g>
</svg>