<?xml version="1.0" encoding="UTF-8"?>
<svg width="32px" height="18px" viewBox="0 0 32 18" version="1.1" xmlns="http://www.w3.org/2000/svg" xmlns:xlink="http://www.w3.org/1999/xlink">
    <g id="Page-1" stroke="currentColor" stroke-width="1" fill="none" fill-rule="evenodd">
        <g id="Mobile" transform="translate(-39.000000, -528.000000)">
            <g id="noun_Eye_2143354" transform="translate(40.000000, 522.000000)">
                <rect id="Rectangle" stroke="#979797" fill="#D8D8D8" opacity="0" x="0.5" y="0.5" width="29" height="29"></rect>
                <path d="M29.9491382,15.0531224 L29.9406612,15.0276914 C29.6524442,13.6374682 27.7536027,11.6369031 25.2189884,10.0432326 C22.0994631,8.08505227 18.4797966,7 15.0381464,7 C11.6304041,7 8.04464538,8.05962136 4.92512009,9.97541678 C2.40745973,11.5267025 0.466233399,13.5018367 0.084769709,14.9090138 C0.0423848545,15.0446454 0,15.1972309 0,15.3752472 C0,15.3837242 0,15.3837242 0,15.3922012 C0,15.4006782 0,15.4006782 0,15.4091551 C0,15.5447867 0.0339078836,15.6634643 0.0508618254,15.739757 C0.0508618254,15.748234 0.0593387963,15.7651879 0.0593387963,15.7736649 C0.364509749,17.1638881 2.28030517,19.1644532 4.83187341,20.7496468 C7.96835264,22.6993501 11.5880192,23.7759254 15.0296694,23.7759254 C18.4458887,23.7759254 22.0401243,22.7078271 25.1426957,20.7835547 C27.6518791,19.223792 29.5761515,17.2401808 29.9237073,15.8414806 C29.9576151,15.73128 30,15.5786945 30,15.4091551 C30,15.3922012 30,15.3752472 30,15.3582933 C29.991523,15.2396157 29.9660921,15.1294151 29.9491382,15.0531224 Z M5.45069229,19.7408873 C2.95846284,18.1896016 1.40717717,16.4094377 1.21220684,15.5193558 C1.21220684,15.5108788 1.21220684,15.5108788 1.21220684,15.5024018 C1.20372987,15.4769709 1.20372987,15.460017 1.1952529,15.434586 C1.1952529,15.4176321 1.18677593,15.4091551 1.18677593,15.3922012 C1.18677593,15.3837242 1.18677593,15.3752472 1.18677593,15.3667703 C1.17829895,15.3498163 1.18677593,15.3159084 1.21220684,15.2480927 C1.21220684,15.2396157 1.22068381,15.2311387 1.22068381,15.2226618 C1.46651596,14.290195 3.03475558,12.526985 5.53546199,10.9841763 C7.69708957,9.65329189 10.0960723,8.76320995 12.4781012,8.39022323 C9.612885,9.42441368 7.55298107,12.1709522 7.55298107,15.3922012 C7.55298107,18.6134501 9.612885,21.3684657 12.4865781,22.3941791 C9.32466799,21.9025148 6.82396157,20.5970613 5.45069229,19.7408873 Z M14.9957615,21.6482057 C11.5456344,21.6482057 8.73975699,18.8423283 8.73975699,15.3922012 C8.73975699,11.942074 11.5456344,9.13619667 14.9957615,9.13619667 C18.4543656,9.13619667 21.251766,11.942074 21.251766,15.3922012 C21.251766,18.8423283 18.4458887,21.6482057 14.9957615,21.6482057 Z M28.821701,15.4176321 C28.8132241,15.443063 28.8047471,15.4769709 28.7962701,15.5108788 L28.7962701,15.5193558 C28.7962701,15.5278327 28.7877932,15.5363097 28.7877932,15.5447867 C28.5589149,16.4772535 27.0245832,18.2319864 24.5238768,19.7832721 C22.3368183,21.1395875 19.9039277,22.0466233 17.471037,22.4111331 C20.3616841,21.3938966 22.4470189,18.6304041 22.4470189,15.3922012 C22.4470189,12.1455213 20.3616841,9.38202882 17.4540831,8.36479231 C23.7609494,9.30573608 28.4656683,13.6544222 28.7877932,15.2820006 C28.7877932,15.2904775 28.7877932,15.2989545 28.7962701,15.3074315 C28.8047471,15.3243854 28.8047471,15.3498163 28.8132241,15.3667703 C28.8132241,15.3752472 28.821701,15.3837242 28.821701,15.3922012 C28.821701,15.4006782 28.821701,15.4091551 28.821701,15.4176321 Z" id="Shape" stroke-width="0.2" fill="currentColor" fill-rule="nonzero"></path>
                <circle id="Oval" stroke-width="1.5" cx="15.0554009" cy="15.25" r="2.25"></circle>
            </g>
        </g>
    </g>
</svg>