<?xml version="1.0" encoding="UTF-8"?>
<svg width="21px" height="26px" viewBox="0 0 21 26" version="1.1" xmlns="http://www.w3.org/2000/svg" xmlns:xlink="http://www.w3.org/1999/xlink">
    <!-- Generator: Sketch 64 (93537) - https://sketch.com -->
    <title>doc_black_file</title>
    <desc>Created with Sketch.</desc>
    <g id="Page-1" stroke="none" stroke-width="1" fill="none" fill-rule="evenodd">
        <g id="doc_black_file" transform="translate(-4.000000, -2.000000)" fill-rule="nonzero">
            <rect id="Rectangle" stroke="currentColor" fill="currentColor" opacity="0" x="0.5" y="0.5" width="29" height="29"></rect>
            <g id="File-icon-with-extension_iconfinder_5_483560" transform="translate(4.000000, 2.000000)" fill="currentColor">
                <path d="M17.6,23.6785714 C17.6,23.9352054 17.40321,24.1428571 17.16,24.1428571 L2.2,24.1428571 C1.95679,24.1428571 1.76,23.9352054 1.76,23.6785714 L1.76,6.5 L4.4,6.5 C5.37196,6.5 6.16,5.66846429 6.16,4.64285714 L6.16,1.85714286 L17.16,1.85714286 C17.40321,1.85714286 17.6,2.06479464 17.6,2.32142857 L17.6,9.66105205 L19.36,9.66105205 L19.36,1.85714286 C19.36,0.831535714 18.57196,0 17.6,0 L6.00919,0 C5.54213,0 5.094375,0.195870536 4.764375,0.544084821 L0.515625,5.02734375 C0.185625,5.37555804 0,5.84802679 0,6.34040179 L0,24.1428571 C0,25.1684643 0.78804,26 1.76,26 L17.6,26 C18.57196,26 19.36,25.1684643 19.36,24.1428571 L19.36,20.4285714 L17.6,20.4285714 L17.6,23.6785714 Z" id="Shape-path"></path>
                <path d="M19.5,11 C20.328375,11 21,11.7960001 21,12.7777778 L21,12.7777778 L21,17.2222222 C21,18.204 20.328375,19 19.5,19 L19.5,19 L7.5,19 C6.671625,19 6,18.204 6,17.2222222 L6,17.2222222 L6,12.7777778 C6,11.7960001 6.671625,11 7.5,11 L7.5,11 Z M11.095183,13.3322652 L8.81018302,13.3322652 L8.81018302,16.8422652 L9.66518302,16.8422652 L9.66518302,15.4222652 L10.735183,15.4222652 L10.735183,14.7572652 L9.66518302,14.7572652 L9.66518302,14.0172652 L11.095183,14.0172652 L11.095183,13.3322652 Z M12.625183,13.3322652 L11.770183,13.3322652 L11.770183,16.8422652 L12.625183,16.8422652 L12.625183,13.3322652 Z M14.325183,13.3322652 L13.470183,13.3322652 L13.470183,16.8422652 L15.445183,16.8422652 L15.445183,16.1822652 L14.325183,16.1822652 L14.325183,13.3322652 Z M18.230183,13.3322652 L16.080183,13.3322652 L16.080183,16.8422652 L18.230183,16.8422652 L18.230183,16.1572652 L16.935183,16.1572652 L16.935183,15.3872652 L18.080183,15.3872652 L18.080183,14.7272652 L16.935183,14.7272652 L16.935183,14.0172652 L18.230183,14.0172652 L18.230183,13.3322652 Z" id="Combined-Shape"></path>
            </g>
        </g>
    </g>
</svg>