<?xml version="1.0" encoding="UTF-8"?>
<svg width="31px" height="31px" viewBox="0 0 31 31" version="1.1" xmlns="http://www.w3.org/2000/svg" xmlns:xlink="http://www.w3.org/1999/xlink">
    <g stroke="none" stroke-width="1" fill="none" fill-rule="evenodd">
        <g transform="translate(-299.000000, -521.000000)" stroke="currentColor" stroke-width="1.5">
            <g transform="translate(300.000000, 522.000000)">
                <g transform="translate(11.679410, 0.245332)">
                    <path d="M0.969827586,20.232555 C2.20160837,20.232555 2.47905974,20.232555 4.02351763,20.232555 C4.10709096,20.232555 4.16221629,20.231355 4.39148193,20.2252652 C4.83104859,20.2135892 5.08376298,20.2131993 5.38256727,20.2322045 C6.21980355,20.2854568 6.87818249,20.4836101 7.38440037,20.9689616 C7.66770372,21.2405871 7.94466921,21.6048146 8.22390305,22.0645358 L17.191691,22.0645358 L17.191691,18.1545591 C17.191691,16.4016176 15.8890712,14.9805779 14.2822082,14.9805779 L3.87931034,14.9805779 C2.27244738,14.9805779 0.969827586,16.4016176 0.969827586,18.1545591 L0.969827586,20.232555 Z"></path>
                    <circle cx="9.71860967" cy="4.13793103" r="4.13793103"></circle>
                </g>
                <g transform="translate(0.000000, 6.378629)">
                    <path d="M0.185450147,22.6558178 L20.367344,22.6558178 L20.367344,17.2125168 C20.367344,15.4595754 19.0647242,14.0385355 17.4578612,14.0385355 L3.09493291,14.0385355 C1.48806996,14.0385355 0.185450147,15.4595754 0.185450147,17.2125168 L0.185450147,22.6558178 Z"></path>
                    <circle cx="10.3216389" cy="4.13793103" r="4.13793103"></circle>
                </g>
            </g>
        </g>
    </g>
</svg>