<?xml version="1.0" encoding="UTF-8" standalone="no"?>
<svg
   xmlns:dc="http://purl.org/dc/elements/1.1/"
   xmlns:cc="http://creativecommons.org/ns#"
   xmlns:rdf="http://www.w3.org/1999/02/22-rdf-syntax-ns#"
   xmlns:svg="http://www.w3.org/2000/svg"
   xmlns="http://www.w3.org/2000/svg"
   xmlns:sodipodi="http://sodipodi.sourceforge.net/DTD/sodipodi-0.dtd"
   xmlns:inkscape="http://www.inkscape.org/namespaces/inkscape"
   width="32px"
   height="32px"
   viewBox="0 0 32 32"
   version="1.1"
   id="svg25"
   sodipodi:docname="GYMS.svg"
   inkscape:version="0.92.4 (5da689c313, 2019-01-14)">
  <metadata
     id="metadata31">
    <rdf:RDF>
      <cc:Work
         rdf:about="">
        <dc:format>image/svg+xml</dc:format>
        <dc:type
           rdf:resource="http://purl.org/dc/dcmitype/StillImage" />
      </cc:Work>
    </rdf:RDF>
  </metadata>
  <defs
     id="defs29" />
  <sodipodi:namedview
     pagecolor="#ffffff"
     bordercolor="#666666"
     borderopacity="1"
     objecttolerance="10"
     gridtolerance="10"
     guidetolerance="10"
     inkscape:pageopacity="0"
     inkscape:pageshadow="2"
     inkscape:window-width="1920"
     inkscape:window-height="1023"
     id="namedview27"
     showgrid="false"
     showguides="true"
     inkscape:guide-bbox="true"
     inkscape:zoom="7.375"
     inkscape:cx="44.502009"
     inkscape:cy="8.7321272"
     inkscape:window-x="0"
     inkscape:window-y="0"
     inkscape:window-maximized="1"
     inkscape:current-layer="svg25" />
  <title
     id="title2">Group 24</title>
  <g
     id="g156"
     transform="translate(-38.54331,0.11974477)">
    <g
       transform="rotate(135,67.691523,36.312327)"
       id="g147">
      <path
         style="fill:none;fill-rule:evenodd;stroke:currentColor;stroke-width:0.95044309;stroke-miterlimit:4;stroke-dasharray:none"
         inkscape:connector-curvature="0"
         id="path7"
         d="m 55.926536,51.809198 c -0.09719,0.09719 -0.09769,0.254609 -0.0011,0.352418 l 1.405158,1.423269 c 5.63e-4,5.69e-4 5.63e-4,5.69e-4 0.0011,0.0011 0.09763,0.09763 0.255922,0.09763 0.353553,0 l 1.649887,-1.649887 c 0.09719,-0.09719 0.09769,-0.254608 0.0011,-0.352418 l -1.40513,-1.423274 c -5.63e-4,-5.69e-4 -5.63e-4,-5.69e-4 -0.0011,-0.0011 -0.09763,-0.09763 -0.255922,-0.09763 -0.353553,0 z" />
      <rect
         style="fill:none;fill-rule:evenodd;stroke:currentColor;stroke-width:0.95044309;stroke-miterlimit:4;stroke-dasharray:none"
         rx="1"
         height="3.5"
         width="11.5"
         y="78.696373"
         x="-1.6655526"
         id="rect9-3"
         transform="rotate(-45)" />
      <path
         style="fill:none;fill-rule:evenodd;stroke:currentColor;stroke-width:0.95044309;stroke-miterlimit:4;stroke-dasharray:none"
         inkscape:connector-curvature="0"
         id="path12"
         d="m 70.504558,66.360426 c -0.0011,0.0011 -0.0011,0.0011 -0.0022,0.0022 -0.09884,0.09641 -0.257121,0.09443 -0.353526,-0.0044 l -1.396555,-1.431871 c -0.09555,-0.09797 -0.09458,-0.254563 0.0022,-0.351333 l 1.649805,-1.649806 c 0.0011,-0.0011 0.0011,-0.0011 0.0022,-0.0022 0.09884,-0.09641 0.257122,-0.09443 0.353526,0.0044 l 1.396556,1.431871 c 0.09555,0.09797 0.09458,0.254563 -0.0022,0.351333 z" />
      <rect
         style="fill:none;fill-rule:evenodd;stroke:currentColor;stroke-width:0.95044309;stroke-miterlimit:4;stroke-dasharray:none"
         rx="1"
         height="3.5"
         width="11.5"
         y="-94.287277"
         x="-1.6655526"
         id="rect14"
         transform="matrix(0.70710678,-0.70710678,-0.70710678,-0.70710678,0,0)" />
      <path
         style="fill:none;fill-rule:evenodd;stroke:currentColor;stroke-width:0.95044309;stroke-miterlimit:4;stroke-dasharray:none"
         d="m 60.330485,56.00056 6.00466,6.00466 1.446355,-1.446355 -6.00466,-6.00466 z"
         id="path18"
         inkscape:connector-curvature="0" />
    </g>
    <path
       d="m 39.54331,13.930161 v 15.319862 c 0,0.552285 0.447715,1 1,1 h 8.858235 v 0 h 10.495606 8.646159 c 0.552285,0 1,-0.447715 1,-1 V 13.930161 c 0,-0.300424 -0.135066,-0.584931 -0.367848,-0.774845 l -14,-11.4218137 c -0.367972,-0.3002075 -0.896332,-0.3002075 -1.264304,0 l -14,11.4218137 c -0.232782,0.189914 -0.367848,0.474421 -0.367848,0.774845 z"
       id="Rectangle"
       inkscape:connector-curvature="0"
       style="fill:none;fill-rule:evenodd;stroke:currentColor;stroke-width:1.5" />
  </g>
</svg>
