<?xml version="1.0" encoding="UTF-8"?>
<svg width="42px" height="42px" viewBox="0 0 42 42" version="1.1" xmlns="http://www.w3.org/2000/svg" xmlns:xlink="http://www.w3.org/1999/xlink">
    <desc>Created with Sketch.</desc>
    <g id="Page-1" stroke="none" stroke-width="1" fill="none" fill-rule="evenodd">
        <g id="Mobile" transform="translate(-39.000000, -1972.000000)" fill="currentColor" fill-rule="nonzero" stroke="#000000" stroke-width="2">
            <g id="Menu-Top_Desktop_Home-Black-Selected-30x30px" transform="translate(40.000000, 1973.000000)">
                <path d="M0,17.5282317 L0,39 C6.76353751e-17,39.5522847 0.44771525,40 1,40 L13.4612434,40 L13.4612434,29.2311179 L13.665208,28.9604337 C15.6824994,26.28326 17.7751006,24.8739284 20,24.8739284 C22.2056046,24.8739284 24.3767646,26.2641726 26.5831051,28.9211095 L26.8181874,29.2042021 L26.8181874,40 L39,40 C39.5522847,40 40,39.5522847 40,39 L40,17.5282317 C40,17.2317177 39.868412,16.9504938 39.640768,16.7604971 L20.640768,0.902684145 C20.269717,0.592996931 19.730283,0.592996931 19.359232,0.902684145 L0.359232023,16.7604971 C0.131587963,16.9504938 -1.31178647e-15,17.2317177 0,17.5282317 Z" id="Home-new-icon"></path>
            </g>
        </g>
    </g>
</svg>