<?xml version="1.0" encoding="UTF-8" standalone="no"?>
<svg
   xmlns:dc="http://purl.org/dc/elements/1.1/"
   xmlns:cc="http://creativecommons.org/ns#"
   xmlns:rdf="http://www.w3.org/1999/02/22-rdf-syntax-ns#"
   xmlns:svg="http://www.w3.org/2000/svg"
   xmlns="http://www.w3.org/2000/svg"
   xmlns:sodipodi="http://sodipodi.sourceforge.net/DTD/sodipodi-0.dtd"
   xmlns:inkscape="http://www.inkscape.org/namespaces/inkscape"
   width="42px"
   height="42px"
   viewBox="0 0 42 42"
   version="1.1"
   id="svg10"
   sodipodi:docname="home.svg"
   inkscape:version="0.92.4 (5da689c313, 2019-01-14)">
   <metadata
      id="metadata16">
      <rdf:RDF>
         <cc:Work
            rdf:about="">
         <dc:format>image/svg+xml</dc:format>
         <dc:type
            rdf:resource="http://purl.org/dc/dcmitype/StillImage" />
         </cc:Work>
      </rdf:RDF>
   </metadata>
   <defs
      id="defs14" />
   <sodipodi:namedview
      pagecolor="#ffffff"
      bordercolor="#666666"
      borderopacity="1"
      objecttolerance="10"
      gridtolerance="10"
      guidetolerance="10"
      inkscape:pageopacity="0"
      inkscape:pageshadow="2"
      inkscape:window-width="1366"
      inkscape:window-height="715"
      id="namedview12"
      showgrid="false"
      inkscape:zoom="5.6190476"
      inkscape:cx="46.360169"
      inkscape:cy="6.7627119"
      inkscape:window-x="0"
      inkscape:window-y="0"
      inkscape:window-maximized="1"
      inkscape:current-layer="svg10" />
   <desc
      id="desc4">Created with Sketch.</desc>
   <path
      fill="currentColor"
      inkscape:connector-curvature="0"
      id="Home-new-icon"
      d="m 21,0.67382812 c -0.456494,0 -0.912701,0.15333865 -1.28125,0.46093748 l -19,15.8574224 C 0.26396746,17.371759 0,17.934974 0,18.527344 V 40 c 0,1.092725 0.90727508,2 2,2 h 11.460938 c 1.092724,0 2,-0.907275 2,-2 v -9.433594 l 0.002,-0.0039 c 1.918775,-2.546432 3.7345,-3.689453 5.537109,-3.689453 1.785389,0 3.704571,1.146721 5.814453,3.6875 l 0.0039,0.0039 V 40 c 0,1.092725 0.907275,2 2,2 H 40 c 1.092725,0 2,-0.907275 2,-2 V 18.527344 c 0,-0.59237 -0.263968,-1.155585 -0.71875,-1.535156 l -19,-15.8574224 C 21.912701,0.82716677 21.456494,0.67382813 21,0.67382812 Z M 21,2.6699219 40,18.527344 V 40 H 28.818359 V 29.84375 L 28.351562,29.283203 C 26.048763,26.510108 23.62582,24.873047 21,24.873047 c -2.64719,0 -5.017006,1.678413 -7.132812,4.486328 l -0.40625,0.537109 V 40 H 2 V 18.527344 Z"
   />
</svg>
