<?xml version="1.0" encoding="UTF-8"?>
<svg width="32px" height="32px" viewBox="0 0 30 30" version="1.1" xmlns="http://www.w3.org/2000/svg" xmlns:xlink="http://www.w3.org/1999/xlink">
    <g id="Page-1" stroke="none" stroke-width="1" fill="none" fill-rule="evenodd">
        <g id="Icons-Layout" transform="translate(-487.000000, -1110.000000)">
            <g id="Import-Icon" transform="translate(487.000000, 1110.000000)">
                <rect id="Rectangle" stroke="#979797" fill="#D8D8D8" opacity="0" x="0.5" y="0.5" width="29" height="29"></rect>
                <g id="noun_Download_2775525" transform="translate(3.000000, 5.000000)" fill="currentColor" fill-rule="nonzero" stroke="currentColor" stroke-width="0.3">
                    <path d="M20.4587261,7.33147162 C20.3662595,3.27315236 17.0059841,0 12.8863022,0 C9.55750471,0 6.64185589,2.13534225 5.66210345,5.24094038 C4.28494139,5.20392259 2.95302894,5.68125731 1.89261415,6.62423691 C0.690548406,7.69580465 0,9.22717236 0,10.828679 L0,12.7613976 C0,13.9966229 1.01516518,15 2.26051316,15 L8.45970981,15 L8.45970981,14.0258475 L2.26248053,14.0258475 C1.5581605,14.0258475 0.985654562,13.4588908 0.985654562,12.7613976 L0.985654562,10.828679 C0.985654562,9.50188336 1.55619313,8.23548513 2.55168456,7.35095467 C3.50389376,6.5014937 4.70005738,6.12157423 5.9729486,6.24042083 C6.2267399,6.27549032 6.44315108,6.11378101 6.50413968,5.8760878 C7.24190507,2.99064814 9.86834986,0.974152487 12.8863022,0.974152487 C16.5200426,0.974152487 19.4770063,3.90245486 19.4770063,7.50097415 C19.4770063,7.54188856 19.4789737,7.58475127 19.4730716,7.62371737 C19.4415936,7.86335888 19.5950488,8.08936225 19.8311337,8.15365632 C21.7080089,8.66995714 23.0182802,10.3825172 23.0182802,12.3210807 L23.0182802,12.7613976 C23.0182802,13.4588908 22.4457742,14.0258475 21.7414542,14.0258475 L15.5422576,14.0258475 L15.5422576,15 L21.7394868,15 C22.9868022,15 24,13.9946746 24,12.7613976 L24,11.8846603 L23.9645873,11.8846603 C23.7914583,9.82140538 22.4241331,8.0270165 20.4587261,7.33147162 Z" id="Path"></path>
                    <path d="M11.4951293,10 L11.4951293,18.4905263 L9.55828015,17.1431579 L9,18.0189474 L11.7208599,19.9115789 C11.8034934,19.9705263 11.9022506,20 11.9989923,20 C12.095734,20 12.1944911,19.9705263 12.2791401,19.9115789 L15,18.0189474 L14.4417199,17.1431579 L12.5048707,18.4905263 L12.5048707,10 L11.4951293,10 Z" id="Path" transform="translate(12.000000, 15.000000) scale(1, -1) translate(-12.000000, -15.000000) "></path>
                </g>
            </g>
        </g>
    </g>
</svg>
