<?xml version="1.0" encoding="UTF-8"?>
<svg width="40px" height="40px" viewBox="0 0 40 40" version="1.1" xmlns="http://www.w3.org/2000/svg" xmlns:xlink="http://www.w3.org/1999/xlink">
    <desc>Created with Sketch.</desc>
    <g id="Page-1" stroke="none" stroke-width="1" fill="none" fill-rule="evenodd">
        <g id="Mobile" transform="translate(-115.000000, -1973.000000)" fill="#000000">
            <path d="M135,2013 C123.954305,2013 115,2004.04569 115,1993 C115,1981.95431 123.954305,1973 135,1973 C146.045695,1973 155,1981.95431 155,1993 C155,2004.04569 146.045695,2013 135,2013 Z M134.678961,1987.32442 C134.126676,1987.32442 133.678961,1987.77214 133.678961,1988.32442 L133.678961,2002.32442 C133.678961,2002.87671 134.126676,2003.32442 134.678961,2003.32442 L135.345627,2003.32442 C135.897912,2003.32442 136.345627,2002.87671 136.345627,2002.32442 L136.345627,1988.32442 C136.345627,1987.77214 135.897912,1987.32442 135.345627,1987.32442 L134.678961,1987.32442 Z M135,1985 C135.73638,1985 136.333333,1984.40305 136.333333,1983.66667 C136.333333,1982.93029 135.73638,1982.33333 135,1982.33333 C134.26362,1982.33333 133.666667,1982.93029 133.666667,1983.66667 C133.666667,1984.40305 134.26362,1985 135,1985 Z" id="Combined-Shape"></path>
        </g>
    </g>
</svg>