<?xml version="1.0" encoding="UTF-8" standalone="no"?>
<svg
   xmlns:dc="http://purl.org/dc/elements/1.1/"
   xmlns:cc="http://creativecommons.org/ns#"
   xmlns:rdf="http://www.w3.org/1999/02/22-rdf-syntax-ns#"
   xmlns:svg="http://www.w3.org/2000/svg"
   xmlns="http://www.w3.org/2000/svg"
   xmlns:sodipodi="http://sodipodi.sourceforge.net/DTD/sodipodi-0.dtd"
   xmlns:inkscape="http://www.inkscape.org/namespaces/inkscape"
   width="42px"
   height="42px"
   viewBox="0 0 42 42"
   version="1.1"
   sodipodi:docname="info-circle.svg"
   inkscape:version="0.92.4 (5da689c313, 2019-01-14)">
  <path
     d="M 21,0 C 9.4138649,0 0,9.4138649 0,21 0,32.586135 9.4138649,42 21,42 32.586135,42 42,32.586135 42,21 42,9.4138649 32.586135,0 21,0 Z m 0,2 C 31.505255,2 40,10.494745 40,21 40,31.505255 31.505255,40 21,40 10.494745,40 2,31.505255 2,21 2,10.494745 10.494745,2 21,2 Z"
     inkscape:connector-curvature="0" />
  <rect
     rx="1"
     height="16"
     width="2.6666667"
     y="15.324421"
     x="19.678961" />
  <circle
     r="1.3333334"
     cy="11.666667"
     cx="21" />
</svg>
