<?xml version="1.0" encoding="UTF-8" standalone="no"?>
<svg
   xmlns="http://www.w3.org/2000/svg"
   viewBox="0 0 7.9374998 7.9375002"
   version="1.1"
>
   <g transform="translate(0,-289.06248)">
      <g transform="matrix(0.52717601,0,0,0.52717601,-17.288698,164.39462)">
         <path d="m 35.542973,236.43945 c -1.514945,0 -2.748047,1.23115 -2.748047,2.7461 v 9.64843 c 0,1.51495 1.233102,2.74805 2.748047,2.74805 h 9.560547 c 1.514945,0 2.748047,-1.2331 2.748047,-2.74805 v -9.64843 c 0,-1.51495 -1.233102,-2.7461 -2.748047,-2.7461 z m 0,0.84375 h 9.560547 c 1.061914,0 1.904296,0.84043 1.904296,1.90235 v 9.64843 c 0,1.06192 -0.842382,1.9043 -1.904296,1.9043 h -9.560547 c -1.061915,0 -1.904297,-0.84238 -1.904297,-1.9043 v -9.64843 c 0,-1.06192 0.842382,-1.90235 1.904297,-1.90235 z" />
         <path d="m 36.947271,243.21094 a 0.682615,0.682615 0 1 0 0,1.36523 h 6.945311 a 0.682615,0.682615 0 1 0 0,-1.36523 z" />
         <path d="m 40.41016,239.73047 a 0.68256831,0.68256831 0 0 0 -0.671875,0.69141 v 6.94531 a 0.68256831,0.68256831 0 1 0 1.363281,0 v -6.94531 a 0.68256831,0.68256831 0 0 0 -0.691406,-0.69141 z" />
      </g>
   </g>
</svg>
