<?xml version="1.0" encoding="UTF-8"?>
<svg width="30px" height="30px" viewBox="0 0 30 30" version="1.1" xmlns="http://www.w3.org/2000/svg" xmlns:xlink="http://www.w3.org/1999/xlink">
    <!-- Generator: Sketch 55.2 (78181) - https://sketchapp.com -->
    <title>Group 18</title>
    <desc>Created with Sketch.</desc>
    <g id="Page-1" stroke="none" stroke-width="1" fill="none" fill-rule="evenodd">
        <g id="Mobile" transform="translate(-490.000000, -696.000000)" fill="#000000" fill-rule="nonzero">
            <g id="Group-18" transform="translate(490.000000, 696.000000)">
                <path d="M28.3321572,20.3952321 C28.9358669,19.6110414 29.2254011,18.770389 29.1884393,17.9046424 C29.1514775,16.9510665 28.7325769,16.2045169 28.3875999,15.7465496 C28.7880196,14.7302384 28.9420272,13.1304893 27.6052415,11.8883312 C26.6257534,10.97867 24.9624716,10.5708908 22.6585184,10.6838143 C21.0383588,10.7590966 19.6830921,11.0664994 19.6276494,11.0790464 L19.6214891,11.0790464 C19.313474,11.1355082 18.9869779,11.2045169 18.6543216,11.2797992 C18.6296804,10.8782936 18.6974437,9.88080301 19.4243594,7.6348808 C20.2868018,4.96235885 20.2375194,2.91718946 19.2641916,1.54956085 C18.2415813,0.112923463 16.6091011,0 16.1285975,0 C15.6665748,0 15.2415139,0.194479297 14.939659,0.552070263 C14.2558654,1.36135508 14.3359494,2.8544542 14.4221936,3.54454203 C13.6090336,5.76537014 11.3297216,11.2107905 9.40154685,12.7227102 C9.36458503,12.7478043 9.33378352,12.7791719 9.302982,12.8105395 C8.73623415,13.4190715 8.35429538,14.0777917 8.09556266,14.6549561 C7.7321048,14.4542033 7.31936452,14.3412798 6.87582272,14.3412798 L3.11803804,14.3412798 C1.7011684,14.3412798 0.555352091,15.5144291 0.555352091,16.9510665 L0.555352091,27.1455458 C0.555352091,28.5884567 1.70732871,29.7553325 3.11803804,29.7553325 L6.87582272,29.7553325 C7.42408966,29.7553325 7.93539479,29.5796738 8.35429538,29.2785445 L9.80196653,29.4542033 C10.0237374,29.4855709 13.9663312,29.9937265 18.0136501,29.9121706 C18.7467261,29.9686324 19.43668,30 20.0773515,30 C21.1800457,30 22.1410529,29.9121706 22.9418923,29.7365119 C24.8269449,29.3287327 26.1144482,28.5131744 26.7674403,27.314931 C27.2664248,26.3989962 27.2664248,25.489335 27.1863409,24.9121706 C28.4122412,23.782936 28.6278517,22.5345044 28.5847296,21.6562108 C28.5600884,21.1480552 28.449203,20.7151819 28.3321572,20.3952321 Z M3.11803804,28.0614806 C2.61905351,28.0614806 2.21863384,27.6474279 2.21863384,27.1455458 L2.21863384,16.944793 C2.21863384,16.4366374 2.62521382,16.0288582 3.11803804,16.0288582 L6.87582272,16.0288582 C7.37480724,16.0288582 7.77522692,16.4429109 7.77522692,16.944793 L7.77522692,27.1392723 C7.77522692,27.6474279 7.36864694,28.055207 6.87582272,28.055207 L3.11803804,28.055207 L3.11803804,28.0614806 Z M26.7551197,19.6612296 C26.496387,19.9372647 26.4471046,20.357591 26.6442343,20.6838143 C26.6442343,20.6900878 26.8968067,21.1292346 26.9276082,21.7314931 C26.9707303,22.553325 26.5826312,23.281054 25.7694713,23.902133 C25.479937,24.1279799 25.3628913,24.5169385 25.4860973,24.868256 C25.4860973,24.8745295 25.7509904,25.7026349 25.3197692,26.4868256 C24.9070289,27.2396487 23.9891438,27.7791719 22.5969154,28.0803011 C21.4819006,28.3249686 19.9664661,28.3688833 18.1060546,28.2183187 C18.0814134,28.2183187 18.0506119,28.2183187 18.0198104,28.2183187 C14.0587357,28.3061481 10.0545389,27.7791719 10.0114168,27.7728984 L10.0052565,27.7728984 L9.38306594,27.6976161 C9.42002776,27.5219573 9.43850866,27.3337516 9.43850866,27.1455458 L9.43850866,16.944793 C9.43850866,16.6750314 9.39538655,16.4115433 9.32146291,16.1668758 C9.43234836,15.7465496 9.7403635,14.8117942 10.4672792,14.0150565 C13.2332552,11.7816813 15.9376281,4.24717691 16.0546738,3.92095358 C16.1039562,3.78920954 16.1162769,3.64491844 16.0916356,3.50062735 C15.9869105,2.79799247 16.0238723,1.93851945 16.1717196,1.68130489 C16.4982156,1.68757842 17.3791389,1.7816813 17.908925,2.52823087 C18.5372758,3.41279799 18.5126346,4.99372647 17.8350013,7.08908407 C16.8000705,10.2823087 16.7138262,11.9636136 17.5331465,12.7038896 C17.9397265,13.0740276 18.4818331,13.0928482 18.8760925,12.9485571 C19.251871,12.8607277 19.6091685,12.7854454 19.9479852,12.7289837 C19.9726264,12.7227102 20.0034279,12.7164366 20.0280691,12.7101631 C21.919282,12.2898369 25.3074486,12.0326223 26.4840664,13.1242158 C27.4820354,14.0526976 26.7736006,15.2823087 26.6935167,15.4140527 C26.4655855,15.7653701 26.5333488,16.2233375 26.8413639,16.5056462 C26.8475243,16.5119197 27.494356,17.1329987 27.5251576,17.9673777 C27.5497988,18.5257215 27.2910661,19.0966123 26.7551197,19.6612296 Z" id="Combined-Shape"></path>
            </g>
        </g>
    </g>
</svg>