<svg xmlns="http://www.w3.org/2000/svg" xmlns:xlink="http://www.w3.org/1999/xlink" aria-hidden="true" focusable="false" role="img" class="iconify iconify--uil" width="1em" height="1em" preserveAspectRatio="xMidYMid meet" viewBox="0 0 24 24" style="transform: rotate(360deg);"><path d="M17 9V7A5 5 0 0 0 7 7v2a3 3 0 0 0-3 3v7a3 3 0 0 0 3 3h10a3 3 0 0 0 3-3v-7a3 3 0 0 0-3-3zM9 7a3 3 0 0 1 6 0v2H9zm9 12a1 1 0 0 1-1 1H7a1 1 0 0 1-1-1v-7a1 1 0 0 1 1-1h10a1 1 0 0 1 1 1z" fill="currentColor"></path></svg>