<?xml version="1.0" encoding="UTF-8" standalone="no"?>
<svg
   xmlns:dc="http://purl.org/dc/elements/1.1/"
   xmlns:cc="http://creativecommons.org/ns#"
   xmlns:rdf="http://www.w3.org/1999/02/22-rdf-syntax-ns#"
   xmlns:svg="http://www.w3.org/2000/svg"
   xmlns="http://www.w3.org/2000/svg"
   xmlns:sodipodi="http://sodipodi.sourceforge.net/DTD/sodipodi-0.dtd"
   xmlns:inkscape="http://www.inkscape.org/namespaces/inkscape"
   width="30px"
   height="30px"
   viewBox="0 0 30 30"
   version="1.1"
   id="svg12"
   sodipodi:docname="mask.svg"
   inkscape:version="0.92.4 (5da689c313, 2019-01-14)">
  <metadata
     id="metadata18">
    <rdf:RDF>
      <cc:Work
         rdf:about="">
        <dc:format>image/svg+xml</dc:format>
        <dc:type
           rdf:resource="http://purl.org/dc/dcmitype/StillImage" />
      </cc:Work>
    </rdf:RDF>
  </metadata>
  <defs
     id="defs16" />
  <sodipodi:namedview
     pagecolor="#ffffff"
     bordercolor="#666666"
     borderopacity="1"
     objecttolerance="10"
     gridtolerance="10"
     guidetolerance="10"
     inkscape:pageopacity="0"
     inkscape:pageshadow="2"
     inkscape:window-width="1920"
     inkscape:window-height="1023"
     id="namedview14"
     showgrid="false"
     inkscape:zoom="7.8666666"
     inkscape:cx="-20.481909"
     inkscape:cy="-6.4965106"
     inkscape:window-x="0"
     inkscape:window-y="0"
     inkscape:window-maximized="1"
     inkscape:current-layer="svg12" />
  <!-- Generator: Sketch 55.2 (78181) - https://sketchapp.com -->
  <title
     id="title2">Group-23</title>
  <desc
     id="desc4">Created with Sketch.</desc>
  <path
     inkscape:connector-curvature="0"
     id="path847"
     d="m 20.385363,28.963168 c -2.0646,-0.15149 -3.8447,-0.88866 -5.3577,-2.21872 -0.9433,-0.82916 -1.8436,-2.0847 -2.2638,-3.15677 -0.1474,-0.37613 -0.154,-0.36408 0.2753,-0.49892 0.404,-0.12687 1.5398,-0.70188 2.0437,-1.03464 0.9847,-0.65031 1.7472,-1.31664 2.4139,-2.10947 1.3138,-1.56231 2.1408,-3.32936 2.5098,-5.36235 0.079,-0.43422 0.1007,-1.01533 0.1266,-3.36928 l 0.031,-2.8445703 3.6455,-0.015 c 3.8929,-0.0161 4.2211,9.4e-4 4.6949,0.24348 0.3676,0.18819 0.8002,0.61795 0.9806,0.9744 0.2641,0.5215903 0.2714,0.7081003 0.2456,6.3195603 -0.026,5.59833 -0.021,5.49854 -0.3113,6.56654 -0.8323,3.06202 -3.229,5.43277 -6.3002,6.23202 -0.823,0.21416 -1.9748,0.32949 -2.7341,0.27377 z m 4.5016,-6.01392 c 0,-0.20086 -0.2426,-0.86515 -0.4495,-1.23102 -0.3726,-0.65872 -1.1474,-1.27096 -1.9808,-1.56513 -0.3248,-0.11464 -0.4565,-0.12673 -1.3809,-0.12673 -0.9244,0 -1.0561,0.0121 -1.3808,0.12673 -0.8352,0.29477 -1.5966,0.89707 -1.9788,1.56513 -0.2076,0.3629 -0.4516,1.02791 -0.4516,1.23102 v 0.13912 h 3.8112 3.8112 z m 0.2971,-6.73814 c 0.8134,-0.21185 1.4516,-0.90811 1.5605,-1.70233 l 0.035,-0.25788 h -2.1892 -2.1893 v 0.19125 c 0,0.50534 0.4868,1.23797 1.0366,1.56018 0.4777,0.27995 1.1598,0.36151 1.7461,0.20878 z m -17.5888,5.27294 c -3.7239,-0.64887 -6.61499997,-3.60413 -7.23819997,-7.39885 -0.093,-0.56373 -0.1383,-10.6050403 -0.051,-11.1785003 0.1177,-0.77219 0.5646,-1.37931 1.25669997,-1.70713 l 0.3742,-0.17727 h 7.1805 7.1804 l 0.3178,0.14893 c 0.5742,0.26913 1.1095,0.87968 1.2595,1.43657 0.04,0.15028 0.058,1.92593 0.054,5.59631 0,5.0435703 -0.012,5.4165903 -0.1123,6.0290903 -0.6062,3.69678 -3.5607,6.64794 -7.2634,7.25513 -0.863,0.14152 -2.1321,0.13968 -2.9584,-0.004 z m 2.5994,-4.19734 c 0.7288,-0.11466 1.4552,-0.49603 1.9749,-1.03691 0.4414,-0.4594 0.8304,-1.20265 0.9233,-1.76416 l 0.039,-0.23474 h -3.8474 c -3.6378,0 -3.8458,0.005 -3.8197,0.0967 0.015,0.0532 0.067,0.25737 0.1161,0.45379 0.2935,1.1845 1.5007,2.27296 2.7524,2.48181 0.4084,0.0681 1.4384,0.0701 1.8615,0.004 z m -2.6141,-9.2284003 c -0.099,-0.83629 -0.8602,-1.55556 -1.82,-1.71997 -1.153,-0.1975 -2.3547,0.63733 -2.5048,1.74013 l -0.036,0.26237 h 2.197 2.1969 z m 7.3968,0.0478 c -0.058,-0.37022 -0.3257,-0.87396 -0.6171,-1.16144 -0.8518,-0.84051 -2.2874,-0.84051 -3.1393,0 -0.2914,0.28748 -0.559,0.79122 -0.617,1.16144 l -0.037,0.23475 h 2.2235 2.2235 z"
     style="fill:#ffffff;stroke:#000000;stroke-width:0.8;stroke-miterlimit:4;stroke-dasharray:none" />
</svg>
