<?xml version="1.0" encoding="UTF-8" standalone="no"?>
<svg
   xmlns:dc="http://purl.org/dc/elements/1.1/"
   xmlns:cc="http://creativecommons.org/ns#"
   xmlns:rdf="http://www.w3.org/1999/02/22-rdf-syntax-ns#"
   xmlns:svg="http://www.w3.org/2000/svg"
   xmlns="http://www.w3.org/2000/svg"
   xmlns:sodipodi="http://sodipodi.sourceforge.net/DTD/sodipodi-0.dtd"
   xmlns:inkscape="http://www.inkscape.org/namespaces/inkscape"
   width="43px"
   height="42px"
   viewBox="0 0 43 42"
   version="1.1"
   id="svg15"
   sodipodi:docname="messages.svg"
   inkscape:version="0.92.4 (5da689c313, 2019-01-14)">
  <metadata
     id="metadata21">
    <rdf:RDF>
      <cc:Work
         rdf:about="">
        <dc:format>image/svg+xml</dc:format>
        <dc:type
           rdf:resource="http://purl.org/dc/dcmitype/StillImage" />
      </cc:Work>
    </rdf:RDF>
  </metadata>
  <defs
     id="defs19" />
  <sodipodi:namedview
     pagecolor="#ffffff"
     bordercolor="#666666"
     borderopacity="1"
     objecttolerance="10"
     gridtolerance="10"
     guidetolerance="10"
     inkscape:pageopacity="0"
     inkscape:pageshadow="2"
     inkscape:window-width="1366"
     inkscape:window-height="715"
     id="namedview17"
     showgrid="false"
     inkscape:zoom="5.6190476"
     inkscape:cx="18.385593"
     inkscape:cy="21"
     inkscape:window-x="0"
     inkscape:window-y="0"
     inkscape:window-maximized="1"
     inkscape:current-layer="svg15" />
  <!-- Generator: Sketch 55.2 (78181) - https://sketchapp.com -->
  <desc
     id="desc4">Created with Sketch.</desc>
  <path
     d="M 10.289062,0 C 6.5204789,0 3.5410156,3.3363945 3.5410156,7.3164062 V 8.9824219 L 0.8125,12.474609 1.1171875,13.048828 3.5410156,17.613281 V 34.683594 C 3.5410156,38.663606 6.5204789,42 10.289062,42 H 36.251953 C 40.020536,42 43,38.663606 43,34.683594 V 7.3164062 C 43,3.3363944 40.020536,0 36.251953,0 Z m 0,2 H 36.251953 C 38.83299,2 41,4.3201897 41,7.3164062 V 34.683594 C 41,37.679811 38.83299,40 36.251953,40 H 10.289062 C 7.7080249,40 5.5410156,37.679811 5.5410156,34.683594 V 17.115234 L 3.1875,12.683594 5.5410156,9.671875 V 7.3164062 C 5.5410156,4.3201896 7.7080249,2 10.289062,2 Z"
     id="Rectangle"
     inkscape:connector-curvature="0" />
  <polygon
     style="fill-rule:nonzero;stroke:none;stroke-width:1"
     points="32.930239,13.684211 10.628881,13.684211 10.628881,11.578947 32.930239,11.578947 "
     id="Path"
     transform="translate(2,1)" />
  <polygon
     style="fill-rule:nonzero;stroke:none;stroke-width:1"
     points="32.930239,20.995467 10.628881,20.995467 10.628881,18.890204 32.930239,18.890204 "
     id="polygon8"
     transform="translate(2,1)" />
  <polygon
     style="fill-rule:nonzero;stroke:none;stroke-width:1"
     points="32.930239,28.306723 10.628881,28.306723 10.628881,26.20146 32.930239,26.20146 "
     id="polygon10"
     transform="translate(2,1)" />
</svg>
