<?xml version="1.0" encoding="UTF-8"?>
<svg width="40px" height="40px" viewBox="0 0 40 40" version="1.1" xmlns="http://www.w3.org/2000/svg" xmlns:xlink="http://www.w3.org/1999/xlink">
    <desc>Created with Sketch.</desc>
    <g id="Page-1" stroke="none" stroke-width="1" fill="currentColor" fill-rule="evenodd">
        <g id="Mobile" transform="translate(-265.000000, -1973.000000)">
            <g id="Messages-Icon-Dekstop-No-Selected-40x40-Copy-4" transform="translate(265.000000, 1973.000000)">
                <path d="M1.0658141e-14,11.5789474 L2.54052897,8.327553 L2.54052897,6.31578947 C2.54052897,2.82767526 5.11422142,0 8.28903195,0 L34.251497,0 C37.4263075,0 40,2.82767526 40,6.31578947 L40,33.6842105 C40,37.1723247 37.4263075,40 34.251497,40 L8.28903195,40 C5.11422142,40 2.54052897,37.1723247 2.54052897,33.6842105 L2.54052897,16.3636642 L1.0658141e-14,11.5789474 Z M10.6288812,11.5789474 L10.6288812,13.6842105 L32.9302392,13.6842105 L32.9302392,11.5789474 L10.6288812,11.5789474 Z M10.6288812,18.8902037 L10.6288812,20.9954668 L32.9302392,20.9954668 L32.9302392,18.8902037 L10.6288812,18.8902037 Z M10.6288812,26.2014601 L10.6288812,28.3067233 L32.9302392,28.3067233 L32.9302392,26.2014601 L10.6288812,26.2014601 Z" id="Combined-Shape"></path>
            </g>
        </g>
    </g>
</svg>