<?xml version="1.0" encoding="UTF-8"?>
<svg width="28px" height="32px" viewBox="0 0 28 32" version="1.1" xmlns="http://www.w3.org/2000/svg" xmlns:xlink="http://www.w3.org/1999/xlink">
    <title>click</title>
    <g id="Page-1" stroke="none" stroke-width="1" fill="none" fill-rule="evenodd">
        <g id="buss7" transform="translate(-1751.000000, -393.000000)" stroke="#000000">
            <g id="Group-10" transform="translate(1371.000000, 225.000000)">
                <g id="click" transform="translate(381.000000, 169.000000)">
                    <g id="Group" fill="#000000" fill-rule="nonzero">
                        <path d="M10.6644141,6.25001953 C10.3192383,6.25001953 10.0393945,5.97017578 10.0393945,5.625 L10.0393945,0.625019531 C10.0394531,0.27984375 10.3192383,0 10.6644141,0 C11.0095898,0 11.2894336,0.27984375 11.2894336,0.625019531 L11.2894336,5.625 C11.2894336,5.97017578 11.0095898,6.25001953 10.6644141,6.25001953 Z" id="Path"></path>
                        <path d="M5.66443359,11.25 L0.664453125,11.25 C0.319277344,11.25 0.0394335938,10.9701563 0.0394335938,10.6249805 C0.0394335938,10.2798047 0.319277344,9.99996094 0.664453125,9.99996094 L5.66443359,9.99996094 C6.00960938,9.99996094 6.28945313,10.2798047 6.28945313,10.6249805 C6.28945313,10.9701563 6.00960938,11.25 5.66443359,11.25 Z" id="Path"></path>
                        <path d="M20.6644336,11.25 L15.6644531,11.25 C15.3192773,11.25 15.0394336,10.9701563 15.0394336,10.6249805 C15.0394336,10.2798047 15.3192773,9.99996094 15.6644531,9.99996094 L20.6644336,9.99996094 C21.0096094,9.99996094 21.2894531,10.2798047 21.2894531,10.6249805 C21.2894531,10.9701563 21.0096094,11.25 20.6644336,11.25 Z" id="Path"></path>
                        <path d="M7.12945313,7.71498047 C6.96357422,7.71527344 6.804375,7.64964844 6.68695313,7.53246094 L3.15070313,4.00001953 C2.90525391,3.75457031 2.90525391,3.35671875 3.15070313,3.11126953 C3.39615234,2.86582031 3.79400391,2.86582031 4.03945313,3.11126953 L7.57072266,6.64751953 C7.81511719,6.89126953 7.81558594,7.28701172 7.57183594,7.53140625 C7.45429688,7.64923828 7.29462891,7.71533203 7.12822266,7.71504003 L7.12945313,7.71504003 L7.12945313,7.71498047 Z" id="Path"></path>
                        <path d="M3.59320313,18.3212881 C3.24802734,18.3219141 2.96771484,18.0425391 2.96706934,17.6973633 C2.96677734,17.530957 3.03287109,17.3712891 3.15070313,17.25375 L6.68695313,13.7175 C6.93521484,13.4777344 7.33089844,13.4845898 7.57072266,13.7328516 C7.80462891,13.9750781 7.80462891,14.359043 7.57072266,14.6012109 L4.03945313,18.1386914 C3.92109375,18.2568164 3.76037109,18.3225586 3.59320313,18.3212881 Z" id="Path"></path>
                        <path d="M14.1994336,7.71498158 C13.8542578,7.715625 13.5739453,7.43625 13.5732998,7.09107422 C13.5730078,6.92466797 13.6391016,6.765 13.7569336,6.64746094 L17.2894336,3.11121094 C17.5376953,2.87138672 17.9333789,2.87830078 18.1732031,3.1265625 C18.4071094,3.36878906 18.4071094,3.75275391 18.1732031,3.99492188 L14.6419336,7.53117188 C14.5246875,7.64882813 14.3654883,7.71498158 14.1994336,7.71498158 Z" id="Path"></path>
                    </g>
                    <path d="M10.0393945,28.5884069 L10.0393945,11.25 C9.89904297,9.92574405 10.3157227,9.71740421 11.2894336,10.6249805 C12.2631445,11.5325567 16.8462306,15.2823224 25.0386919,21.8742773 C25.0363322,22.4447094 24.6661473,22.7299254 23.9281373,22.7299254 C23.1901273,22.7299254 20.5344036,22.7299254 15.9609663,22.7299254 L11.8910324,28.3352474 C10.6566074,29.958603 10.0393948,30.1816299 10.0393945,29.0043283 C10.0393943,27.8270266 10.0393943,27.6883861 10.0393945,28.5884069 Z" id="Path-13" stroke-width="2"></path>
                </g>
            </g>
        </g>
    </g>
</svg>