<?xml version="1.0" ?><!DOCTYPE svg  PUBLIC '-//W3C//DTD SVG 1.0//EN'  'http://www.w3.org/TR/2001/REC-SVG-20010904/DTD/svg10.dtd'><svg height="64px" style="shape-rendering:geometricPrecision; text-rendering:geometricPrecision; image-rendering:optimizeQuality; fill-rule:evenodd; clip-rule:evenodd" version="1.0" viewBox="0 0 640 640" width="64px" xml:space="preserve" xmlns="http://www.w3.org/2000/svg" xmlns:xlink="http://www.w3.org/1999/xlink"><defs><style type="text/css">
   <![CDATA[
    .fil0 {fill:none}
    .fil1 {fill:black;fill-rule:nonzero}
   ]]>
  </style></defs><g id="Layer_x0020_1"><rect class="fil0" height="640" width="640"/><path class="fil1" d="M236 35c49,0 96,13 134,37 39,24 69,59 86,100l6 15 -15 0 -213 0 0 322 -21 0 0 -322 -188 0 -16 0 6 -15c17,-41 47,-76 87,-100 38,-24 84,-37 134,-37zm123 55c-35,-22 -78,-35 -123,-35 -46,0 -89,13 -123,35 -31,19 -56,45 -72,76l389 0c-16,-31 -40,-57 -71,-76z"/><path class="fil1" d="M281 396l267 0 9 0 2 8 30 122 3 13 -13 0 -16 0 0 33 -20 0 0 -33 -269 0 0 33 -20 0 0 -33 -8 0 -14 0 4 -14 35 -122 3 -7 7 0zm-13 92l290 0 -2 -10 -284 0 -4 10zm295 21l-301 0 -2 9 306 0 -3 -9zm-285 -52l272 0 -2 -11 -267 0 -3 11zm9 -32l256 0 -3 -8 -251 0 -2 8z"/><path class="fil1" d="M298 311l233 0 9 0 1 9 18 84 2 13 -13 0 -267 0 -12 0 2 -13 17 -84 2 -9 8 0zm8 27l218 0 -1 -6 -216 0 -1 6zm222 21l-226 0 -2 6 230 0 -2 -6zm6 27l-238 0 -2 10 242 0 -2 -10z"/></g></svg>