<?xml version="1.0" encoding="UTF-8" standalone="no"?>
<svg xmlns:svg="http://www.w3.org/2000/svg" xmlns="http://www.w3.org/2000/svg" width="31px" height="32px" viewBox="0 0 31 32" version="1.1">
   <defs xmlns="http://www.w3.org/2000/svg">
      <clipPath clipPathUnits="userSpaceOnUse" id="clipPath934">
         <path d="m 639,3872 h 4 c 1.6569,0 3,-1.343 3,-3 v -46 c 0,-1.657 -1.3431,-3 -3,-3 h -4 c -1.6569,0 -3,1.343 -3,3 v 46 c 0,1.657 1.3431,3 3,3 z" style="clip-rule:evenodd"/>
      </clipPath>
      <clipPath clipPathUnits="userSpaceOnUse" id="clipPath940">
         <path d="M 0,0 H 1114 V 6096 H 0 Z"/>
      </clipPath>
      <clipPath clipPathUnits="userSpaceOnUse" id="clipPath918">
         <path d="m 617,3872 h 4 c 1.6569,0 3,-1.343 3,-3 v -46 c 0,-1.657 -1.3431,-3 -3,-3 h -4 c -1.6569,0 -3,1.343 -3,3 v 46 c 0,1.657 1.3431,3 3,3 z" style="clip-rule:evenodd"/>
      </clipPath>
      <clipPath clipPathUnits="userSpaceOnUse" id="clipPath924">
         <path d="M 0,0 H 1114 V 6096 H 0 Z"/>
      </clipPath>
   </defs>
   <g transform="matrix(1.0805678,0,0,1.0805678,-2.5949339,-1.2798558)">
      <g transform="matrix(0.56638415,0,0,-0.56638415,-340.07625,2194.3049)">
         <g clip-path="url(#clipPath918)">
            <g clip-path="url(#clipPath924)">
               <path style="fill:currentColor;fill-opacity:1;fill-rule:nonzero;stroke:none" d="m 604,3882 h 30 v -72 h -30 z" />
            </g>
         </g>
      </g>
      <g transform="matrix(0.56638415,0,0,-0.56638415,-340.07625,2194.3049)">
         <g clip-path="url(#clipPath934)">
            <g clip-path="url(#clipPath940)">
               <path style="fill:currentColor;fill-opacity:1;fill-rule:nonzero;stroke:none" d="m 626,3882 h 30 v -72 h -30 z" />
            </g>
         </g>
      </g>
   </g>
</svg>
