<?xml version="1.0" encoding="UTF-8"?>
<svg width="30px" height="30px" viewBox="0 0 30 30" version="1.1" xmlns="http://www.w3.org/2000/svg" xmlns:xlink="http://www.w3.org/1999/xlink">
    <title>Group 34</title>
    <g id="Page-1" stroke="none" stroke-width="1" fill="none" fill-rule="evenodd">
        <g id="Icons-Layout" transform="translate(-105.000000, -348.000000)">
            <g id="Group-34" transform="translate(105.000000, 348.000000)">
                <rect id="Rectangle" stroke="#979797" fill="#D8D8D8" opacity="0" x="0.5" y="0.5" width="29" height="29"></rect>
                <g id="Group-33" transform="translate(2.400000, 1.200000)">
                    <g id="iconfinder__hr1" transform="translate(0.000000, 16.090909)" fill="#000000" fill-rule="nonzero">
                        <g id="Group">
                            <path d="M4.095,9.89672727 L1.05,9.89672727 C0.735,9.89672727 0.525,9.69054545 0.525,9.38127273 L0.525,1.23709091 C0.525,0.927818182 0.735,0.721636364 1.05,0.721636364 L4.095,0.721636364 C4.62,0.721636364 4.935,1.134 4.935,1.54636364 L4.935,8.96890909 C5.04,9.48436364 4.62,9.89672727 4.095,9.89672727 Z M1.575,8.86581818 L3.99,8.86581818 L3.99,1.75254545 L1.575,1.75254545 L1.575,8.86581818 Z" id="Shape"></path>
                            <path d="M14.49,9.99981818 L14.49,9.99981818 C13.02,9.99981818 9.975,9.69054545 7.56,9.38127273 C6.195,9.27818182 5.04,9.072 4.41,9.072 C4.095,9.072 3.885,8.86581818 3.885,8.55654545 L3.885,2.268 C3.885,2.06181818 3.99,1.85563636 4.2,1.75254545 C4.935,1.54636364 6.3,1.134 7.77,1.134 C8.505,1.134 9.135,1.23709091 9.765,1.34018182 C11.76,1.85563636 13.755,1.95872727 14.805,1.95872727 C15.435,1.95872727 16.065,1.95872727 16.485,1.85563636 C17.325,1.75254545 18.06,2.06181818 18.375,2.68036364 C18.585,2.98963636 18.585,3.29890909 18.585,3.71127273 C19.53,3.29890909 20.895,2.78345455 21.63,2.37109091 C22.05,2.16490909 22.47,1.95872727 22.89,1.95872727 C23.835,1.95872727 24.465,2.57727273 24.57,3.19581818 C24.78,4.12363636 24.36,4.84527273 23.205,5.46381818 C22.995,5.56690909 22.575,5.87618182 21.945,6.18545455 C19.215,7.938 16.38,9.69054545 15.015,9.89672727 C15.015,9.99981818 14.805,9.99981818 14.49,9.99981818 Z M5.04,8.04109091 C5.67,8.14418182 6.615,8.24727273 7.77,8.35036364 C10.185,8.65963636 13.125,8.96890909 14.595,8.96890909 C14.595,8.96890909 14.595,8.96890909 14.595,8.96890909 C14.805,8.96890909 15.015,8.96890909 15.12,8.96890909 C16.38,8.76272727 19.845,6.49472727 21.525,5.46381818 C22.05,5.05145455 22.575,4.84527273 22.785,4.63909091 C23.73,4.12363636 23.625,3.71127273 23.625,3.50509091 C23.625,3.402 23.415,3.09272727 22.995,3.09272727 C22.785,3.09272727 22.575,3.19581818 22.26,3.29890909 C21,4.02054545 18.165,5.05145455 18.06,5.15454545 C17.85,5.25763636 17.64,5.15454545 17.43,4.94836364 C17.325,4.74218182 17.22,4.536 17.43,4.32981818 C17.64,3.91745455 17.745,3.50509091 17.535,3.29890909 C17.43,3.09272727 17.115,2.98963636 16.695,2.98963636 C16.17,3.09272727 15.54,3.09272727 14.91,3.09272727 C13.65,3.09272727 11.655,2.98963636 9.555,2.47418182 C9.03,2.37109091 8.505,2.268 7.875,2.268 C6.72,2.268 5.67,2.47418182 4.935,2.68036364 L4.935,8.04109091 L5.04,8.04109091 Z" id="Shape"></path>
                            <path d="M12.18,6.39163636 C12.18,6.39163636 12.075,6.39163636 12.075,6.39163636 C11.76,6.28854545 11.655,6.08236364 11.76,5.77309091 C11.97,5.15454545 12.39,5.05145455 15.225,4.84527273 C17.325,4.63909091 17.64,4.22672727 17.64,4.22672727 C17.64,3.91745455 17.85,3.81436364 18.165,3.81436364 C18.48,3.81436364 18.69,4.12363636 18.69,4.43290909 C18.69,4.84527273 18.27,5.77309091 15.33,5.97927273 C13.86,6.08236364 13.02,6.18545455 12.81,6.28854545 C12.495,6.28854545 12.39,6.39163636 12.18,6.39163636 Z" id="Path"></path>
                        </g>
                    </g>
                    <g id="iconfinder__hr1-copy" transform="translate(12.600000, 9.600000) scale(-1, -1) translate(-12.600000, -9.600000) ">
                        <g id="Group" transform="translate(0.000000, 7.200000)" fill="#000000" fill-rule="nonzero">
                            <path d="M4.095,9.89672727 L1.05,9.89672727 C0.735,9.89672727 0.525,9.69054545 0.525,9.38127273 L0.525,1.23709091 C0.525,0.927818182 0.735,0.721636364 1.05,0.721636364 L4.095,0.721636364 C4.62,0.721636364 4.935,1.134 4.935,1.54636364 L4.935,8.96890909 C5.04,9.48436364 4.62,9.89672727 4.095,9.89672727 Z M1.575,8.86581818 L3.99,8.86581818 L3.99,1.75254545 L1.575,1.75254545 L1.575,8.86581818 Z" id="Shape"></path>
                            <path d="M14.49,9.99981818 C13.02,9.99981818 9.975,9.69054545 7.56,9.38127273 C6.195,9.27818182 5.04,9.072 4.41,9.072 C4.095,9.072 3.885,8.86581818 3.885,8.55654545 L3.885,2.268 C3.885,2.06181818 3.99,1.85563636 4.2,1.75254545 C4.935,1.54636364 6.3,1.134 7.77,1.134 C8.505,1.134 9.135,1.23709091 9.765,1.34018182 C11.76,1.85563636 13.755,1.95872727 14.805,1.95872727 C15.435,1.95872727 16.065,1.95872727 16.485,1.85563636 C17.325,1.75254545 18.06,2.06181818 18.375,2.68036364 C18.585,2.98963636 18.585,3.29890909 18.585,3.71127273 C19.53,3.29890909 20.895,2.78345455 21.63,2.37109091 C22.05,2.16490909 22.47,1.95872727 22.89,1.95872727 C23.835,1.95872727 24.465,2.57727273 24.57,3.19581818 C24.78,4.12363636 24.36,4.84527273 23.205,5.46381818 C22.995,5.56690909 22.575,5.87618182 21.945,6.18545455 C19.215,7.938 16.38,9.69054545 15.015,9.89672727 C15.015,9.99981818 14.805,9.99981818 14.49,9.99981818 Z M5.04,8.04109091 C5.67,8.14418182 6.615,8.24727273 7.77,8.35036364 C10.185,8.65963636 13.125,8.96890909 14.595,8.96890909 C14.595,8.96890909 14.595,8.96890909 14.595,8.96890909 C14.805,8.96890909 15.015,8.96890909 15.12,8.96890909 C16.38,8.76272727 19.845,6.49472727 21.525,5.46381818 C22.05,5.05145455 22.575,4.84527273 22.785,4.63909091 C23.73,4.12363636 23.625,3.71127273 23.625,3.50509091 C23.625,3.402 23.415,3.09272727 22.995,3.09272727 C22.785,3.09272727 22.575,3.19581818 22.26,3.29890909 C21,4.02054545 18.165,5.05145455 18.06,5.15454545 C17.85,5.25763636 17.64,5.15454545 17.43,4.94836364 C17.325,4.74218182 17.22,4.536 17.43,4.32981818 C17.64,3.91745455 17.745,3.50509091 17.535,3.29890909 C17.43,3.09272727 17.115,2.98963636 16.695,2.98963636 C16.17,3.09272727 15.54,3.09272727 14.91,3.09272727 C13.65,3.09272727 11.655,2.98963636 9.555,2.47418182 C9.03,2.37109091 8.505,2.268 7.875,2.268 C6.72,2.268 5.67,2.47418182 4.935,2.68036364 L4.935,8.04109091 L5.04,8.04109091 Z" id="Shape"></path>
                            <path d="M12.18,6.39163636 C12.18,6.39163636 12.075,6.39163636 12.075,6.39163636 C11.76,6.28854545 11.655,6.08236364 11.76,5.77309091 C11.97,5.15454545 12.39,5.05145455 15.225,4.84527273 C17.325,4.63909091 17.64,4.22672727 17.64,4.22672727 C17.64,3.91745455 17.85,3.81436364 18.165,3.81436364 C18.48,3.81436364 18.69,4.12363636 18.69,4.43290909 C18.69,4.84527273 18.27,5.77309091 15.33,5.97927273 C13.86,6.08236364 13.02,6.18545455 12.81,6.28854545 C12.495,6.28854545 12.39,6.39163636 12.18,6.39163636 Z" id="Path"></path>
                        </g>
                        <g id="Group-32" transform="translate(15.463948, 7.136620) rotate(35.000000) translate(-15.463948, -7.136620) translate(8.263948, 3.536620)" stroke="#000000">
                            <path d="M6.94164706,5.29411765 L6.94164706,4.94258824 C6.76376471,4.92141176 6.61976471,4.87905882 6.50964706,4.824 C6.39952941,4.76894118 6.30211765,4.67576471 6.22164706,4.54870588 C6.14117647,4.42164706 6.09458824,4.26917647 6.08188235,4.08282353 L6.43764706,4.01505882 C6.46305882,4.20564706 6.51388235,4.34541176 6.58164706,4.43435294 C6.67905882,4.56141176 6.80188235,4.62917647 6.93741176,4.64611765 L6.93741176,3.51952941 C6.79341176,3.49411765 6.64517647,3.43482353 6.49270588,3.35011765 C6.37835294,3.28658824 6.29364706,3.20188235 6.23435294,3.08752941 C6.17505882,2.97741176 6.14117647,2.85035294 6.14117647,2.71058824 C6.14117647,2.46070588 6.23011765,2.25741176 6.408,2.10070588 C6.52658824,1.99482353 6.70447059,1.93129412 6.93741176,1.91011765 L6.93741176,1.74070588 L7.14494118,1.74070588 L7.14494118,1.91011765 C7.34823529,1.93129412 7.51341176,1.99058824 7.632,2.09223529 C7.78447059,2.21929412 7.87764706,2.39717647 7.91152941,2.61741176 L7.54729412,2.67247059 C7.52611765,2.53270588 7.48376471,2.42682353 7.416,2.35482353 C7.34823529,2.28282353 7.25929412,2.232 7.14494118,2.21082353 L7.14494118,3.22729412 C7.32282353,3.26964706 7.44141176,3.30776471 7.49647059,3.33317647 C7.60658824,3.37976471 7.69552941,3.43905882 7.76329412,3.51105882 C7.83105882,3.57882353 7.88611765,3.66352941 7.92423529,3.75670588 C7.96235294,3.85411765 7.97929412,3.95576471 7.97929412,4.06588235 C7.97929412,4.31152941 7.90305882,4.51482353 7.74635294,4.67576471 C7.58964706,4.84094118 7.39058824,4.92564706 7.14070588,4.93835294 L7.14070588,5.29411765 L6.94164706,5.29411765 L6.94164706,5.29411765 Z M6.94164706,2.20658824 C6.80611765,2.22776471 6.696,2.28282353 6.61552941,2.37176471 C6.53505882,2.46070588 6.49694118,2.56658824 6.49694118,2.68517647 C6.49694118,2.80376471 6.53082353,2.90541176 6.59858824,2.98588235 C6.66635294,3.06635294 6.78070588,3.12988235 6.94164706,3.18070588 L6.94164706,2.20658824 L6.94164706,2.20658824 Z M7.14917647,4.64611765 C7.28470588,4.62917647 7.39905882,4.56988235 7.488,4.46823529 C7.57694118,4.36658824 7.62352941,4.23952941 7.62352941,4.09129412 C7.62352941,3.96423529 7.59388235,3.85835294 7.53035294,3.78211765 C7.46682353,3.70588235 7.33976471,3.63388235 7.14917647,3.57458824 L7.14917647,4.64611765 L7.14917647,4.64611765 Z" id="Shape" stroke-width="0.2" fill="#000000" fill-rule="nonzero"></path>
                            <path d="M11.8108721,6.12511333 C11.7224241,5.10444889 11.3650857,4.59411667 10.7388567,4.59411667 C9.43558723,4.59411667 7.75748007,6.90096078 6.9332201,6.90096078 C5.51486716,6.90096078 3.42120556,6.94699346 0.652235294,7.03905882 C0.292235294,7.03905882 -8.31335001e-13,6.74682353 -8.31335001e-13,6.38682353 L-8.31335001e-13,0.652235294 C0.226513528,0.29809359 0.33877422,0.219487807 0.652235294,-2.50032299e-08 L13.4174118,-2.50032299e-08 C13.7774118,-2.50032299e-08 14.0697218,0.292235294 14.0697218,0.652235294 L13.5190765,3.16313027 C13.5190765,3.52313027 12.1708721,6.12511333 11.8108721,6.12511333 Z" id="Path" stroke-width="0.7" stroke-linecap="round" stroke-linejoin="round"></path>
                            <circle id="Oval" stroke-width="0.7" stroke-linecap="round" stroke-linejoin="round" cx="7.03482353" cy="3.51952941" r="2.57929412"></circle>
                        </g>
                    </g>
                </g>
            </g>
        </g>
    </g>
</svg>