<?xml version="1.0" ?><svg enable-background="new 0 0 64 64" id="Layer_1" version="1.1" viewBox="0 0 64 64" xml:space="preserve" xmlns="http://www.w3.org/2000/svg" xmlns:xlink="http://www.w3.org/1999/xlink"><g><path d="M62.467,17.274l-0.219-0.772l-0.659-0.675l-5.596-0.269c-0.968,0-1.76,0.788-1.768,1.757   c-0.005,0.975,0.783,1.773,1.756,1.779l0.805,0.005L35.855,42.644L20.82,28.881c-0.703-0.644-1.78-0.617-2.449,0.059L2.013,45.428   C1.68,45.763,1.498,46.207,1.5,46.68c0.002,0.472,0.187,0.916,0.522,1.247c0.334,0.332,0.776,0.515,1.246,0.515   c0.475,0,0.921-0.185,1.255-0.524l15.162-15.281L34.79,46.464c0.347,0.317,0.815,0.501,1.284,0.461   c0.468-0.024,0.916-0.239,1.231-0.591l21.657-24.361v0.101c0.008,0.968,0.8,1.756,1.78,1.756c0.975-0.005,1.763-0.803,1.757-1.779   L62.467,17.274z M61.847,16.842L61.847,16.842L61.847,16.842L61.847,16.842z M61.133,16.177L61.133,16.177L61.133,16.177   L61.133,16.177z"/><g><path d="M7.968,36.071V25.72c0-0.561,0.457-1.018,1.018-1.018h3.495c0.561,0,1.018,0.457,1.018,1.018v4.776l2.64-2.661V25.72    c0-2.017-1.641-3.658-3.658-3.658H8.986c-2.017,0-3.657,1.641-3.657,3.658v13.012L7.968,36.071z"/><path d="M13.499,42.227v9.05c0,0.561-0.457,1.018-1.018,1.018H8.986c-0.561,0-1.018-0.457-1.018-1.018v-3.475l-1.767,1.781    c-0.261,0.264-0.56,0.472-0.873,0.653v1.041c0,2.017,1.641,3.657,3.657,3.657h3.495c2.017,0,3.658-1.641,3.658-3.657v-11.71    L13.499,42.227z"/></g><g><path d="M22.145,26.935v-5.941c0-0.561,0.457-1.018,1.018-1.018h3.495c0.561,0,1.018,0.457,1.018,1.018v10.96l2.64,2.417V20.994    c0-2.017-1.641-3.658-3.658-3.658h-3.495c-2.017,0-3.657,1.641-3.657,3.658v5.059C20.435,26.026,21.365,26.329,22.145,26.935z"/><path d="M27.677,43.156v8.121c0,0.561-0.457,1.018-1.018,1.018h-3.495c-0.561,0-1.018-0.457-1.018-1.018V38.092l-2.381-2.18    l-0.258,0.26v15.104c0,2.017,1.641,3.657,3.657,3.657h3.495c2.017,0,3.658-1.641,3.658-3.657v-5.704L27.677,43.156z"/></g><g><path d="M35.682,39.283l0.641-0.721V17.45c0-0.561,0.457-1.018,1.018-1.018h3.495c0.561,0,1.018,0.457,1.018,1.018v14.89    l2.64-2.969V17.45c0-2.017-1.641-3.658-3.658-3.658h-3.495c-2.017,0-3.657,1.641-3.657,3.658v20.004L35.682,39.283z"/><path d="M41.854,44.776v6.501c0,0.561-0.457,1.018-1.018,1.018h-3.495c-0.561,0-1.018-0.457-1.018-1.018v-2.01    c-0.042,0.004-0.083,0.017-0.125,0.019c-0.85,0.074-1.748-0.193-2.514-0.713v2.704c0,2.017,1.641,3.657,3.657,3.657h3.495    c2.017,0,3.658-1.641,3.658-3.657v-9.47L41.854,44.776z"/></g><g><path d="M50.5,22.615v-9.891c0-0.561,0.457-1.018,1.018-1.018h3.495c0.561,0,1.018,0.457,1.018,1.018v0.473l2.64,0.125v-0.599    c0-2.017-1.641-3.658-3.658-3.658h-3.495c-2.017,0-3.657,1.641-3.657,3.658v12.859L50.5,22.615z"/><path d="M56.031,28.828v22.449c0,0.561-0.457,1.018-1.018,1.018h-3.495c-0.561,0-1.018-0.457-1.018-1.018V35.05l-2.639,2.969    v13.258c0,2.017,1.641,3.657,3.657,3.657h3.495c2.017,0,3.658-1.641,3.658-3.657V25.859L56.031,28.828z"/></g></g></svg>