<?xml version="1.0" encoding="UTF-8" standalone="no"?>
<svg xmlns:svg="http://www.w3.org/2000/svg" xmlns="http://www.w3.org/2000/svg" width="31px" height="32px" viewBox="0 0 31 32" version="1.1">
   <defs>
      <clipPath clipPathUnits="userSpaceOnUse" id="clipPath1004">
         <path d="m 610,4030.159 v -48.318 c 0,-1.104 0.8954,-2 2,-2 0.4103,0 0.8108,0.127 1.1469,0.362 l 34.5124,24.159 c 0.9049,0.633 1.125,1.88 0.4916,2.785 -0.1339,0.191 -0.3003,0.358 -0.4916,0.491 l -34.5124,24.159 c -0.9049,0.634 -2.1519,0.414 -2.7854,-0.491 -0.2353,-0.337 -0.3615,-0.737 -0.3615,-1.147 z" style="clip-rule:evenodd" />
      </clipPath>
      <clipPath clipPathUnits="userSpaceOnUse" id="clipPath1010">
         <path d="M 0,0 H 1114 V 6096 H 0 Z" />
      </clipPath>
   </defs>
   <g transform="matrix(0.61421368,0,0,-0.61421368,-370.99782,2476.54)">
      <g clip-path="url(#clipPath1004)">
         <g clip-path="url(#clipPath1010)">
            <path d="m 600,4042.159 h 58.5126 v -72.318 H 600 Z" style="fill:currentColor;fill-opacity:1;fill-rule:nonzero;stroke:none" />
         </g>
      </g>
   </g>
</svg>
