<?xml version="1.0" encoding="UTF-8" standalone="no"?>
<svg
   xmlns:svg="http://www.w3.org/2000/svg"
   xmlns="http://www.w3.org/2000/svg"
   viewBox="0 0 30 30"
   version="1.1">
  <g
     stroke="none"
     stroke-width="1"
     fill="none"
     fill-rule="evenodd">
    <g transform="translate(-365.000000, -263.000000)">
      <g transform="translate(365.000000, 263.000000)">
        <rect
           stroke="#979797"
           fill="#D8D8D8"
           opacity="0"
           x="0.5"
           y="0.5"
           width="29"
           height="29" />
        <g
           transform="translate(2.400000, 2.400000)"
           stroke="currentColor"
           stroke-width="1.5">
          <path d="M24.45,8.31 L0.75,8.31 L0.75,23.7 C0.75,23.9071068 0.833946609,24.0946068 0.969669914,24.2303301 C1.10539322,24.3660534 1.29289322,24.45 1.5,24.45 L23.7,24.45 C23.9071068,24.45 24.0946068,24.3660534 24.2303301,24.2303301 C24.3660534,24.0946068 24.45,23.9071068 24.45,23.7 L24.45,8.31 Z" />
          <path d="M23.7,0.75 L1.5,0.75 C1.29289322,0.75 1.10539322,0.833946609 0.969669914,0.969669914 C0.833946609,1.10539322 0.75,1.29289322 0.75,1.5 L0.75,5.55 L24.45,5.55 L24.45,1.5 C24.45,1.29289322 24.3660534,1.10539322 24.2303301,0.969669914 C24.0946068,0.833946609 23.9071068,0.75 23.7,0.75 Z" />
        </g>
      </g>
    </g>
  </g>
  <polyline
     points="9 17.6040375 12.5576039 21.4967806 21.3489792 12"
     style="fill:none;fill-rule:evenodd;stroke:currentColor;stroke-width:1.5;stroke-linecap:round"
     transform="translate(-0.17451458,2.0766075)" />
</svg>
