<?xml version="1.0" encoding="UTF-8" standalone="no"?>
<svg
   xmlns:dc="http://purl.org/dc/elements/1.1/"
   xmlns:cc="http://creativecommons.org/ns#"
   xmlns:rdf="http://www.w3.org/1999/02/22-rdf-syntax-ns#"
   xmlns:svg="http://www.w3.org/2000/svg"
   xmlns="http://www.w3.org/2000/svg"
   xmlns:sodipodi="http://sodipodi.sourceforge.net/DTD/sodipodi-0.dtd"
   xmlns:inkscape="http://www.inkscape.org/namespaces/inkscape"
   viewBox="0 0 30 30"
   version="1.1">
  <g
     stroke="none"
     stroke-width="1"
     fill="none"
     fill-rule="evenodd">
    <g transform="translate(-365.000000, -263.000000)">
      <g transform="translate(365.000000, 263.000000)">
        <rect
           stroke="#979797"
           fill="#D8D8D8"
           opacity="0"
           x="0.5"
           y="0.5"
           width="29"
           height="29" />
        <g
           transform="translate(2.400000, 2.400000)"
           stroke="currentColor"
           stroke-width="1.5">
          <path d="M24.45,8.31 L0.75,8.31 L0.75,23.7 C0.75,23.9071068 0.833946609,24.0946068 0.969669914,24.2303301 C1.10539322,24.3660534 1.29289322,24.45 1.5,24.45 L23.7,24.45 C23.9071068,24.45 24.0946068,24.3660534 24.2303301,24.2303301 C24.3660534,24.0946068 24.45,23.9071068 24.45,23.7 L24.45,8.31 Z" />
          <path d="M23.7,0.75 L1.5,0.75 C1.29289322,0.75 1.10539322,0.833946609 0.969669914,0.969669914 C0.833946609,1.10539322 0.75,1.29289322 0.75,1.5 L0.75,5.55 L24.45,5.55 L24.45,1.5 C24.45,1.29289322 24.3660534,1.10539322 24.2303301,0.969669914 C24.0946068,0.833946609 23.9071068,0.75 23.7,0.75 Z" />
        </g>
      </g>
    </g>
  </g>
  <path
     d="m 15,13.197186 c -3.130298,0 -5.667932,2.537609 -5.667932,5.667932 0,3.130322 2.537634,5.667932 5.667932,5.667932 3.130297,0 5.667932,-2.537635 5.667932,-5.667932 0,-3.1303 -2.537609,-5.667932 -5.667932,-5.667932 z m 2.973561,2.69437 c 1.495786,1.495785 1.59982,3.781996 0.472564,5.385381 l -5.857967,-5.857922 c 1.604482,-1.12801 3.890441,-1.0224 5.385403,0.472541 z m -5.947122,5.947123 c -1.495786,-1.495784 -1.59982,-3.781995 -0.472564,-5.38538 l 5.857967,5.857921 c -1.604458,1.12801 -3.89044,1.022422 -5.385403,-0.472541 z"
     inkscape:connector-curvature="0"
     style="fill:#be0000;stroke-width:0.02285456;fill-opacity:1" />
</svg>
