<?xml version="1.0" encoding="UTF-8"?>
<svg viewBox="0 0 32 32" version="1.1" xmlns="http://www.w3.org/2000/svg" xmlns:xlink="http://www.w3.org/1999/xlink">
    <g stroke="none" stroke-width="1" fill="none" fill-rule="evenodd">
        <g transform="translate(-169.000000, -2695.000000)">
            <g transform="translate(170.000000, 2696.000000)">
                <circle stroke="currentColor" cx="15" cy="15" r="15"></circle>
                <g transform="translate(6.000000, 6.000000)">
                    <rect stroke="#979797" fill="#D8D8D8" opacity="0" x="0.5" y="0.5" width="17" height="17"></rect>
                    <g transform="translate(1.800000, 1.800000)" fill="currentColor" fill-rule="nonzero">
                        <path d="M6.3,0 L0.45,0 C0.2025,0 0,0.2025 0,0.45 L0,6.3 C0,6.5475 0.2025,6.75 0.45,6.75 L6.3,6.75 C6.5475,6.75 6.75,6.5475 6.75,6.3 L6.75,0.45 C6.75,0.2025 6.5475,0 6.3,0 Z M5.85,5.85 L0.9,5.85 L0.9,0.9 L5.85,0.9 L5.85,5.85 Z M2.25,4.95 L4.5,4.95 C4.7475,4.95 4.95,4.7475 4.95,4.5 L4.95,2.25 C4.95,2.0025 4.7475,1.8 4.5,1.8 L2.25,1.8 C2.0025,1.8 1.8,2.0025 1.8,2.25 L1.8,4.5 C1.8,4.7475 2.0025,4.95 2.25,4.95 Z M2.7,2.7 L4.05,2.7 L4.05,4.05 L2.7,4.05 L2.7,2.7 Z M13.95,0 L8.1,0 C7.8525,0 7.65,0.2025 7.65,0.45 L7.65,6.3 C7.65,6.5475 7.8525,6.75 8.1,6.75 L13.95,6.75 C14.1975,6.75 14.4,6.5475 14.4,6.3 L14.4,0.45 C14.4,0.2025 14.1975,0 13.95,0 Z M13.5,5.85 L8.55,5.85 L8.55,0.9 L13.5,0.9 L13.5,5.85 Z M9.9,4.95 L12.15,4.95 C12.3975,4.95 12.6,4.7475 12.6,4.5 L12.6,2.25 C12.6,2.0025 12.3975,1.8 12.15,1.8 L9.9,1.8 C9.6525,1.8 9.45,2.0025 9.45,2.25 L9.45,4.5 C9.45,4.7475 9.6525,4.95 9.9,4.95 Z M10.35,2.7 L11.7,2.7 L11.7,4.05 L10.35,4.05 L10.35,2.7 Z M13.95,7.65 L8.1,7.65 C7.8525,7.65 7.65,7.8525 7.65,8.1 L7.65,13.95 C7.65,14.1975 7.8525,14.4 8.1,14.4 L13.95,14.4 C14.1975,14.4 14.4,14.1975 14.4,13.95 L14.4,8.1 C14.4,7.8525 14.1975,7.65 13.95,7.65 Z M13.5,13.5 L8.55,13.5 L8.55,8.55 L13.5,8.55 L13.5,13.5 Z M9.9,12.6 L12.15,12.6 C12.3975,12.6 12.6,12.3975 12.6,12.15 L12.6,9.9 C12.6,9.6525 12.3975,9.45 12.15,9.45 L9.9,9.45 C9.6525,9.45 9.45,9.6525 9.45,9.9 L9.45,12.15 C9.45,12.3975 9.6525,12.6 9.9,12.6 Z M10.35,10.35 L11.7,10.35 L11.7,11.7 L10.35,11.7 L10.35,10.35 Z M6.3,7.65 L4.05,7.65 C3.8025,7.65 3.6,7.8525 3.6,8.1 L3.6,9.9 L0.45,9.9 C0.2025,9.9 0,10.1025 0,10.35 L0,13.95 C0,14.1975 0.2025,14.4 0.45,14.4 L4.05,14.4 C4.2975,14.4 4.5,14.1975 4.5,13.95 L4.5,10.8 L6.3,10.8 C6.5475,10.8 6.75,10.5975 6.75,10.35 L6.75,8.1 C6.75,7.8525 6.5475,7.65 6.3,7.65 Z M3.6,13.5 L0.9,13.5 L0.9,10.8 L3.6,10.8 L3.6,13.5 Z M5.85,9.9 L4.5,9.9 L4.5,8.55 L5.85,8.55 L5.85,9.9 Z M0,8.1 C0,7.8525 0.2025,7.65 0.45,7.65 L2.25,7.65 C2.4975,7.65 2.7,7.8525 2.7,8.1 C2.7,8.3475 2.4975,8.55 2.25,8.55 L0.45,8.55 C0.2025,8.55 0,8.3475 0,8.1 Z M2.7,12.6 L1.8,12.6 L1.8,11.7 L2.7,11.7 L2.7,12.6 Z M6.75,11.7 L6.75,13.95 C6.75,14.1975 6.5475,14.4 6.3,14.4 L5.4,14.4 C5.1525,14.4 4.95,14.1975 4.95,13.95 C4.95,13.7025 5.1525,13.5 5.4,13.5 L5.85,13.5 L5.85,11.7 C5.85,11.4525 6.0525,11.25 6.3,11.25 C6.5475,11.25 6.75,11.4525 6.75,11.7 Z"></path>
                    </g>
                </g>
            </g>
        </g>
    </g>
</svg>