<?xml version="1.0" encoding="UTF-8"?>
<svg width="30px" height="30px" viewBox="0 0 30 30" version="1.1" xmlns="http://www.w3.org/2000/svg" xmlns:xlink="http://www.w3.org/1999/xlink">
    <title>Group 31</title>
    <g id="Page-1" stroke="none" stroke-width="1" fill="none" fill-rule="evenodd">
        <g id="Icons-Layout" transform="translate(-300.000000, -950.000000)">
            <g id="Group-31" transform="translate(300.000000, 950.000000)">
                <rect id="Rectangle" stroke="#979797" fill="#D8D8D8" opacity="0" x="0.5" y="0.5" width="29" height="29"></rect>
                <g id="iconfinder_1-QR_Code" transform="translate(3.000000, 3.000000)" fill="#000000" fill-rule="nonzero">
                    <path d="M10.5,0 L0.75,0 C0.3375,0 0,0.3375 0,0.75 L0,10.5 C0,10.9125 0.3375,11.25 0.75,11.25 L10.5,11.25 C10.9125,11.25 11.25,10.9125 11.25,10.5 L11.25,0.75 C11.25,0.3375 10.9125,0 10.5,0 Z M9.75,9.75 L1.5,9.75 L1.5,1.5 L9.75,1.5 L9.75,9.75 Z M3.75,8.25 L7.5,8.25 C7.9125,8.25 8.25,7.9125 8.25,7.5 L8.25,3.75 C8.25,3.3375 7.9125,3 7.5,3 L3.75,3 C3.3375,3 3,3.3375 3,3.75 L3,7.5 C3,7.9125 3.3375,8.25 3.75,8.25 Z M4.5,4.5 L6.75,4.5 L6.75,6.75 L4.5,6.75 L4.5,4.5 Z M23.25,0 L13.5,0 C13.0875,0 12.75,0.3375 12.75,0.75 L12.75,10.5 C12.75,10.9125 13.0875,11.25 13.5,11.25 L23.25,11.25 C23.6625,11.25 24,10.9125 24,10.5 L24,0.75 C24,0.3375 23.6625,0 23.25,0 Z M22.5,9.75 L14.25,9.75 L14.25,1.5 L22.5,1.5 L22.5,9.75 Z M16.5,8.25 L20.25,8.25 C20.6625,8.25 21,7.9125 21,7.5 L21,3.75 C21,3.3375 20.6625,3 20.25,3 L16.5,3 C16.0875,3 15.75,3.3375 15.75,3.75 L15.75,7.5 C15.75,7.9125 16.0875,8.25 16.5,8.25 Z M17.25,4.5 L19.5,4.5 L19.5,6.75 L17.25,6.75 L17.25,4.5 Z M23.25,12.75 L13.5,12.75 C13.0875,12.75 12.75,13.0875 12.75,13.5 L12.75,23.25 C12.75,23.6625 13.0875,24 13.5,24 L23.25,24 C23.6625,24 24,23.6625 24,23.25 L24,13.5 C24,13.0875 23.6625,12.75 23.25,12.75 Z M22.5,22.5 L14.25,22.5 L14.25,14.25 L22.5,14.25 L22.5,22.5 Z M16.5,21 L20.25,21 C20.6625,21 21,20.6625 21,20.25 L21,16.5 C21,16.0875 20.6625,15.75 20.25,15.75 L16.5,15.75 C16.0875,15.75 15.75,16.0875 15.75,16.5 L15.75,20.25 C15.75,20.6625 16.0875,21 16.5,21 Z M17.25,17.25 L19.5,17.25 L19.5,19.5 L17.25,19.5 L17.25,17.25 Z M10.5,12.75 L6.75,12.75 C6.3375,12.75 6,13.0875 6,13.5 L6,16.5 L0.75,16.5 C0.3375,16.5 0,16.8375 0,17.25 L0,23.25 C0,23.6625 0.3375,24 0.75,24 L6.75,24 C7.1625,24 7.5,23.6625 7.5,23.25 L7.5,18 L10.5,18 C10.9125,18 11.25,17.6625 11.25,17.25 L11.25,13.5 C11.25,13.0875 10.9125,12.75 10.5,12.75 Z M6,22.5 L1.5,22.5 L1.5,18 L6,18 L6,22.5 Z M9.75,16.5 L7.5,16.5 L7.5,14.25 L9.75,14.25 L9.75,16.5 Z M0,13.5 C0,13.0875 0.3375,12.75 0.75,12.75 L3.75,12.75 C4.1625,12.75 4.5,13.0875 4.5,13.5 C4.5,13.9125 4.1625,14.25 3.75,14.25 L0.75,14.25 C0.3375,14.25 0,13.9125 0,13.5 Z M4.5,21 L3,21 L3,19.5 L4.5,19.5 L4.5,21 Z M11.25,19.5 L11.25,23.25 C11.25,23.6625 10.9125,24 10.5,24 L9,24 C8.5875,24 8.25,23.6625 8.25,23.25 C8.25,22.8375 8.5875,22.5 9,22.5 L9.75,22.5 L9.75,19.5 C9.75,19.0875 10.0875,18.75 10.5,18.75 C10.9125,18.75 11.25,19.0875 11.25,19.5 Z" id="Shape"></path>
                </g>
            </g>
        </g>
    </g>
</svg>