<?xml version="1.0" encoding="UTF-8"?>
<svg viewBox="0 0 32 32" version="1.1" xmlns="http://www.w3.org/2000/svg" xmlns:xlink="http://www.w3.org/1999/xlink">
    <g stroke="none" stroke-width="1" fill="none" fill-rule="evenodd">
        <g transform="translate(-234.000000, -2416.000000)" stroke="currentColor" stroke-width="1.5">
            <g transform="translate(235.000000, 2417.000000)">
                <ellipse cx="14.9618644" cy="15" rx="14.9618644" ry="15"></ellipse>
                <g transform="translate(7.254237, 7.238245)">
                    <path d="M4.81726695,0.0344827586 L3.37208686,0.0344827586 L2.48172669,0.0344827586 C1.3771572,0.0344827586 0.481726695,0.929913259 0.481726695,2.03448276 L0.481726695,5.18599791"></path>
                    <path d="M4.81726695,10.3375131 L2.48172669,10.3375131 C1.3771572,10.3375131 0.481726695,11.2329436 0.481726695,12.3375131 L0.481726695,15.4890282" transform="translate(2.649497, 12.913271) scale(1, -1) translate(-2.649497, -12.913271) "></path>
                    <path d="M15.1743909,0.292058516 L12.3571239,0.292058516 C11.2525544,0.292058516 10.3571239,1.18748902 10.3571239,2.29205852 L10.3571239,4.92842215" transform="translate(12.765757, 2.610240) rotate(-270.000000) translate(-12.765757, -2.610240) "></path>
                    <path d="M15.1743909,10.5950888 L12.3571239,10.5950888 C11.2525544,10.5950888 10.3571239,11.4905193 10.3571239,12.5950888 L10.3571239,15.2314525" transform="translate(12.765757, 12.913271) scale(1, -1) rotate(-270.000000) translate(-12.765757, -12.913271) "></path>
                    <path d="M0,7.76175549 L15.4152542,7.76175549" id="Path-3"></path>
                </g>
            </g>
        </g>
    </g>
</svg>