<?xml version="1.0" encoding="UTF-8" standalone="no"?>
<svg
   xmlns:dc="http://purl.org/dc/elements/1.1/"
   xmlns:cc="http://creativecommons.org/ns#"
   xmlns:rdf="http://www.w3.org/1999/02/22-rdf-syntax-ns#"
   xmlns:svg="http://www.w3.org/2000/svg"
   xmlns="http://www.w3.org/2000/svg"
   xmlns:sodipodi="http://sodipodi.sourceforge.net/DTD/sodipodi-0.dtd"
   xmlns:inkscape="http://www.inkscape.org/namespaces/inkscape"
   viewBox="0 0 7.9375 7.9375002"
   version="1.1">
   <g transform="translate(0,-289.06247)">
      <path
         d="m 1.1229386,292.76284 1.0830514,-0.6253 c 0.1090191,-0.0629 0.146035,-0.20206 0.083261,-0.31078 -0.062804,-0.10882 -0.2017954,-0.14618 -0.3107666,-0.0833 l -0.98513704,0.56876 -0.56876828,-0.98514 c -0.0628094,-0.10882 -0.20180147,-0.14619 -0.31077264,-0.0833 -0.10901879,0.0629 -0.14603501,0.20206 -0.0832678,0.31077 l 0.62529796,1.08306 c 0.0943045,0.16332 0.30376366,0.21946 0.4671013,0.12515 z m 4.9952731,3.4208 c 1.7381533,-1.00352 2.3358908,-3.2343 1.3323622,-4.97247 -1.0035225,-1.73814 -3.2342992,-2.33587 -4.9724525,-1.33236 -0.8420899,0.48618 -1.4445373,1.2714 -1.69579524,2.21035 -0.0326112,0.12153 0.039401,0.24627 0.1608505,0.2786 0.12156424,0.0325 0.24602424,-0.0393 0.27858784,-0.16084 0.2198616,-0.82179 0.7469781,-1.50862 1.4838618,-1.93405 1.5210331,-0.87817 3.4727262,-0.35521 4.3508951,1.16581 0.878175,1.52105 0.3552185,3.47273 -1.1658146,4.35091 -1.5210448,0.87818 -3.472732,0.35522 -4.3509068,-1.16582 -0.062809,-0.10882 -0.2018015,-0.14619 -0.3107728,-0.0833 -0.1090191,0.0629 -0.1460469,0.20207 -0.083279,0.31079 1.0035286,1.73816 3.2342993,2.33588 4.9724636,1.33236 z"
         style="fill:currentColor;fill-rule:nonzero;stroke:none;stroke-width:0.36400911" />
      <path
         d="m 5.9971637,292.85076 -2.3586705,-1.54431 c -0.058031,-0.0379 -0.1217929,-0.0581 -0.1844498,-0.0581 -0.1667797,0 -0.2925961,0.13586 -0.2925961,0.31592 v 3.11768 c 0,0.1801 0.1257873,0.3159 0.2925652,0.3159 0.062687,0 0.1264792,-0.02 0.1844497,-0.0581 l 2.3587015,-1.54451 c 0.098201,-0.0643 0.1545739,-0.16358 0.1545444,-0.27229 2.95e-5,-0.10869 -0.056307,-0.20791 -0.1545444,-0.27227 z m -2.382565,1.5631 v -2.58145 l 1.9712538,1.29063 z"
         style="fill:currentColor;stroke-width:0.030208" />
   </g>
</svg>
