<?xml version="1.0" encoding="UTF-8"?>
<svg width="30px" height="30px" viewBox="0 0 30 30" version="1.1" xmlns="http://www.w3.org/2000/svg" xmlns:xlink="http://www.w3.org/1999/xlink">
    <title>Report</title>
    <g id="Page-1" stroke="none" stroke-width="1" fill="none" fill-rule="evenodd">
        <g id="Icons-Layout" transform="translate(-40.000000, -348.000000)">
            <g id="Report" transform="translate(40.000000, 348.000000)">
                <rect id="Rectangle" stroke="#979797" fill="#D8D8D8" opacity="0" x="0.5" y="0.5" width="29" height="29"></rect>
                <g id="iconfinder_x-report" transform="translate(1.200000, 4.800000)" fill="#000000" fill-rule="nonzero">
                    <path d="M27.5854905,3.15144143 L27.4864005,2.81338037 L27.1882256,2.51779589 L24.6562276,2.4 C24.2182408,2.4 23.859888,2.74506751 23.8562682,3.16939545 C23.8540059,3.59635081 24.2105489,3.94579735 24.650798,3.94842477 L25.0150329,3.95061428 L15.5444735,14.2610388 L8.7416518,8.23418076 C8.42356842,7.95217127 7.93626287,7.96399465 7.63356333,8.26001703 L0.23212954,15.4801606 C0.0814584644,15.626858 -0.000890291514,15.8212869 7.26031297e-06,16.028415 C0.000919571253,16.2351052 0.0846257242,16.4295341 0.236201731,16.57448 C0.387325272,16.7198638 0.587315108,16.8 0.799973983,16.8 C1.01489519,16.8 1.21669489,16.718988 1.36781843,16.5705389 L8.22810324,9.87894417 L15.0625975,15.933828 C15.2196031,16.0726432 15.4313571,16.1532174 15.6435635,16.1357013 C15.8553174,16.1251916 16.058022,16.0310425 16.2005487,15.8769006 L25.9995982,5.20914731 L25.9995982,5.2533755 C26.0032179,5.67726554 26.3615708,6.02233305 26.8049872,6.02233305 C27.2461412,6.02014353 27.6026842,5.670697 27.5999848,5.24330373 L27.5854905,3.15144143 Z" id="Shape"></path>
                    <g id="Group" transform="translate(2.400000, 6.000000)">
                        <path d="M1.1872,6.14007273 L1.1872,1.62327273 C1.1872,1.37847273 1.37,1.17905455 1.5944,1.17905455 L2.9924,1.17905455 C3.2168,1.17905455 3.3996,1.37847273 3.3996,1.62327273 L3.3996,3.70734545 L4.4556,2.54618182 L4.4556,1.62327273 C4.4556,0.743127273 3.7992,0.0270545455 2.9924,0.0270545455 L1.5944,0.0270545455 C0.7876,0.0270545455 0.1316,0.743127273 0.1316,1.62327273 L0.1316,7.30123636 L1.1872,6.14007273 Z" id="Path"></path>
                        <path d="M3.3996,8.82632727 L3.3996,12.7754182 C3.3996,13.0202182 3.2168,13.2196364 2.9924,13.2196364 L1.5944,13.2196364 C1.37,13.2196364 1.1872,13.0202182 1.1872,12.7754182 L1.1872,11.2590545 L0.4804,12.0362182 C0.376,12.1514182 0.2564,12.2421818 0.1312,12.3211636 L0.1312,12.7754182 C0.1312,13.6555636 0.7876,14.3712 1.594,14.3712 L2.992,14.3712 C3.7988,14.3712 4.4552,13.6551273 4.4552,12.7754182 L4.4552,7.6656 L3.3996,8.82632727 Z" id="Path"></path>
                    </g>
                    <g id="Group" transform="translate(8.400000, 3.600000)">
                        <path d="M1.258,4.39231579 L1.258,1.76576842 C1.258,1.51774737 1.4408,1.31570526 1.6652,1.31570526 L3.0632,1.31570526 C3.2876,1.31570526 3.4704,1.51774737 3.4704,1.76576842 L3.4704,6.61124211 L4.5264,7.67981053 L4.5264,1.76576842 C4.5264,0.874042105 3.87,0.148547368 3.0632,0.148547368 L1.6652,0.148547368 C0.8584,0.148547368 0.2024,0.874042105 0.2024,1.76576842 L0.2024,4.00237895 C0.574,3.99044211 0.946,4.1244 1.258,4.39231579 Z" id="Path"></path>
                        <path d="M3.4708,11.5637053 L3.4708,15.1540421 C3.4708,15.4020632 3.288,15.6041053 3.0636,15.6041053 L1.6656,15.6041053 C1.4412,15.6041053 1.2584,15.4020632 1.2584,15.1540421 L1.2584,9.32488421 L0.306,8.36109474 L0.2028,8.47604211 L0.2028,15.1536 C0.2028,16.0453263 0.8592,16.7703789 1.6656,16.7703789 L3.0636,16.7703789 C3.8704,16.7703789 4.5268,16.0448842 4.5268,15.1536 L4.5268,12.6318316 L3.4708,11.5637053 Z" id="Path"></path>
                    </g>
                    <g id="Group" transform="translate(14.400000, 1.200000)">
                        <path d="M1.0728,12.0150857 L1.3292,11.6854857 L1.3292,2.03428571 C1.3292,1.77782857 1.512,1.56891429 1.7364,1.56891429 L3.1344,1.56891429 C3.3588,1.56891429 3.5416,1.77782857 3.5416,2.03428571 L3.5416,8.84114286 L4.5976,7.48388571 L4.5976,2.03428571 C4.5976,1.11222857 3.9412,0.362057143 3.1344,0.362057143 L1.7364,0.362057143 C0.9296,0.362057143 0.2736,1.11222857 0.2736,2.03428571 L0.2736,11.1789714 L1.0728,12.0150857 Z" id="Path"></path>
                        <path d="M3.5416,14.5261714 L3.5416,17.4980571 C3.5416,17.7545143 3.3588,17.9634286 3.1344,17.9634286 L1.7364,17.9634286 C1.512,17.9634286 1.3292,17.7545143 1.3292,17.4980571 L1.3292,16.5792 C1.3124,16.5810286 1.296,16.5869714 1.2792,16.5878857 C0.9392,16.6217143 0.58,16.4996571 0.2736,16.2619429 L0.2736,17.4980571 C0.2736,18.4201143 0.93,19.1698286 1.7364,19.1698286 L3.1344,19.1698286 C3.9412,19.1698286 4.5976,18.4196571 4.5976,17.4980571 L4.5976,13.1689143 L3.5416,14.5261714 Z" id="Path"></path>
                    </g>
                    <g id="Group" transform="translate(20.400000, 0.000000)">
                        <path d="M1.4,6.03795652 L1.4,1.65151304 C1.4,1.40272174 1.5828,1.20005217 1.8072,1.20005217 L3.2052,1.20005217 C3.4296,1.20005217 3.6124,1.40272174 3.6124,1.65151304 L3.6124,1.86127826 L4.6684,1.91671304 L4.6684,1.65106957 C4.6684,0.756573913 4.012,0.028826087 3.2052,0.028826087 L1.8072,0.028826087 C1.0004,0.028826087 0.3444,0.756573913 0.3444,1.65106957 L0.3444,7.35375652 L1.4,6.03795652 Z" id="Path"></path>
                        <path d="M3.6124,8.79328696 L3.6124,18.7489304 C3.6124,18.9977217 3.4296,19.2003913 3.2052,19.2003913 L1.8072,19.2003913 C1.5828,19.2003913 1.4,18.9977217 1.4,18.7489304 L1.4,11.5526087 L0.3444,12.8692957 L0.3444,18.7489304 C0.3444,19.6434261 1.0008,20.3707304 1.8072,20.3707304 L3.2052,20.3707304 C4.012,20.3707304 4.6684,19.6429826 4.6684,18.7489304 L4.6684,7.4766 L3.6124,8.79328696 Z" id="Path"></path>
                    </g>
                </g>
            </g>
        </g>
    </g>
</svg>