<?xml version="1.0" ?><svg version="1.1" viewBox="0 0 48 48" xmlns="http://www.w3.org/2000/svg" xmlns:xlink="http://www.w3.org/1999/xlink" stroke="currentColor" fill="none"><path d="M3,8v-3h9c0,2.75684 2.24316,5 5,5c2.75684,0 5,-2.24316 5,-5c0,-2.75684 -2.24316,-5 -5,-5c-2.41443,0 -4.43427,1.7207 -4.89893,4h-12.1011v1h2v3h1Zm14,-7c2.20557,0 4,1.79443 4,4c0,2.20557 -1.79443,4 -4,4c-2.20557,0 -4,-1.79443 -4,-4c0,-2.20557 1.79443,-4 4,-4Z" transform="translate(12, 18)"/><path d="M18,0c-6.98083,0 -13.3632,3.59167 -17,9.46405v-7.46405h-1v10h10v-1h-8.72925c3.32581,-6.17249 9.70776,-10 16.7292,-10c10.4766,0 19,8.52344 19,19c0,1.35553 -0.158386,2.69128 -0.439026,4h1.02191c0.266418,-1.31055 0.417114,-2.64575 0.417114,-4c0,-11.0278 -8.97217,-20 -20,-20Z" transform="translate(6, 4)"/><path d="M28,13h8.72925c-3.32581,6.17249 -9.70776,10 -16.7292,10c-10.4766,0 -19,-8.52344 -19,-19c0,-1.35553 0.158386,-2.69128 0.439026,-4h-1.02191c-0.266418,1.31055 -0.417114,2.64575 -0.417114,4c0,11.0278 8.97217,20 20,20c6.98083,0 13.3632,-3.59167 17,-9.46405v7.46405h1v-10h-10v1Z" transform="translate(4, 20)"/></svg>