<?xml version="1.0" encoding="UTF-8"?>
<svg viewBox="0 0 30 30" version="1.1" xmlns="http://www.w3.org/2000/svg" xmlns:xlink="http://www.w3.org/1999/xlink">
    <g stroke="currentColor" stroke-width="1" fill="none" fill-rule="evenodd">
        <g stroke-width="1.5">
            <path d="M29.25,8.87516984 L25.4579849,4.39151657 C25.4199258,4.34603155 25.4199258,4.34603155 25.3828342,4.29975418 L22.5682911,0.75 L3,0.75 C1.75735931,0.75 0.75,1.75735931 0.75,3 L0.75,27 C0.75,28.2426407 1.75735931,29.25 3,29.25 L27,29.25 C28.2426407,29.25 29.25,28.2426407 29.25,27 L29.25,8.87516984 Z"></path>
            <path d="M10.3125,0.9375 L10.3125,6.5 C10.3125,7.05228475 10.7602153,7.5 11.3125,7.5 L18.6875,7.5 C19.2397847,7.5 19.6875,7.05228475 19.6875,6.5 L19.6875,0.9375"></path>
            <path d="M8.4375,29.0625 L8.4375,22.0625 C8.4375,21.5102153 8.88521525,21.0625 9.4375,21.0625 L20.5625,21.0625 C21.1147847,21.0625 21.5625,21.5102153 21.5625,22.0625 L21.5625,29.0625"></path>
        </g>
    </g>
</svg>