<?xml version="1.0" encoding="UTF-8" standalone="no"?>
<svg
   xmlns:dc="http://purl.org/dc/elements/1.1/"
   xmlns:cc="http://creativecommons.org/ns#"
   xmlns:rdf="http://www.w3.org/1999/02/22-rdf-syntax-ns#"
   xmlns:svg="http://www.w3.org/2000/svg"
   xmlns="http://www.w3.org/2000/svg"
   xmlns:sodipodi="http://sodipodi.sourceforge.net/DTD/sodipodi-0.dtd"
   xmlns:inkscape="http://www.inkscape.org/namespaces/inkscape"
   id="Layer_1"
   version="1.1"
   viewBox="0 0 30 30"
   xml:space="preserve"
   sodipodi:docname="sended.svg"
   inkscape:version="0.92.4 (5da689c313, 2019-01-14)"
   width="30"
   height="30"><metadata
     id="metadata9"><rdf:RDF><cc:Work
         rdf:about=""><dc:format>image/svg+xml</dc:format><dc:type
           rdf:resource="http://purl.org/dc/dcmitype/StillImage" /><dc:title></dc:title></cc:Work></rdf:RDF></metadata><defs
     id="defs7" /><sodipodi:namedview
     pagecolor="#ffffff"
     bordercolor="#666666"
     borderopacity="1"
     objecttolerance="10"
     gridtolerance="10"
     guidetolerance="10"
     inkscape:pageopacity="0"
     inkscape:pageshadow="2"
     inkscape:window-width="1366"
     inkscape:window-height="711"
     id="namedview5"
     showgrid="false"
     inkscape:zoom="1.2354167"
     inkscape:cx="-97.285972"
     inkscape:cy="33.81736"
     inkscape:window-x="0"
     inkscape:window-y="0"
     inkscape:window-maximized="1"
     inkscape:current-layer="Layer_1" /><path
     style="fill:#000000;stroke-width:0.15507317"
     d="m 8.9077067,29.738599 c -0.14115,-0.155975 -0.25664,-0.385881 -0.25664,-0.510908 0,-0.267333 4.3585503,-4.633064 4.6254403,-4.633064 0.23551,0 0.80212,0.56661 0.80212,0.802118 0,0.283543 -4.3743503,4.625442 -4.6600103,4.625442 -0.13985,0 -0.36976,-0.127614 -0.51091,-0.283588 z M 0.77334666,29.215808 c -0.10235,-0.10235 -0.18609,-0.329513 -0.18609,-0.504806 0,-0.44028 10.81103034,-11.24974 11.25137034,-11.24974 0.40548,0 0.68926,0.284458 0.68926,0.690894 0,0.440278 -10.8110203,11.249738 -11.2513603,11.249738 -0.1744,0 -0.40083004,-0.08374 -0.50318004,-0.186086 z M 19.090017,23.060174 c -0.36868,-0.171646 -0.74439,-0.491426 -0.87024,-0.74069 -0.12181,-0.241251 -0.76539,-2.043644 -1.43019,-4.00532 -0.66479,-1.961675 -1.28503,-3.647902 -1.37831,-3.747171 -0.0933,-0.09927 -1.8246,-0.741612 -3.84737,-1.42743 -2.0227703,-0.685817 -3.8509603,-1.360424 -4.0626503,-1.499126 -0.21168,-0.138703 -0.50352,-0.562845 -0.64853,-0.94254 -0.32388,-0.8480569 -0.1416,-1.6453189 0.51552,-2.2548549 0.53355,-0.494912 19.5355903,-8.35691703 20.4343503,-8.45461703 1.04295,-0.113373 2.00729,0.693893 2.19253,1.83540903 0.0706,0.435158 -0.59653,2.176227 -3.9727,10.3675359 -2.23167,5.414502 -4.15816,10.000589 -4.28109,10.191304 -0.55751,0.864895 -1.64948,1.143929 -2.65132,0.6775 z m 1.40898,-1.605778 c 0.39238,-0.609581 8.01495,-19.2384109 7.96844,-19.4741019 -0.13464,-0.682233 -0.38051,-0.599428 -10.2058,3.437077 -5.31818,2.18486 -9.7771203,4.08017 -9.9087503,4.211799 -0.48665,0.4866489 0.0117,0.7478099 4.1441203,2.1719209 2.22744,0.767613 4.11331,1.465442 4.19083,1.550732 0.0775,0.08529 0.74637,1.931021 1.48634,4.101621 0.73997,2.170603 1.42072,4.037296 1.51277,4.148208 0.24968,0.300845 0.55981,0.244606 0.81205,-0.147256 z M 0.20522666,21.034192 c -0.17448,-0.192807 -0.24235,-0.434062 -0.18565,-0.659976 0.11419,-0.454987 4.15204004,-4.463686 4.49614004,-4.463686 0.2965,0 0.87881,0.531496 0.87881,0.802118 0,0.283543 -4.37435,4.625443 -4.66001004,4.625443 -0.13984,0 -0.37802,-0.136755 -0.52929,-0.303899 z"
     id="path100"
     inkscape:connector-curvature="0" /></svg>