<?xml version="1.0" encoding="UTF-8"?>
<svg width="25px" height="22px" viewBox="0 0 25 22" version="1.1" xmlns="http://www.w3.org/2000/svg" xmlns:xlink="http://www.w3.org/1999/xlink">
    <g stroke="currentColor" stroke-width="1" fill="none" fill-rule="evenodd">
        <g transform="translate(-432.000000, -2650.000000)">
            <g transform="translate(430.000000, 2646.000000)">
                <rect stroke="#979797" fill="#D8D8D8" opacity="0" x="0.5" y="0.5" width="29" height="29"></rect>
                <path d="M6,15.5 L2.7975542,23.9064202 C2.60094341,24.4225235 2.85994329,25.0002925 3.37604661,25.1969033 C3.60636859,25.284645 3.86098054,25.2842383 4.09102102,25.1957611 L25.7911419,16.8495608 C26.3066144,16.6513021 26.5637671,16.0727087 26.3655084,15.5572361 C26.2720643,15.3142816 26.0875674,15.1173388 25.851221,15.0082558 L4.13664087,4.98614194 C3.63518875,4.7547025 3.04106275,4.97359103 2.80962331,5.47504315 C2.70113043,5.71011104 2.68803292,5.97809463 2.7730859,6.22262195 L6,15.5 L6,15.5 L15.2112826,15.5 L6,15.5 Z" stroke-linejoin="round"></path>
            </g>
        </g>
    </g>
</svg>