<?xml version="1.0" encoding="UTF-8"?>
<svg width="31px" height="31px" viewBox="0 0 31 31" version="1.1" xmlns="http://www.w3.org/2000/svg" xmlns:xlink="http://www.w3.org/1999/xlink">
    <!-- Generator: Sketch 55.2 (78181) - https://sketchapp.com -->
    <title>noun_Settings_1652457</title>
    <desc>Created with Sketch.</desc>
    <g id="Page-1" stroke="none" stroke-width="1" fill="none" fill-rule="evenodd">
        <g id="Mobile" transform="translate(-234.000000, -347.000000)" fill="#000000" fill-rule="nonzero" stroke="#000000" stroke-width="0.25">
            <g id="noun_Settings_1652457" transform="translate(235.000000, 348.000000)">
                <g id="Group">
                    <path d="M28.3817732,11.3395852 L26.7534491,11.1681601 C26.5392538,10.4944112 26.2669431,9.83894204 25.9402847,9.21095627 L26.9722132,7.93626342 C27.5037472,7.28021692 27.4540153,6.33553281 26.8569066,5.73920173 L24.1151985,2.99700588 C23.5182688,2.40014219 22.573562,2.35074188 21.9179388,2.88192308 L20.6430229,3.91362923 C20.0151267,3.58701485 19.3597676,3.31470269 18.6861757,3.10048688 L18.514793,1.4723165 C18.4266413,0.632954385 17.7237232,0 16.8796363,0 L13.0017427,0 C12.1576999,0 11.4547377,0.632932 11.3665845,1.472117 L11.1951579,3.10044288 C10.5210774,3.31474742 9.86567427,3.58714765 9.23791154,3.91389554 L7.96370581,2.88212262 C7.30816988,2.35105219 6.36350781,2.4003865 5.76617831,2.99702788 L3.02398246,5.73920173 C2.42745185,6.33582112 2.3780295,7.28043919 2.90912192,7.93657373 L3.94096085,9.21089023 C3.61416892,9.83865296 3.34176873,10.4940781 3.12748619,11.16816 L1.49924904,11.3395632 C0.659953269,11.4277605 0.0270433077,12.1307226 0.0270433077,12.9747214 L0.0270433077,16.852593 C0.0270433077,17.6965243 0.659908923,18.3995085 1.49924904,18.4877733 L3.12753019,18.6588213 C3.34163519,19.3320597 3.61408015,19.9874628 3.94104962,20.6159122 L2.90921069,21.8905844 C2.37767446,22.5465862 2.42736308,23.4912695 3.02447031,24.0876476 L5.76617835,26.8298427 C6.36315281,27.4268839 7.30790365,27.4764603 7.96352835,26.9453253 L9.23844419,25.9132854 C9.86642846,26.2399878 10.5217876,26.512322 11.1951579,26.7264263 L11.3665405,28.3546212 C11.4547378,29.1939368 12.157744,29.8268479 13.0017428,29.8268479 L16.8796364,29.8268479 C17.7236792,29.8268479 18.4266414,29.1939162 18.5147492,28.3547533 L18.6861758,26.7264263 C19.3598572,26.5122105 20.0152148,26.2397677 20.643067,25.9129303 L21.9176278,26.9447033 C22.573119,27.4757737 23.5177378,27.4265054 24.1152456,26.8297987 L26.8565516,24.0879997 C27.4540153,23.4913371 27.5037472,22.5466742 26.9724333,21.890872 L25.9403288,20.6155806 C26.2674303,19.9871738 26.5397879,19.3318601 26.7536252,18.6587113 L28.3815971,18.4873067 C29.2209362,18.3991534 29.8538913,17.6961913 29.8538913,16.8521485 L29.8538913,12.9747215 C29.8538913,12.130124 29.2210711,11.4272734 28.3817732,11.3395852 Z M28.5818599,16.8521485 C28.5818599,17.0431842 28.4386503,17.2022996 28.2485903,17.2222636 L25.7688581,17.4833063 L25.6527563,17.8997377 C25.4129615,18.7597289 25.0672707,19.5915501 24.6252647,20.3721061 L24.4118675,20.748963 L25.9838515,22.6913481 C26.1039469,22.8396166 26.0927229,23.0531017 25.9573657,23.1882799 L23.2160568,25.930076 C23.0806996,26.0653011 22.8667273,26.0765046 22.7181918,25.9561861 L20.7764287,24.3843137 L20.3995043,24.5978428 C19.619968,25.0394293 18.7880823,25.3852756 17.9269584,25.625801 L17.5107705,25.7420378 L17.2496838,28.2217465 C17.2297638,28.4116304 17.0706704,28.5548166 16.8796362,28.5548166 L13.0017427,28.5548166 C12.8107071,28.5548166 12.6515697,28.411607 12.6316056,28.2215705 L12.3705629,25.7420378 L11.9544191,25.625801 C11.0936517,25.3853871 10.2617205,25.0396523 9.48165162,24.5981744 L9.10477127,24.3848918 L7.16300819,25.9567847 C7.01460765,26.0769477 6.80085696,26.0655887 6.66567731,25.930431 L3.923703,23.1879689 C3.78870085,23.0531017 3.77743212,22.8396166 3.89774985,22.6911486 L5.469466,20.749541 L5.25615912,20.3726827 C4.81428438,19.5919051 4.46841531,18.7597964 4.22813488,17.8994722 L4.11185485,17.4831728 L1.63221065,17.2227067 C1.44228423,17.2027426 1.29907423,17.0436272 1.29907423,16.852593 L1.29907423,12.9747215 C1.29907423,12.7836858 1.44228419,12.6245939 1.63229942,12.6046063 L4.11185485,12.3435857 L4.22813488,11.9273978 C4.46881515,11.0656328 4.81463946,10.2335901 5.25607035,9.45438681 L5.46959877,9.07739642 L3.89774981,7.1362085 C3.77743204,6.98754169 3.78852327,6.77361419 3.92348142,6.63861204 L6.66536696,3.8967485 C6.80063538,3.76156885 7.01451888,3.75025531 7.16309692,3.87061781 L9.10446165,5.44257754 L9.48143004,5.22900512 C10.2606113,4.78761823 11.0926305,4.44177192 11.954419,4.20106965 L12.3705629,4.08483362 L12.6316055,1.60516742 C12.6515696,1.415241 12.810707,1.272031 13.0017427,1.272031 L16.8796363,1.272031 C17.0706704,1.272031 17.2297638,1.41521896 17.2497279,1.60530058 L17.5107266,4.08476688 L17.9268704,4.20104765 C18.7879928,4.44168315 19.619968,4.78744073 20.3997274,5.22869481 L20.7765168,5.44193419 L22.7184148,3.87050708 C22.8667273,3.75025535 23.0806526,3.76136931 23.2157017,3.89643823 L25.9576738,6.63890038 C26.0927229,6.773747 26.1039469,6.98723138 25.9836724,7.13569869 L24.4119115,9.07728496 L24.6251736,9.45416531 C25.0665165,10.2339672 25.4122513,11.0660759 25.6528002,11.9273979 L25.769081,12.3435858 L28.2485902,12.6046064 L28.2493003,12.6046959 C28.4389172,12.6244385 28.5818599,12.7835084 28.5818599,12.9747216 L28.5818599,16.8521485 L28.5818599,16.8521485 Z" id="Shape"></path>
                    <path d="M14.9406668,8.39903465 C11.3490163,8.39903465 8.42696408,11.3214845 8.42696408,14.9136675 C8.42696408,18.505585 11.3490163,21.4278148 14.9406668,21.4278148 C18.5323627,21.4278148 21.4544149,18.505585 21.4544149,14.9136675 C21.4544149,11.3214845 18.5323627,8.39903465 14.9406668,8.39903465 Z M14.9406668,20.1557834 C12.0503807,20.1557834 9.69899542,17.8041752 9.69899542,14.9136675 C9.69899542,12.0228943 12.0503807,9.67106454 14.9406668,9.67106454 C17.8309528,9.67106454 20.1823821,12.0228943 20.1823821,14.9136675 C20.1823821,17.8041752 17.8309528,20.1557834 14.9406668,20.1557834 Z" id="Shape"></path>
                </g>
            </g>
        </g>
    </g>
</svg>