<svg xmlns="http://www.w3.org/2000/svg" viewBox="0 0 30 30" version="1.1"><circle cx="14.873" cy="14.746" r="10.551" fill="#fff" fill-opacity="1" stroke="none" stroke-opacity="1" stroke-width=".6" stroke-miterlimit="4" stroke-dashoffset="0"/><g fill="red" fill-opacity="1" fill-rule="evenodd" stroke="none" stroke-width="1"><path d="M22.5 15.566c0 1.214-.15 2.428-.15 2.428s-.146 1.034-.596 1.49c-.57.596-1.21.6-1.503.634-2.1.152-5.251.156-5.251.156s-3.9-.035-5.1-.15c-.334-.062-1.084-.044-1.654-.64-.45-.457-.596-1.49-.596-1.49s-.15-1.214-.15-2.428v-1.138c0-1.214.15-2.427.15-2.427s.146-1.034.596-1.49c.57-.597 1.21-.6 1.503-.634 2.1-.152 5.248-.152 5.248-.152h.006s3.149 0 5.248.152c.293.034.933.037 1.503.634.45.456.596 1.49.596 1.49s.15 1.213.15 2.427zM15 0C6.715 0 0 6.715 0 15c0 8.284 6.715 15 15 15s15-6.716 15-15c0-8.285-6.715-15-15-15z"/><path d="M13.45 12.73l.001 4.215 4.053-2.1z"/></g></svg>