<svg xmlns="http://www.w3.org/2000/svg" viewBox="0 0 30 30" version="1.1"><circle cx="14.643" cy="15.217" r="11.924" fill="#fff" fill-opacity="1" stroke="none" stroke-opacity="1" stroke-width=".6" stroke-miterlimit="4" stroke-dashoffset="0"/><path fill="#0a66c2" fill-opacity="1" fill-rule="evenodd" stroke="none" stroke-width="1" d="M22.5 22.486h-3.108v-4.864c0-1.16-.02-2.651-1.615-2.651-1.617 0-1.864 1.264-1.864 2.569v4.946h-3.105V12.485h2.98v1.367h.043c.414-.786 1.428-1.616 2.94-1.616 3.148 0 3.729 2.071 3.729 4.765zM9.304 11.119A1.803 1.803 0 1 1 9.3 7.514a1.803 1.803 0 0 1 .003 3.605zm1.554 11.367H7.747V12.485h3.111zM15 0C6.715 0 0 6.715 0 15c0 8.284 6.715 15 15 15s15-6.716 15-15c0-8.285-6.715-15-15-15z"/></svg>