<svg xmlns="http://www.w3.org/2000/svg" viewBox="0 0 30 30" version="1.1"><g stroke-miterlimit="4" transform="translate(-67.119 2.67)"><circle cx="82.119" cy="12.331" r="15" fill="#fff" fill-opacity="1" stroke="none" stroke-opacity="1" stroke-width="6.517" stroke-dashoffset="0" stroke-dasharray="19.552 6.517"/><path fill="#444" fill-rule="evenodd" stroke="#444" stroke-width=".6" d="M82.119 5.065a7.266 7.266 0 0 0-7.266 7.266 7.266 7.266 0 0 0 7.266 7.265 7.266 7.266 0 0 0 7.265-7.265 7.266 7.266 0 0 0-7.265-7.266zm-.252.295v3.168a14.992 14.992 0 0 1-2.754-.291c.63-1.638 1.621-2.732 2.754-2.877zm.506 0c1.132.145 2.123 1.243 2.753 2.875-.906.182-1.828.28-2.753.293zm-2.108.228a6.351 6.351 0 0 0-1.64 2.532 10.957 10.957 0 0 1-1.635-.536 6.989 6.989 0 0 1 3.275-1.996zm3.71 0a6.986 6.986 0 0 1 3.27 2.002c-.53.221-1.076.402-1.634.537a6.354 6.354 0 0 0-1.637-2.539zm-7.329 2.393c.585.265 1.19.48 1.812.64a12.095 12.095 0 0 0-.556 3.446h-2.764a6.957 6.957 0 0 1 1.508-4.086zm10.947.021a6.95 6.95 0 0 1 1.508 4.084h-2.766a12.084 12.084 0 0 0-.554-3.47 11.26 11.26 0 0 0 1.812-.614zm-8.648.694c.961.205 1.939.318 2.922.338v3.033h-3.455c.013-1.144.193-2.28.533-3.371zm6.35.021c.34 1.092.52 2.226.533 3.37h-3.455V9.033a15.44 15.44 0 0 0 2.921-.317zm-10.157 3.848l2.764.008c.016 1.176.204 2.343.556 3.465a11.26 11.26 0 0 0-1.812.613 6.957 6.957 0 0 1-1.508-4.086zm3.274.008h3.455v3.033c-.982.012-1.96.118-2.922.316a11.77 11.77 0 0 1-.533-3.34zm3.96.02h3.456a11.777 11.777 0 0 1-.534 3.37 15.444 15.444 0 0 0-2.921-.336zm3.963 0h2.766a6.957 6.957 0 0 1-1.508 4.085c-.585-.265-1.19-.48-1.812-.64.35-1.116.537-2.277.554-3.446zm-4.468 3.538v3.17c-1.133-.145-2.124-1.243-2.754-2.875a14.984 14.984 0 0 1 2.754-.295zm.506 0c.924.012 1.846.11 2.753.291-.63 1.638-1.62 2.734-2.753 2.88zm-3.748.381a6.353 6.353 0 0 0 1.64 2.559 6.988 6.988 0 0 1-3.275-2.002v-.02c.53-.221 1.076-.401 1.635-.537zm6.99.024c.558.135 1.104.315 1.635.537a6.986 6.986 0 0 1-3.276 1.998 6.353 6.353 0 0 0 1.64-2.535z"/></g></svg>