<svg xmlns="http://www.w3.org/2000/svg" viewBox="0 0 30 30" version="1.1"><path fill="#f00075" fill-opacity="1" fill-rule="evenodd" stroke="none" stroke-width="1" d="M15 0C6.715 0 0 6.715 0 15c0 8.284 6.715 15 15 15s15-6.716 15-15c0-8.285-6.715-15-15-15z"/><g fill="#fff" stroke-width=".119"><path d="M22.437 11.832c-.035-.815-.167-1.376-.356-1.861a3.744 3.744 0 0 0-.887-1.361 3.776 3.776 0 0 0-1.358-.884c-.489-.19-1.046-.321-1.861-.357-.822-.039-1.082-.048-3.165-.048s-2.344.01-3.162.045c-.816.036-1.376.168-1.861.357a3.744 3.744 0 0 0-1.361.887c-.39.384-.693.848-.884 1.358-.19.488-.321 1.046-.357 1.86-.039.822-.048 1.083-.048 3.166s.009 2.344.045 3.162c.036.815.168 1.376.357 1.861.194.516.497.977.887 1.36.383.39.848.693 1.357.885.489.189 1.046.32 1.862.357.818.036 1.079.045 3.162.045s2.344-.01 3.162-.045c.815-.036 1.375-.168 1.86-.357a3.924 3.924 0 0 0 2.246-2.245c.189-.488.32-1.046.356-1.861.036-.818.045-1.08.045-3.162 0-2.083-.003-2.344-.039-3.162zm-1.381 6.264c-.033.75-.159 1.154-.264 1.424a2.545 2.545 0 0 1-1.457 1.456c-.27.105-.677.231-1.423.264-.81.036-1.052.045-3.1.045-2.046 0-2.292-.01-3.098-.045-.75-.033-1.154-.159-1.424-.264a2.36 2.36 0 0 1-.881-.572 2.385 2.385 0 0 1-.573-.881c-.105-.27-.23-.678-.263-1.424-.036-.81-.045-1.052-.045-3.1 0-2.046.009-2.292.045-3.098.033-.75.158-1.154.263-1.424.123-.333.318-.635.576-.881.249-.255.548-.45.881-.572.27-.105.677-.231 1.424-.264.809-.036 1.052-.045 3.099-.045 2.05 0 2.292.009 3.099.045.75.033 1.154.159 1.423.264.333.122.636.317.882.572.254.249.45.548.572.881.105.27.23.677.264 1.424.036.809.045 1.052.045 3.099s-.01 2.287-.045 3.096zm0 0"/><path d="M14.81 11.053a3.942 3.942 0 0 0 0 7.882 3.942 3.942 0 0 0 0-7.882zm0 6.497a2.557 2.557 0 1 1 0-5.114 2.557 2.557 0 0 1 0 5.114zm0 0M19.827 10.897a.92.92 0 1 1-1.84 0 .92.92 0 0 1 1.84 0zm0 0"/></g></svg>