<svg xmlns="http://www.w3.org/2000/svg" viewBox="0 0 30 30" version="1.1"><circle cx="15" cy="15" r="15" fill="#fff" fill-opacity="1" stroke="none" stroke-width="3.173" stroke-miterlimit="4" stroke-dashoffset="0" stroke-dasharray="9.519 3.173"/><path fill="#3e9dd7" fill-rule="evenodd" stroke-width=".5" d="M15.92 21.19c-2.41.128-3.538-.416-4.571-1.405-1.154-1.104-.69-2.363.25-2.427.939-.064 1.503 1.086 2.004 1.406.502.319 2.407 1.045 3.414-.129 1.095-1.277-.73-1.938-2.067-2.138-1.91-.288-4.321-1.341-4.134-3.418.188-2.075 1.728-3.139 3.35-3.288 2.067-.192 3.413.319 4.477 1.245 1.23 1.07.565 2.266-.219 2.363-.781.095-1.658-1.76-3.38-1.788-1.776-.029-2.976 1.884-.784 2.427 2.192.543 4.54.766 5.386 2.809.846 2.044-1.315 4.215-3.726 4.343zm6.795-4.862c.046-.34.072-.686.072-1.037 0-4.223-3.392-7.647-7.576-7.647-.416 0-.824.035-1.22.1A4.459 4.459 0 0 0 11.52 7C9.023 7 7 9.053 7 11.588c0 .922.268 1.778.728 2.497a7.73 7.73 0 0 0-.094 1.205c0 4.224 3.39 7.647 7.575 7.647.473 0 .933-.046 1.38-.129a4.473 4.473 0 0 0 2.39.692c2.498 0 4.521-2.053 4.521-4.587a4.61 4.61 0 0 0-.784-2.585zM15 30C6.716 30 0 23.284 0 15 0 6.715 6.716 0 15 0c8.284 0 15 6.715 15 15 0 8.284-6.716 15-15 15z" clip-rule="evenodd"/></svg>