<svg xmlns="http://www.w3.org/2000/svg" viewBox="0 0 30 30" version="1.1"><path fill="#2aa9e0" fill-opacity="1" fill-rule="evenodd" stroke="none" stroke-width="1" d="M15 0C6.715 0 0 6.715 0 15c0 8.284 6.715 15 15 15s15-6.716 15-15c0-8.285-6.715-15-15-15z"/><path fill="#fff" stroke-width=".109" d="M24.377 9.184a7.691 7.691 0 0 1-2.21.605 3.859 3.859 0 0 0 1.692-2.128 7.702 7.702 0 0 1-2.443.933 3.848 3.848 0 0 0-6.556 3.51 10.923 10.923 0 0 1-7.931-4.02 3.846 3.846 0 0 0 1.19 5.137 3.832 3.832 0 0 1-1.742-.482v.049a3.85 3.85 0 0 0 3.086 3.773 3.852 3.852 0 0 1-1.738.065 3.851 3.851 0 0 0 3.594 2.672 7.72 7.72 0 0 1-5.696 1.594 10.89 10.89 0 0 0 5.898 1.728c7.077 0 10.947-5.862 10.947-10.947 0-.167-.003-.333-.01-.498a7.817 7.817 0 0 0 1.919-1.991z"/></svg>