<?xml version="1.0" encoding="UTF-8" standalone="no"?>
<svg
   xmlns:dc="http://purl.org/dc/elements/1.1/"
   xmlns:cc="http://creativecommons.org/ns#"
   xmlns:rdf="http://www.w3.org/1999/02/22-rdf-syntax-ns#"
   xmlns:svg="http://www.w3.org/2000/svg"
   xmlns="http://www.w3.org/2000/svg"
   xmlns:sodipodi="http://sodipodi.sourceforge.net/DTD/sodipodi-0.dtd"
   xmlns:inkscape="http://www.inkscape.org/namespaces/inkscape"
   id="Layer_1"
   version="1.1"
   viewBox="0 0 30 30"
   xml:space="preserve"
   sodipodi:docname="sports-rotated.svg"
   inkscape:version="0.92.4 (5da689c313, 2019-01-14)"
   width="30"
   height="30"><metadata
     id="metadata9"><rdf:RDF><cc:Work
         rdf:about=""><dc:format>image/svg+xml</dc:format><dc:type
           rdf:resource="http://purl.org/dc/dcmitype/StillImage" /><dc:title></dc:title></cc:Work></rdf:RDF></metadata><defs
     id="defs7" /><sodipodi:namedview
     pagecolor="#ffffff"
     bordercolor="#666666"
     borderopacity="1"
     objecttolerance="10"
     gridtolerance="10"
     guidetolerance="10"
     inkscape:pageopacity="0"
     inkscape:pageshadow="2"
     inkscape:window-width="2560"
     inkscape:window-height="1383"
     id="namedview5"
     showgrid="false"
     inkscape:zoom="6.988572"
     inkscape:cx="0.53016846"
     inkscape:cy="16.497609"
     inkscape:window-x="0"
     inkscape:window-y="0"
     inkscape:window-maximized="1"
     inkscape:current-layer="Layer_1" /><g
     id="g839"
     transform="matrix(0.62144112,0,0,0.62144112,-1.4461074,17.197126)"><path
       sodipodi:nodetypes="csssccssscccccccsccssccsscccccccsccsscccssssccsssccsscccccsccssccss"
       inkscape:connector-curvature="0"
       id="path2"
       d="M 18.660836,18.339521 C 14.7371,21.560393 8.9147829,21.34119 5.2512627,17.67767 c -3.8989868,-3.898987 -3.8989868,-10.243149 0,-14.142136 3.8989867,-3.898987 10.2431483,-3.898987 14.1421353,0 3.152989,3.152989 3.753323,7.90404 1.807365,11.668676 -0.544472,-0.622254 -0.982171,-1.337139 -1.279863,-2.12132 0.897318,-2.771152 0.255265,-5.936162 -1.941715,-8.133143 -3.119048,-3.119048 -8.1946608,-3.119048 -11.3137088,0 -3.119048,3.119048 -3.119048,8.194661 0,11.313709 2.9295434,2.929543 7.5851348,3.10632 10.7239818,0.533158 0.377595,0.551544 0.801859,1.069146 1.271378,1.542907 z M 21.39946,4.414468 C 21.023279,3.862924 20.60043,3.343908 20.130204,2.869439 23.254201,0.308299 27.576745,-0.065761 31.058539,1.733119 30.435578,2.27547 29.723521,2.71034 28.950654,3.005204 26.418504,2.181424 23.553307,2.650943 21.39946,4.414468 Z m 10.72186,11.848988 c 2.930251,-2.930251 3.10632,-7.586549 0.531038,-10.726103 0.550836,-0.375473 1.067731,-0.79903 1.544321,-1.269964 3.222285,3.92515 3.002375,9.74676 -0.661145,13.410281 -3.898987,3.898986 -10.243149,3.898986 -14.142136,0 -3.152989,-3.15299 -3.753323,-7.90404 -1.807365,-11.668677 0.545887,0.625083 0.980757,1.34421 1.277742,2.127685 -0.89449,2.769737 -0.251023,5.931919 1.943837,8.126778 3.119048,3.119048 8.19466,3.119048 11.313708,0 z M 21.945347,5.285623 c 0.608111,-0.516188 1.296126,-0.935502 2.049195,-1.220466 2.534271,0.81883 5.389568,0.333754 7.53988,-1.43472 0.359917,0.526795 0.760847,1.032376 1.216223,1.499067 0.0198,0.0198 0.04172,0.03748 0.06152,0.05728 -3.081572,2.535685 -7.334112,2.942979 -10.7954,1.225416 -0.02404,-0.04243 -0.04879,-0.08414 -0.07142,-0.126572 z m 11.590187,-15.892225 c 3.147332,3.147333 3.750494,7.887069 1.816557,11.64817 -0.556493,-0.638517 -0.987828,-1.356938 -1.278449,-2.13122 0.882469,-2.763373 0.236174,-5.914241 -1.952322,-8.102736 -3.119048,-3.119048 -8.19466,-3.119048 -11.313708,0 -2.928836,2.928836 -3.107027,7.583013 -0.534573,10.722567 -0.302642,0.206475 -0.593262,0.430628 -0.873984,0.66468 -0.589727,-0.496389 -1.217638,-0.924895 -1.876661,-1.277034 -1.858984,-3.742717 -1.242387,-8.411036 1.871004,-11.524427 3.898987,-3.898987 10.243149,-3.898987 14.142136,0 z M 47.67767,-24.748737 c 3.898986,3.898986 3.898986,10.243148 0,14.142135 -3.151575,3.151575 -7.900505,3.752616 -11.664434,1.808779 0.628618,-0.548007 1.34916,-0.98005 2.132634,-1.277034 2.766909,0.891661 5.924848,0.24678 8.117586,-1.945958 3.119048,-3.119048 3.119048,-8.194661 0,-11.313709 -3.119048,-3.119048 -8.194661,-3.119048 -11.313709,0 -2.928129,2.928129 -3.107027,7.580185 -0.536694,10.719032 -0.550836,0.375474 -1.064902,0.804687 -1.540078,1.274206 -3.220872,-3.923735 -3.000254,-9.744638 0.662559,-13.407451 3.898987,-3.898987 10.243149,-3.898987 14.142136,0 z m -12.130417,15.03804 c -0.377595,-0.555786 -0.806102,-1.074803 -1.279156,-1.553514 3.125412,-2.566798 7.452905,-2.951464 10.938234,-1.149049 -0.622254,0.544473 -1.33926,0.981465 -2.123441,1.279157 -2.531443,-0.820244 -5.384618,-0.338705 -7.535637,1.423406 z M 46.263456,2.12132 c 2.93025,-2.93025 3.107027,-7.585841 0.531744,-10.725395 0.551544,-0.377595 1.067024,-0.802567 1.541493,-1.272793 3.224407,3.924443 3.005204,9.748175 -0.659023,13.412402 -3.898987,3.898987 -10.243149,3.898987 -14.142136,0 -3.154403,-3.154403 -3.75403,-7.907575 -1.805244,-11.673626 0.547301,0.626497 0.979343,1.348453 1.276328,2.130513 -0.895904,2.769737 -0.252437,5.933333 1.943129,8.128899 3.119048,3.119048 8.194661,3.119048 11.313709,0 z" /></g></svg>