<?xml version="1.0" encoding="UTF-8" standalone="no"?>
<svg xmlns="http://www.w3.org/2000/svg" viewBox="0 0 32 32">
   <path style="fill:currentColor;fill-rule:nonzero;stroke:none;stroke-width:1" d="M 24.125 0.0390625 C 22.836953 0.0390625 21.548001 0.57864468 20.568359 1.65625 L 19.605469 2.7167969 A 0.87700704 0.87700704 0 0 0 19.474609 2.8359375 L 14.587891 8.2382812 A 0.87700704 0.87700704 0 0 0 14.529297 8.3027344 L 14.474609 8.3613281 L 14.482422 8.3691406 A 0.87700704 0.87700704 0 0 0 15.888672 9.4140625 L 20.775391 4.0117188 A 0.87700704 0.87700704 0 0 0 20.904297 3.8300781 L 21.724609 2.9277344 C 23.048939 1.4709716 25.201061 1.4709716 26.525391 2.9277344 L 27.570312 4.078125 C 28.894642 5.5348878 28.894643 7.9026122 27.570312 9.359375 L 26.875 10.125 A 0.8664663 0.8664663 0 0 0 26.730469 10.253906 L 21.902344 15.591797 A 0.8664663 0.8664663 0 0 0 21.837891 15.667969 L 21.810547 15.697266 L 21.814453 15.701172 A 0.8664663 0.8664663 0 0 0 23.1875 16.751953 L 28.015625 11.416016 A 0.8664663 0.8664663 0 0 0 28.091797 11.320312 L 28.720703 10.628906 C 29.670108 9.5845603 30.195313 8.1954685 30.195312 6.71875 C 30.195312 5.2420316 29.675967 3.8509865 28.726562 2.8066406 L 27.679688 1.65625 C 26.700046 0.57864468 25.413047 0.0390625 24.125 0.0390625 z " />
   <path d="m 7.0791946,29.911009 c 1.288047,0 2.576999,-0.539582 3.5566414,-1.617188 l 0.96289,-1.060547 a 0.87700704,0.87700704 0 0 0 0.13086,-0.11914 l 4.886718,-5.402344 a 0.87700704,0.87700704 0 0 0 0.05859,-0.06445 l 0.05469,-0.05859 -0.0078,-0.0078 a 0.87700704,0.87700704 0 0 0 -1.40625,-1.044921 l -4.886719,5.402344 a 0.87700704,0.87700704 0 0 0 -0.128906,0.18164 l -0.8203124,0.902344 c -1.32433,1.456763 -3.476452,1.456763 -4.800782,0 l -1.044921,-1.150391 c -1.3243304,-1.456762 -1.3243314,-3.824487 0,-5.28125 l 0.695312,-0.765625 a 0.8664663,0.8664663 0 0 0 0.144531,-0.128906 l 4.828125,-5.337891 a 0.8664663,0.8664663 0 0 0 0.06445,-0.07617 l 0.02734,-0.0293 -0.0039,-0.0039 A 0.8664663,0.8664663 0 0 0 8.0167046,13.198143 L 3.1885792,18.53408 a 0.8664663,0.8664663 0 0 0 -0.07617,0.0957 l -0.628906,0.691406 c -0.949405,1.044346 -1.4746101,2.433438 -1.4746091,3.910156 0,1.476719 0.5193451,2.867764 1.4687501,3.91211 l 1.046862,1.150369 c 0.9796424,1.077606 2.2666414,1.617188 3.5546884,1.617188 z" style="fill:currentColor;fill-rule:nonzero;stroke:none;stroke-width:1" />
   <path style="color:currentColor;font-style:normal;font-variant:normal;font-weight:normal;font-stretch:normal;font-size:medium;line-height:normal;font-family:sans-serif;font-variant-ligatures:normal;font-variant-position:normal;font-variant-caps:normal;font-variant-numeric:normal;font-variant-alternates:normal;font-feature-settings:normal;text-indent:0;text-align:start;text-decoration:none;text-decoration-line:none;text-decoration-style:solid;text-decoration-color:#000000;letter-spacing:normal;word-spacing:normal;text-transform:none;writing-mode:lr-tb;direction:ltr;text-orientation:mixed;dominant-baseline:auto;baseline-shift:baseline;text-anchor:start;white-space:normal;shape-padding:0;clip-rule:nonzero;display:inline;overflow:visible;visibility:visible;opacity:1;isolation:auto;mix-blend-mode:normal;color-interpolation:sRGB;color-interpolation-filters:linearRGB;solid-color:#000000;solid-opacity:1;vector-effect:none;fill:currentColor;fill-opacity:1;fill-rule:nonzero;stroke:none;stroke-width:1.65169573;stroke-linecap:round;stroke-linejoin:miter;stroke-miterlimit:4;stroke-dasharray:none;stroke-dashoffset:0;stroke-opacity:1;color-rendering:auto;image-rendering:auto;shape-rendering:auto;text-rendering:auto;enable-background:accumulate" d="M 7.9717693,9.3202444 C 7.8121981,9.1359514 7.5793634,9.0315646 7.3356118,9.0350357 l -3.5046697,0.00335 c -1.1463206,-0.046226 -1.1452426,1.6981203 0.00102,1.6504773 l 3.5058095,-0.0021 c 0.7120757,0.0083 1.1001497,-0.8281777 0.6339947,-1.3665266 z" />
   <path d="M 8.3787311,6.7456252 C 8.396212,6.5024765 8.3053856,6.2640249 8.1305728,6.0941209 L 4.8953565,2.8636422 C 4.1174722,2.0203845 2.8847951,3.254586 3.7290139,4.0314274 l 3.2351383,3.2321685 c 0.4976446,0.5093825 1.3635336,0.192313 1.4145824,-0.5179785 z" style="color:#000000;font-style:normal;font-variant:normal;font-weight:normal;font-stretch:normal;font-size:medium;line-height:normal;font-family:sans-serif;font-variant-ligatures:normal;font-variant-position:normal;font-variant-caps:normal;font-variant-numeric:normal;font-variant-alternates:normal;font-feature-settings:normal;text-indent:0;text-align:start;text-decoration:none;text-decoration-line:none;text-decoration-style:solid;text-decoration-color:#000000;letter-spacing:normal;word-spacing:normal;text-transform:none;writing-mode:lr-tb;direction:ltr;text-orientation:mixed;dominant-baseline:auto;baseline-shift:baseline;text-anchor:start;white-space:normal;shape-padding:0;clip-rule:nonzero;display:inline;overflow:visible;visibility:visible;opacity:1;isolation:auto;mix-blend-mode:normal;color-interpolation:sRGB;color-interpolation-filters:linearRGB;solid-color:#000000;solid-opacity:1;vector-effect:none;fill:currentColor;fill-opacity:1;fill-rule:nonzero;stroke:none;stroke-width:1.65169573;stroke-linecap:round;stroke-linejoin:miter;stroke-miterlimit:4;stroke-dasharray:none;stroke-dashoffset:0;stroke-opacity:1;color-rendering:auto;image-rendering:auto;shape-rendering:auto;text-rendering:auto;enable-background:accumulate"/>
   <path d="m 11.996012,7.4737915 c 0.184293,-0.159571 0.28868,-0.392406 0.285209,-0.636157 l -0.0033,-3.5046698 c 0.04623,-1.1463206 -1.698121,-1.1452426 -1.650478,0.00102 l 0.0021,3.5058098 c -0.0083,0.712075 0.828178,1.100149 1.366527,0.633994 z" style="color:#000000;font-style:normal;font-variant:normal;font-weight:normal;font-stretch:normal;font-size:medium;line-height:normal;font-family:sans-serif;font-variant-ligatures:normal;font-variant-position:normal;font-variant-caps:normal;font-variant-numeric:normal;font-variant-alternates:normal;font-feature-settings:normal;text-indent:0;text-align:start;text-decoration:none;text-decoration-line:none;text-decoration-style:solid;text-decoration-color:#000000;letter-spacing:normal;word-spacing:normal;text-transform:none;writing-mode:lr-tb;direction:ltr;text-orientation:mixed;dominant-baseline:auto;baseline-shift:baseline;text-anchor:start;white-space:normal;shape-padding:0;clip-rule:nonzero;display:inline;overflow:visible;visibility:visible;opacity:1;isolation:auto;mix-blend-mode:normal;color-interpolation:sRGB;color-interpolation-filters:linearRGB;solid-color:#000000;solid-opacity:1;vector-effect:none;fill:currentColor;fill-opacity:1;fill-rule:nonzero;stroke:none;stroke-width:1.65169573;stroke-linecap:round;stroke-linejoin:miter;stroke-miterlimit:4;stroke-dasharray:none;stroke-dashoffset:0;stroke-opacity:1;color-rendering:auto;image-rendering:auto;shape-rendering:auto;text-rendering:auto;enable-background:accumulate"/>
   <g transform="rotate(180,23.880985,22.673736)">
      <path style="color:#000000;font-style:normal;font-variant:normal;font-weight:normal;font-stretch:normal;font-size:medium;line-height:normal;font-family:sans-serif;font-variant-ligatures:normal;font-variant-position:normal;font-variant-caps:normal;font-variant-numeric:normal;font-variant-alternates:normal;font-feature-settings:normal;text-indent:0;text-align:start;text-decoration:none;text-decoration-line:none;text-decoration-style:solid;text-decoration-color:#000000;letter-spacing:normal;word-spacing:normal;text-transform:none;writing-mode:lr-tb;direction:ltr;text-orientation:mixed;dominant-baseline:auto;baseline-shift:baseline;text-anchor:start;white-space:normal;shape-padding:0;clip-rule:nonzero;display:inline;overflow:visible;visibility:visible;opacity:1;isolation:auto;mix-blend-mode:normal;color-interpolation:sRGB;color-interpolation-filters:linearRGB;solid-color:#000000;solid-opacity:1;vector-effect:none;fill:currentColor;fill-opacity:1;fill-rule:nonzero;stroke:none;stroke-width:1.65169573;stroke-linecap:round;stroke-linejoin:miter;stroke-miterlimit:4;stroke-dasharray:none;stroke-dashoffset:0;stroke-opacity:1;color-rendering:auto;image-rendering:auto;shape-rendering:auto;text-rendering:auto;enable-background:accumulate" d="m 20.07957,26.566164 c 0.159571,0.184293 0.392406,0.28868 0.636157,0.285209 l 3.50467,-0.0034 c 1.14632,0.04623 1.145242,-1.698121 -10e-4,-1.650478 l -3.50581,0.0021 c -0.712075,-0.0083 -1.100149,0.828178 -0.633994,1.366527 z" />
      <path d="m 20.351816,19.509955 c -0.01748,0.243149 0.07334,0.4816 0.248158,0.651504 l 3.235216,3.230479 c 0.777885,0.843258 2.010562,-0.390944 1.166343,-1.167785 l -3.235138,-3.232169 c -0.497645,-0.509382 -1.363534,-0.192313 -1.414583,0.517979 z" style="color:#000000;font-style:normal;font-variant:normal;font-weight:normal;font-stretch:normal;font-size:medium;line-height:normal;font-family:sans-serif;font-variant-ligatures:normal;font-variant-position:normal;font-variant-caps:normal;font-variant-numeric:normal;font-variant-alternates:normal;font-feature-settings:normal;text-indent:0;text-align:start;text-decoration:none;text-decoration-line:none;text-decoration-style:solid;text-decoration-color:#000000;letter-spacing:normal;word-spacing:normal;text-transform:none;writing-mode:lr-tb;direction:ltr;text-orientation:mixed;dominant-baseline:auto;baseline-shift:baseline;text-anchor:start;white-space:normal;shape-padding:0;clip-rule:nonzero;display:inline;overflow:visible;visibility:visible;opacity:1;isolation:auto;mix-blend-mode:normal;color-interpolation:sRGB;color-interpolation-filters:linearRGB;solid-color:#000000;solid-opacity:1;vector-effect:none;fill:currentColor;fill-opacity:1;fill-rule:nonzero;stroke:none;stroke-width:1.65169573;stroke-linecap:round;stroke-linejoin:miter;stroke-miterlimit:4;stroke-dasharray:none;stroke-dashoffset:0;stroke-opacity:1;color-rendering:auto;image-rendering:auto;shape-rendering:auto;text-rendering:auto;enable-background:accumulate"/>
      <path d="m 27.816423,18.838531 c -0.184293,0.159571 -0.28868,0.392406 -0.285209,0.636157 l 0.0033,3.50467 c -0.04623,1.14632 1.698121,1.145242 1.650478,-0.001 l -0.0021,-3.50581 c 0.0083,-0.712075 -0.828178,-1.100149 -1.366527,-0.633994 z" style="color:#000000;font-style:normal;font-variant:normal;font-weight:normal;font-stretch:normal;font-size:medium;line-height:normal;font-family:sans-serif;font-variant-ligatures:normal;font-variant-position:normal;font-variant-caps:normal;font-variant-numeric:normal;font-variant-alternates:normal;font-feature-settings:normal;text-indent:0;text-align:start;text-decoration:none;text-decoration-line:none;text-decoration-style:solid;text-decoration-color:#000000;letter-spacing:normal;word-spacing:normal;text-transform:none;writing-mode:lr-tb;direction:ltr;text-orientation:mixed;dominant-baseline:auto;baseline-shift:baseline;text-anchor:start;white-space:normal;shape-padding:0;clip-rule:nonzero;display:inline;overflow:visible;visibility:visible;opacity:1;isolation:auto;mix-blend-mode:normal;color-interpolation:sRGB;color-interpolation-filters:linearRGB;solid-color:#000000;solid-opacity:1;vector-effect:none;fill:currentColor;fill-opacity:1;fill-rule:nonzero;stroke:none;stroke-width:1.65169573;stroke-linecap:round;stroke-linejoin:miter;stroke-miterlimit:4;stroke-dasharray:none;stroke-dashoffset:0;stroke-opacity:1;color-rendering:auto;image-rendering:auto;shape-rendering:auto;text-rendering:auto;enable-background:accumulate"/>
   </g>
</svg>