<?xml version="1.0" encoding="UTF-8"?>
<svg width="30px" height="30px" viewBox="0 0 30 30" version="1.1" xmlns="http://www.w3.org/2000/svg" xmlns:xlink="http://www.w3.org/1999/xlink">
    <!-- Generator: Sketch 55.2 (78181) - https://sketchapp.com -->
    <title>wallet</title>
    <desc>Created with Sketch.</desc>
    <g id="Page-1" stroke="none" stroke-width="1" fill="none" fill-rule="evenodd">
        <g id="Mobile" transform="translate(-170.000000, -950.000000)" fill="#000000" fill-rule="nonzero">
            <g id="wallet" transform="translate(170.000000, 950.000000)">
                <path d="M28.2971311,13.0392857 L27.5840164,13.0392857 L27.5840164,8.06071429 C27.5840164,6.025 26.1577869,4.375 24.4118852,4.375 L23.7540984,4.375 L23.7602459,2.525 C23.7602459,1.15357143 22.8012295,0.0392857143 21.6209016,0.0392857143 L2.60040984,0.0392857143 C1.18032787,0.0392857143 0.018442623,1.36785714 0,3.01785714 C0,3.03214286 0,3.04642857 0,3.06071429 L0,27.4464286 C0,28.8178571 0.959016393,29.9321429 2.13934426,29.9321429 L24.4180328,29.9321429 C26.170082,29.9321429 27.5901639,28.275 27.5901639,26.2464286 L27.5901639,21.2607143 L28.3032787,21.2607143 C29.2254098,21.2607143 29.9754098,20.3892857 29.9754098,19.3178571 L29.9754098,14.9821429 C29.9692623,13.9107143 29.2192623,13.0392857 28.2971311,13.0392857 Z M2.60040984,1.75357143 L21.6209016,1.75357143 C21.9836066,1.75357143 22.2848361,2.09642857 22.2848361,2.51785714 L22.2786885,4.375 L2.60040984,4.375 C1.9795082,4.375 1.47540984,3.78928571 1.47540984,3.06785714 C1.47540984,2.34642857 1.9795082,1.75357143 2.60040984,1.75357143 Z M26.1086066,26.2392857 C26.1086066,27.325 25.3463115,28.2107143 24.4118852,28.2107143 L2.13319672,28.2107143 C1.7704918,28.2107143 1.4692623,27.8678571 1.4692623,27.4392857 L1.4692623,5.78928571 C1.81352459,5.98214286 2.19467213,6.08928571 2.60040984,6.08928571 L24.4118852,6.08928571 C25.3463115,6.08928571 26.1086066,6.975 26.1086066,8.06071429 L26.1086066,13.0392857 L21.0737705,13.0392857 C20.1516393,13.0392857 19.4016393,13.9107143 19.4016393,14.9821429 L19.4016393,19.3178571 C19.4016393,20.3892857 20.1516393,21.2607143 21.0737705,21.2607143 L26.1086066,21.2607143 L26.1086066,26.2392857 Z M28.4938525,19.3178571 C28.4938525,19.4464286 28.4077869,19.5464286 28.2971311,19.5464286 L21.079918,19.5464286 C20.9692623,19.5464286 20.8831967,19.4464286 20.8831967,19.3178571 L20.8831967,14.9821429 C20.8831967,14.8607143 20.9692623,14.7535714 21.079918,14.7535714 L28.2971311,14.7535714 C28.4016393,14.7535714 28.4938525,14.8535714 28.4938525,14.9821429 L28.4938525,19.3178571 L28.4938525,19.3178571 Z" id="Shape"></path>
            </g>
        </g>
    </g>
</svg>